<?xml version="1.0" encoding="UTF-8"?>
<svg id="Layer_1" data-name="Layer 1" xmlns="http://www.w3.org/2000/svg" viewBox="0 0 349.62 90.88">
  <defs>
    <style>
      .cls-1 {
        fill: #b3e2f2;
      }

      .cls-2 {
        fill: #e3f7fc;
      }

      .cls-3 {
        fill: #9fdaed;
      }

      .cls-4 {
        fill: #cbedfa;
      }
    </style>
  </defs>
  <g>
    <path class="cls-3" d="m19.69,68.62c12.62,12.11,27.32,21.19,32.42,22.14,7.81,1.46,27.55-11.27,29.44-18.98,1.25-5.02-.96-22.06-6.73-38.52-3.37-9.62-7.98-19.01-13.83-25.7-12.32-14.07-29.92-5.08-37.14-.4-2.25,1.47-4.5,2.92-6.75,4.35C9.85,16.17-5.62,28.5,2.11,45.53c3.64,8.04,10.27,16.08,17.58,23.09Z"/>
    <path class="cls-1" d="m19.69,68.62c10.52,8.07,20.86,13.54,25.13,14.13,8.29,1.15,30.06-12.88,32.44-20.91,1.22-4.1.53-15.72-2.44-28.57-3.37-9.62-7.98-19.01-13.83-25.7-12.32-14.07-29.92-5.08-37.14-.4-2.25,1.47-4.5,2.92-6.75,4.35C9.85,16.17-5.62,28.5,2.11,45.53c3.64,8.04,10.27,16.08,17.58,23.09Z"/>
    <path class="cls-4" d="m58.55,68.43l.36-.23c7.65-4.95,11.78-13.85,10.64-22.89h0c-1.21-9.52-4.04-18.81-8.69-27.21-2.03-3.67-4.18-6.82-6.41-9.36-4.44-5.07-12.99-9.01-28.52,1-2.48,1.6-4.83,3.12-7.29,4.7C3.03,24.48,3.09,33.9,5.87,40.03c1.64,3.62,4.1,7.51,7.28,11.52,5.45,6.88,12.19,12.63,19.66,17.24h0c7.84,4.84,17.76,4.75,25.51-.23l.22-.14Z"/>
    <path class="cls-2" d="m46.02,9.16c.98-.25.89-1.7-.11-1.84-3.17-.47-6.66.03-9.58.95-4.38,1.32-8.31,3.75-11.83,6.02-3.52,2.26-7.34,4.83-10.38,8.24-2.05,2.25-3.98,5.22-4.91,8.3-.29.97.97,1.66,1.62.89,4.6-5.52,11.15-8.89,16.81-12.55,5.78-3.73,11.52-8.22,18.37-10Z"/>
  </g>
  <g>
    <path class="cls-3" d="m329.93,68.62c-12.62,12.11-27.32,21.19-32.42,22.14-7.81,1.46-27.55-11.27-29.44-18.98-1.25-5.02.96-22.06,6.73-38.52,3.37-9.62,7.98-19.01,13.83-25.7,12.32-14.07,29.92-5.08,37.14-.4,2.25,1.47,4.5,2.92,6.75,4.35,7.25,4.65,22.72,16.97,14.99,34-3.64,8.04-10.27,16.08-17.58,23.09Z"/>
    <path class="cls-1" d="m329.93,68.62c-10.52,8.07-20.86,13.54-25.13,14.13-8.29,1.15-30.06-12.88-32.44-20.91-1.22-4.1-.53-15.72,2.44-28.57,3.37-9.62,7.98-19.01,13.83-25.7,12.32-14.07,29.92-5.08,37.14-.4,2.25,1.47,4.5,2.92,6.75,4.35,7.25,4.65,22.72,16.97,14.99,34-3.64,8.04-10.27,16.08-17.58,23.09Z"/>
    <path class="cls-4" d="m291.07,68.43l-.36-.23c-7.65-4.95-11.78-13.85-10.64-22.89h0c1.21-9.52,4.04-18.81,8.69-27.21,2.03-3.67,4.18-6.82,6.41-9.36,4.44-5.07,12.99-9.01,28.52,1,2.48,1.6,4.83,3.12,7.29,4.7,15.6,10.06,15.54,19.48,12.76,25.61-1.64,3.62-4.1,7.51-7.28,11.52-5.45,6.88-12.19,12.63-19.66,17.24h0c-7.84,4.84-17.76,4.75-25.51-.23l-.22-.14Z"/>
    <path class="cls-2" d="m303.6,9.16c-.98-.25-.89-1.7.11-1.84,3.17-.47,6.66.03,9.58.95,4.38,1.32,8.31,3.75,11.83,6.02,3.52,2.26,7.34,4.83,10.38,8.24,2.05,2.25,3.98,5.22,4.91,8.3.29.97-.98,1.66-1.62.89-4.6-5.52-11.15-8.89-16.81-12.55-5.78-3.73-11.52-8.22-18.37-10Z"/>
  </g>
</svg>