<?xml version="1.0" encoding="UTF-8"?>
<svg id="Layer_1" data-name="Layer 1" xmlns="http://www.w3.org/2000/svg" viewBox="0 0 591.9 703.37">
  <defs>
    <style>
      .cls-1 {
        fill: #b3e2f2;
      }

      .cls-2 {
        fill: #e3f7fc;
      }

      .cls-3 {
        fill: #9fdaed;
      }

      .cls-4 {
        fill: #cbedfa;
      }
    </style>
  </defs>
  <g>
    <path class="cls-3" d="m104.16,40.41c-2.79-6.89-6.84-13.27-12.57-18.01-9.04-7.49-22.16-15.2-33.58-18.15-5.18-1.34-10.87-1.38-15.67.98C18.08,17.14-5.49,75.57,17.62,93.83c7.64,6.04,25.49,11.89,35.16,13.09,6.08.76,17.12,2.28,23.02.62,19.46-5.48,36.28-47.54,28.36-67.13Z"/>
    <path class="cls-1" d="m95.99,37.08c-2.79-6.89-6.84-13.27-12.57-18.01C74.38,11.58,61.26,3.87,49.84.92c-5.18-1.34-10.87-1.38-15.67.98C9.91,13.81-13.66,72.23,9.45,90.49c7.64,6.04,25.49,11.89,35.16,13.09,6.08.76,17.12,2.28,23.02.62,19.46-5.48,36.28-47.54,28.36-67.13Z"/>
    <path class="cls-4" d="m88.34,47.38c.64,12.67-5.64,29.18-12.89,38.18-9.82,12.17-23.06,15.19-38.24,10.12-7.51-2.5-14.37-6.6-21.17-10.66-9.67-5.78-12.54-9.44-11.04-20.4,2.36-17.21,9.14-33.8,19.52-47.73,3.05-4.1,6.86-8.23,11.91-8.99,3.78-.57,7.54.87,11.05,2.4,10.25,4.45,19.6,10.09,29.11,15.88,3.66,2.23,5.91,3.35,8.06,7.37,2.27,4.26,3.42,9.02,3.69,13.82Z"/>
    <path class="cls-3" d="m52.39,40.86c.96-1.91,2.31-3.61,3.3-5.51,1-1.9,1.64-4.12,1.03-6.18-.6-2.05-2.8-3.72-4.86-3.14-2.1.59-3.04,2.97-3.66,5.06-1.45,4.94-2.76,10.03-5.57,14.34-2.81,4.31-7.49,7.8-12.64,7.65-2.58-.08-5.71-.85-7.32,1.17-1.52,1.89-.19,4.91,1.93,6.11,2.12,1.2,4.67,1.18,7.09,1.45,2.42.27,5.05,1.03,6.3,3.12,1.27,2.14.61,4.92-.56,7.12-1.17,2.2-2.82,4.16-3.59,6.53-.78,2.37-.36,5.42,1.81,6.65,2.69,1.52,6.15-.81,7.32-3.67s.91-6.08,1.47-9.12c.56-3.04,2.47-6.3,5.55-6.61,3.75-.38,6.69,3.79,10.46,3.8,1.9,0,3.75-1.18,4.54-2.92s.46-3.91-.79-5.34c-2.85-3.24-8.39-2.46-11.26-5.77-3.21-3.7-2.57-10.72-.55-14.75Z"/>
    <path class="cls-2" d="m21.36,82.38c1.97.36,3.3-1.99,2.01-3.51-2.53-2.97-5-5.59-5.46-7.16-1.1-3.7-1.5-6.72-1.6-9.61-.07-2.08-2.73-2.87-3.91-1.16,0,.01-.02.03-.03.04-1.45,2.16-2.43,5.14-2.5,8.51-.02,3.72,1.03,6.81,3.9,9.3,2.05,1.78,4.76,3.07,7.59,3.59Z"/>
    <path class="cls-2" d="m41.21,21.42c1.28-1.2.52-3.33-1.21-3.54-.94-.11-1.83-.14-2.42-.07-7.18.9-14.8,10.03-15.66,20.11-.17,1.93,2.11,3.05,3.51,1.71,6.06-5.82,11.37-14.07,15.79-18.22Z"/>
    <path class="cls-2" d="m53.1,87.93c-1.96.97-.87,3.91,1.28,3.51,8.9-1.68,18.29-8.97,23.68-22.29,1.27-3.42,2.5-6.78,3.2-10.52.57-3.72.9-7.58.1-11.4-.8-4.19-2.55-7.75-4.82-10.52-1.41-1.72-4.06-.06-3.18,1.98,1.28,2.99,1.92,6.13,1.95,9.22.26,6.64-2.65,13.63-4.4,18.28-3.82,9.45-9.52,17.63-17.81,21.74Z"/>
  </g>
  <g>
    <path class="cls-3" d="m487.74,40.41c2.79-6.89,6.84-13.27,12.57-18.01,9.04-7.49,22.16-15.2,33.58-18.15,5.18-1.34,10.87-1.38,15.67.98,24.26,11.91,47.83,70.34,24.72,88.6-7.64,6.04-25.49,11.89-35.16,13.09-6.08.76-17.12,2.28-23.02.62-19.46-5.48-36.28-47.54-28.36-67.13Z"/>
    <path class="cls-1" d="m495.91,37.08c2.79-6.89,6.84-13.27,12.57-18.01,9.04-7.49,22.16-15.2,33.58-18.15,5.18-1.34,10.87-1.38,15.67.98,24.26,11.92,47.83,70.34,24.72,88.6-7.64,6.04-25.49,11.89-35.16,13.09-6.08.76-17.12,2.28-23.02.62-19.46-5.48-36.28-47.54-28.36-67.13Z"/>
    <path class="cls-4" d="m503.56,47.38c-.64,12.67,5.64,29.18,12.89,38.18,9.82,12.17,23.06,15.19,38.24,10.12,7.51-2.5,14.37-6.6,21.17-10.66,9.67-5.78,12.54-9.44,11.04-20.4-2.36-17.21-9.14-33.8-19.52-47.73-3.05-4.1-6.86-8.23-11.91-8.99-3.78-.57-7.54.87-11.05,2.4-10.25,4.45-19.6,10.09-29.11,15.88-3.66,2.23-5.91,3.35-8.06,7.37-2.27,4.26-3.42,9.02-3.69,13.82Z"/>
    <path class="cls-3" d="m539.52,40.86c-.96-1.91-2.31-3.61-3.3-5.51-1-1.9-1.64-4.12-1.03-6.18.6-2.05,2.8-3.72,4.86-3.14,2.1.59,3.04,2.97,3.66,5.06,1.45,4.94,2.76,10.03,5.57,14.34s7.49,7.8,12.64,7.65c2.58-.08,5.71-.85,7.32,1.17,1.52,1.89.19,4.91-1.93,6.11-2.12,1.2-4.67,1.18-7.09,1.45-2.42.27-5.05,1.03-6.3,3.12-1.27,2.14-.61,4.92.56,7.12,1.17,2.2,2.82,4.16,3.59,6.53.78,2.37.36,5.42-1.81,6.65-2.69,1.52-6.15-.81-7.32-3.67-1.17-2.86-.91-6.08-1.47-9.12-.56-3.04-2.47-6.3-5.55-6.61-3.75-.38-6.69,3.79-10.46,3.8-1.9,0-3.75-1.18-4.54-2.92s-.46-3.91.79-5.34c2.85-3.24,8.39-2.46,11.26-5.77,3.21-3.7,2.57-10.72.55-14.75Z"/>
    <path class="cls-2" d="m570.54,82.38c-1.97.36-3.3-1.99-2.01-3.51,2.53-2.97,5-5.59,5.46-7.16,1.1-3.7,1.5-6.72,1.6-9.61.07-2.08,2.73-2.87,3.91-1.16,0,.01.02.03.03.04,1.45,2.16,2.43,5.14,2.5,8.51.02,3.72-1.03,6.81-3.9,9.3-2.05,1.78-4.76,3.07-7.59,3.59Z"/>
    <path class="cls-2" d="m550.69,21.42c-1.28-1.2-.52-3.33,1.21-3.54.94-.11,1.83-.14,2.42-.07,7.18.9,14.8,10.03,15.66,20.11.17,1.93-2.11,3.05-3.51,1.71-6.06-5.82-11.37-14.07-15.79-18.22Z"/>
    <path class="cls-2" d="m538.81,87.93c1.96.97.87,3.91-1.28,3.51-8.9-1.68-18.29-8.97-23.68-22.29-1.27-3.42-2.5-6.78-3.2-10.52-.57-3.72-.9-7.58-.1-11.4.8-4.19,2.55-7.75,4.82-10.52,1.41-1.72,4.06-.06,3.18,1.98-1.28,2.99-1.92,6.13-1.95,9.22-.26,6.64,2.65,13.63,4.4,18.28,3.82,9.45,9.52,17.63,17.81,21.74Z"/>
  </g>
  <g>
    <path class="cls-3" d="m31.62,484.7s40.48-17.59,59.76-.29c15.56,13.96,31.38,46.35,17.85,68.23-13.53,21.88-44.33,25.91-52.11,23.32-7.77-2.59-25.04-14.97-31.95-40.3-6.91-25.33-5.82-44.62,6.45-50.95Z"/>
    <path class="cls-1" d="m25.96,486.72s40.48-17.59,59.76-.29c15.56,13.96,31.38,46.35,17.85,68.23-13.53,21.88-44.33,25.91-52.11,23.32s-25.05-14.97-31.95-40.3c-6.91-25.33-5.82-44.62,6.45-50.95Z"/>
    <path class="cls-4" d="m57.27,569.11c10.1,0,29.4-5.29,38.18-19.48,5.77-9.33,3.76-20.94,1.05-29.02-3.44-10.29-10.02-20.66-17.15-27.06-3.83-3.43-9.68-5.18-17.39-5.18-14.31,0-29.46,5.99-31.86,6.98-6.52,3.75-7.05,18.93-1.35,39.81,6.27,22.98,21.9,32.47,25.75,33.75h0s.85.2,2.78.2Z"/>
    <path class="cls-3" d="m76.4,533.57c1.06.46,2.18.87,3.01,1.67.83.8,1.27,2.15.66,3.13-.99,1.59-3.44.88-5.22,1.47-1.92.63-2.89,2.75-3.48,4.69-1.37,4.43-2.29,6.26-7.21,6.19-2.36-.03-5.19-.65-5.98-2.88-.52-1.47.09-3.07.56-4.56,3.69-11.77.58-19.6-10.53-25-1.19-.58-2.45-1.08-3.4-1.99-.95-.91-1.53-2.39-.96-3.58.79-1.65,3.16-1.77,4.86-1.09,1.7.68,3.23,1.89,5.05,2.1,4.67.55,6.03-8.27,11.6-6,.52.21,1.78,3.03.63,5.18-1.6,3-3.37,3.97.15,12.49,2.38,5.75,4.54,5.69,10.27,8.19Z"/>
    <path class="cls-2" d="m78.01,505.76c1.02.64,2.27-.35,1.89-1.49-1.71-5.16-8.01-9.75-15.71-8.84-1.25.13-2.73.52-4.15,1.13-1.09.47-.97,2.08.18,2.39,4.36,1.21,10.51,2.22,17.79,6.81Z"/>
    <path class="cls-2" d="m33.1,521.67c.7.92,2.18.53,2.31-.61.34-2.97.2-6.04.03-9.04-.23-3.99-.4-6.08.36-7.75.47-1.02-.57-2.12-1.61-1.7-1.18.47-2.35,1.47-3.22,3.1-2.49,4.82-1.16,11.67,2.13,16.01Z"/>
    <path class="cls-2" d="m63.5,560.41c.9-.62.62-2.03-.44-2.3-2.99-.75-5-1.26-7.15-2.06-4.12-1.52-6.55-4.78-8.66-4.23-1.76.54.45,4.13,1.68,5.82,3.24,4.83,10.32,5.71,14.57,2.77Z"/>
    <path class="cls-2" d="m90.92,528.49c-.71-.86-2.12-.4-2.23.71-.37,3.73-.95,8.82-2.15,13.14-.33,1.18-2.42,6.15-1.25,5.77,6.26-2.03,9.7-9.56,7.49-16.18-.43-1.23-1.03-2.42-1.86-3.44Z"/>
  </g>
  <g>
    <path class="cls-3" d="m211.75,642.28c6.89,6.81,2.22,36.96,1.45,43.79-.77,6.83-5.28,6.86-15.07,8.88-12.08,2.49-20.58-1.96-26.88-5.42-6.3-3.46-17.07-8.4-21.57-18.91-3.02-7.05-3.27-16.31,1.89-20.86,5.15-4.55,26.61-22.07,36.25-21.11,6.84.68,21.22,10.95,23.93,13.63Z"/>
    <path class="cls-1" d="m209.11,647.61c7.2,7.11,4.89,31.32,4.1,38.46-.8,7.14-8.1,14.43-18.32,16.54-12.62,2.6-21.49-2.05-28.07-5.66-6.58-3.61-17.82-8.77-22.53-19.75-3.16-7.36,1.9-22.69,7.28-27.44,5.38-4.75,22.48-17.38,32.55-16.38,7.14.71,22.16,11.43,25,14.24Z"/>
    <path class="cls-4" d="m205.61,685.22c2.55-19.85.04-30.29-1.87-32.17-2.78-2.74-16.71-12.08-20.8-12.08-6.34,0-19.59,8.59-26.32,14.53-3.79,3.35-9.1,12.85-6.82,21.43,2.09,7.88,11.04,13.77,16.93,16.93,6.4,3.44,11.8,4.61,19.41,4.61,0,0,17.76,0,19.47-13.23Z"/>
    <path class="cls-2" d="m153.38,673.58c-.67-.74-1.89,0-1.57.93,1.02,2.99,3.04,5.82,5.17,7.97,3.14,3.24,7.06,5.59,10.64,7.65,3.58,2.06,7.56,4.26,11.94,5.37,2.91.78,6.39,1.13,9.5.54.98-.18,1.02-1.61.05-1.82-6.93-1.54-12.86-5.75-18.63-9.06-5.89-3.38-12.43-6.38-17.1-11.59Z"/>
  </g>
  <g>
    <path class="cls-3" d="m563.67,485.99s-40.48-17.59-59.76-.29c-15.56,13.96-31.38,46.35-17.85,68.23,13.53,21.88,44.33,25.91,52.11,23.32,7.77-2.59,25.05-14.97,31.95-40.3,6.91-25.33,5.82-44.62-6.45-50.95Z"/>
    <path class="cls-1" d="m569.32,488.01s-40.48-17.59-59.76-.29c-15.56,13.96-31.38,46.35-17.85,68.23,13.53,21.88,44.33,25.91,52.11,23.32s25.05-14.97,31.95-40.3c6.91-25.33,5.82-44.62-6.45-50.95Z"/>
    <path class="cls-4" d="m538.02,570.4c-10.1,0-29.4-5.29-38.18-19.48-5.77-9.33-3.76-20.94-1.05-29.02,3.44-10.29,10.02-20.66,17.15-27.06,3.83-3.43,9.68-5.18,17.39-5.18,14.31,0,29.46,5.99,31.86,6.98,6.52,3.75,7.05,18.93,1.35,39.81-6.27,22.98-21.9,32.47-25.75,33.75h0s-.85.2-2.78.2Z"/>
    <path class="cls-3" d="m518.88,534.85c-1.06.46-2.18.87-3.01,1.67s-1.27,2.15-.66,3.13c.99,1.59,3.44.88,5.22,1.47,1.92.63,2.89,2.75,3.48,4.69,1.37,4.43,2.29,6.26,7.21,6.19,2.36-.03,5.19-.65,5.98-2.88.52-1.47-.09-3.07-.56-4.56-3.69-11.77-.58-19.6,10.53-25,1.19-.58,2.45-1.08,3.4-1.99.95-.91,1.53-2.39.96-3.58-.79-1.65-3.16-1.77-4.86-1.09-1.7.68-3.23,1.89-5.05,2.1-4.67.55-6.03-8.27-11.6-6-.52.21-1.78,3.03-.63,5.18,1.6,3,3.37,3.97-.15,12.49-2.38,5.75-4.54,5.69-10.27,8.19Z"/>
    <path class="cls-2" d="m517.28,507.04c-1.02.64-2.27-.35-1.89-1.49,1.71-5.16,8.01-9.75,15.71-8.84,1.25.13,2.73.52,4.15,1.13,1.09.47.97,2.08-.18,2.39-4.36,1.21-10.51,2.22-17.79,6.81Z"/>
    <path class="cls-2" d="m562.18,522.96c-.7.92-2.18.53-2.31-.61-.34-2.97-.2-6.04-.03-9.04.23-3.99.4-6.08-.36-7.75-.47-1.02.57-2.12,1.61-1.7,1.18.47,2.35,1.47,3.22,3.1,2.49,4.82,1.16,11.67-2.13,16.01Z"/>
    <path class="cls-2" d="m531.78,561.7c-.9-.62-.62-2.03.44-2.3,2.99-.75,5-1.26,7.15-2.06,4.12-1.52,6.55-4.78,8.66-4.23,1.76.54-.45,4.13-1.68,5.82-3.24,4.83-10.32,5.71-14.57,2.77Z"/>
    <path class="cls-2" d="m504.36,529.78c.71-.86,2.12-.4,2.23.71.37,3.73.95,8.82,2.15,13.14.33,1.18,2.42,6.15,1.25,5.77-6.26-2.03-9.7-9.56-7.49-16.18.43-1.23,1.03-2.42,1.86-3.44Z"/>
  </g>
  <g>
    <path class="cls-3" d="m387,640.52c-6.89,6.81-2.22,36.96-1.45,43.79.77,6.83,5.28,6.86,15.07,8.88,12.08,2.49,20.58-1.96,26.88-5.42,6.3-3.46,17.07-8.4,21.57-18.91,3.02-7.05,3.27-16.31-1.89-20.86-5.15-4.55-26.61-22.07-36.25-21.11-6.84.68-21.22,10.95-23.93,13.63Z"/>
    <path class="cls-1" d="m389.65,645.85c-7.2,7.11-4.89,31.32-4.1,38.46.8,7.14,8.1,14.43,18.32,16.54,12.62,2.6,21.49-2.05,28.07-5.66,6.58-3.61,17.82-8.77,22.53-19.75,3.16-7.36-1.9-22.69-7.28-27.44-5.38-4.75-22.48-17.38-32.55-16.38-7.14.71-22.16,11.43-24.99,14.24Z"/>
    <path class="cls-4" d="m393.15,683.46c-2.55-19.85-.04-30.29,1.87-32.17,2.78-2.74,16.71-12.08,20.8-12.08,6.34,0,19.59,8.59,26.32,14.53,3.79,3.35,9.1,12.85,6.82,21.43-2.09,7.88-11.04,13.77-16.93,16.93-6.4,3.44-11.8,4.61-19.41,4.61,0,0-17.76,0-19.47-13.23Z"/>
    <path class="cls-2" d="m445.38,671.81c.67-.74,1.89,0,1.57.93-1.03,2.99-3.04,5.82-5.17,7.97-3.14,3.24-7.06,5.59-10.64,7.65-3.58,2.06-7.56,4.26-11.94,5.37-2.9.78-6.38,1.13-9.5.54-.98-.18-1.02-1.61-.05-1.82,6.93-1.54,12.86-5.75,18.63-9.06,5.89-3.38,12.43-6.38,17.1-11.59Z"/>
  </g>
</svg>