<?xml version="1.0" encoding="UTF-8"?>
<svg id="Layer_1" data-name="Layer 1" xmlns="http://www.w3.org/2000/svg" viewBox="0 0 486.61 90.9">
  <defs>
    <style>
      .cls-1 {
        fill: #b3e2f2;
      }

      .cls-2 {
        fill: #e3f7fc;
      }

      .cls-3 {
        fill: #9fdaed;
      }

      .cls-4 {
        fill: #cbedfa;
      }
    </style>
  </defs>
  <g>
    <path class="cls-3" d="m28.39,80.13c15.86,7.68,33.16,11.54,38.65,10.64,8.4-1.36,25.84-21.47,26-29.99.12-5.55-6.13-22.03-15.93-36.62-5.72-8.53-12.67-16.38-20.27-21.03-16.01-9.78-32.09,5.75-38.47,13.14-1.98,2.32-3.96,4.6-5.96,6.88-6.41,7.36-19.52,25.5-7.57,39.96,5.63,6.83,14.36,12.57,23.54,17.02Z"/>
    <path class="cls-1" d="m28.39,80.13c12.75,4.35,24.71,6.13,29.26,5.17,8.84-1.86,28.05-24.03,28.64-33.03.31-4.61-3.12-16.14-9.17-28.09-5.72-8.53-12.67-16.38-20.27-21.03-16.01-9.78-32.09,5.75-38.47,13.14-1.98,2.32-3.96,4.6-5.96,6.88-6.41,7.36-19.52,25.5-7.57,39.96,5.63,6.83,14.36,12.57,23.54,17.02Z"/>
    <path class="cls-4" d="m68.49,65.77l.31-.36c6.75-7.81,8.95-18.35,5.65-27.1h0c-3.47-9.22-8.56-17.61-15.32-24.44-2.95-2.98-5.91-5.39-8.8-7.16-5.77-3.53-15.52-4.41-29.24,11.41-2.19,2.53-4.27,4.92-6.43,7.42C.9,41.43,3.15,50.96,7.46,56.17c2.54,3.08,5.99,6.12,10.21,9.03,7.23,4.99,15.54,8.36,24.33,10.32h0c9.23,2.05,19.46-1.65,26.31-9.53l.2-.23Z"/>
    <path class="cls-2" d="m41.75,10.22c.95-.61.52-2.04-.54-1.83-3.38.68-6.87,2.46-9.67,4.45-4.21,2.94-7.72,6.84-10.82,10.41-3.11,3.58-6.46,7.57-8.81,12.15-1.6,3.03-2.9,6.75-3.14,10.2-.07,1.09,1.39,1.33,1.88.31,3.47-7.28,9.45-13.09,14.45-18.86,5.1-5.89,9.98-12.54,16.65-16.84Z"/>
  </g>
  <g>
    <path class="cls-3" d="m458.21,80.13c-15.86,7.68-33.16,11.54-38.65,10.64-8.4-1.36-25.84-21.47-26-29.99-.12-5.55,6.13-22.03,15.93-36.62,5.72-8.53,12.67-16.38,20.27-21.03,16.01-9.78,32.09,5.75,38.47,13.14,1.98,2.32,3.96,4.6,5.96,6.88,6.41,7.36,19.52,25.5,7.57,39.96-5.63,6.83-14.36,12.57-23.54,17.02Z"/>
    <path class="cls-1" d="m458.21,80.13c-12.75,4.35-24.71,6.13-29.26,5.17-8.84-1.86-28.05-24.03-28.64-33.03-.31-4.61,3.12-16.14,9.17-28.09,5.72-8.53,12.67-16.38,20.27-21.03,16.01-9.78,32.09,5.75,38.47,13.14,1.98,2.32,3.96,4.6,5.96,6.88,6.41,7.36,19.52,25.5,7.57,39.96-5.63,6.83-14.36,12.57-23.54,17.02Z"/>
    <path class="cls-4" d="m418.11,65.77l-.31-.36c-6.75-7.81-8.95-18.35-5.65-27.1h0c3.47-9.22,8.56-17.61,15.32-24.44,2.95-2.98,5.91-5.39,8.8-7.16,5.77-3.53,15.52-4.41,29.24,11.41,2.19,2.53,4.27,4.92,6.43,7.42,13.77,15.89,11.52,25.42,7.21,30.63-2.54,3.08-5.99,6.12-10.21,9.03-7.23,4.99-15.54,8.36-24.33,10.32h0c-9.23,2.05-19.46-1.65-26.31-9.53l-.2-.23Z"/>
    <path class="cls-2" d="m444.86,10.22c-.95-.61-.52-2.04.54-1.83,3.38.68,6.87,2.46,9.67,4.45,4.21,2.94,7.72,6.84,10.82,10.41,3.11,3.58,6.46,7.57,8.81,12.15,1.6,3.03,2.9,6.75,3.14,10.2.07,1.09-1.39,1.33-1.88.31-3.47-7.28-9.45-13.09-14.45-18.86-5.1-5.89-9.98-12.54-16.65-16.84Z"/>
  </g>
</svg>