<?xml version="1.0" encoding="UTF-8"?>
<svg id="Layer_1" data-name="Layer 1" xmlns="http://www.w3.org/2000/svg" viewBox="0 0 462.67 87.44">
  <defs>
    <style>
      .cls-1 {
        fill: #b3e2f2;
      }

      .cls-2 {
        fill: #e3f7fc;
      }

      .cls-3 {
        fill: #9fdaed;
      }

      .cls-4 {
        fill: #cbedfa;
      }
    </style>
  </defs>
  <g>
    <path class="cls-3" d="m87.9,28.56c4.7,6.28,10.22,16.78,0,32.25-5.32,8.05-10.46,12.25-10.46,12.25,0,0-19.48,7.79-24,7.16-9.44-1.31-39.42-23.64-43.43-37.49-3.31-11.39,1.49-20.11,5.22-23.46C25.14,10.39,46.17-1.12,59.1,2.75c11.53,3.45,21.66,16.28,28.8,25.82Z"/>
    <path class="cls-1" d="m82.05,33.48c4.89,6.53,10.64,17.46,0,33.55-10.64,16.09-26.04,21.57-35.87,20.2-9.82-1.36-41.01-24.6-45.2-39.01-3.44-11.86,2.85-19.44,6.73-22.92C18.05,16.06,38.63,2.59,52.08,6.62c12,3.59,22.54,16.94,29.97,26.86Z"/>
    <path class="cls-4" d="m49.2,79.8c7.04,0,18.2-4.45,26.48-16.98,7.74-11.71,4.7-18.82.26-24.76-5.11-6.83-15.75-21.04-26.04-24.12-.91-.27-1.97-.41-3.14-.41-9.47,0-24.24,8.79-33.92,17.48-7.04,6.31-5.12,12.92-4.49,15.09,3.23,11.15,31.99,32.6,38.91,33.57.61.08,1.27.13,1.95.13h0Z"/>
    <path class="cls-3" d="m56.95,51.37c-1.67-2.06-2.8-4.55-3.23-7.17-.4-2.42-.33-5.18-2.04-6.94-1.37-1.4-3.47-1.72-5.41-1.96-4.68-.58-9.35-1.16-14.03-1.74-.91-.11-1.94-.19-2.62.43-.72.66-.68,1.78-.54,2.74.89,6.1,3.92,11.87,8.44,16.07,4.61,4.28,15.32,10.67,20.8,4.39,1.81-2.07,0-4.14-1.37-5.83Z"/>
    <path class="cls-2" d="m43.47,68.49c-4.78-2.47-8.71-5.62-12.81-9.03-5.53-4.68-12.37-11.25-13.53-18.38-.42-2.49-1.75-2.73-1.76.13.02,8.27,6.63,15.68,12.81,21.12,5.94,5.12,14.68,11.09,22.51,10.4,2.93-.24-2.19-1.7-7.22-4.24Z"/>
    <path class="cls-2" d="m44.63,24.31c4.78,2.47,8.71,5.61,12.81,9.03,5.53,4.68,12.37,11.25,13.53,18.38.42,2.49,1.75,2.73,1.76-.13-.02-8.27-6.63-15.68-12.81-21.12-5.94-5.12-14.68-11.09-22.51-10.4-2.93.24,2.19,1.7,7.22,4.24Z"/>
  </g>
  <g>
    <path class="cls-3" d="m374.77,26.59c-4.7,6.28-10.22,16.78,0,32.25,5.32,8.05,10.46,12.25,10.46,12.25,0,0,19.48,7.79,24,7.16,9.44-1.31,39.42-23.64,43.43-37.49,3.31-11.39-1.49-20.11-5.22-23.46-9.92-8.89-30.95-20.4-43.88-16.54-11.53,3.45-21.66,16.28-28.8,25.82Z"/>
    <path class="cls-1" d="m380.62,31.5c-4.89,6.53-10.64,17.46,0,33.55,10.64,16.09,26.04,21.57,35.86,20.2,9.82-1.36,41.01-24.6,45.2-39.01,3.44-11.86-2.85-19.44-6.73-22.92-10.32-9.25-30.9-22.72-44.36-18.7-12,3.59-22.54,16.94-29.97,26.86Z"/>
    <path class="cls-4" d="m413.47,77.82c-7.04,0-18.2-4.45-26.48-16.98-7.74-11.71-4.7-18.82-.26-24.76,5.11-6.83,15.75-21.04,26.04-24.12.91-.27,1.97-.41,3.14-.41,9.47,0,24.24,8.79,33.92,17.48,7.04,6.31,5.12,12.92,4.49,15.09-3.23,11.15-31.99,32.6-38.91,33.57-.61.08-1.27.13-1.95.13h0Z"/>
    <path class="cls-3" d="m405.72,49.39c1.67-2.06,2.79-4.55,3.23-7.17.4-2.42.33-5.18,2.04-6.94,1.37-1.4,3.47-1.72,5.41-1.96,4.68-.58,9.35-1.16,14.03-1.74.91-.11,1.94-.19,2.62.43.72.66.68,1.78.54,2.74-.89,6.1-3.92,11.87-8.44,16.07-4.61,4.28-15.32,10.67-20.8,4.39-1.81-2.07,0-4.14,1.37-5.83Z"/>
    <path class="cls-2" d="m419.2,66.52c4.78-2.47,8.71-5.62,12.81-9.03,5.53-4.68,12.37-11.25,13.53-18.38.42-2.49,1.75-2.73,1.76.13-.02,8.27-6.63,15.68-12.81,21.12-5.94,5.12-14.68,11.09-22.51,10.4-2.93-.24,2.19-1.7,7.22-4.24Z"/>
    <path class="cls-2" d="m418.04,22.33c-4.78,2.47-8.71,5.62-12.81,9.03-5.53,4.68-12.37,11.25-13.53,18.38-.42,2.49-1.75,2.73-1.76-.13.02-8.27,6.63-15.68,12.81-21.12,5.94-5.12,14.68-11.09,22.51-10.4,2.93.24-2.19,1.7-7.22,4.24Z"/>
  </g>
</svg>