<?xml version="1.0" encoding="UTF-8"?>
<svg id="Layer_1" data-name="Layer 1" xmlns="http://www.w3.org/2000/svg" viewBox="0 0 630.47 358.41">
  <defs>
    <style>
      .cls-1 {
        fill: #b3e2f2;
      }

      .cls-2 {
        fill: #e3f7fc;
      }

      .cls-3 {
        fill: #9fdaed;
      }

      .cls-4 {
        fill: #cbedfa;
      }
    </style>
  </defs>
  <g>
    <path class="cls-3" d="m82.04,8.28c16.12,5.11,21.15,12.09,20.31,30.29-.35,7.59-2.56,23.31-1.42,38.09.9,11.68-5.23,19-16.44,21.29-22.83,4.66-59.06,3.71-72.08-18.58C2.2,61.91,2.32,29.34,17.6,12.77,29.33.04,39.38-.56,54.5,1.75c3.4.39,17.25,2.92,27.54,6.53Z"/>
    <path class="cls-1" d="m93.82,38.51c-.46,7.59-2.56,23.31-1.42,38.09.9,11.68-5.23,19-16.44,21.29-22.83,4.66-55.87,3.94-68.9-18.35C-3.14,62.07-3.02,29.5,12.26,12.93,23.99.2,36.17-1.02,51.29,1.3c3.4.39,44.36,7.23,42.53,37.21Z"/>
    <path class="cls-4" d="m84.6,40.98c.44,11.49-.08,23.03-1.53,34.44-.51,4.01-1.2,8.17-3.52,11.48-2.77,3.95-7.53,6.13-12.3,6.82-4.77.7-9.63.09-14.41-.52-8.77-1.12-17.69-2.27-25.78-5.84-8.1-3.56-15.4-9.93-17.96-18.4-1.45-4.79-1.3-9.9-1.08-14.9.43-9.91,1.18-20.16,5.86-28.91C19.72,14.23,31.28,6.71,44.72,6.73c4.31,0,8.11,1.38,12.27,1.99,7.49,1.09,13.81,2.96,19.31,8.56,6.76,6.89,7.94,14.12,8.31,23.71Z"/>
    <path class="cls-3" d="m49.98,40.53c1.96-.48,3.89-1.67,5.78-1.05,1.33.44,2.25,1.72,2.63,3.08.48,1.75.33,2.23-.47,16.47-.05.8-.09,1.63-.41,2.37-2.21,5.21-6.42-2.96-7.84-4.05-1.62-1.24-4.1-1.62-5.66-.29-1.13.96-1.51,2.54-1.56,4.02-.06,1.48.14,2.98-.12,4.44-.26,1.46-1.12,2.95-2.55,3.37-1.81.54-3.6-.81-4.97-2.11-1.98-1.86-3.9-3.86-5.09-6.31-1.18-2.45-1.53-5.43-.31-7.86,2.07-4.12,7.52-5.11,5.68-12.57-.58-2.34-2.66-3.98-3.11-6.38-.37-1.99,1.11-3.06,3.22-2.26,3.32,1.27,4.81,5.06,7.5,7.18,2.06,1.62,4.7,2.58,7.27,1.96Z"/>
    <path class="cls-2" d="m34.66,80.21c-8.4-5.17-13.36-11.76-15.77-21.89-.34-1.41-2.41-1.42-2.73,0-1.12,5.03-.05,11.06,3.59,16.07,3.62,5.01,8.95,7.89,14.02,8.43,1.48.16,2.15-1.83.89-2.61Z"/>
    <path class="cls-2" d="m35.86,17.94c1.12-.79.58-2.59-.79-2.58-3.77.02-7.94,1.99-10.75,5.9-2.33,3.21-3.49,7.3-3.48,11.28,0,1.4,1.8,1.95,2.6.8,1.87-2.71,3.49-5.77,5.59-8.67,1.79-2.46,3.59-4.43,6.85-6.73Z"/>
    <path class="cls-2" d="m61.31,20.77c-4.79.47,5.85,2.71,7.97,9.11.99,4.4.65,10.29,1.77,22.26,1,10.78,1.79,13.81,1.91,17.82,0,2.76-.35,5.42-1.88,7.62-1.46,2.22-9.65,2.53-7.08,3.94,3.6,1.78,9.54-.16,12.21-6.33,2.01-4.57,1.5-10.45,1.31-14.46-.47-7.95-1.52-19.59-3.19-27.39-.67-2.86-1.12-4.45-2.69-6.95-2.67-4.29-7.06-6.23-10.32-5.63Z"/>
  </g>
  <g>
    <path class="cls-3" d="m547.13,9.27c-15.95,5.62-20.76,12.74-19.35,30.92.59,7.58,3.29,23.22,2.62,38.03-.53,11.7,5.82,18.83,17.1,20.77,22.96,3.94,59.14,1.85,71.46-20.83,9.65-17.78,8.51-50.34-7.28-66.42-12.13-12.36-22.19-12.64-37.23-9.85-3.39.49-17.15,3.46-27.32,7.39Z"/>
    <path class="cls-1" d="m536.3,39.84c.7,7.57,3.29,23.22,2.62,38.03-.53,11.7,5.82,18.83,17.1,20.77,22.96,3.94,55.97,2.19,68.29-20.5,9.65-17.78,8.51-50.34-7.28-66.42-12.13-12.36-24.34-13.19-39.38-10.4-3.39.49-44.11,8.61-41.34,38.52Z"/>
    <path class="cls-4" d="m545.6,42.03c-.08,11.5.8,23.01,2.61,34.37.64,3.99,1.46,8.13,3.88,11.36,2.89,3.86,7.72,5.89,12.51,6.43,4.79.55,9.63-.22,14.39-.98,8.73-1.39,17.61-2.83,25.59-6.64,7.98-3.81,15.08-10.41,17.37-18.95,1.3-4.84.99-9.94.61-14.93-.74-9.89-1.81-20.12-6.76-28.71-6.18-10.73-17.98-17.88-31.41-17.45-4.3.14-8.07,1.63-12.2,2.37-7.45,1.33-13.71,3.39-19.03,9.16-6.54,7.1-7.5,14.36-7.56,23.96Z"/>
    <path class="cls-3" d="m580.19,40.49c-1.97-.41-3.94-1.55-5.81-.87-1.32.48-2.2,1.79-2.53,3.16-.43,1.76-.26,2.24.99,16.44.07.8.15,1.62.48,2.36,2.37,5.14,6.33-3.16,7.71-4.29,1.58-1.29,4.05-1.75,5.65-.47,1.16.92,1.59,2.49,1.69,3.97.1,1.48-.05,2.98.26,4.43s1.22,2.91,2.65,3.28c1.83.48,3.57-.92,4.9-2.26,1.92-1.92,3.78-3.98,4.89-6.47,1.1-2.48,1.35-5.48.06-7.87-2.2-4.05-7.67-4.87-6.07-12.38.5-2.35,2.54-4.07,2.91-6.48.31-2.01-1.2-3.03-3.29-2.15-3.28,1.37-4.65,5.21-7.27,7.41-2.01,1.69-4.62,2.73-7.21,2.18Z"/>
    <path class="cls-2" d="m596.74,79.67c8.23-5.43,12.99-12.18,15.08-22.38.29-1.42,2.37-1.49,2.73-.09,1.28,5,.4,11.05-3.08,16.17-3.46,5.12-8.7,8.16-13.75,8.87-1.47.2-2.21-1.76-.97-2.58Z"/>
    <path class="cls-2" d="m593.59,17.46c-1.15-.76-.66-2.57.71-2.6,3.77-.09,8,1.74,10.93,5.56,2.43,3.14,3.72,7.19,3.83,11.16.04,1.4-1.74,2.01-2.57.88-1.96-2.64-3.67-5.65-5.86-8.49-1.87-2.41-3.73-4.31-7.06-6.51Z"/>
    <path class="cls-2" d="m568.24,21.1c4.81.32-5.76,2.89-7.68,9.36-.85,4.43-.32,10.31-1.07,22.31-.66,10.8-1.36,13.86-1.35,17.88.08,2.76.52,5.41,2.12,7.55,1.53,2.17,9.72,2.23,7.2,3.71-3.55,1.89-9.54.14-12.4-5.94-2.15-4.51-1.83-10.4-1.76-14.41.22-7.97.9-19.63,2.33-27.47.58-2.88.98-4.48,2.47-7.03,2.53-4.37,6.86-6.45,10.14-5.95Z"/>
  </g>
  <g>
    <path class="cls-3" d="m83.3,251.06c11.47,4.05,21.67,12.32,25.22,23.18,1.88,5.74,1.85,11.85,1.81,17.85-.1,14.04-.21,28.08-.31,42.11-.04,5.09-.33,10.76-4.26,14.33-3.11,2.82-7.71,3.56-12.01,4.17-9.16,1.3-18.32,2.6-27.48,3.9-9.35,1.33-19.89,2.39-27.35-2.99-7.55-5.44-8.93-15.31-9.73-24.13-1.14-12.59-2.28-25.18-3.43-37.77-.81-8.9,20.68-44.48,20.68-44.48,0,0,17.93-2.85,36.86,3.82Z"/>
    <path class="cls-1" d="m75.95,251.06c36.64,12.54,29.82,97.47,10.53,102.72-8.93,2.43-18.32,2.6-27.48,3.9-9.35,1.33-19.97,1.31-27.43-4.07-7.54-5.44-8.93-15.31-9.73-24.13-1.14-12.59-2.28-25.18-3.43-37.77-.81-8.9-1.58-18.1,1.46-26.58,7.66-21.36,37.09-20.57,56.08-14.08Z"/>
    <path class="cls-4" d="m87.02,337.93c-3.82,5.07-10.64,6.6-16.87,7.81-5.81,1.13-11.7,2.27-17.61,1.88-5.91-.39-11.94-2.48-15.9-6.88-4.14-4.61-5.49-11.03-6.42-17.16-2.18-14.4-2.91-29.03-2.18-43.57.78-15.58,10.16-20.9,24.74-21.89,14.04-.96,33.26,8.1,36,21.84.67,3.37,5.24,48.68-1.75,57.97Z"/>
    <path class="cls-3" d="m71.69,317.87c-2.03,2.38-7.05-4.69-7.63,4.96-.11,1.83-.33,4.29-2.12,4.68-1.61.35-2.76-1.63-2.79-3.27-.03-1.64.45-3.4-.31-4.86-1.56-3-6.27-1.76-9.18-3.49-2.56-1.52-4.53-5.79-2.48-7.95,4.95-5.22,7.11-8.78,1.59-13.12-5.42-4.25-7.58-8.34-5.81-13.25.46-1.08,2.04-1.16,3.03-.53.98.63,1.57,1.7,2.32,2.6.75.9,1.88,1.68,3.01,1.39,1.74-.46,1.92-2.82,2.89-4.34,1.25-1.94,4.34-2.33,6.03-.76,1.69,1.57-2.94,4.62-.31,6.07,2.62,1.45,5.03-3.48,7.42-2.65s-2.42,8.72-2.55,12.27c-.43,11.89,8.93,19.89,6.9,22.27Z"/>
    <path class="cls-2" d="m52.37,341.43c1.58-.05,2-2.17.58-2.85-3.33-1.61-6.26-3.83-8.46-6.85-3.18-4.33-4.39-6.7-5.89-10.09-.63-1.43-2.76-1.06-2.87.5-.28,4.14.97,8.72,4.14,12.99,3.09,4.26,8.04,6.44,12.5,6.3Z"/>
    <path class="cls-2" d="m42.11,269.57c.9-1.15-.19-2.83-1.57-2.36-3.26,1.1-6.47,4.32-7.81,8.96-1.06,3.13-1.22,7.49-.16,11.38.38,1.4,2.39,1.39,2.84,0,.85-2.62,1.66-5.62,1.87-6.58,1.24-4.12,2.32-8.19,4.83-11.41Z"/>
    <path class="cls-2" d="m72.45,269.73c-1.46-.37-2.55,1.39-1.49,2.46,7.75,7.86,9.51,25.24,11.57,21.52.57-1.23,1.11-2.68,1.28-4.02.17-1.31.31-2.64.27-3.98-.15-2.74-.76-5.55-2.12-8.08-2.32-4.34-5.98-7-9.51-7.9Z"/>
    <path class="cls-2" d="m83.92,324.87c-.29-1.43-2.41-1.73-2.84-.33-1.76,5.81-4.01,8.95-7.78,11.78-1.37,1.03-5.85,2.58-5.24,3.97.49,1.14,4.95.89,7.38,0,2.49-.91,4.72-2.45,6.21-4.69,2.28-3.25,2.97-7.29,2.27-10.73Z"/>
  </g>
  <g>
    <path class="cls-3" d="m547.17,250.86c-11.47,4.05-21.67,12.32-25.23,23.18-1.88,5.74-1.85,11.85-1.81,17.85.1,14.04.21,28.08.31,42.11.04,5.09.33,10.76,4.26,14.33,3.11,2.82,7.71,3.56,12.01,4.17,9.16,1.3,18.32,2.6,27.48,3.9,9.35,1.33,19.89,2.39,27.35-2.99,7.55-5.44,8.93-15.31,9.73-24.13,1.14-12.59,2.28-25.18,3.43-37.77.81-8.9-20.68-44.47-20.68-44.47,0,0-17.93-2.85-36.86,3.82Z"/>
    <path class="cls-1" d="m554.52,250.86c-36.64,12.54-29.82,97.47-10.53,102.72,8.93,2.43,18.32,2.6,27.48,3.9,9.35,1.33,19.97,1.31,27.43-4.07,7.55-5.44,8.93-15.31,9.73-24.13,1.14-12.59,2.28-25.18,3.43-37.77.81-8.9,1.58-18.1-1.46-26.58-7.66-21.36-37.09-20.57-56.08-14.08Z"/>
    <path class="cls-4" d="m543.45,337.73c3.82,5.07,10.64,6.6,16.87,7.81,5.81,1.13,11.7,2.27,17.61,1.88,5.91-.39,11.94-2.48,15.9-6.88,4.14-4.61,5.49-11.03,6.42-17.16,2.18-14.4,2.91-29.03,2.18-43.57-.78-15.58-10.16-20.9-24.74-21.89-14.04-.96-33.26,8.1-36,21.84-.67,3.37-5.24,48.68,1.75,57.97Z"/>
    <path class="cls-3" d="m558.78,317.68c2.03,2.38,7.05-4.69,7.63,4.96.11,1.83.33,4.29,2.12,4.68,1.61.35,2.76-1.63,2.79-3.27.03-1.64-.45-3.4.31-4.86,1.56-3,6.27-1.76,9.18-3.49,2.56-1.52,4.53-5.79,2.48-7.95-4.95-5.22-7.11-8.78-1.59-13.12,5.42-4.25,7.58-8.34,5.81-13.25-.46-1.08-2.04-1.16-3.03-.53-.98.63-1.57,1.7-2.32,2.6-.75.9-1.88,1.68-3.01,1.39-1.74-.46-1.92-2.82-2.89-4.34-1.25-1.94-4.34-2.33-6.03-.76-1.69,1.57,2.94,4.62.31,6.07-2.62,1.45-5.03-3.48-7.42-2.65-2.39.82,2.42,8.72,2.55,12.27.43,11.89-8.93,19.89-6.9,22.27Z"/>
    <path class="cls-2" d="m578.11,341.23c-1.58-.05-2-2.17-.58-2.85,3.33-1.61,6.26-3.83,8.46-6.84,3.18-4.33,4.39-6.7,5.89-10.09.63-1.43,2.76-1.06,2.87.5.28,4.14-.97,8.72-4.14,12.99-3.09,4.26-8.04,6.44-12.5,6.3Z"/>
    <path class="cls-2" d="m588.37,269.37c-.9-1.15.19-2.83,1.57-2.36,3.26,1.1,6.47,4.32,7.81,8.96,1.06,3.13,1.22,7.49.16,11.38-.38,1.4-2.39,1.39-2.84,0-.85-2.62-1.66-5.62-1.87-6.58-1.24-4.12-2.32-8.19-4.83-11.41Z"/>
    <path class="cls-2" d="m558.02,269.53c1.46-.37,2.55,1.39,1.49,2.46-7.75,7.86-9.51,25.24-11.57,21.52-.57-1.23-1.11-2.68-1.28-4.02-.17-1.31-.31-2.64-.27-3.98.15-2.74.76-5.54,2.12-8.08,2.32-4.34,5.98-7,9.51-7.9Z"/>
    <path class="cls-2" d="m546.56,324.68c.29-1.43,2.41-1.73,2.84-.33,1.76,5.81,4.01,8.95,7.78,11.78,1.37,1.03,5.85,2.58,5.24,3.97-.49,1.14-4.95.89-7.38,0-2.49-.91-4.72-2.45-6.21-4.69-2.28-3.25-2.97-7.29-2.27-10.73Z"/>
  </g>
</svg>