<?xml version="1.0" encoding="UTF-8"?>
<svg id="Layer_1" data-name="Layer 1" xmlns="http://www.w3.org/2000/svg" viewBox="0 0 136.85 65.48">
  <defs>
    <style>
      .cls-1 {
        fill: #b3e2f2;
      }

      .cls-2 {
        fill: #e3f7fc;
      }

      .cls-3 {
        fill: #9fdaed;
      }

      .cls-4 {
        fill: #cbedfa;
      }
    </style>
  </defs>
  <g>
    <path class="cls-3" d="m51.27,6.11c7.83,4.02,8.33,28.07,8.33,36.01-5.84,4.56-2.71,7.38-10.64,11.8-9.79,5.45-18.37,3.91-24.76,2.63-6.4-1.28-10.91-1.54-17.67-9.42C1.98,41.85-.76,33.9,2.47,28.55,5.69,23.2,17.9,1.98,26.51.19c6.11-1.28,21.67,4.34,24.76,5.92Z"/>
    <path class="cls-1" d="m50.43,11.45c8.17,4.2,9.6,24.17,9.16,30.67-.43,6.45-3.08,14.71-11.36,19.33-10.22,5.69-19.18,4.09-25.86,2.75-6.68-1.34-11.66-1.66-18.73-9.89-4.74-5.52-4.54-20.18-1.17-25.76C5.84,22.97,15.59,7.17,24.59,5.29c6.38-1.33,22.62,4.5,25.84,6.16Z"/>
    <path class="cls-4" d="m52.78,43.46c.2-18.29-2.92-24.86-5.09-25.97-3.15-1.62-16.91-6.22-20.44-5.1-5.49,1.73-14.63,12.78-18.84,19.76-2.37,3.93-4.38,13.62-.07,20.42,3.96,6.26,10.34,7.1,14.65,8.21,6.39,1.64,9.93,1.54,16.53-.54,0,0,13.12-4.65,13.26-16.77Z"/>
    <path class="cls-2" d="m10.53,48.69c-.78-.46-1.64.51-1.1,1.24,1.7,2.31,3.48,4.98,5.91,6.26,5.55,2.93,9.88,3.61,17.68,3.28,2.73-.11,5.84-.76,8.38-2.12.8-.43.44-1.67-.46-1.59-6.42.56-24.95-3.83-30.41-7.07Z"/>
  </g>
  <g>
    <path class="cls-3" d="m85.59,6.11c-7.83,4.02-8.33,28.07-8.33,36.01,5.84,4.56,2.71,7.38,10.64,11.8,9.79,5.45,18.37,3.91,24.76,2.63,6.4-1.28,10.9-1.54,17.67-9.42,4.54-5.29,7.28-13.24,4.05-18.58-3.23-5.35-15.43-26.56-24.04-28.36-6.11-1.28-21.67,4.34-24.76,5.92Z"/>
    <path class="cls-1" d="m86.42,11.45c-8.17,4.2-9.6,24.17-9.16,30.67.43,6.45,3.08,14.71,11.36,19.33,10.22,5.69,19.18,4.09,25.86,2.75,6.68-1.34,11.66-1.66,18.73-9.89,4.74-5.52,4.54-20.18,1.17-25.76-3.37-5.58-13.13-21.38-22.12-23.26-6.38-1.33-22.62,4.5-25.84,6.16Z"/>
    <path class="cls-4" d="m84.07,43.46c-.2-18.29,2.92-24.86,5.09-25.97,3.15-1.62,16.91-6.22,20.44-5.1,5.49,1.73,14.63,12.78,18.84,19.76,2.37,3.93,4.38,13.62.07,20.42-3.96,6.26-10.34,7.1-14.65,8.21-6.39,1.64-9.93,1.54-16.53-.54,0,0-13.12-4.65-13.26-16.77Z"/>
    <path class="cls-2" d="m126.33,48.69c.78-.46,1.64.51,1.1,1.24-1.7,2.31-3.48,4.98-5.91,6.26-5.55,2.93-9.88,3.61-17.68,3.28-2.73-.11-5.84-.76-8.38-2.12-.8-.43-.44-1.67.46-1.59,6.42.56,24.95-3.83,30.41-7.07Z"/>
  </g>
</svg>