<?xml version="1.0" encoding="UTF-8"?>
<svg id="Layer_1" data-name="Layer 1" xmlns="http://www.w3.org/2000/svg" viewBox="0 0 186.5 84.71">
  <defs>
    <style>
      .cls-1 {
        fill: #b3e2f2;
      }

      .cls-2 {
        fill: #e3f7fc;
      }

      .cls-3 {
        fill: #9fdaed;
      }

      .cls-4 {
        fill: #cbedfa;
      }
    </style>
  </defs>
  <g>
    <g>
      <path class="cls-1" d="m53.46,84.71C16.13,84.71.9,45.84.02,22.38c-.02-.12-.02-.17-.02-.17C0,20.9,9.95,0,50.59,0s36.85,8.54,37.69,15.11c.81,6.59,2.6,69.61-34.82,69.61Z"/>
      <path class="cls-3" d="m53.46,84.71C16.21,84.71.97,46.01.03,22.53c.53,3,9.49,51.25,50.67,51.25S88.28,15.11,88.28,15.11c.81,6.59,2.6,69.61-34.82,69.61Z"/>
    </g>
    <path class="cls-4" d="m74.97,9.66c-8.26-4.5-46.77-6.76-62.78,8.01-7.86,7.24,5.27,47.67,36.03,46.79,30.76-.89,35.01-50.29,26.75-54.79Z"/>
    <path class="cls-2" d="m73.6,14.8c.53.07.77-.65.3-.91-8.4-4.73-29.69-7.62-47.2-.58-4.49,1.84-8.93,4.4-12.15,8.04-.35.4.1,1.01.58.78,12.45-6.16,31-7.57,44.57-7.81,3.57-.05,9.59-.11,13.9.48Z"/>
  </g>
  <g>
    <g>
      <path class="cls-1" d="m133.04,84.71c37.33,0,52.56-38.88,53.44-62.34.02-.12.02-.17.02-.17,0-1.31-9.95-22.21-50.59-22.21s-36.85,8.54-37.69,15.11c-.81,6.59-2.6,69.61,34.82,69.61Z"/>
      <path class="cls-3" d="m133.04,84.71c37.25,0,52.49-38.71,53.43-62.19-.53,3-9.49,51.25-50.67,51.25S98.23,15.11,98.23,15.11c-.81,6.59-2.6,69.61,34.82,69.61Z"/>
    </g>
    <path class="cls-4" d="m111.53,9.66c8.26-4.5,46.77-6.76,62.78,8.01,7.86,7.24-5.27,47.67-36.03,46.79-30.76-.89-35.01-50.29-26.75-54.79Z"/>
    <path class="cls-2" d="m112.9,14.8c-.53.07-.77-.65-.3-.91,8.4-4.73,29.69-7.62,47.2-.58,4.49,1.84,8.93,4.4,12.15,8.04.35.4-.1,1.01-.58.78-12.45-6.16-31-7.57-44.57-7.81-3.57-.05-9.59-.11-13.9.48Z"/>
  </g>
</svg>