<?xml version="1.0" encoding="UTF-8"?>
<svg id="Layer_1" data-name="Layer 1" xmlns="http://www.w3.org/2000/svg" viewBox="0 0 320 320">
  <defs>
    <style>
      .cls-1 {
        fill: #b3e2f2;
      }

      .cls-2 {
        fill: #e3f7fc;
      }

      .cls-3 {
        fill: none;
      }

      .cls-4 {
        fill: #9fdaed;
      }

      .cls-5 {
        fill: #cbedfa;
      }
    </style>
  </defs>
  <rect class="cls-3" width="320" height="320"/>
  <g id="_18bulan" data-name="18bulan">
    <g>
      <path class="cls-4" d="m112.35,265.18c1.57,2.09,3.41,5.59,0,10.75-1.77,2.68-3.49,4.08-3.49,4.08,0,0-6.49,2.6-8,2.39-3.15-.44-13.14-7.88-14.48-12.5-1.1-3.8.5-6.7,1.74-7.82,3.31-2.96,10.32-6.8,14.63-5.51,3.84,1.15,7.22,5.43,9.6,8.61Z"/>
      <path class="cls-1" d="m110.4,266.82c1.63,2.18,3.55,5.82,0,11.18-3.55,5.37-8.68,7.19-11.96,6.74-3.27-.45-13.67-8.2-15.07-13-1.15-3.95.95-6.48,2.24-7.64,3.44-3.08,10.3-7.57,14.79-6.23,4,1.2,7.51,5.65,9.99,8.95Z"/>
      <path class="cls-5" d="m99.45,282.25c2.35,0,6.07-1.48,8.83-5.66,2.58-3.9,1.57-6.27.09-8.25-1.7-2.28-5.25-7.01-8.68-8.04-.3-.09-.66-.14-1.05-.14-3.16,0-8.08,2.93-11.31,5.83-2.35,2.1-1.71,4.31-1.5,5.03,1.08,3.72,10.66,10.87,12.97,11.19.2.03.42.04.65.04h0Z"/>
      <path class="cls-4" d="m102.03,272.78c-.56-.69-.93-1.52-1.08-2.39-.13-.81-.11-1.73-.68-2.31-.46-.47-1.16-.57-1.8-.65-1.56-.19-3.12-.39-4.68-.58-.3-.04-.65-.06-.87.14-.24.22-.23.59-.18.91.3,2.03,1.31,3.96,2.81,5.36,1.54,1.43,5.11,3.56,6.94,1.46.6-.69,0-1.38-.46-1.94Z"/>
      <path class="cls-2" d="m97.54,278.49c-1.59-.82-2.9-1.87-4.27-3.01-1.84-1.56-4.12-3.75-4.51-6.13-.14-.83-.58-.91-.59.04,0,2.76,2.21,5.23,4.27,7.04,1.98,1.71,4.89,3.7,7.5,3.47.98-.08-.73-.57-2.41-1.41Z"/>
      <path class="cls-2" d="m97.92,263.76c1.59.82,2.9,1.87,4.27,3.01,1.84,1.56,4.12,3.75,4.51,6.13.14.83.58.91.59-.04,0-2.76-2.21-5.23-4.27-7.04-1.98-1.71-4.89-3.7-7.5-3.47-.98.08.73.57,2.41,1.41Z"/>
    </g>
    <g>
      <path class="cls-4" d="m207.97,264.52c-1.57,2.09-3.41,5.59,0,10.75,1.77,2.68,3.49,4.08,3.49,4.08,0,0,6.49,2.6,8,2.39,3.15-.44,13.14-7.88,14.48-12.5,1.1-3.8-.5-6.7-1.74-7.82-3.31-2.96-10.32-6.8-14.63-5.51-3.84,1.15-7.22,5.43-9.6,8.61Z"/>
      <path class="cls-1" d="m209.92,266.16c-1.63,2.18-3.55,5.82,0,11.18s8.68,7.19,11.96,6.73c3.27-.45,13.67-8.2,15.07-13,1.15-3.95-.95-6.48-2.24-7.64-3.44-3.08-10.3-7.57-14.79-6.23-4,1.2-7.51,5.65-9.99,8.95Z"/>
      <path class="cls-5" d="m220.88,281.6c-2.35,0-6.07-1.48-8.83-5.66-2.58-3.9-1.57-6.27-.09-8.25,1.7-2.28,5.25-7.01,8.68-8.04.3-.09.66-.14,1.05-.14,3.16,0,8.08,2.93,11.31,5.83,2.35,2.1,1.71,4.31,1.5,5.03-1.08,3.72-10.66,10.87-12.97,11.19-.2.03-.42.04-.65.04h0Z"/>
      <path class="cls-4" d="m218.29,272.12c.56-.69.93-1.52,1.08-2.39.13-.81.11-1.73.68-2.31.46-.47,1.16-.57,1.8-.65,1.56-.19,3.12-.39,4.68-.58.3-.04.65-.06.87.14.24.22.23.59.18.91-.3,2.03-1.31,3.96-2.81,5.36-1.54,1.43-5.11,3.56-6.94,1.46-.6-.69,0-1.38.46-1.94Z"/>
      <path class="cls-2" d="m222.79,277.83c1.59-.82,2.9-1.87,4.27-3.01,1.84-1.56,4.12-3.75,4.51-6.13.14-.83.58-.91.59.04,0,2.76-2.21,5.23-4.27,7.04-1.98,1.71-4.89,3.7-7.5,3.47-.98-.08.73-.57,2.41-1.41Z"/>
      <path class="cls-2" d="m222.4,263.1c-1.59.82-2.9,1.87-4.27,3.01-1.84,1.56-4.12,3.75-4.51,6.13-.14.83-.58.91-.59-.04,0-2.76,2.21-5.23,4.27-7.04,1.98-1.71,4.89-3.7,7.5-3.47.98.08-.73.57-2.41,1.41Z"/>
    </g>
  </g>
</svg>