<?xml version="1.0" encoding="UTF-8"?>
<svg id="Layer_1" data-name="Layer 1" xmlns="http://www.w3.org/2000/svg" viewBox="0 0 320 320">
  <defs>
    <style>
      .cls-1 {
        fill: #b3e2f2;
      }

      .cls-2 {
        fill: #e3f7fc;
      }

      .cls-3 {
        fill: none;
      }

      .cls-4 {
        fill: #9fdaed;
      }

      .cls-5 {
        fill: #cbedfa;
      }
    </style>
  </defs>
  <rect class="cls-3" width="320" height="320"/>
  <g id="_8bulan" data-name="8bulan">
    <g>
      <g>
        <path class="cls-1" d="m146.74,40.05c-12.44,0-17.52-12.96-17.81-20.78,0-.04,0-.06,0-.06,0-.44,3.32-7.4,16.86-7.4s12.29,2.85,12.56,5.04c.27,2.2.87,23.2-11.61,23.2Z"/>
        <path class="cls-4" d="m146.74,40.05c-12.42,0-17.5-12.9-17.81-20.73.18,1,3.16,17.08,16.89,17.08s12.52-19.56,12.52-19.56c.27,2.2.87,23.2-11.61,23.2Z"/>
      </g>
      <path class="cls-5" d="m153.91,15.04c-2.75-1.5-15.59-2.25-20.93,2.67-2.62,2.42,1.76,15.89,12.01,15.6,10.25-.3,11.67-16.76,8.92-18.27Z"/>
      <path class="cls-2" d="m153.45,16.75c.18.02.26-.22.1-.3-2.8-1.58-9.9-2.54-15.73-.19-1.5.61-2.98,1.47-4.05,2.68-.12.13.03.34.19.26,4.15-2.05,10.33-2.52,14.86-2.6,1.19-.02,3.2-.04,4.63.16Z"/>
    </g>
    <g>
      <g>
        <path class="cls-1" d="m173.26,40.05c12.44,0,17.52-12.96,17.81-20.78,0-.04,0-.06,0-.06,0-.44-3.32-7.4-16.86-7.4s-12.29,2.85-12.56,5.04c-.27,2.2-.87,23.2,11.61,23.2Z"/>
        <path class="cls-4" d="m173.26,40.05c12.42,0,17.5-12.9,17.81-20.73-.18,1-3.16,17.08-16.89,17.08s-12.52-19.56-12.52-19.56c-.27,2.2-.87,23.2,11.61,23.2Z"/>
      </g>
      <path class="cls-5" d="m166.1,15.04c2.75-1.5,15.59-2.25,20.93,2.67,2.62,2.42-1.76,15.89-12.01,15.6-10.25-.3-11.67-16.76-8.92-18.27Z"/>
      <path class="cls-2" d="m166.55,16.75c-.18.02-.26-.22-.1-.3,2.8-1.58,9.9-2.54,15.73-.19,1.5.61,2.98,1.47,4.05,2.68.12.13-.03.34-.19.26-4.15-2.05-10.33-2.52-14.86-2.6-1.19-.02-3.2-.04-4.63.16Z"/>
    </g>
  </g>
</svg>