<?xml version="1.0" encoding="UTF-8"?>
<svg id="Layer_1" data-name="Layer 1" xmlns="http://www.w3.org/2000/svg" viewBox="0 0 630.47 884.72">
  <defs>
    <style>
      .cls-1 {
        fill: #de422f;
      }

      .cls-2 {
        fill: #9bacf1;
      }

      .cls-3 {
        fill: #d43320;
      }

      .cls-4 {
        fill: #e66251;
      }

      .cls-5 {
        fill: #fc8a71;
      }
    </style>
  </defs>
  <g>
    <path class="cls-4" d="m567.29,509.19c-1.11.02-1.74.08-1.74.08,0,0-42.28,1.38-45.98,25.61-3.73,24.23,7.53,282.06-204.23,282.06s-200.52-257.82-204.23-282.06c-3.61-23.55-43.58-25.51-45.89-25.61l.04-.11s98.39-.13,121.23,36.45c22.13,35.43,70.37,76.07,136.8,76.07s115.09-40.36,136.8-76.07c22.13-36.45,107.18-36.45,107.18-36.45l.02.04Z"/>
    <path class="cls-1" d="m315.33,759.6c-57.98,0-96.05-24.79-119.8-78.02-6.46-14.48-11.28-50.84-14.9-65.97-1.06-4.44,4.06-7.69,7.65-4.87,34.33,27.1,80.08,47.25,135.01,47.25,40.84,0,80.83-11.56,115.66-33.42.04-.02.07-.04.11-.07,3.75-2.36,8.44,1.12,7.2,5.37-3.03,10.42-6.7,41.79-11.14,51.74-23.76,53.21-61.82,77.99-119.77,77.99Z"/>
    <path class="cls-4" d="m541.14,776c-87.9,112.36-225.81,107.41-225.81,107.41,0,0-137.91,4.95-225.83-107.41C13.34,678.64,15.1,540.09,24.01,523.47c8.89-16.65,41.11-14.2,41.11-14.2h.1c2.31.1,42.28,2.06,45.89,25.61,3.71,24.23-7.55,282.06,204.23,282.06s200.51-257.82,204.23-282.06c3.71-24.23,45.98-25.61,45.98-25.61,0,0,.63-.06,1.74-.08,6.82-.23,31.73-.04,39.37,14.28,8.89,16.63,10.65,155.17-65.52,252.53Z"/>
    <path class="cls-5" d="m23.64,523.27c11.93-21.36,66.23-17.6,82.58.34,3.49,3.68,5.24,8.74,5.65,13.67,1.12,19.69,1.9,39.32,4.26,58.85,16.21,139.74,82.8,229.88,221.88,218.81,19.55-1.56,38.82-6.4,56.81-14.08,92.39-39.69,118.82-149.51,123.22-250.15.26-4.92.4-9.82.9-14.77,2.04-15.65,17.71-22.42,33.2-25.48,17.55-3.44,46.31-2.87,54.89,12.8l-.74.4c-4.96-8.29-15.33-11.19-24.9-12.27-15.33-1.7-31.37,1.24-42.27,6.14-8.74,3.97-15.27,9.32-16.32,18.9-1.03,14.34.72,71.19-16.15,132.41-11.09,39.63-28.04,75.77-57.98,105.03-29.85,29.29-69.14,45.79-109.87,49.3-91.13,8.23-161.13-29.03-199.18-110.52-20.42-45.6-28.17-95.33-30.74-145.58-1.53-26.21,1.14-33.67-5.3-41.1-13.33-15.56-54.63-19.38-71.2-9.77-3.21,1.81-6.06,4.28-8,7.48l-.74-.4Z"/>
    <path class="cls-3" d="m606.42,619.56c-15.35,93.23-57.59,172.88-137.26,221.58-29.53,17.76-62.94,30.93-100.25,38.11-33.67,6.39-55.21,5.4-53.54,5.4-29.99.2-68.76-6.23-105.44-20.03-107.04-40.37-166.81-130.36-185.7-245.07l1.24-.2c8.23,34.81,19.26,68.91,36.07,99.93,24.58,47.01,56.01,82.81,105.66,112.43,38.56,22.35,86.39,37.46,135.32,40.14,54.77,2.56,113.79-12.85,160.91-40.16,49.22-29.55,80.63-64.48,105.63-112.43,16.82-31.01,27.86-65.1,36.1-99.91l1.24.2Z"/>
    <g>
      <path class="cls-2" d="m56.21,526.66c6.4,0,16.12.74,26.09,4.26,11.61,4.1,20.35,12.05,23.37,21.29,1.75,5.33,1.7,11.21,1.66,16.9l-.14,19.63-.16,22.48c-.04,4.86-.31,9.44-3.27,12.13-2.35,2.13-6.11,2.81-10.42,3.42l-7.06,1-.23.03-.22.07c-.07.02-.13.04-.21.07-5.69,1.54-11.52,2.12-17.7,2.74-3.06.31-6.22.62-9.33,1.06-3.28.47-6.34.7-9.11.7-6.82,0-12.25-1.42-16.14-4.23-6.42-4.63-7.72-13.39-8.5-21.97l-3.43-37.77c-.74-8.11-1.57-17.3,1.3-25.29,4.13-11.53,15.33-14.98,24-15.85l1.5-.15.07-.12c1.55-.17,4.34-.4,7.95-.4m0-3c-5.96,0-9.77.61-9.77.61,0,0-.02.04-.05.08-11.82,1.18-22.37,6.24-26.52,17.82-3.04,8.48-2.27,17.67-1.46,26.58,1.14,12.59,2.28,25.18,3.43,37.77.8,8.82,2.19,18.69,9.73,24.13,4.99,3.6,11.4,4.8,17.9,4.8,3.21,0,6.44-.29,9.53-.73,9.16-1.3,18.55-1.47,27.48-3.9.07-.02.14-.05.21-.07,2.35-.33,4.71-.67,7.06-1,4.3-.61,8.9-1.35,12.01-4.17,3.93-3.56,4.22-9.23,4.26-14.33.1-14.04.21-28.08.31-42.11.04-6,.07-12.11-1.81-17.85-3.56-10.86-13.75-19.13-25.22-23.18-10.2-3.6-20.12-4.43-27.09-4.43h0Z"/>
      <path class="cls-2" d="m86.89,642.69c9.38,0,16.71,2.31,21.77,6.85,15.02,13.48,29.82,44.17,17.3,64.42-7.59,12.27-20.74,17.78-27.91,19.97l-.13.04-.13.05c-6.94,2.84-14.89,4.54-21.25,4.54-2.92,0-4.36-.38-4.84-.54-3.47-1.16-9.25-4.61-15.06-10.83-4.81-5.15-11.32-14.09-14.95-27.42-6.91-25.33-5.19-42.18,4.84-47.45.52-.22,3.23-1.35,7.23-2.66l.08-.03.08-.03c5.35-2.08,19.28-6.92,32.97-6.92m0-3c-14.34,0-28.93,5.13-34.06,7.12-4.65,1.52-7.58,2.8-7.58,2.8-12.26,6.33-13.36,25.62-6.45,50.95,6.91,25.33,24.18,37.71,31.95,40.3,1.33.44,3.32.69,5.79.69,5.75,0,14.06-1.35,22.39-4.76,10.75-3.29,22.52-9.84,29.58-21.26,13.53-21.88-2.29-54.26-17.85-68.23-6.36-5.71-15.02-7.62-23.78-7.62h0Z"/>
      <path class="cls-2" d="m137.77,736.67c1.79,0,3.42.22,4.85.64,11.27,3.37,21.67,17.27,27.26,24.74,4.68,6.25,8.9,15.18-.1,28.79-4.24,6.42-8.4,10.3-9.55,11.31l-.21.08-.46.52c-8.74,9.85-19.15,13.36-25.99,13.36-.9,0-1.77-.06-2.59-.17-8.48-1.18-38.89-23.65-42.73-36.87-2.78-9.58,1.65-16.08,5.85-19.85,2.14-1.91,4.64-3.93,7.24-5.83l.12-.09.11-.1.08-.07h0c7.69-6.87,23.92-16.48,36.1-16.48m0-3c-12.77,0-29.61,9.63-38.17,17.31,0,0,0,0-.01.01-2.82,2.06-5.37,4.13-7.48,6.02-3.88,3.48-10.17,11.06-6.73,22.92,4.18,14.41,35.37,37.64,45.2,39.01.95.13,1.96.2,3.01.2,8.27,0,19.23-4.23,28.23-14.37,0,0,.01,0,.01,0,0,0,5.14-4.2,10.46-12.25,10.22-15.47,4.7-25.97,0-32.25-7.14-9.54-17.27-22.37-28.8-25.82-1.77-.53-3.69-.77-5.71-.77h0Z"/>
      <path class="cls-2" d="m206.31,794.5c.17,0,.34,0,.49.02,5.62.56,19.2,9.9,22.12,12.78.93.92,3.06,4.4,2.8,16.91-.17,8.1-1.24,16.58-1.88,21.65-.14,1.13-.26,2.07-.34,2.76-.07.67-.2,1.24-.37,1.74l-.02.05v.05c-1.49,4.73-6.86,10.31-15.56,12.1-2.24.46-4.47.7-6.63.7-8.39,0-14.75-3.49-19.39-6.05-.62-.34-1.28-.7-1.98-1.07-6.49-3.48-15.39-8.24-19.24-17.23-2.51-5.85,1.88-19.92,6.51-24.01,7.54-6.65,25.64-20.4,33.47-20.4m0-3c-9.97,0-30.44,16.72-35.46,21.15-5.38,4.75-10.44,20.08-7.28,27.44,4.71,10.98,15.95,16.14,22.53,19.75,5.24,2.88,11.94,6.42,20.84,6.42,2.27,0,4.67-.23,7.23-.76,9.08-1.87,15.84-7.84,17.8-14.15.24-.69.42-1.48.52-2.39.77-6.83,5.44-36.98-1.45-43.79-2.72-2.69-17.09-12.95-23.93-13.63-.26-.03-.52-.04-.79-.04h0Z"/>
      <path class="cls-2" d="m278.86,819.67c6.38,0,18.87,4.54,21.28,5.78,2.64,1.35,5.73,8.75,6.52,25.43v.06s0,.06,0,.06c.24,2.84.31,5.68.18,7.6-.3,4.43-1.97,12.53-9.83,16.91-4.41,2.46-8.96,3.65-13.9,3.65-3.52,0-6.7-.58-9.91-1.22-.57-.11-1.13-.22-1.68-.33-5.76-1.1-9.57-1.83-15.36-8.57-3.5-4.07-3.73-16.11-1.24-21.55.11-.25.23-.49.36-.71.19-.32.42-.7.68-1.13,12.07-20.19,18.3-25.2,21.41-25.85.39-.08.9-.12,1.5-.12m0-3c-.78,0-1.49.06-2.11.19-8.61,1.8-20.82,23.02-24.04,28.36-.2.34-.38.69-.54,1.05-2.83,6.19-2.76,19.51,1.71,24.71,7.07,8.23,12.05,8.55,18.73,9.89,3.06.61,6.59,1.28,10.5,1.28,4.64,0,9.81-.94,15.36-4.03,8.28-4.61,10.93-12.88,11.36-19.33.12-1.83.1-4.74-.18-8.05-.48-10.33-2.2-24.91-8.14-27.96-2.78-1.43-15.64-6.11-22.65-6.11h0Z"/>
      <path class="cls-2" d="m574.26,526.46c3.6,0,6.4.23,7.95.4l.07.12,1.5.15c8.67.87,19.86,4.32,24,15.85,2.86,7.99,2.03,17.18,1.29,25.29l-3.31,36.5-.12,1.27c-.78,8.57-2.08,17.33-8.5,21.97-3.89,2.81-9.32,4.23-16.14,4.23-2.77,0-5.83-.24-9.11-.7-3.11-.44-6.28-.76-9.33-1.06-6.18-.62-12.01-1.2-17.7-2.74-.07-.02-.14-.05-.21-.07l-.22-.07-.23-.03-2.42-.34-4.64-.66c-4.31-.61-8.06-1.29-10.42-3.42-2.96-2.68-3.24-7.27-3.27-12.13l-.16-21.28-.15-20.83c-.04-5.69-.09-11.57,1.66-16.9,3.02-9.23,11.76-17.19,23.37-21.29,9.98-3.52,19.7-4.26,26.09-4.26m0-3c-6.97,0-16.89.83-27.09,4.43-11.47,4.05-21.67,12.32-25.23,23.18-1.88,5.74-1.85,11.85-1.81,17.85.1,14.04.21,28.08.31,42.11.04,5.09.33,10.76,4.26,14.33,3.11,2.82,7.71,3.56,12.01,4.17,2.35.33,4.71.67,7.06,1,.07.02.14.05.21.07,8.93,2.43,18.32,2.6,27.48,3.9,3.09.44,6.32.73,9.53.73,6.5,0,12.91-1.2,17.9-4.8,7.55-5.44,8.93-15.31,9.73-24.13,1.14-12.59,2.28-25.18,3.43-37.77.81-8.9,1.58-18.1-1.46-26.58-4.15-11.58-14.71-16.64-26.52-17.82-.02-.04-.05-.08-.05-.08,0,0-3.81-.61-9.77-.61h0Z"/>
      <path class="cls-2" d="m546.97,643.97c13.69,0,27.62,4.84,32.97,6.92l.08.03.08.03c4.01,1.31,6.72,2.44,7.24,2.66,10.03,5.28,11.75,22.12,4.84,47.45-3.64,13.33-10.14,22.27-14.95,27.42-5.81,6.22-11.59,9.67-15.06,10.83-.48.16-1.93.54-4.84.54-6.37,0-14.31-1.7-21.25-4.54l-.13-.05-.13-.04c-7.17-2.19-20.32-7.71-27.91-19.97-12.52-20.25,2.28-50.94,17.3-64.42,5.07-4.55,12.39-6.85,21.77-6.85m0-3c-8.76,0-17.42,1.91-23.78,7.62-15.56,13.96-31.38,46.35-17.85,68.23,7.06,11.42,18.84,17.97,29.58,21.26,8.33,3.41,16.64,4.76,22.39,4.76,2.47,0,4.46-.25,5.79-.69,7.77-2.59,25.05-14.97,31.95-40.3,6.91-25.33,5.82-44.62-6.45-50.95,0,0-2.93-1.27-7.59-2.8-5.13-1.99-19.72-7.12-34.06-7.12h0Z"/>
      <path class="cls-2" d="m493.66,734.7c12.2,0,28.46,9.64,36.14,16.51l.02.02.12.11.13.1c2.61,1.9,5.11,3.92,7.25,5.84,4.2,3.77,8.63,10.27,5.85,19.85-3.83,13.22-34.25,35.69-42.73,36.87-.82.11-1.69.17-2.59.17-6.83,0-17.25-3.51-25.99-13.36l-.48-.54-.19-.08c-1.17-1.03-5.31-4.91-9.54-11.31-9-13.62-4.78-22.54-.1-28.79,5.59-7.47,15.99-21.37,27.26-24.74,1.43-.43,3.06-.64,4.85-.64m0-3c-2.02,0-3.94.24-5.71.77-11.53,3.45-21.66,16.28-28.8,25.82-4.7,6.28-10.22,16.78,0,32.25,5.32,8.05,10.46,12.25,10.46,12.25,0,0,.01,0,.01,0,9,10.14,19.96,14.37,28.23,14.37,1.05,0,2.05-.07,3.01-.2,9.82-1.36,41.01-24.6,45.2-39.01,3.44-11.86-2.85-19.44-6.73-22.92-2.11-1.89-4.66-3.96-7.48-6.02,0,0,0,0,0,0-8.56-7.68-25.41-17.31-38.17-17.31h0Z"/>
      <path class="cls-2" d="m431.02,792.74c7.83,0,25.93,13.74,33.47,20.4,4.63,4.09,9.02,18.16,6.51,24.01-3.85,8.99-12.75,13.75-19.24,17.23-.69.37-1.36.73-1.98,1.07-4.64,2.55-11.01,6.05-19.39,6.05-2.16,0-4.39-.23-6.63-.7-8.7-1.79-14.07-7.37-15.54-12.1v-.05s-.03-.05-.03-.05c-.17-.5-.3-1.07-.37-1.74-.08-.7-.2-1.63-.34-2.76-.64-5.07-1.71-13.55-1.88-21.65-.26-12.51,1.87-15.99,2.8-16.91,2.92-2.88,16.5-12.22,22.12-12.78.15-.02.32-.02.49-.02m0-3c-.27,0-.54.01-.79.04-6.84.68-21.22,10.95-23.93,13.63-6.89,6.81-2.22,36.96-1.45,43.79.1.92.28,1.7.52,2.39,1.96,6.31,8.72,12.28,17.8,14.15,2.56.53,4.97.76,7.23.76,8.89,0,15.6-3.54,20.84-6.42,6.58-3.61,17.82-8.77,22.53-19.75,3.16-7.36-1.9-22.69-7.28-27.44-5.02-4.43-25.48-21.15-35.46-21.15h0Z"/>
      <path class="cls-2" d="m358.47,819.67c.6,0,1.1.04,1.5.12,3.11.65,9.34,5.66,21.41,25.85.26.43.48.8.67,1.13.13.22.26.46.38.75,2.47,5.4,2.24,17.44-1.26,21.51-5.79,6.74-9.6,7.47-15.36,8.57-.55.11-1.11.21-1.68.33-3.22.64-6.4,1.22-9.91,1.22-4.94,0-9.49-1.19-13.9-3.65-7.86-4.38-9.53-12.47-9.83-16.91-.13-1.92-.06-4.76.18-7.6v-.06s0-.06,0-.06c.78-16.68,3.88-24.08,6.52-25.43,2.41-1.24,14.9-5.78,21.28-5.78m0-3c-7.01,0-19.87,4.68-22.65,6.11-5.94,3.05-7.66,17.63-8.14,27.96-.28,3.32-.31,6.22-.18,8.05.43,6.45,3.08,14.71,11.36,19.33,5.55,3.09,10.72,4.03,15.36,4.03,3.91,0,7.45-.67,10.5-1.28,6.68-1.34,11.66-1.66,18.73-9.89,4.47-5.2,4.54-18.53,1.71-24.71-.16-.36-.34-.71-.54-1.05-3.23-5.35-15.43-26.56-24.04-28.36-.61-.13-1.33-.19-2.11-.19h0Z"/>
    </g>
  </g>
  <g>
    <path class="cls-4" d="m567,395.89s-86.13,0-108.54-36.91c-21.99-36.15-71.26-77.01-138.54-77.01s-116.13,41.13-138.54,77.01c-22.95,36.77-121.31,36.91-122.75,36.91,1.1-.04,42.99-1.7,46.7-25.92,3.77-24.56-7.66-285.63,207.48-285.63s203.71,261.07,207.46,285.63c3.77,24.54,46.72,25.92,46.72,25.92Z"/>
    <path class="cls-1" d="m508.59,310.79c0-207.54-161.23-216.55-194.77-216.18-33.54-.37-194.77,8.63-194.77,216.18,0,0,33.81-169.8,194.77-174,160.96,4.2,194.77,174,194.77,174Z"/>
    <path class="cls-1" d="m183.64,302.45c-3.63,2.86-8.82-.45-7.73-4.94,3.66-15.15,8.52-30.5,15.01-44.99,24.15-53.94,62.88-79.06,121.9-79.06s97.75,25.13,121.9,79.09c4.65,10.38,8.46,21.21,11.59,32.09,1.24,4.31-3.52,7.83-7.29,5.41-.66-.42-1.32-.84-1.98-1.26-35.27-22.13-75.76-33.83-117.12-33.83-55.39,0-101.57,20.22-136.28,47.49Z"/>
    <path class="cls-4" d="m608.76,381.53c-9.04,16.84-41.77,14.36-41.77,14.36,0,0-42.95-1.37-46.72-25.92-3.76-24.56,7.66-285.63-207.46-285.63S109.11,345.42,105.33,369.98c-3.72,24.21-45.6,25.88-46.7,25.92h-.02s-32.73,2.48-41.77-14.36c-9.04-16.84-10.82-157.14,66.56-255.73C172.71,12,312.81,17.01,312.81,17.01c0,0,140.09-5.01,229.39,108.79,77.38,98.59,75.6,238.89,66.56,255.73Z"/>
    <path class="cls-5" d="m17.09,284.22C36.12,169.04,96.18,77.11,205.88,35.97c37.39-14.01,76.78-20.45,106.98-20.24-1.68,0,20.49-.93,54.31,5.47,126.57,24.29,216.66,113.68,241.35,263.02l-1.26.21c-8.36-35.31-19.59-69.89-36.7-101.32-8.29-15.79-17.56-31.03-28.43-44.97-43.3-55.73-106.43-91.77-177.3-104.73-36.19-6.77-68.95-6.55-104.04.01-51.04,9.36-98.52,31.75-130.86,58.04-32.37,25.42-55.38,54.47-74.85,91.66-17.12,31.42-28.35,66-36.73,101.31l-1.26-.21Z"/>
    <path class="cls-3" d="m609.51,381.93c-11.57,25.48-80.26,22.79-93.02-3.03-1.45-2.67-1.08-1.81-1.94-4.5-1.54-5.35-.92-1.29-2.92-20.06-6.26-73.21-24.08-161.26-78.21-211.27-27.58-25.45-61.97-39.69-98.95-42.41-5.11-.58,0-.23-21.01-.97-1.26-.01-17.77.46-21.03.81l-13.85,1.58c-112.1,17.79-151.12,123.21-163,236.11-3.01,29.69-2.79,32.4-5.62,39.11-2.51,4.67-1.89,3.65-5.45,7.89-19.29,19.31-77.14,20.41-88.41-3.25l1.5-.8c6.99,12.34,26.9,14.52,40.95,13.84,7.94-.23,19.74-2.41,28.75-6.39,12.63-5.7,16.52-12.82,17.28-21.13,1.08-19.82,1.83-39.89,4.19-59.74,16.15-141.7,84.69-235.78,227.31-223.84,40.06,3.29,78.77,19.29,108.27,47.89,29.18,28.17,47.1,65,58.44,103.75,17.63,60.22,16.81,117.2,18.4,133.28,1.38,10.31,8.72,16.27,18.39,20.32,11.39,4.72,28.11,7.39,43.61,5.18,9.43-1.35,20.3-4.79,24.83-13.16l1.5.8Z"/>
    <g>
      <path class="cls-2" d="m272.58,3c15.7,0,26.14,1.32,31.02,3.91,3.25,1.73,3.35,3.5,3.52,6.43.04.69.08,1.41.17,2.14.72,5.85,1.36,41.36-13.23,57.86-4.98,5.64-11.07,8.38-18.61,8.38-19.52,0-31.39-11.45-37.91-21.06-8.57-12.63-12.08-27.89-12.52-38.08.5-1.08,2.9-5.62,9.77-10.21,6.41-4.27,18.16-9.37,37.79-9.37M272.58,0C231.94,0,221.99,20.9,221.99,22.21c0,0,0,.05.02.17.88,23.46,16.11,62.34,53.44,62.34s35.63-63.02,34.82-69.61C309.43,8.54,313.27,0,272.58,0h0Z"/>
      <path class="cls-2" d="m185.11,25.46c5.6,0,10.2,2.14,14.06,6.54,5.01,5.73,9.59,14.27,13.25,24.71,5.65,16.1,7.71,32.55,6.65,36.81-1.42,5.81-17.9,16.81-25.18,16.81-.3,0-.57-.02-.8-.07-4.37-.81-18.57-9.53-30.89-21.36-7.97-7.65-13.82-15.31-16.93-22.17-6.53-14.38,5.89-25.12,13.87-30.23,2.26-1.43,4.54-2.9,6.77-4.37,3.86-2.5,11.48-6.69,19.2-6.69m0-3c-8.42,0-16.49,4.36-20.83,7.17-2.25,1.47-4.5,2.92-6.75,4.35-7.25,4.65-22.72,16.97-14.99,34,3.64,8.04,10.27,16.08,17.58,23.09,12.62,12.11,27.32,21.19,32.42,22.14.42.08.87.12,1.35.12,8.52,0,26.31-11.8,28.09-19.1,1.25-5.02-.96-22.06-6.73-38.52-3.37-9.62-7.98-19.01-13.83-25.7-4.93-5.63-10.7-7.57-16.31-7.57h0Z"/>
      <path class="cls-2" d="m117.96,79.02c3.21,0,6.32.91,9.25,2.7,6.47,3.95,13.16,10.92,19.34,20.14,9.57,14.25,15.52,30.17,15.42,34.89-.13,6.98-16.58,25.96-23.48,27.08-.25.04-.69.09-1.4.09-5.75,0-20.56-3.25-35.46-10.47-9.97-4.83-17.77-10.44-22.54-16.23-4.46-5.39-5.33-12.03-2.59-19.72,2.36-6.63,6.8-12.56,10.1-16.34,1.99-2.26,4-4.59,5.98-6.89,3.96-4.58,14.35-15.24,25.38-15.24m0-3c-12,0-22.73,10.57-27.65,16.28-1.98,2.32-3.96,4.6-5.96,6.88-6.41,7.36-19.52,25.5-7.57,39.96,5.63,6.83,14.36,12.57,23.54,17.02,14.34,6.95,29.87,10.77,36.77,10.77.73,0,1.36-.04,1.88-.13,8.4-1.36,25.84-21.47,26-29.99.12-5.55-6.13-22.03-15.93-36.62-5.72-8.53-12.67-16.38-20.27-21.03-3.64-2.22-7.28-3.14-10.81-3.14h0Z"/>
      <path class="cls-2" d="m62.18,165.69c1.99,0,4.08.28,6.2.82,3.55.92,7.45,2.37,11.59,4.33l.16.07.16.06c9.22,3.12,20.2,9.41,28.67,16.42,4.89,4.05,8.82,9.71,11.7,16.83,3.79,9.37,1.31,26.34-6.02,41.27-5.74,11.7-13.36,19.87-20.37,21.84-1.49.42-3.6.63-6.27.63-4.88,0-10.47-.7-14.56-1.22l-1.01-.13c-7.05-.88-17.88-4.18-25.75-7.86l-.13-.06-.13-.05c-6.98-2.51-12.6-5.29-15.83-7.84-8.31-6.56-8.93-18.48-7.98-27.32,2.42-22.73,17.45-49,32.17-56.23,2.15-1.05,4.64-1.59,7.4-1.59m0-3c-3.03,0-6.02.57-8.73,1.9-24.26,11.92-47.83,70.34-24.72,88.6,3.79,3,10.1,5.95,16.67,8.31,8.57,4,19.72,7.26,26.65,8.12,4.09.51,10.43,1.37,15.94,1.37,2.68,0,5.15-.2,7.08-.74,19.46-5.48,36.28-47.54,28.36-67.13-2.79-6.89-6.84-13.27-12.57-18.01-8.01-6.64-19.23-13.44-29.62-16.95-4.09-1.93-8.2-3.51-12.12-4.52-2.26-.58-4.61-.92-6.95-.92h0Z"/>
      <path class="cls-2" d="m40.27,280.18c3.09,0,6.54.3,10.56.92h.06s.06.02.06.02l.23.03c.93.12,1.89.26,2.86.41h.06s.06.02.06.02c3.54.4,17.17,2.97,26.88,6.38h.04s.04.03.04.03c15.07,4.78,18.99,10.65,18.22,27.3-.09,1.93-.31,4.44-.56,7.35-.73,8.42-1.72,19.96-.86,31.12.76,9.83-4.1,16.09-14.05,18.12-7.02,1.43-14.66,2.19-22.07,2.19-1.44,0-2.89-.03-4.3-.09h-.12s-.12,0-.12,0c-1.24.05-2.49.07-3.71.07-14.92,0-34.66-3.32-43.91-19.16C.09,338.48.1,307.37,14.46,291.79c7.41-8.03,15.37-11.62,25.81-11.62m0-3c-10.28,0-19.27,3.09-28.02,12.58-15.27,16.57-15.4,49.14-5.19,66.61,9.13,15.63,28.11,20.65,46.5,20.65,1.28,0,2.55-.02,3.82-.07,1.48.06,2.96.09,4.42.09,8.1,0,15.96-.88,22.67-2.25,11.21-2.29,17.34-9.61,16.44-21.29-1.14-14.78,1.07-30.5,1.42-38.09.84-18.21-4.19-25.18-20.31-30.29-10.29-3.61-24.13-6.14-27.54-6.53-1-.15-1.97-.29-2.93-.42-.11-.01-.21-.03-.28-.04-3.85-.59-7.51-.95-11.02-.95h0Z"/>
      <path class="cls-2" d="m357.9,3c19.63,0,31.39,5.09,37.79,9.37,6.87,4.58,9.27,9.13,9.77,10.21-.44,10.19-3.95,25.45-12.52,38.08-6.52,9.61-18.38,21.06-37.91,21.06-7.54,0-13.63-2.74-18.61-8.38-14.59-16.5-13.95-52.01-13.23-57.85.09-.73.13-1.45.17-2.14.17-2.93.27-4.7,3.52-6.43,4.89-2.6,15.32-3.91,31.02-3.91M357.9,0C317.21,0,321.04,8.54,320.21,15.11c-.81,6.59-2.6,69.61,34.82,69.61s52.56-38.88,53.44-62.34c.02-.12.02-.17.02-.17C408.49,20.9,398.54,0,357.9,0h0Z"/>
      <path class="cls-2" d="m445.37,25.46h0c7.72,0,15.34,4.19,19.19,6.68,2.25,1.47,4.53,2.94,6.77,4.37,7.99,5.12,20.41,15.86,13.88,30.24-3.1,6.85-8.96,14.52-16.92,22.17-12.32,11.82-26.52,20.54-30.89,21.36-.23.04-.5.06-.8.06-7.28,0-23.76-11-25.18-16.82-1.06-4.25,1-20.7,6.65-36.8,3.66-10.44,8.24-18.99,13.25-24.71,3.85-4.4,8.45-6.54,14.06-6.54m0-3c-5.61,0-11.39,1.94-16.31,7.57-5.85,6.68-10.46,16.08-13.83,25.7-5.77,16.45-7.98,33.49-6.73,38.52,1.79,7.3,19.58,19.1,28.09,19.1.48,0,.93-.04,1.35-.12,5.1-.95,19.8-10.03,32.42-22.14,7.31-7.01,13.94-15.05,17.58-23.09,7.73-17.03-7.74-29.35-14.99-34-2.26-1.43-4.5-2.88-6.75-4.35-4.34-2.81-12.41-7.17-20.83-7.17h0Z"/>
      <path class="cls-2" d="m512.51,76.02v3c11.03,0,21.42,10.66,25.37,15.23,1.98,2.32,4,4.64,5.98,6.89,3.31,3.8,7.74,9.72,10.11,16.35,2.74,7.7,1.87,14.33-2.59,19.73-4.77,5.78-12.56,11.39-22.54,16.23-14.9,7.22-29.71,10.47-35.46,10.47-.71,0-1.15-.05-1.4-.09-6.89-1.12-23.35-20.1-23.48-27.09-.11-4.7,5.85-20.63,15.42-34.88,6.18-9.22,12.87-16.18,19.34-20.14,2.93-1.79,6.04-2.7,9.25-2.7v-3m0,0c-3.53,0-7.18.92-10.81,3.14-7.6,4.65-14.55,12.5-20.27,21.03-9.79,14.59-16.05,31.07-15.93,36.62.16,8.51,17.59,28.62,26,29.99.52.09,1.15.13,1.88.13,6.9,0,22.43-3.82,36.77-10.77,9.18-4.45,17.91-10.19,23.54-17.02,11.96-14.46-1.16-32.6-7.57-39.96-2-2.27-3.98-4.56-5.96-6.88-4.93-5.71-15.65-16.28-27.65-16.28h0Z"/>
      <path class="cls-2" d="m568.29,165.69c2.77,0,5.26.53,7.4,1.59,14.71,7.23,29.75,33.5,32.17,56.23.94,8.84.32,20.76-7.98,27.32-3.22,2.55-8.85,5.33-15.83,7.84l-.13.05-.13.06c-7.88,3.68-18.71,6.98-25.75,7.86l-1.01.13c-4.08.51-9.67,1.22-14.55,1.22-2.67,0-4.78-.21-6.27-.63-7.01-1.97-14.63-10.14-20.37-21.84-7.33-14.94-9.8-31.91-6.02-41.27,2.88-7.12,6.81-12.78,11.7-16.83,8.47-7.01,19.46-13.31,28.67-16.42l.16-.06.16-.07c4.14-1.96,8.04-3.42,11.59-4.33,2.12-.55,4.2-.82,6.2-.82m0-3c-2.34,0-4.69.34-6.95.92-3.92,1.01-8.04,2.59-12.12,4.52-10.4,3.52-21.61,10.32-29.62,16.95-5.73,4.74-9.78,11.12-12.57,18.01-7.92,19.59,8.9,61.65,28.36,67.13,1.93.54,4.41.74,7.08.74,5.51,0,11.85-.86,15.94-1.37,6.94-.86,18.08-4.12,26.65-8.12,6.57-2.36,12.88-5.31,16.67-8.31,23.11-18.26-.46-76.68-24.72-88.6-2.71-1.33-5.7-1.9-8.73-1.9h0Z"/>
      <path class="cls-2" d="m590.17,279.83c9.75,0,17.37,3.34,24.72,10.82,14.84,15.11,15.83,46.22,6.78,62.88-9.72,17.91-33.27,20.58-46.45,20.58h-.55s-.12,0-.12,0h-.12c-2.53.19-5.14.28-7.76.28-6.29,0-12.75-.54-18.66-1.55-10.01-1.72-15.06-7.83-14.61-17.67.51-11.18-.85-22.68-1.84-31.07-.34-2.9-.64-5.4-.79-7.32-1.29-16.61,2.44-22.6,17.35-27.85h.04s.04-.03.04-.03c9.6-3.71,23.14-6.71,26.67-7.22h.06s.06-.02.06-.02c.96-.18,1.9-.34,2.83-.5.1-.02.18-.03.24-.04h.06s.06-.02.06-.02c4.67-.87,8.48-1.27,11.97-1.27m0-3c-3.98,0-8.13.51-12.52,1.32-.08.01-.19.03-.31.05-.94.15-1.9.32-2.88.5-3.39.49-17.15,3.46-27.32,7.39-15.95,5.62-20.76,12.74-19.35,30.92.59,7.58,3.29,23.22,2.62,38.03-.53,11.7,5.82,18.83,17.1,20.77,5.75.99,12.34,1.59,19.17,1.59,2.64,0,5.31-.09,7.98-.28.19,0,.38,0,.57,0,19.38,0,39.94-5.3,49.08-22.15,9.65-17.78,8.51-50.34-7.28-66.42-8.59-8.75-17.22-11.72-26.86-11.72h0Z"/>
    </g>
  </g>
</svg>