<?xml version="1.0" encoding="UTF-8"?>
<svg id="Layer_1" data-name="Layer 1" xmlns="http://www.w3.org/2000/svg" viewBox="0 0 320 320">
  <defs>
    <style>
      .cls-1 {
        fill: #de422f;
      }

      .cls-2 {
        fill: #d43320;
      }

      .cls-3 {
        fill: none;
      }

      .cls-4 {
        fill: #e66251;
      }

      .cls-5 {
        fill: #fc8a71;
      }

      .cls-6 {
        fill: #00acf4;
      }
    </style>
  </defs>
  <rect class="cls-3" width="320" height="320"/>
  <g>
    <path class="cls-4" d="m244.02,181.55c-.37,0-.58.03-.58.03,0,0-14.09.46-15.33,8.54-1.24,8.08,2.51,94.02-68.08,94.02s-66.84-85.94-68.08-94.02c-1.2-7.85-14.53-8.51-15.3-8.54v-.04s32.81-.04,40.42,12.15c7.38,11.81,23.46,25.36,45.6,25.36s38.37-13.46,45.6-25.36c7.38-12.15,35.73-12.15,35.73-12.15h0Z"/>
    <path class="cls-1" d="m160.03,265.02c-19.33,0-32.02-8.26-39.94-26.01-2.15-4.83-3.76-16.95-4.97-21.99-.35-1.48,1.35-2.56,2.55-1.62,11.44,9.03,26.7,15.75,45,15.75,13.61,0,26.94-3.85,38.55-11.14.01,0,.02-.01.04-.02,1.25-.79,2.81.37,2.4,1.79-1.01,3.47-2.23,13.93-3.71,17.25-7.92,17.74-20.61,26-39.93,26Z"/>
    <path class="cls-4" d="m235.3,270.49c-29.3,37.45-75.27,35.8-75.27,35.8,0,0-45.97,1.65-75.28-35.8-25.39-32.45-24.8-78.64-21.83-84.18,2.96-5.55,13.7-4.73,13.7-4.73h.03c.77.03,14.09.69,15.3,8.54,1.24,8.08-2.52,94.02,68.08,94.02s66.84-85.94,68.08-94.02c1.24-8.08,15.33-8.54,15.33-8.54,0,0,.21-.02.58-.03,2.27-.08,10.58-.01,13.12,4.76,2.96,5.54,3.55,51.73-21.84,84.18Z"/>
    <path class="cls-5" d="m62.8,186.24c3.98-7.12,22.08-5.87,27.53.11,1.16,1.23,1.75,2.91,1.88,4.56.37,6.56.63,13.11,1.42,19.62,5.4,46.58,27.6,76.63,73.96,72.94,6.52-.52,12.94-2.13,18.94-4.69,30.8-13.23,39.61-49.84,41.08-83.38.09-1.64.13-3.27.3-4.92.68-5.22,5.9-7.47,11.07-8.49,5.85-1.15,15.44-.96,18.3,4.27l-.25.13c-1.65-2.76-5.11-3.73-8.3-4.09-5.11-.57-10.46.41-14.09,2.05-2.91,1.32-5.09,3.11-5.44,6.3-.34,4.78.24,23.73-5.38,44.14-3.7,13.21-9.35,25.26-19.33,35.01-9.95,9.76-23.05,15.26-36.62,16.43-30.38,2.74-53.71-9.68-66.39-36.84-6.81-15.2-9.39-31.78-10.25-48.53-.51-8.74.38-11.23-1.77-13.7-4.44-5.19-18.21-6.46-23.73-3.26-1.07.6-2.02,1.43-2.67,2.49l-.25-.13Z"/>
    <path class="cls-2" d="m257.06,218.34c-5.12,31.08-19.2,57.63-45.75,73.86-9.84,5.92-20.98,10.31-33.42,12.7-11.22,2.13-18.41,1.8-17.85,1.8-10,.07-22.92-2.08-35.15-6.68-35.68-13.46-55.61-43.45-61.9-81.69l.41-.07c2.74,11.6,6.42,22.97,12.02,33.31,8.2,15.67,18.67,27.6,35.22,37.48,12.85,7.45,28.8,12.49,45.11,13.38,18.26.85,37.93-4.28,53.64-13.39,16.41-9.85,26.88-21.49,35.21-37.48,5.61-10.34,9.29-21.7,12.03-33.3l.41.07Z"/>
    <g>
      <path class="cls-6" d="m73.66,187.37c2.13,0,5.37.25,8.7,1.42,3.87,1.37,6.78,4.02,7.79,7.1.58,1.78.57,3.74.55,5.63l-.04,6.11-.06,7.93c-.01,1.62-.1,3.15-1.09,4.04-.78.71-2.04.94-3.47,1.14l-1.09.15-1.27.18h-.08s-.07.03-.07.03c-.02,0-.04.01-.07.02-1.9.51-3.84.71-5.9.91-1.02.1-2.07.21-3.11.35-1.09.16-2.11.23-3.04.23-2.27,0-4.08-.47-5.38-1.41-2.14-1.54-2.57-4.46-2.83-7.32l-1.14-12.59c-.25-2.7-.52-5.77.43-8.43,1.38-3.84,5.11-4.99,8-5.28l.51-.08h0c.52-.07,1.45-.15,2.65-.15m0-1c-1.99,0-3.26.2-3.26.2,0,0,0,.01-.02.03-3.94.39-7.46,2.08-8.84,5.94-1.01,2.83-.76,5.89-.49,8.86.38,4.2.76,8.39,1.14,12.59.27,2.94.73,6.23,3.24,8.04,1.66,1.2,3.8,1.6,5.97,1.6,1.07,0,2.15-.1,3.18-.24,3.05-.43,6.18-.49,9.16-1.3.02,0,.05-.02.07-.02.78-.11,1.57-.22,2.35-.33,1.43-.2,2.97-.45,4-1.39,1.31-1.19,1.41-3.08,1.42-4.78.03-4.68.07-9.36.1-14.04.01-2,.02-4.04-.6-5.95-1.19-3.62-4.58-6.38-8.41-7.73-3.4-1.2-6.71-1.48-9.03-1.48h0Z"/>
      <path class="cls-6" d="m83.88,226.05c3.13,0,5.57.77,7.26,2.28,5.01,4.49,9.94,14.72,5.77,21.47-2.53,4.09-6.91,5.93-9.3,6.66h-.04s-.04.03-.04.03c-2.31.95-4.96,1.51-7.08,1.51-.97,0-1.45-.13-1.61-.18-1.86-.62-7.7-4.3-10-12.75-2.3-8.44-1.73-14.06,1.61-15.82.17-.07,1.08-.45,2.41-.89h.03s.03-.02.03-.02c1.78-.69,6.43-2.31,10.99-2.31m0-1c-4.78,0-9.64,1.71-11.35,2.38-1.55.51-2.53.93-2.53.93-4.09,2.11-4.45,8.54-2.15,16.99,2.3,8.44,8.06,12.57,10.65,13.43.44.15,1.11.23,1.93.23,1.92,0,4.69-.45,7.46-1.59,3.58-1.1,7.51-3.28,9.86-7.09,4.51-7.29-.76-18.09-5.95-22.74-2.12-1.9-5.01-2.54-7.93-2.54h0Z"/>
      <path class="cls-6" d="m100.84,257.38c.6,0,1.14.07,1.62.21,3.76,1.12,7.22,5.76,9.09,8.25,1.56,2.08,2.97,5.06-.03,9.6-1.44,2.18-2.84,3.47-3.2,3.79l-.07.03-.14.15c-2.91,3.28-6.38,4.45-8.66,4.45-.3,0-.59-.02-.86-.06-2.83-.39-12.96-7.89-14.24-12.29-.93-3.19.55-5.36,1.95-6.62.71-.64,1.55-1.31,2.42-1.94l.04-.03.03-.03.03-.03h0c2.56-2.29,7.97-5.5,12.04-5.5m0-1c-4.26,0-9.87,3.21-12.72,5.77,0,0,0,0,0,0-.94.69-1.79,1.38-2.49,2.01-1.29,1.16-3.39,3.69-2.24,7.64,1.39,4.8,11.79,12.55,15.07,13,.32.04.65.07,1,.07,2.76,0,6.41-1.41,9.41-4.79,0,0,0,0,0,0,0,0,1.71-1.4,3.49-4.08,3.41-5.16,1.57-8.66,0-10.75-2.38-3.18-5.76-7.46-9.6-8.61-.59-.18-1.23-.26-1.9-.26h0Z"/>
      <path class="cls-6" d="m123.69,276.66c.06,0,.11,0,.16,0,1.87.19,6.4,3.3,7.37,4.26,1.14,1.12,1.24,5.45.31,12.85-.05.38-.09.69-.11.92-.02.22-.07.41-.13.61-.49,1.58-2.28,3.44-5.18,4.03-.75.15-1.49.23-2.21.23-2.8,0-4.92-1.16-6.46-2.02-.21-.11-.43-.23-.66-.36-2.16-1.16-5.13-2.75-6.41-5.75-.84-1.95.63-6.64,2.17-8,2.51-2.22,8.55-6.8,11.16-6.8m0-1c-3.32,0-10.15,5.57-11.82,7.05-1.79,1.58-3.48,6.69-2.43,9.15,1.57,3.66,5.32,5.38,7.51,6.58,1.75.96,3.98,2.14,6.95,2.14.76,0,1.56-.08,2.41-.25,3.03-.62,5.28-2.61,5.93-4.72.08-.23.14-.49.17-.8.26-2.28,1.81-12.33-.48-14.6-.91-.9-5.7-4.32-7.98-4.54-.09,0-.17-.01-.26-.01h0Z"/>
      <path class="cls-6" d="m147.87,285.05c2.13,0,6.29,1.51,7.09,1.93.88.45,1.91,2.92,2.17,8.51.08.95.1,1.89.06,2.53-.1,1.48-.66,4.18-3.28,5.64-1.47.82-2.99,1.22-4.63,1.22-1.17,0-2.23-.19-3.3-.41l-.56-.11c-1.92-.37-3.19-.61-5.12-2.86-1.17-1.36-1.24-5.37-.41-7.18.04-.08.08-.16.12-.24l.23-.38c4.02-6.73,6.1-8.4,7.14-8.62.13-.03.3-.04.5-.04m0-1c-.26,0-.5.02-.7.06-2.87.6-6.94,7.67-8.01,9.45-.07.11-.13.23-.18.35-.94,2.06-.92,6.5.57,8.24,2.36,2.74,4.02,2.85,6.24,3.3,1.02.2,2.2.43,3.5.43,1.55,0,3.27-.31,5.12-1.34,2.76-1.54,3.64-4.29,3.79-6.44.04-.61.03-1.58-.06-2.68-.16-3.44-.73-8.3-2.71-9.32-.93-.48-5.21-2.04-7.55-2.04h0Z"/>
      <path class="cls-6" d="m246.34,187.31c1.2,0,2.13.08,2.65.13l.02.04.5.05c2.89.29,6.62,1.44,8,5.28.95,2.66.68,5.73.43,8.43l-1.14,12.59c-.26,2.86-.69,5.78-2.83,7.32-1.3.94-3.11,1.41-5.38,1.41-.92,0-1.94-.08-3.04-.23-1.04-.15-2.09-.25-3.11-.35-2.07-.21-4.02-.4-5.88-.91l-.06-.02h-.03s-.07-.03-.07-.03h-.08s-2.35-.34-2.35-.34c-1.44-.2-2.69-.43-3.47-1.14-.99-.89-1.08-2.42-1.09-4.04v-.18s-.1-13.85-.1-13.85c-.01-1.9-.03-3.86.55-5.63,1.01-3.08,3.92-5.73,7.79-7.1,3.33-1.17,6.57-1.42,8.7-1.42m0-1c-2.32,0-5.63.28-9.03,1.48-3.82,1.35-7.22,4.11-8.41,7.73-.63,1.91-.62,3.95-.6,5.95.03,4.68.07,9.36.1,14.04.01,1.7.11,3.59,1.42,4.78,1.04.94,2.57,1.19,4,1.39.78.11,1.57.22,2.35.33.02,0,.05.02.07.02,2.98.81,6.11.87,9.16,1.3,1.03.15,2.11.24,3.18.24,2.17,0,4.3-.4,5.97-1.6,2.52-1.81,2.98-5.1,3.24-8.04.38-4.2.76-8.39,1.14-12.59.27-2.97.53-6.03-.49-8.86-1.38-3.86-4.9-5.55-8.84-5.94,0-.01-.02-.03-.02-.03,0,0-1.27-.2-3.26-.2h0Z"/>
      <path class="cls-6" d="m237.25,226.48c4.56,0,9.21,1.61,10.99,2.31h.03s.03.02.03.02c1.34.44,2.24.81,2.41.89,3.34,1.76,3.92,7.37,1.61,15.82-2.31,8.45-8.14,12.13-10,12.75-.16.05-.64.18-1.61.18-2.12,0-4.77-.57-7.08-1.51l-.04-.02h-.04c-2.39-.74-6.77-2.58-9.3-6.67-4.17-6.75.76-16.98,5.77-21.47,1.69-1.52,4.13-2.28,7.26-2.28m0-1c-2.92,0-5.81.64-7.93,2.54-5.19,4.65-10.46,15.45-5.95,22.74,2.35,3.81,6.28,5.99,9.86,7.09,2.78,1.14,5.55,1.59,7.46,1.59.82,0,1.49-.08,1.93-.23,2.59-.86,8.35-4.99,10.65-13.43,2.3-8.44,1.94-14.87-2.15-16.99,0,0-.98-.42-2.53-.93-1.71-.66-6.57-2.37-11.35-2.37h0Z"/>
      <path class="cls-6" d="m219.48,256.72c4.07,0,9.5,3.22,12.05,5.5l.04.04.05.03c.87.63,1.7,1.31,2.42,1.95,1.4,1.26,2.88,3.42,1.95,6.62-1.28,4.41-11.42,11.9-14.24,12.29-.27.04-.56.06-.86.06-2.28,0-5.75-1.17-8.66-4.45l-.16-.18-.06-.03c-.39-.34-1.77-1.64-3.18-3.77-3-4.54-1.59-7.51-.03-9.6,1.86-2.49,5.33-7.12,9.09-8.25.48-.14,1.02-.21,1.62-.21m0-1c-.67,0-1.31.08-1.9.26-3.84,1.15-7.22,5.43-9.6,8.61-1.57,2.09-3.41,5.59,0,10.75,1.77,2.68,3.49,4.08,3.49,4.08h0c3,3.38,6.65,4.79,9.41,4.79.35,0,.68-.02,1-.07,3.27-.45,13.67-8.2,15.07-13,1.15-3.95-.95-6.48-2.24-7.64-.7-.63-1.55-1.32-2.49-2.01,0,0,0,0,0,0-2.85-2.56-8.47-5.77-12.73-5.77h0Z"/>
      <path class="cls-6" d="m198.59,276.07c2.61,0,8.64,4.58,11.16,6.8,1.54,1.36,3.01,6.05,2.17,8-1.28,3-4.25,4.59-6.41,5.74-.23.12-.45.24-.66.36-1.55.85-3.67,2.02-6.46,2.02-.72,0-1.46-.08-2.21-.23-2.9-.6-4.69-2.46-5.19-4.07-.06-.17-.1-.36-.12-.58-.03-.23-.07-.54-.11-.92-.93-7.4-.83-11.73.31-12.85.97-.96,5.5-4.07,7.37-4.26.05,0,.11,0,.16,0m0-1c-.09,0-.18,0-.26.01-2.28.23-7.07,3.65-7.98,4.54-2.3,2.27-.74,12.32-.48,14.6.03.31.09.57.17.8.65,2.1,2.91,4.09,5.93,4.72.85.18,1.66.25,2.41.25,2.96,0,5.2-1.18,6.95-2.14,2.19-1.2,5.94-2.92,7.51-6.58,1.05-2.45-.63-7.56-2.43-9.15-1.67-1.48-8.5-7.05-11.82-7.05h0Z"/>
      <path class="cls-6" d="m174.41,285.05c.25,0,.41.02.5.04,1.04.22,3.11,1.89,7.14,8.62l.22.38c.05.08.09.15.13.25.82,1.8.75,5.81-.42,7.17-1.93,2.25-3.2,2.49-5.12,2.86l-.56.11c-1.07.21-2.13.41-3.3.41-1.65,0-3.16-.4-4.63-1.22-2.62-1.46-3.18-4.16-3.28-5.64-.04-.64-.02-1.59.06-2.57.26-5.56,1.29-8.03,2.17-8.48.8-.41,4.97-1.93,7.09-1.93m0-1c-2.34,0-6.62,1.56-7.55,2.04-1.98,1.02-2.55,5.88-2.71,9.32-.09,1.11-.1,2.07-.06,2.68.14,2.15,1.03,4.9,3.79,6.44,1.85,1.03,3.57,1.34,5.12,1.34,1.3,0,2.48-.22,3.5-.43,2.23-.45,3.89-.55,6.24-3.3,1.49-1.74,1.51-6.18.57-8.24-.05-.12-.11-.24-.18-.35-1.08-1.78-5.14-8.86-8.01-9.45-.2-.04-.44-.06-.7-.06h0Z"/>
    </g>
  </g>
  <g>
    <path class="cls-4" d="m243.92,143.78s-28.71,0-36.18-12.3c-7.33-12.05-23.75-25.67-46.18-25.67s-38.71,13.71-46.18,25.67c-7.65,12.26-40.44,12.3-40.92,12.3.37-.01,14.33-.57,15.57-8.64,1.26-8.19-2.55-95.21,69.16-95.21s67.9,87.03,69.16,95.21c1.26,8.18,15.57,8.64,15.57,8.64Z"/>
    <path class="cls-1" d="m224.45,115.42c0-69.18-53.74-72.18-64.92-72.06-11.18-.12-64.92,2.88-64.92,72.06,0,0,11.27-56.6,64.92-58,53.65,1.4,64.92,58,64.92,58Z"/>
    <path class="cls-1" d="m116.13,112.63c-1.21.95-2.94-.15-2.58-1.65,1.22-5.05,2.84-10.17,5-15,8.05-17.98,20.96-26.35,40.63-26.35s32.58,8.38,40.64,26.37c1.55,3.46,2.82,7.07,3.86,10.7.41,1.44-1.17,2.61-2.43,1.8-.22-.14-.44-.28-.66-.42-11.76-7.38-25.26-11.28-39.04-11.28-18.46,0-33.86,6.74-45.43,15.83Z"/>
    <path class="cls-4" d="m257.84,139c-3.01,5.61-13.92,4.79-13.92,4.79,0,0-14.32-.46-15.57-8.64-1.25-8.19,2.55-95.21-69.16-95.21s-67.9,87.03-69.16,95.21c-1.24,8.07-15.2,8.63-15.57,8.64h0s-10.91.83-13.92-4.79c-3.01-5.61-3.61-52.38,22.19-85.25,29.77-37.94,76.47-36.27,76.47-36.27,0,0,46.7-1.67,76.47,36.27,25.79,32.87,25.2,79.63,22.19,85.25Z"/>
    <path class="cls-5" d="m60.61,106.56c6.35-38.39,26.37-69.04,62.93-82.75,12.46-4.67,25.59-6.82,35.66-6.75-.56,0,6.83-.31,18.1,1.82,42.19,8.1,72.22,37.89,80.45,87.68l-.42.07c-2.79-11.77-6.53-23.3-12.23-33.77-2.76-5.26-5.85-10.34-9.48-14.99-14.44-18.58-35.48-30.59-59.1-34.91-12.06-2.26-22.98-2.18-34.68,0-17.01,3.12-32.84,10.58-43.62,19.35-10.79,8.47-18.46,18.16-24.95,30.55-5.71,10.48-9.45,22-12.24,33.77l-.42-.07Z"/>
    <path class="cls-2" d="m258.1,139.13c-3.86,8.49-26.75,7.6-31.01-1.01-.48-.89-.36-.6-.65-1.5-.51-1.78-.31-.43-.97-6.69-2.09-24.4-8.03-53.75-26.07-70.43-9.19-8.48-20.66-13.23-32.98-14.14-1.7-.19,0-.08-7-.32-.42,0-5.92.15-7.01.27l-4.62.53c-37.37,5.93-50.37,41.07-54.34,78.71-1,9.9-.93,10.8-1.87,13.04-.84,1.56-.63,1.22-1.82,2.63-6.43,6.44-25.71,6.8-29.47-1.08l.5-.27c2.33,4.11,8.97,4.84,13.65,4.61,2.65-.08,6.58-.8,9.58-2.13,4.21-1.9,5.51-4.28,5.76-7.04.36-6.61.61-13.3,1.4-19.91,5.38-47.24,28.23-78.6,75.77-74.62,13.35,1.1,26.26,6.43,36.09,15.96,9.73,9.39,15.7,21.67,19.48,34.59,5.88,20.07,5.6,39.07,6.13,44.43.46,3.44,2.91,5.42,6.13,6.77,3.8,1.57,9.37,2.46,14.54,1.73,3.14-.45,6.77-1.6,8.28-4.39l.5.27Z"/>
    <g>
      <path class="cls-6" d="m145.78,12.82c5.23,0,8.71.44,10.34,1.3,1.08.58,1.12,1.17,1.17,2.14.01.24.03.48.06.71.24,1.95.45,13.79-4.41,19.29-1.66,1.88-3.69,2.79-6.2,2.79-11.65,0-16.48-12.04-16.81-19.71.36-.73,3.63-6.53,15.85-6.53m0-1c-13.55,0-16.86,6.97-16.86,7.4,0,0,0,.02,0,.06.29,7.82,5.37,20.78,17.81,20.78s11.88-21.01,11.61-23.2c-.28-2.19,1-5.04-12.56-5.04h0Z"/>
      <path class="cls-6" d="m116.62,20.3c1.87,0,3.4.71,4.69,2.18,1.67,1.91,3.2,4.76,4.42,8.24,1.88,5.37,2.57,10.85,2.22,12.27-.47,1.94-5.97,5.6-8.39,5.6-.1,0-.19,0-.27-.02-1.46-.27-6.19-3.18-10.3-7.12-2.66-2.55-4.61-5.1-5.64-7.39-2.18-4.79,1.97-8.37,4.62-10.08.76-.48,1.51-.96,2.26-1.46,1.29-.83,3.83-2.23,6.4-2.23m0-1c-2.81,0-5.5,1.45-6.94,2.39-.75.49-1.5.97-2.25,1.45-2.42,1.55-7.57,5.66-5,11.34,1.21,2.68,3.43,5.36,5.86,7.7,4.21,4.04,9.11,7.06,10.81,7.38.14.03.29.04.45.04,2.84,0,8.77-3.93,9.37-6.37.42-1.67-.32-7.35-2.24-12.84-1.12-3.21-2.66-6.34-4.61-8.57-1.64-1.88-3.57-2.52-5.44-2.52h0Z"/>
      <path class="cls-6" d="m94.24,38.16c1.07,0,2.11.3,3.08.9,2.16,1.32,4.39,3.64,6.45,6.71,3.19,4.75,5.17,10.06,5.14,11.63-.04,2.33-5.53,8.65-7.83,9.03-.08.01-.23.03-.47.03-1.92,0-6.85-1.08-11.82-3.49-3.32-1.61-5.92-3.48-7.51-5.41-3.5-4.23.59-9.82,2.5-12.02.67-.76,1.33-1.53,1.99-2.3,1.32-1.53,4.78-5.08,8.46-5.08m0-1c-4,0-7.58,3.52-9.22,5.43-.66.77-1.32,1.53-1.99,2.29-2.14,2.45-6.51,8.5-2.52,13.32,1.88,2.28,4.79,4.19,7.85,5.67,4.78,2.32,9.96,3.59,12.26,3.59.24,0,.45-.01.63-.04,2.8-.45,8.61-7.16,8.67-10,.04-1.85-2.04-7.34-5.31-12.21-1.91-2.84-4.22-5.46-6.76-7.01-1.21-.74-2.43-1.05-3.6-1.05h0Z"/>
      <path class="cls-6" d="m75.65,67.05c.66,0,1.36.09,2.07.27,1.18.31,2.48.79,3.86,1.44l.05.02.05.02c3.07,1.04,6.73,3.14,9.56,5.47,1.63,1.35,2.94,3.24,3.9,5.61,1.26,3.12.44,8.78-2.01,13.76-1.91,3.9-4.45,6.62-6.79,7.28-.5.14-1.2.21-2.09.21-1.63,0-3.49-.23-4.85-.41l-.34-.04c-2.35-.29-5.96-1.39-8.59-2.62l-.04-.02-.04-.02c-2.33-.84-4.2-1.76-5.28-2.61-2.77-2.19-2.98-6.16-2.66-9.11.81-7.58,5.82-16.33,10.72-18.74.72-.35,1.55-.53,2.47-.53m0-1c-1.01,0-2.01.19-2.91.63-8.09,3.97-15.94,23.45-8.24,29.53,1.26,1,3.37,1.98,5.56,2.77,2.86,1.33,6.57,2.42,8.88,2.71,1.36.17,3.48.46,5.31.46.89,0,1.72-.07,2.36-.25,6.49-1.83,12.09-15.85,9.45-22.38-.93-2.3-2.28-4.42-4.19-6.01-2.67-2.21-6.41-4.48-9.88-5.65-1.36-.64-2.73-1.17-4.04-1.51-.75-.19-1.54-.31-2.32-.31h0Z"/>
      <path class="cls-6" d="m68.34,105.21c1.03,0,2.18.1,3.56.31h.08c.31.05.63.1.99.15,1.18.13,5.72.99,8.99,2.14,5.02,1.59,6.33,3.55,6.07,9.1-.03.64-.1,1.48-.19,2.45-.24,2.81-.57,6.65-.29,10.37.25,3.28-1.37,5.36-4.68,6.04-2.34.48-4.89.73-7.36.73-.48,0-.96,0-1.43-.03h-.04s-.04,0-.04,0c-.41.02-.82.02-1.24.02-4.97,0-11.55-1.11-14.64-6.39-3.19-5.46-3.18-15.83,1.6-21.02,2.47-2.68,5.12-3.87,8.6-3.87m0-1c-3.43,0-6.42,1.03-9.34,4.19-5.09,5.52-5.13,16.38-1.73,22.2,3.04,5.21,9.37,6.88,15.5,6.88.43,0,.85,0,1.27-.02.49.02.99.03,1.48.03,2.7,0,5.32-.29,7.56-.75,3.74-.76,5.78-3.2,5.48-7.1-.38-4.93.36-10.17.47-12.7.28-6.07-1.4-8.39-6.77-10.1-3.43-1.2-8.05-2.05-9.18-2.18-.33-.05-.66-.1-.98-.14-.04,0-.07,0-.09-.01-1.28-.2-2.5-.32-3.67-.32h0Z"/>
      <path class="cls-6" d="m174.22,12.82c12.23,0,15.5,5.8,15.85,6.53-.33,7.67-5.16,19.71-16.81,19.71-2.51,0-4.54-.91-6.2-2.79-4.86-5.5-4.65-17.34-4.41-19.28.03-.23.04-.47.06-.71.06-.98.09-1.57,1.17-2.14,1.63-.87,5.11-1.3,10.34-1.3m0-1c-13.56,0-12.29,2.85-12.56,5.04-.27,2.2-.87,23.2,11.61,23.2s17.52-12.96,17.81-20.78c0-.04,0-.06,0-.06,0-.44-3.32-7.4-16.86-7.4h0Z"/>
      <path class="cls-6" d="m203.38,20.3h0c2.57,0,5.11,1.4,6.4,2.23.75.49,1.51.98,2.26,1.46,2.66,1.71,6.8,5.29,4.63,10.08-1.03,2.28-2.99,4.84-5.64,7.39-4.11,3.94-8.84,6.85-10.3,7.12-.08.01-.17.02-.27.02-2.43,0-7.92-3.67-8.39-5.61-.35-1.42.33-6.9,2.22-12.27,1.22-3.48,2.75-6.33,4.42-8.24,1.28-1.47,2.82-2.18,4.69-2.18m0-1c-1.87,0-3.8.65-5.44,2.52-1.95,2.23-3.49,5.36-4.61,8.57-1.92,5.48-2.66,11.17-2.24,12.84.6,2.43,6.53,6.37,9.37,6.37.16,0,.31-.01.45-.04,1.7-.32,6.6-3.34,10.81-7.38,2.44-2.34,4.65-5.02,5.86-7.7,2.58-5.68-2.58-9.79-5-11.34-.75-.48-1.5-.96-2.25-1.45-1.45-.94-4.14-2.39-6.94-2.39h0Z"/>
      <path class="cls-6" d="m225.76,38.16h0c3.68,0,7.14,3.55,8.46,5.08.66.77,1.33,1.54,1.99,2.3,1.92,2.21,6.01,7.79,2.51,12.03-1.59,1.93-4.19,3.8-7.51,5.41-4.97,2.41-9.9,3.49-11.82,3.49-.24,0-.38-.02-.47-.03-2.3-.37-7.78-6.7-7.83-9.03-.04-1.57,1.95-6.88,5.14-11.63,2.06-3.07,4.29-5.39,6.45-6.71.98-.6,2.01-.9,3.08-.9m0-1c-1.18,0-2.39.31-3.6,1.05-2.53,1.55-4.85,4.17-6.76,7.01-3.26,4.86-5.35,10.36-5.31,12.21.05,2.84,5.86,9.54,8.67,10,.17.03.38.04.63.04,2.3,0,7.48-1.27,12.26-3.59,3.06-1.48,5.97-3.4,7.85-5.67,3.99-4.82-.39-10.87-2.52-13.32-.67-.76-1.33-1.52-1.99-2.29-1.64-1.9-5.22-5.43-9.22-5.43h0Z"/>
      <path class="cls-6" d="m244.35,67.05c.92,0,1.75.18,2.47.53,4.9,2.41,9.92,11.17,10.72,18.74.31,2.95.11,6.92-2.66,9.11-1.07.85-2.95,1.78-5.28,2.61l-.04.02-.04.02c-2.63,1.23-6.24,2.33-8.59,2.62l-.34.04c-1.36.17-3.22.41-4.85.41-.89,0-1.59-.07-2.09-.21-2.34-.66-4.88-3.38-6.79-7.28-2.44-4.98-3.27-10.64-2.01-13.76.96-2.37,2.27-4.26,3.9-5.61,2.82-2.34,6.49-4.44,9.56-5.47l.05-.02.05-.02c1.38-.65,2.68-1.14,3.86-1.44.71-.18,1.4-.27,2.07-.27m0-1c-.78,0-1.56.11-2.32.31-1.31.34-2.68.86-4.04,1.51-3.47,1.17-7.2,3.44-9.88,5.65-1.91,1.58-3.26,3.71-4.19,6.01-2.64,6.53,2.97,20.55,9.45,22.38.64.18,1.47.25,2.36.25,1.84,0,3.95-.29,5.31-.46,2.31-.29,6.03-1.37,8.88-2.71,2.19-.79,4.29-1.77,5.56-2.77,7.7-6.09-.15-25.56-8.24-29.53-.9-.44-1.9-.63-2.91-.63h0Z"/>
      <path class="cls-6" d="m251.65,105.09c3.25,0,5.79,1.11,8.24,3.61,4.95,5.04,5.28,15.41,2.26,20.96-3.24,5.97-11.09,6.86-15.48,6.86h-.18s-.04,0-.04,0h-.04c-.84.06-1.71.09-2.59.09-2.1,0-4.25-.18-6.22-.52-3.34-.57-5.02-2.61-4.87-5.89.17-3.73-.28-7.56-.61-10.36-.11-.97-.21-1.8-.26-2.44-.43-5.54.81-7.53,5.81-9.3,3.2-1.24,7.71-2.24,8.93-2.41.32-.06.63-.11.95-.17l.12-.02c1.56-.29,2.83-.42,3.99-.42m0-1c-1.33,0-2.71.17-4.17.44-.03,0-.06,0-.1.02-.31.05-.63.11-.96.17-1.13.16-5.72,1.15-9.11,2.46-5.32,1.87-6.92,4.25-6.45,10.31.2,2.53,1.1,7.74.87,12.68-.18,3.9,1.94,6.28,5.7,6.92,1.92.33,4.11.53,6.39.53.88,0,1.77-.03,2.66-.09.06,0,.13,0,.19,0,6.46,0,13.31-1.77,16.36-7.38,3.22-5.93,2.84-16.78-2.43-22.14-2.86-2.92-5.74-3.91-8.95-3.91h0Z"/>
    </g>
  </g>
</svg>