<?xml version="1.0" encoding="UTF-8"?>
<svg id="Layer_1" data-name="Layer 1" xmlns="http://www.w3.org/2000/svg" viewBox="0 0 320 320">
  <defs>
    <style>
      .cls-1 {
        fill: #b3e2f2;
      }

      .cls-2 {
        fill: #e3f7fc;
      }

      .cls-3 {
        fill: none;
      }

      .cls-4 {
        fill: #9fdaed;
      }

      .cls-5 {
        fill: #cbedfa;
      }
    </style>
  </defs>
  <rect class="cls-3" width="320" height="320"/>
  <g id="_16bulan" data-name="16bulan">
    <g>
      <path class="cls-4" d="m88.36,63.87c5.29,2.56,11.05,3.85,12.88,3.55,2.8-.45,8.61-7.16,8.67-10,.04-1.85-2.04-7.34-5.31-12.21-1.91-2.84-4.22-5.46-6.76-7.01-5.34-3.26-10.7,1.92-12.82,4.38-.66.77-1.32,1.53-1.99,2.29-2.14,2.45-6.51,8.5-2.52,13.32,1.88,2.28,4.79,4.19,7.85,5.67Z"/>
      <path class="cls-1" d="m88.36,63.87c4.25,1.45,8.24,2.04,9.75,1.72,2.95-.62,9.35-8.01,9.55-11.01.1-1.54-1.04-5.38-3.06-9.36-1.91-2.84-4.22-5.46-6.76-7.01-5.34-3.26-10.7,1.92-12.82,4.38-.66.77-1.32,1.53-1.99,2.29-2.14,2.45-6.51,8.5-2.52,13.32,1.88,2.28,4.79,4.19,7.85,5.67Z"/>
      <path class="cls-5" d="m101.73,59.08l.1-.12c2.25-2.6,2.98-6.12,1.88-9.03h0c-1.16-3.07-2.85-5.87-5.11-8.15-.98-.99-1.97-1.8-2.93-2.39-1.92-1.18-5.17-1.47-9.75,3.8-.73.84-1.42,1.64-2.14,2.47-4.59,5.3-3.84,8.47-2.4,10.21.85,1.03,2,2.04,3.4,3.01,2.41,1.66,5.18,2.79,8.11,3.44h0c3.08.68,6.49-.55,8.77-3.18l.07-.08Z"/>
      <path class="cls-2" d="m92.81,40.56c.32-.2.17-.68-.18-.61-1.13.23-2.29.82-3.22,1.48-1.4.98-2.57,2.28-3.61,3.47-1.04,1.19-2.15,2.52-2.94,4.05-.53,1.01-.97,2.25-1.05,3.4-.02.36.46.44.63.1,1.16-2.43,3.15-4.36,4.82-6.29,1.7-1.96,3.33-4.18,5.55-5.61Z"/>
    </g>
    <g>
      <path class="cls-4" d="m231.64,63.87c-5.29,2.56-11.05,3.85-12.88,3.55-2.8-.45-8.61-7.16-8.67-10-.04-1.85,2.04-7.34,5.31-12.21,1.91-2.84,4.22-5.46,6.76-7.01,5.34-3.26,10.7,1.92,12.82,4.38.66.77,1.32,1.53,1.99,2.29,2.14,2.45,6.51,8.5,2.52,13.32-1.88,2.28-4.79,4.19-7.85,5.67Z"/>
      <path class="cls-1" d="m231.64,63.87c-4.25,1.45-8.24,2.04-9.75,1.72-2.95-.62-9.35-8.01-9.55-11.01-.1-1.54,1.04-5.38,3.06-9.36,1.91-2.84,4.22-5.46,6.76-7.01,5.34-3.26,10.7,1.92,12.82,4.38.66.77,1.32,1.53,1.99,2.29,2.14,2.45,6.51,8.5,2.52,13.32-1.88,2.28-4.79,4.19-7.85,5.67Z"/>
      <path class="cls-5" d="m218.27,59.08l-.1-.12c-2.25-2.6-2.98-6.12-1.88-9.03h0c1.16-3.07,2.85-5.87,5.11-8.15.98-.99,1.97-1.8,2.93-2.39,1.92-1.18,5.17-1.47,9.75,3.8.73.84,1.42,1.64,2.14,2.47,4.59,5.3,3.84,8.47,2.4,10.21-.85,1.03-2,2.04-3.4,3.01-2.41,1.66-5.18,2.79-8.11,3.44h0c-3.08.68-6.49-.55-8.77-3.18l-.07-.08Z"/>
      <path class="cls-2" d="m227.19,40.56c-.32-.2-.17-.68.18-.61,1.13.23,2.29.82,3.22,1.48,1.4.98,2.57,2.28,3.61,3.47,1.04,1.19,2.15,2.52,2.94,4.05.53,1.01.97,2.25,1.05,3.4.02.36-.46.44-.63.1-1.16-2.43-3.15-4.36-4.82-6.29-1.7-1.96-3.33-4.18-5.55-5.61Z"/>
    </g>
  </g>
</svg>