<?xml version="1.0" encoding="UTF-8"?>
<svg id="Layer_1" data-name="Layer 1" xmlns="http://www.w3.org/2000/svg" viewBox="0 0 320 320">
  <defs>
    <style>
      .cls-1 {
        fill: #b3e2f2;
      }

      .cls-2 {
        fill: #e3f7fc;
      }

      .cls-3 {
        fill: none;
      }

      .cls-4 {
        fill: #9fdaed;
      }

      .cls-5 {
        fill: #cbedfa;
      }
    </style>
  </defs>
  <rect class="cls-3" width="320" height="320"/>
  <g id="_12bulan" data-name="12bulan">
    <g>
      <path class="cls-4" d="m96.07,79.52c-.93-2.3-2.28-4.42-4.19-6-3.01-2.5-7.39-5.07-11.19-6.05-1.73-.45-3.62-.46-5.22.33-8.09,3.97-15.94,23.45-8.24,29.53,2.55,2.01,8.5,3.96,11.72,4.36,2.03.25,5.71.76,7.67.21,6.49-1.83,12.09-15.85,9.45-22.38Z"/>
      <path class="cls-1" d="m93.35,78.41c-.93-2.3-2.28-4.42-4.19-6-3.01-2.5-7.39-5.07-11.19-6.05-1.73-.45-3.62-.46-5.22.33-8.09,3.97-15.94,23.45-8.24,29.53,2.55,2.01,8.5,3.96,11.72,4.36,2.03.25,5.71.76,7.67.21,6.49-1.83,12.09-15.85,9.45-22.38Z"/>
      <path class="cls-5" d="m90.79,81.84c.21,4.22-1.88,9.73-4.3,12.73-3.27,4.06-7.69,5.06-12.75,3.37-2.5-.83-4.79-2.2-7.06-3.55-3.22-1.93-4.18-3.15-3.68-6.8.79-5.74,3.05-11.27,6.51-15.91,1.02-1.37,2.29-2.74,3.97-3,1.26-.19,2.51.29,3.68.8,3.42,1.48,6.53,3.36,9.7,5.29,1.22.74,1.97,1.12,2.69,2.46.76,1.42,1.14,3.01,1.23,4.61Z"/>
      <path class="cls-4" d="m78.81,79.67c.32-.64.77-1.2,1.1-1.84.33-.63.55-1.37.34-2.06-.2-.68-.93-1.24-1.62-1.05-.7.2-1.01.99-1.22,1.69-.48,1.65-.92,3.34-1.86,4.78s-2.5,2.6-4.21,2.55c-.86-.03-1.9-.28-2.44.39-.51.63-.06,1.64.64,2.04.71.4,1.56.39,2.36.48.81.09,1.68.34,2.1,1.04.42.71.2,1.64-.19,2.37-.39.73-.94,1.39-1.2,2.18s-.12,1.81.6,2.22c.9.51,2.05-.27,2.44-1.22s.3-2.03.49-3.04c.19-1.01.82-2.1,1.85-2.2,1.25-.13,2.23,1.26,3.49,1.27.63,0,1.25-.39,1.51-.97s.15-1.3-.26-1.78c-.95-1.08-2.8-.82-3.75-1.92-1.07-1.23-.86-3.57-.18-4.92Z"/>
      <path class="cls-2" d="m68.47,93.51c.66.12,1.1-.66.67-1.17-.84-.99-1.67-1.86-1.82-2.39-.37-1.23-.5-2.24-.53-3.2-.02-.69-.91-.96-1.3-.39,0,0,0,0,0,.01-.48.72-.81,1.71-.83,2.84,0,1.24.34,2.27,1.3,3.1.68.59,1.59,1.02,2.53,1.2Z"/>
      <path class="cls-2" d="m75.09,73.19c.43-.4.17-1.11-.4-1.18-.31-.04-.61-.05-.81-.02-2.39.3-4.93,3.34-5.22,6.7-.06.64.7,1.02,1.17.57,2.02-1.94,3.79-4.69,5.26-6.07Z"/>
      <path class="cls-2" d="m79.05,95.36c-.65.32-.29,1.3.43,1.17,2.97-.56,6.1-2.99,7.89-7.43.42-1.14.83-2.26,1.07-3.51.19-1.24.3-2.53.03-3.8-.27-1.4-.85-2.58-1.61-3.51-.47-.57-1.35-.02-1.06.66.43,1,.64,2.04.65,3.07.09,2.21-.88,4.54-1.47,6.09-1.27,3.15-3.17,5.88-5.94,7.25Z"/>
    </g>
    <g>
      <path class="cls-4" d="m223.93,79.52c.93-2.3,2.28-4.42,4.19-6,3.01-2.5,7.39-5.07,11.19-6.05,1.73-.45,3.62-.46,5.22.33,8.09,3.97,15.94,23.45,8.24,29.53-2.55,2.01-8.5,3.96-11.72,4.36-2.03.25-5.71.76-7.67.21-6.49-1.83-12.09-15.85-9.45-22.38Z"/>
      <path class="cls-1" d="m226.66,78.41c.93-2.3,2.28-4.42,4.19-6,3.01-2.5,7.39-5.07,11.19-6.05,1.73-.45,3.62-.46,5.22.33,8.09,3.97,15.94,23.45,8.24,29.53-2.55,2.01-8.5,3.96-11.72,4.36-2.03.25-5.71.76-7.67.21-6.49-1.83-12.09-15.85-9.45-22.38Z"/>
      <path class="cls-5" d="m229.21,81.84c-.21,4.22,1.88,9.73,4.3,12.73,3.27,4.06,7.69,5.06,12.75,3.37,2.5-.83,4.79-2.2,7.06-3.55,3.22-1.93,4.18-3.15,3.68-6.8-.79-5.74-3.05-11.27-6.51-15.91-1.02-1.37-2.29-2.74-3.97-3-1.26-.19-2.51.29-3.68.8-3.42,1.48-6.53,3.36-9.7,5.29-1.22.74-1.97,1.12-2.69,2.46-.76,1.42-1.14,3.01-1.23,4.61Z"/>
      <path class="cls-4" d="m241.19,79.67c-.32-.64-.77-1.2-1.1-1.84-.33-.63-.55-1.37-.34-2.06.2-.68.93-1.24,1.62-1.05.7.2,1.01.99,1.22,1.69.48,1.65.92,3.34,1.86,4.78s2.5,2.6,4.21,2.55c.86-.03,1.9-.28,2.44.39.51.63.06,1.64-.64,2.04-.71.4-1.56.39-2.36.48-.81.09-1.68.34-2.1,1.04-.42.71-.2,1.64.19,2.37.39.73.94,1.39,1.2,2.18.26.79.12,1.81-.6,2.22-.9.51-2.05-.27-2.44-1.22s-.3-2.03-.49-3.04c-.19-1.01-.82-2.1-1.85-2.2-1.25-.13-2.23,1.26-3.49,1.27-.63,0-1.25-.39-1.51-.97s-.15-1.3.26-1.78c.95-1.08,2.8-.82,3.75-1.92,1.07-1.23.86-3.57.18-4.92Z"/>
      <path class="cls-2" d="m251.53,93.51c-.66.12-1.1-.66-.67-1.17.84-.99,1.67-1.86,1.82-2.39.37-1.23.5-2.24.53-3.2.02-.69.91-.96,1.3-.39,0,0,0,0,0,.01.48.72.81,1.71.83,2.84,0,1.24-.34,2.27-1.3,3.1-.68.59-1.59,1.02-2.53,1.2Z"/>
      <path class="cls-2" d="m244.92,73.19c-.43-.4-.17-1.11.4-1.18.31-.04.61-.05.81-.02,2.39.3,4.93,3.34,5.22,6.7.06.64-.7,1.02-1.17.57-2.02-1.94-3.79-4.69-5.26-6.07Z"/>
      <path class="cls-2" d="m240.96,95.36c.65.32.29,1.3-.43,1.17-2.97-.56-6.1-2.99-7.89-7.43-.42-1.14-.83-2.26-1.07-3.51-.19-1.24-.3-2.53-.03-3.8.27-1.4.85-2.58,1.61-3.51.47-.57,1.35-.02,1.06.66-.43,1-.64,2.04-.65,3.07-.09,2.21.88,4.54,1.47,6.09,1.27,3.15,3.17,5.88,5.94,7.25Z"/>
    </g>
    <g>
      <path class="cls-4" d="m71.89,227.62s13.49-5.86,19.92-.1c5.19,4.65,10.46,15.45,5.95,22.74-4.51,7.29-14.78,8.64-17.37,7.77-2.59-.86-8.35-4.99-10.65-13.43-2.3-8.44-1.94-14.87,2.15-16.99Z"/>
      <path class="cls-1" d="m70,228.29s13.49-5.86,19.92-.1c5.19,4.65,10.46,15.45,5.95,22.74-4.51,7.29-14.78,8.64-17.37,7.77s-8.35-4.99-10.65-13.43-1.94-14.87,2.15-16.99Z"/>
      <path class="cls-5" d="m80.44,255.76c3.37,0,9.8-1.76,12.73-6.49,1.92-3.11,1.25-6.98.35-9.68-1.15-3.43-3.34-6.89-5.72-9.02-1.28-1.14-3.23-1.73-5.8-1.73-4.77,0-9.82,2-10.62,2.33-2.17,1.25-2.35,6.31-.45,13.27,2.09,7.66,7.3,10.82,8.58,11.25h0s.28.07.93.07Z"/>
      <path class="cls-4" d="m86.82,243.91c.35.15.73.29,1,.56.28.27.42.72.22,1.04-.33.53-1.15.29-1.74.49-.64.21-.96.92-1.16,1.56-.46,1.48-.76,2.09-2.4,2.06-.79-.01-1.73-.22-1.99-.96-.17-.49.03-1.02.19-1.52,1.23-3.93.19-6.53-3.51-8.33-.4-.19-.82-.36-1.13-.66-.32-.3-.51-.8-.32-1.19.26-.55,1.05-.59,1.62-.36.57.23,1.08.63,1.68.7,1.56.18,2.01-2.76,3.87-2,.17.07.59,1.01.21,1.73-.53,1-1.12,1.32.05,4.16.79,1.92,1.51,1.9,3.42,2.73Z"/>
      <path class="cls-2" d="m87.35,234.64c.34.21.76-.12.63-.5-.57-1.72-2.67-3.25-5.24-2.95-.42.04-.91.17-1.38.38-.36.16-.32.69.06.8,1.45.4,3.5.74,5.93,2.27Z"/>
      <path class="cls-2" d="m72.38,239.94c.23.31.73.18.77-.2.11-.99.07-2.01,0-3.01-.08-1.33-.13-2.03.12-2.58.16-.34-.19-.71-.54-.57-.39.16-.78.49-1.07,1.03-.83,1.61-.39,3.89.71,5.34Z"/>
      <path class="cls-2" d="m82.52,252.86c.3-.21.21-.68-.15-.77-1-.25-1.67-.42-2.39-.69-1.37-.51-2.18-1.59-2.89-1.41-.59.18.15,1.38.56,1.94,1.08,1.61,3.44,1.9,4.86.92Z"/>
      <path class="cls-2" d="m91.66,242.22c-.24-.29-.71-.13-.74.24-.12,1.24-.32,2.94-.72,4.38-.11.39-.81,2.05-.42,1.92,2.09-.68,3.23-3.19,2.5-5.39-.14-.41-.34-.81-.62-1.15Z"/>
    </g>
    <g>
      <path class="cls-4" d="m131.93,280.15c2.3,2.27.74,12.32.48,14.6-.26,2.28-1.76,2.29-5.03,2.96-4.03.83-6.86-.65-8.96-1.81-2.1-1.15-5.69-2.8-7.19-6.3-1.01-2.35-1.09-5.44.63-6.95,1.72-1.52,8.87-7.36,12.08-7.04,2.28.23,7.07,3.65,7.98,4.54Z"/>
      <path class="cls-1" d="m131.05,281.92c2.4,2.37,1.63,10.44,1.37,12.82-.27,2.38-2.7,4.81-6.11,5.51-4.21.87-7.16-.68-9.36-1.89-2.19-1.2-5.94-2.92-7.51-6.58-1.05-2.45.63-7.56,2.43-9.15,1.79-1.58,7.49-5.79,10.85-5.46,2.38.24,7.39,3.81,8.33,4.75Z"/>
      <path class="cls-5" d="m129.89,294.46c.85-6.62.01-10.1-.62-10.72-.93-.91-5.57-4.03-6.93-4.03-2.11,0-6.53,2.86-8.77,4.84-1.26,1.12-3.03,4.28-2.27,7.14.7,2.63,3.68,4.59,5.64,5.64,2.13,1.15,3.93,1.54,6.47,1.54,0,0,5.92,0,6.49-4.41Z"/>
      <path class="cls-2" d="m112.47,290.58c-.22-.25-.63,0-.52.31.34,1,1.01,1.94,1.72,2.66,1.05,1.08,2.35,1.86,3.55,2.55,1.19.69,2.52,1.42,3.98,1.79.97.26,2.13.38,3.17.18.33-.06.34-.54.02-.61-2.31-.51-4.29-1.92-6.21-3.02-1.96-1.13-4.14-2.13-5.7-3.86Z"/>
    </g>
    <g>
      <path class="cls-4" d="m249.24,228.05s-13.49-5.87-19.92-.1c-5.19,4.65-10.46,15.45-5.95,22.74s14.78,8.64,17.37,7.77,8.35-4.99,10.65-13.43c2.3-8.44,1.94-14.87-2.15-16.99Z"/>
      <path class="cls-1" d="m251.13,228.72s-13.49-5.87-19.92-.1c-5.19,4.65-10.46,15.45-5.95,22.74s14.78,8.64,17.37,7.77,8.35-4.99,10.65-13.43c2.3-8.44,1.94-14.87-2.15-16.99Z"/>
      <path class="cls-5" d="m240.69,256.19c-3.37,0-9.8-1.76-12.73-6.49-1.92-3.11-1.25-6.98-.35-9.68,1.15-3.43,3.34-6.89,5.72-9.02,1.28-1.14,3.23-1.73,5.8-1.73,4.77,0,9.82,2,10.62,2.33,2.17,1.25,2.35,6.31.45,13.27-2.09,7.66-7.3,10.82-8.58,11.25h0s-.28.07-.93.07Z"/>
      <path class="cls-4" d="m234.31,244.34c-.35.15-.73.29-1,.56s-.42.72-.22,1.04c.33.53,1.15.29,1.74.49.64.21.96.92,1.16,1.56.46,1.48.76,2.09,2.4,2.06.79-.01,1.73-.22,1.99-.96.17-.49-.03-1.02-.19-1.52-1.23-3.93-.19-6.53,3.51-8.33.4-.19.82-.36,1.13-.66.32-.3.51-.8.32-1.19-.26-.55-1.05-.59-1.62-.36-.57.23-1.08.63-1.68.7-1.56.18-2.01-2.76-3.87-2-.17.07-.59,1.01-.21,1.73.53,1,1.12,1.32-.05,4.16-.79,1.92-1.51,1.9-3.42,2.73Z"/>
      <path class="cls-2" d="m233.78,235.07c-.34.21-.76-.12-.63-.5.57-1.72,2.67-3.25,5.24-2.95.42.04.91.17,1.38.38.36.16.32.69-.06.8-1.45.4-3.5.74-5.93,2.27Z"/>
      <path class="cls-2" d="m248.75,240.37c-.23.31-.73.18-.77-.2-.11-.99-.07-2.01,0-3.01.08-1.33.13-2.03-.12-2.58-.16-.34.19-.71.54-.57.39.16.78.49,1.07,1.03.83,1.61.39,3.89-.71,5.34Z"/>
      <path class="cls-2" d="m238.61,253.29c-.3-.21-.21-.68.15-.77,1-.25,1.67-.42,2.39-.69,1.37-.51,2.18-1.59,2.89-1.41.59.18-.15,1.38-.56,1.94-1.08,1.61-3.44,1.9-4.86.92Z"/>
      <path class="cls-2" d="m229.47,242.65c.24-.29.71-.13.74.24.12,1.24.32,2.94.72,4.38.11.39.81,2.05.42,1.92-2.09-.68-3.23-3.19-2.5-5.39.14-.41.34-.81.62-1.15Z"/>
    </g>
    <g>
      <path class="cls-4" d="m190.35,279.56c-2.3,2.27-.74,12.32-.48,14.6.26,2.28,1.76,2.29,5.03,2.96,4.03.83,6.86-.65,8.96-1.81,2.1-1.15,5.69-2.8,7.19-6.3,1.01-2.35,1.09-5.44-.63-6.95-1.72-1.52-8.87-7.36-12.08-7.04-2.28.23-7.07,3.65-7.98,4.54Z"/>
      <path class="cls-1" d="m191.23,281.34c-2.4,2.37-1.63,10.44-1.37,12.82.27,2.38,2.7,4.81,6.11,5.51,4.21.87,7.16-.68,9.36-1.89s5.94-2.92,7.51-6.58c1.05-2.45-.63-7.56-2.43-9.15-1.79-1.58-7.49-5.79-10.85-5.46-2.38.24-7.39,3.81-8.33,4.75Z"/>
      <path class="cls-5" d="m192.4,293.87c-.85-6.62-.01-10.1.62-10.72.93-.91,5.57-4.03,6.93-4.03,2.11,0,6.53,2.86,8.77,4.84,1.26,1.12,3.03,4.28,2.27,7.14-.7,2.63-3.68,4.59-5.64,5.64-2.13,1.15-3.93,1.54-6.47,1.54,0,0-5.92,0-6.49-4.41Z"/>
      <path class="cls-2" d="m209.81,289.99c.22-.25.63,0,.52.31-.34,1-1.01,1.94-1.72,2.66-1.05,1.08-2.35,1.86-3.55,2.55-1.19.69-2.52,1.42-3.98,1.79-.97.26-2.13.38-3.17.18-.33-.06-.34-.54-.02-.61,2.31-.51,4.29-1.92,6.21-3.02,1.96-1.13,4.14-2.13,5.7-3.86Z"/>
    </g>
  </g>
</svg>