<?xml version="1.0" encoding="UTF-8"?>
<svg id="Layer_1" data-name="Layer 1" xmlns="http://www.w3.org/2000/svg" viewBox="0 0 320 320">
  <defs>
    <style>
      .cls-1 {
        fill: #b3e2f2;
      }

      .cls-2 {
        fill: #e3f7fc;
      }

      .cls-3 {
        fill: none;
      }

      .cls-4 {
        fill: #9fdaed;
      }

      .cls-5 {
        fill: #cbedfa;
      }
    </style>
  </defs>
  <rect class="cls-3" width="320" height="320"/>
  <g id="_24bulan" data-name="24bulan">
    <g>
      <path class="cls-4" d="m82.27,106.86c5.37,1.7,7.05,4.03,6.77,10.1-.12,2.53-.85,7.77-.47,12.7.3,3.89-1.74,6.33-5.48,7.1-7.61,1.55-19.69,1.24-24.03-6.19-3.4-5.82-3.36-16.68,1.73-22.21,3.91-4.24,7.26-4.44,12.3-3.67,1.13.13,5.75.97,9.18,2.18Z"/>
      <path class="cls-1" d="m86.19,116.93c-.15,2.53-.85,7.77-.47,12.7.3,3.89-1.74,6.33-5.48,7.1-7.61,1.55-18.63,1.31-22.97-6.12-3.4-5.82-3.36-16.68,1.73-22.2,3.91-4.24,7.97-4.65,13.01-3.88,1.13.13,14.79,2.41,14.18,12.4Z"/>
      <path class="cls-5" d="m83.12,117.76c.15,3.83-.03,7.68-.51,11.48-.17,1.34-.4,2.72-1.17,3.83-.92,1.32-2.51,2.04-4.1,2.27-1.59.23-3.21.03-4.8-.17-2.92-.37-5.9-.76-8.59-1.95-2.7-1.19-5.13-3.31-5.99-6.13-.48-1.6-.43-3.3-.36-4.97.14-3.3.39-6.72,1.95-9.64,1.95-3.64,5.8-6.15,10.28-6.14,1.44,0,2.7.46,4.09.66,2.5.36,4.6.99,6.44,2.85,2.25,2.3,2.65,4.71,2.77,7.9Z"/>
      <path class="cls-4" d="m71.58,117.61c.65-.16,1.3-.56,1.93-.35.44.15.75.57.88,1.03.16.58.11.74-.16,5.49-.02.27-.03.54-.14.79-.74,1.74-2.14-.99-2.61-1.35-.54-.41-1.37-.54-1.89-.1-.38.32-.5.85-.52,1.34-.02.49.05.99-.04,1.48-.09.49-.37.98-.85,1.12-.6.18-1.2-.27-1.66-.7-.66-.62-1.3-1.29-1.7-2.1-.39-.82-.51-1.81-.1-2.62.69-1.37,2.51-1.7,1.89-4.19-.19-.78-.89-1.33-1.04-2.13-.12-.67.37-1.02,1.07-.75,1.11.42,1.6,1.69,2.5,2.39.69.54,1.57.86,2.42.65Z"/>
      <path class="cls-2" d="m66.47,130.83c-2.8-1.72-4.45-3.92-5.26-7.3-.11-.47-.8-.47-.91,0-.37,1.68-.02,3.69,1.2,5.36,1.21,1.67,2.98,2.63,4.67,2.81.49.05.72-.61.3-.87Z"/>
      <path class="cls-2" d="m66.87,110.07c.37-.26.19-.86-.26-.86-1.26,0-2.65.66-3.58,1.97-.78,1.07-1.16,2.43-1.16,3.76,0,.47.6.65.87.27.62-.9,1.16-1.92,1.86-2.89.6-.82,1.2-1.48,2.28-2.24Z"/>
      <path class="cls-2" d="m75.36,111.02c-1.6.16,1.95.9,2.66,3.04.33,1.47.22,3.43.59,7.42.33,3.59.6,4.6.64,5.94,0,.92-.12,1.81-.63,2.54-.49.74-3.22.84-2.36,1.31,1.2.59,3.18-.05,4.07-2.11.67-1.52.5-3.48.44-4.82-.16-2.65-.51-6.53-1.06-9.13-.22-.95-.37-1.48-.9-2.32-.89-1.43-2.35-2.08-3.44-1.88Z"/>
    </g>
    <g>
      <path class="cls-4" d="m237.3,107.18c-5.32,1.87-6.92,4.25-6.45,10.31.2,2.53,1.1,7.74.87,12.68-.18,3.9,1.94,6.28,5.7,6.92,7.65,1.31,19.72.62,23.82-6.94,3.22-5.93,2.84-16.78-2.43-22.14-4.04-4.12-7.4-4.21-12.41-3.28-1.13.16-5.72,1.15-9.11,2.46Z"/>
      <path class="cls-1" d="m233.69,117.38c.23,2.52,1.1,7.74.87,12.68-.18,3.9,1.94,6.28,5.7,6.92,7.65,1.31,18.66.73,22.76-6.83,3.22-5.93,2.84-16.78-2.43-22.14-4.04-4.12-8.11-4.4-13.13-3.47-1.13.16-14.7,2.87-13.78,12.84Z"/>
      <path class="cls-5" d="m236.79,118.1c-.03,3.83.27,7.67.87,11.46.21,1.33.49,2.71,1.29,3.79.96,1.29,2.57,1.96,4.17,2.14,1.6.18,3.21-.07,4.8-.33,2.91-.46,5.87-.94,8.53-2.21,2.66-1.27,5.03-3.47,5.79-6.32.43-1.61.33-3.31.2-4.98-.25-3.3-.6-6.71-2.25-9.57-2.06-3.58-5.99-5.96-10.47-5.82-1.43.05-2.69.54-4.07.79-2.48.44-4.57,1.13-6.34,3.05-2.18,2.37-2.5,4.79-2.52,7.99Z"/>
      <path class="cls-4" d="m248.32,117.59c-.66-.14-1.31-.52-1.94-.29-.44.16-.73.6-.84,1.05-.14.59-.09.75.33,5.48.02.27.05.54.16.79.79,1.71,2.11-1.05,2.57-1.43.53-.43,1.35-.58,1.88-.16.39.31.53.83.56,1.32.03.49-.02.99.09,1.48s.41.97.88,1.09c.61.16,1.19-.31,1.63-.75.64-.64,1.26-1.33,1.63-2.16.37-.83.45-1.83.02-2.62-.73-1.35-2.56-1.62-2.02-4.13.17-.78.85-1.36.97-2.16.1-.67-.4-1.01-1.1-.72-1.09.46-1.55,1.74-2.42,2.47-.67.56-1.54.91-2.4.73Z"/>
      <path class="cls-2" d="m253.84,130.65c2.74-1.81,4.33-4.06,5.03-7.46.1-.47.79-.5.91-.03.43,1.67.13,3.68-1.03,5.39-1.15,1.71-2.9,2.72-4.58,2.96-.49.07-.74-.59-.32-.86Z"/>
      <path class="cls-2" d="m252.79,109.92c-.38-.25-.22-.86.24-.87,1.26-.03,2.67.58,3.64,1.85.81,1.05,1.24,2.4,1.28,3.72.01.47-.58.67-.86.29-.65-.88-1.22-1.88-1.95-2.83-.62-.8-1.24-1.44-2.35-2.17Z"/>
      <path class="cls-2" d="m244.34,111.13c1.6.11-1.92.96-2.56,3.12-.28,1.48-.11,3.44-.36,7.44-.22,3.6-.45,4.62-.45,5.96.03.92.17,1.8.71,2.52.51.72,3.24.74,2.4,1.24-1.18.63-3.18.05-4.13-1.98-.72-1.5-.61-3.47-.59-4.8.07-2.66.3-6.54.78-9.16.19-.96.33-1.49.82-2.34.84-1.46,2.29-2.15,3.38-1.98Z"/>
    </g>
    <g>
      <path class="cls-4" d="m82.69,187.78c3.82,1.35,7.22,4.11,8.41,7.73.63,1.91.62,3.95.6,5.95-.03,4.68-.07,9.36-.1,14.04-.01,1.7-.11,3.59-1.42,4.78-1.04.94-2.57,1.19-4,1.39-3.05.43-6.11.87-9.16,1.3-3.12.44-6.63.8-9.12-1-2.52-1.81-2.98-5.1-3.24-8.04-.38-4.2-.76-8.39-1.14-12.59-.27-2.97,6.89-14.83,6.89-14.83,0,0,5.98-.95,12.29,1.27Z"/>
      <path class="cls-1" d="m80.24,187.78c12.21,4.18,9.94,32.49,3.51,34.24-2.98.81-6.11.87-9.16,1.3-3.12.44-6.66.44-9.14-1.36-2.52-1.81-2.98-5.1-3.24-8.04-.38-4.2-.76-8.39-1.14-12.59-.27-2.97-.53-6.03.49-8.86,2.55-7.12,12.36-6.86,18.69-4.69Z"/>
      <path class="cls-5" d="m83.93,216.74c-1.27,1.69-3.55,2.2-5.62,2.6-1.94.38-3.9.76-5.87.63-1.97-.13-3.98-.83-5.3-2.29-1.38-1.54-1.83-3.68-2.14-5.72-.73-4.8-.97-9.68-.73-14.53.26-5.19,3.39-6.97,8.25-7.3,4.68-.32,11.09,2.7,12,7.28.22,1.12,1.75,16.23-.58,19.32Z"/>
      <path class="cls-4" d="m78.82,210.06c-.68.79-2.35-1.56-2.54,1.65-.04.61-.11,1.43-.71,1.56-.54.12-.92-.54-.93-1.09-.01-.55.15-1.13-.1-1.62-.52-1-2.09-.59-3.06-1.16-.85-.51-1.51-1.93-.83-2.65,1.65-1.74,2.37-2.93.53-4.37-1.81-1.42-2.53-2.78-1.94-4.42.15-.36.68-.39,1.01-.18.33.21.52.57.77.87s.63.56,1,.46c.58-.15.64-.94.96-1.45.42-.65,1.45-.78,2.01-.25.56.52-.98,1.54-.1,2.02.87.48,1.68-1.16,2.47-.88s-.81,2.91-.85,4.09c-.14,3.96,2.98,6.63,2.3,7.42Z"/>
      <path class="cls-2" d="m72.37,217.91c.53-.02.67-.72.19-.95-1.11-.54-2.09-1.28-2.82-2.28-1.06-1.45-1.46-2.23-1.96-3.36-.21-.48-.92-.35-.96.17-.09,1.38.32,2.91,1.38,4.33,1.03,1.42,2.68,2.15,4.17,2.1Z"/>
      <path class="cls-2" d="m68.95,193.95c.3-.38-.06-.94-.52-.79-1.09.37-2.16,1.44-2.6,2.99-.35,1.04-.41,2.5-.05,3.79.13.47.8.46.95,0,.28-.87.55-1.87.62-2.19.41-1.37.77-2.73,1.61-3.8Z"/>
      <path class="cls-2" d="m79.07,194.01c-.49-.12-.85.46-.5.82,2.58,2.62,3.17,8.41,3.86,7.17.19-.41.37-.89.43-1.34.06-.44.1-.88.09-1.33-.05-.91-.25-1.85-.71-2.69-.77-1.45-1.99-2.33-3.17-2.63Z"/>
      <path class="cls-2" d="m82.89,212.39c-.1-.48-.8-.58-.95-.11-.59,1.94-1.34,2.98-2.59,3.93-.46.34-1.95.86-1.75,1.32.16.38,1.65.3,2.46,0,.83-.3,1.57-.82,2.07-1.56.76-1.08.99-2.43.76-3.58Z"/>
    </g>
    <g>
      <path class="cls-4" d="m237.31,187.72c-3.82,1.35-7.22,4.11-8.41,7.73-.63,1.91-.62,3.95-.6,5.95.03,4.68.07,9.36.1,14.04.01,1.7.11,3.59,1.42,4.78,1.04.94,2.57,1.19,4,1.39,3.05.43,6.11.87,9.16,1.3,3.12.44,6.63.8,9.12-1,2.52-1.81,2.98-5.1,3.24-8.04.38-4.2.76-8.39,1.14-12.59.27-2.97-6.89-14.83-6.89-14.83,0,0-5.98-.95-12.29,1.27Z"/>
      <path class="cls-1" d="m239.76,187.72c-12.21,4.18-9.94,32.49-3.51,34.24,2.98.81,6.11.87,9.16,1.3,3.12.44,6.66.44,9.14-1.36,2.52-1.81,2.98-5.1,3.24-8.04.38-4.2.76-8.39,1.14-12.59.27-2.97.53-6.03-.49-8.86-2.55-7.12-12.36-6.86-18.69-4.69Z"/>
      <path class="cls-5" d="m236.07,216.67c1.27,1.69,3.55,2.2,5.62,2.6,1.94.38,3.9.76,5.87.63,1.97-.13,3.98-.83,5.3-2.29,1.38-1.54,1.83-3.68,2.14-5.72.73-4.8.97-9.68.73-14.53-.26-5.19-3.39-6.97-8.25-7.3-4.68-.32-11.09,2.7-12,7.28-.22,1.12-1.75,16.23.58,19.32Z"/>
      <path class="cls-4" d="m241.18,209.99c.68.79,2.35-1.56,2.54,1.65.04.61.11,1.43.71,1.56.54.12.92-.54.93-1.09.01-.55-.15-1.13.1-1.62.52-1,2.09-.59,3.06-1.16.85-.51,1.51-1.93.83-2.65-1.65-1.74-2.37-2.93-.53-4.37,1.81-1.42,2.53-2.78,1.94-4.42-.15-.36-.68-.39-1.01-.18-.33.21-.52.57-.77.87-.25.3-.63.56-1,.46-.58-.15-.64-.94-.96-1.45-.42-.65-1.45-.78-2.01-.25-.56.52.98,1.54.1,2.02s-1.68-1.16-2.47-.88c-.8.27.81,2.91.85,4.09.14,3.96-2.98,6.63-2.3,7.42Z"/>
      <path class="cls-2" d="m247.63,217.84c-.53-.02-.67-.72-.19-.95,1.11-.54,2.09-1.28,2.82-2.28,1.06-1.45,1.46-2.23,1.96-3.36.21-.48.92-.35.96.17.09,1.38-.32,2.91-1.38,4.33-1.03,1.42-2.68,2.15-4.17,2.1Z"/>
      <path class="cls-2" d="m251.05,193.89c-.3-.38.06-.94.52-.79,1.09.37,2.16,1.44,2.6,2.99.35,1.04.41,2.5.05,3.79-.13.47-.8.46-.95,0-.28-.87-.55-1.87-.62-2.19-.41-1.37-.77-2.73-1.61-3.8Z"/>
      <path class="cls-2" d="m240.93,193.94c.49-.12.85.46.5.82-2.58,2.62-3.17,8.41-3.86,7.17-.19-.41-.37-.89-.43-1.34-.06-.44-.1-.88-.09-1.33.05-.91.25-1.85.71-2.69.77-1.45,1.99-2.33,3.17-2.63Z"/>
      <path class="cls-2" d="m237.11,212.32c.1-.48.8-.58.95-.11.59,1.94,1.34,2.98,2.59,3.93.46.34,1.95.86,1.75,1.32-.16.38-1.65.3-2.46,0-.83-.3-1.57-.82-2.07-1.56-.76-1.08-.99-2.43-.76-3.58Z"/>
    </g>
  </g>
</svg>