<?xml version="1.0" encoding="UTF-8"?>
<svg id="Layer_1" data-name="Layer 1" xmlns="http://www.w3.org/2000/svg" viewBox="0 0 320 320">
  <defs>
    <style>
      .cls-1 {
        fill: #b3e2f2;
      }

      .cls-2 {
        fill: #e3f7fc;
      }

      .cls-3 {
        fill: none;
      }

      .cls-4 {
        fill: #9fdaed;
      }

      .cls-5 {
        fill: #cbedfa;
      }
    </style>
  </defs>
  <rect class="cls-3" width="320" height="320"/>
  <g id="_8" data-name="8">
    <g>
      <path class="cls-4" d="m124.4,28.93c2.78,3.27,6.14,5.86,7.37,6.22,1.87.55,7.01-2.06,7.67-3.9.43-1.2.32-5.41-.68-9.58-.58-2.43-1.47-4.84-2.74-6.62-2.66-3.74-7.18-1.99-9.06-1.02-.59.3-1.17.6-1.76.89-1.89.95-5.97,3.58-4.51,7.93.69,2.05,2.11,4.18,3.72,6.08Z"/>
      <path class="cls-1" d="m124.4,28.93c2.37,2.23,4.76,3.83,5.79,4.08,2,.49,7.66-2.4,8.44-4.3.4-.97.52-3.83.12-7.04-.58-2.43-1.47-4.84-2.74-6.62-2.66-3.74-7.18-1.99-9.06-1.02-.59.3-1.17.6-1.76.89-1.89.95-5.97,3.58-4.51,7.93.69,2.05,2.11,4.18,3.72,6.08Z"/>
      <path class="cls-5" d="m133.9,29.86l.09-.05c1.99-1.02,3.22-3.09,3.17-5.33h0c-.06-2.36-.52-4.7-1.44-6.86-.4-.95-.85-1.77-1.33-2.45-.96-1.35-2.95-2.53-6.99-.47-.65.33-1.26.64-1.9.97-4.06,2.07-4.28,4.37-3.75,5.94.31.93.81,1.94,1.49,3,1.16,1.82,2.66,3.39,4.37,4.7h0c1.79,1.38,4.22,1.6,6.24.58l.06-.03Z"/>
      <path class="cls-2" d="m132.32,15.07c.24-.04.26-.39.02-.45-.76-.19-1.63-.16-2.36,0-1.1.21-2.12.71-3.04,1.17-.92.47-1.91,1-2.74,1.75-.56.5-1.1,1.18-1.41,1.9-.09.23.2.43.37.26,1.26-1.23,2.95-1.89,4.42-2.65,1.5-.77,3.02-1.72,4.74-1.98Z"/>
    </g>
    <g>
      <path class="cls-4" d="m195.6,28.93c-2.78,3.27-6.14,5.86-7.37,6.22-1.87.55-7.01-2.06-7.67-3.9-.43-1.2-.32-5.41.68-9.58.58-2.43,1.47-4.84,2.74-6.62,2.66-3.74,7.18-1.99,9.06-1.02.59.3,1.17.6,1.76.89,1.89.95,5.97,3.58,4.51,7.93-.69,2.05-2.11,4.18-3.72,6.08Z"/>
      <path class="cls-1" d="m195.6,28.93c-2.37,2.23-4.76,3.83-5.79,4.08-2,.49-7.66-2.4-8.44-4.3-.4-.97-.52-3.83-.12-7.04.58-2.43,1.47-4.84,2.74-6.62,2.66-3.74,7.18-1.99,9.06-1.02.59.3,1.17.6,1.76.89,1.89.95,5.97,3.58,4.51,7.93-.69,2.05-2.11,4.18-3.72,6.08Z"/>
      <path class="cls-5" d="m186.1,29.86l-.09-.05c-1.99-1.02-3.22-3.09-3.17-5.33h0c.06-2.36.52-4.7,1.44-6.86.4-.95.85-1.77,1.33-2.45.96-1.35,2.95-2.53,6.99-.47.65.33,1.26.64,1.9.97,4.06,2.07,4.28,4.37,3.75,5.94-.31.93-.81,1.94-1.49,3-1.16,1.82-2.66,3.39-4.37,4.7h0c-1.79,1.38-4.22,1.6-6.24.58l-.06-.03Z"/>
      <path class="cls-2" d="m187.68,15.07c-.24-.04-.26-.39-.02-.45.76-.19,1.63-.16,2.36,0,1.1.21,2.12.71,3.04,1.17.92.47,1.91,1,2.74,1.75.56.5,1.1,1.18,1.41,1.9.09.23-.2.43-.37.26-1.26-1.23-2.95-1.89-4.42-2.65-1.5-.77-3.02-1.72-4.74-1.98Z"/>
    </g>
  </g>
</svg>