<?xml version="1.0" encoding="UTF-8"?>
<svg id="Layer_1" data-name="Layer 1" xmlns="http://www.w3.org/2000/svg" viewBox="0 0 320 320">
  <defs>
    <style>
      .cls-1 {
        fill: #b3e2f2;
      }

      .cls-2 {
        fill: #e3f7fc;
      }

      .cls-3 {
        fill: none;
      }

      .cls-4 {
        fill: #9fdaed;
      }

      .cls-5 {
        fill: #cbedfa;
      }
    </style>
  </defs>
  <rect class="cls-3" width="320" height="320"/>
  <g id="_11" data-name="11">
    <g>
      <path class="cls-4" d="m109.42,41.4c3.62,2.36,7.72,3.84,9.08,3.79,2.09-.07,6.96-4.43,7.26-6.5.2-1.35-.81-5.56-2.74-9.41-1.13-2.25-2.58-4.38-4.28-5.75-3.59-2.88-7.99.41-9.78,2.01-.55.5-1.11,1-1.66,1.49-1.79,1.59-5.55,5.61-3.08,9.5,1.16,1.84,3.11,3.51,5.21,4.87Z"/>
      <path class="cls-1" d="m109.42,41.4c2.97,1.46,5.83,2.26,6.97,2.17,2.21-.18,7.58-4.98,8-7.16.22-1.11-.26-4.03-1.36-7.13-1.13-2.25-2.58-4.38-4.28-5.75-3.59-2.88-7.99.41-9.78,2.01-.55.5-1.11,1-1.66,1.49-1.79,1.59-5.55,5.61-3.08,9.5,1.16,1.84,3.11,3.51,5.21,4.87Z"/>
      <path class="cls-5" d="m119.63,39.14l.09-.08c1.89-1.69,2.75-4.19,2.22-6.42h0c-.56-2.35-1.54-4.55-2.97-6.43-.63-.82-1.27-1.5-1.92-2.02-1.3-1.04-3.64-1.56-7.47,1.87-.61.55-1.19,1.07-1.8,1.61-3.85,3.44-3.59,5.83-2.71,7.24.52.83,1.27,1.68,2.21,2.52,1.61,1.44,3.52,2.52,5.6,3.27h0c2.18.79,4.79.2,6.7-1.5l.05-.05Z"/>
      <path class="cls-2" d="m114.84,24.79c.25-.12.19-.48-.08-.46-.84.06-1.75.39-2.49.78-1.12.58-2.09,1.43-2.96,2.2-.87.78-1.81,1.64-2.52,2.69-.48.69-.92,1.55-1.08,2.39-.05.26.3.37.45.13,1.07-1.67,2.71-2.89,4.1-4.14,1.42-1.28,2.82-2.74,4.58-3.58Z"/>
      <path class="cls-4" d="m113.51,31.85c-.14-.16-.25-.34-.39-.5-.14-.16-.32-.3-.53-.32-.21-.02-.44.11-.47.31-.02.21.16.38.33.51.4.31.82.62,1.12,1.03s.45.96.25,1.4c-.1.22-.28.47-.16.69.12.21.45.2.63.06.19-.14.28-.37.39-.57.11-.2.28-.41.52-.44.24-.03.48.13.64.32.16.19.28.41.47.56s.49.24.68.09c.24-.18.15-.57-.07-.78s-.53-.31-.79-.47c-.26-.16-.49-.46-.41-.74.1-.35.59-.45.73-.78.07-.17.03-.38-.1-.51s-.34-.19-.52-.13c-.4.13-.53.65-.94.78-.46.14-1.08-.18-1.38-.51Z"/>
    </g>
    <g>
      <path class="cls-4" d="m210.58,41.4c-3.62,2.36-7.72,3.84-9.08,3.79-2.09-.07-6.96-4.43-7.26-6.5-.2-1.35.81-5.56,2.74-9.41,1.13-2.25,2.58-4.38,4.28-5.75,3.59-2.88,7.99.41,9.78,2.01.55.5,1.11,1,1.66,1.49,1.79,1.59,5.55,5.61,3.08,9.5-1.16,1.84-3.11,3.51-5.21,4.87Z"/>
      <path class="cls-1" d="m210.58,41.4c-2.97,1.46-5.83,2.26-6.97,2.17-2.21-.18-7.58-4.98-8-7.16-.22-1.11.26-4.03,1.36-7.13,1.13-2.25,2.58-4.38,4.28-5.75,3.59-2.88,7.99.41,9.78,2.01.55.5,1.11,1,1.66,1.49,1.79,1.59,5.55,5.61,3.08,9.5-1.16,1.84-3.11,3.51-5.21,4.87Z"/>
      <path class="cls-5" d="m200.37,39.14l-.09-.08c-1.89-1.69-2.75-4.19-2.22-6.42h0c.56-2.35,1.54-4.55,2.97-6.43.63-.82,1.27-1.5,1.92-2.02,1.3-1.04,3.64-1.56,7.47,1.87.61.55,1.19,1.07,1.8,1.61,3.85,3.44,3.59,5.83,2.71,7.24-.52.83-1.27,1.68-2.21,2.52-1.61,1.44-3.52,2.52-5.6,3.27h0c-2.18.79-4.79.2-6.7-1.5l-.05-.05Z"/>
      <path class="cls-2" d="m205.16,24.79c-.25-.12-.19-.48.08-.46.84.06,1.75.39,2.49.78,1.12.58,2.09,1.43,2.96,2.2.87.78,1.81,1.64,2.52,2.69.48.69.92,1.55,1.08,2.39.05.26-.3.37-.45.13-1.07-1.67-2.71-2.89-4.1-4.14-1.42-1.28-2.82-2.74-4.58-3.58Z"/>
      <path class="cls-4" d="m206.49,31.85c.14-.16.25-.34.39-.5.14-.16.32-.3.53-.32.21-.02.44.11.47.31.02.21-.16.38-.33.51-.4.31-.82.62-1.12,1.03s-.45.96-.25,1.4c.1.22.28.47.16.69-.12.21-.45.2-.63.06-.19-.14-.28-.37-.39-.57-.11-.2-.28-.41-.52-.44-.24-.03-.48.13-.64.32-.16.19-.28.41-.47.56s-.49.24-.68.09c-.24-.18-.15-.57.07-.78s.53-.31.79-.47c.26-.16.49-.46.41-.74-.1-.35-.59-.45-.73-.78-.07-.17-.03-.38.1-.51s.34-.19.52-.13c.4.13.53.65.94.78.46.14,1.08-.18,1.38-.51Z"/>
    </g>
    <g>
      <path class="cls-4" d="m228.14,217.93c-3.78-1.12-4.98-2.72-4.87-6.97.05-1.77.49-5.45.16-8.89-.26-2.72,1.13-4.45,3.74-5.04,5.3-1.19,13.75-1.13,16.88,4.01,2.46,4.03,2.57,11.62-.91,15.55-2.68,3.02-5.02,3.21-8.55,2.73-.79-.07-4.03-.6-6.45-1.4Z"/>
      <path class="cls-1" d="m225.26,210.94c.07-1.77.49-5.45.16-8.89-.26-2.72,1.13-4.45,3.74-5.04,5.3-1.19,13.01-1.17,16.14,3.97,2.46,4.03,2.57,11.62-.91,15.55-2.68,3.02-5.51,3.36-9.05,2.89-.79-.07-10.37-1.49-10.08-8.48Z"/>
      <path class="cls-5" d="m227.4,210.32c-.15-2.68-.09-5.37.2-8.03.1-.94.24-1.91.77-2.69.63-.93,1.73-1.46,2.84-1.65,1.11-.18,2.24-.06,3.36.06,2.05.22,4.13.45,6.04,1.25,1.9.79,3.63,2.25,4.27,4.21.36,1.11.35,2.3.32,3.47-.06,2.31-.18,4.71-1.24,6.76-1.31,2.57-3.98,4.38-7.11,4.43-1,.02-1.9-.29-2.87-.41-1.75-.22-3.23-.63-4.54-1.91-1.61-1.58-1.91-3.26-2.04-5.49Z"/>
      <path class="cls-4" d="m235.47,210.27c-.45.12-.9.41-1.34.27-.31-.1-.53-.39-.63-.71-.12-.4-.09-.52.04-3.84,0-.19.01-.38.08-.55.49-1.22,1.51.66,1.85.91.38.28.96.36,1.32.04.26-.23.34-.6.35-.94,0-.35-.05-.69,0-1.03.05-.34.25-.69.58-.8.42-.13.84.17,1.17.47.47.43.93.88,1.21,1.45.29.56.38,1.26.11,1.83-.46.97-1.73,1.22-1.27,2.95.14.54.64.92.75,1.47.1.46-.24.72-.74.54-.78-.28-1.14-1.16-1.78-1.64-.49-.37-1.11-.58-1.7-.42Z"/>
      <path class="cls-2" d="m238.86,200.95c1.98,1.17,3.17,2.68,3.77,5.03.08.33.57.32.64-.01.24-1.18-.04-2.58-.91-3.73-.87-1.15-2.12-1.8-3.31-1.9-.34-.03-.49.44-.2.61Z"/>
      <path class="cls-2" d="m238.86,215.48c-.26.19-.12.61.2.6.88-.02,1.84-.5,2.48-1.42.53-.76.78-1.72.76-2.64,0-.33-.43-.45-.61-.18-.42.64-.79,1.36-1.26,2.05-.41.58-.82,1.05-1.57,1.6Z"/>
      <path class="cls-2" d="m232.92,214.93c1.12-.13-1.38-.61-1.9-2.09-.25-1.02-.2-2.4-.51-5.18-.28-2.51-.48-3.21-.53-4.15-.01-.64.06-1.26.41-1.78.33-.52,2.24-.63,1.63-.95-.85-.4-2.22.08-2.82,1.53-.45,1.08-.3,2.44-.24,3.38.14,1.85.44,4.56.87,6.37.17.66.28,1.03.66,1.61.64.99,1.67,1.42,2.43,1.27Z"/>
    </g>
    <g>
      <path class="cls-4" d="m215.66,258.47c.63,1.56,1.54,3.01,2.83,4.09,2.04,1.7,5,3.45,7.59,4.13,1.17.31,2.46.32,3.55-.21,5.5-2.68,10.87-15.89,5.66-20.04-1.73-1.37-5.76-2.71-7.95-2.99-1.37-.18-3.87-.53-5.21-.16-4.41,1.23-8.24,10.73-6.46,15.17Z"/>
      <path class="cls-1" d="m217.51,259.23c.63,1.56,1.54,3.01,2.83,4.09,2.04,1.7,5,3.45,7.59,4.13,1.17.31,2.46.32,3.55-.21,5.5-2.68,10.87-15.89,5.66-20.04-1.73-1.37-5.76-2.71-7.95-2.99-1.38-.18-3.87-.53-5.21-.16-4.41,1.23-8.24,10.73-6.46,15.17Z"/>
      <path class="cls-5" d="m219.25,256.9c-.14-2.87,1.3-6.6,2.94-8.63,2.23-2.75,5.23-3.42,8.66-2.27,1.7.57,3.25,1.5,4.78,2.43,2.18,1.31,2.83,2.15,2.49,4.62-.55,3.89-2.09,7.64-4.45,10.79-.69.93-1.56,1.86-2.7,2.03-.86.13-1.71-.2-2.5-.55-2.32-1.02-4.43-2.3-6.58-3.61-.83-.51-1.34-.76-1.82-1.67-.51-.96-.77-2.04-.83-3.13Z"/>
      <path class="cls-4" d="m227.38,258.4c-.22.43-.52.82-.75,1.24-.23.43-.37.93-.24,1.4.14.47.63.84,1.1.71.48-.13.69-.67.83-1.14.33-1.12.63-2.27,1.27-3.24s1.7-1.76,2.87-1.72c.58.02,1.29.2,1.66-.26.35-.43.05-1.11-.43-1.38-.48-.27-1.06-.27-1.6-.33-.55-.06-1.14-.24-1.42-.71-.29-.49-.14-1.11.13-1.61.27-.5.64-.94.82-1.48s.08-1.23-.41-1.51c-.61-.35-1.39.18-1.66.82s-.21,1.38-.34,2.06c-.13.69-.56,1.42-1.26,1.49-.85.08-1.51-.86-2.37-.87-.43,0-.85.27-1.03.66s-.11.88.18,1.21c.64.74,1.9.56,2.54,1.31.72.84.57,2.43.11,3.34Z"/>
      <path class="cls-2" d="m234.43,249.03c-.44-.08-.75.45-.46.79.57.67,1.13,1.27,1.23,1.62.25.84.34,1.52.36,2.18.02.47.62.65.88.27,0,0,0,0,0,0,.33-.49.55-1.16.57-1.93,0-.84-.23-1.54-.88-2.11-.46-.4-1.08-.7-1.72-.82Z"/>
      <path class="cls-2" d="m229.9,262.81c-.29.27-.12.75.27.8.21.03.41.03.55.02,1.63-.2,3.36-2.26,3.56-4.54.04-.44-.48-.69-.79-.39-1.38,1.31-2.58,3.18-3.59,4.11Z"/>
      <path class="cls-2" d="m227.25,247.75c.44-.22.2-.88-.29-.79-2.02.37-4.15,2.02-5.37,5.03-.29.77-.57,1.53-.73,2.38-.13.84-.21,1.71-.03,2.58.18.95.57,1.75,1.08,2.38.32.39.92.02.72-.45-.29-.68-.43-1.39-.44-2.09-.05-1.5.61-3.08,1.01-4.13.87-2.14,2.17-3.98,4.05-4.91Z"/>
    </g>
    <g>
      <path class="cls-4" d="m91.86,217.93c3.78-1.12,4.98-2.72,4.87-6.97-.05-1.77-.49-5.45-.16-8.89.26-2.72-1.13-4.45-3.74-5.04-5.3-1.19-13.75-1.13-16.88,4.01-2.46,4.03-2.57,11.62.91,15.55,2.68,3.02,5.02,3.21,8.55,2.73.79-.07,4.03-.6,6.45-1.4Z"/>
      <path class="cls-1" d="m94.74,210.94c-.07-1.77-.49-5.45-.16-8.89.26-2.72-1.13-4.45-3.74-5.04-5.3-1.19-13.01-1.17-16.14,3.97-2.46,4.03-2.57,11.62.91,15.55,2.68,3.02,5.51,3.36,9.05,2.89.79-.07,10.37-1.49,10.08-8.48Z"/>
      <path class="cls-5" d="m92.6,210.32c.15-2.68.09-5.37-.2-8.03-.1-.94-.24-1.91-.77-2.69-.63-.93-1.73-1.46-2.84-1.65-1.11-.18-2.24-.06-3.36.06-2.05.22-4.13.45-6.04,1.25-1.9.79-3.63,2.25-4.27,4.21-.36,1.11-.35,2.3-.32,3.47.06,2.31.18,4.71,1.24,6.76,1.31,2.57,3.98,4.38,7.11,4.43,1,.02,1.9-.29,2.87-.41,1.75-.22,3.23-.63,4.54-1.91,1.61-1.58,1.91-3.26,2.04-5.49Z"/>
      <path class="cls-4" d="m84.53,210.27c.45.12.9.41,1.34.27.31-.1.53-.39.63-.71.12-.4.09-.52-.04-3.84,0-.19-.01-.38-.08-.55-.49-1.22-1.51.66-1.85.91-.38.28-.96.36-1.32.04-.26-.23-.34-.6-.35-.94,0-.35.05-.69,0-1.03-.05-.34-.25-.69-.58-.8-.42-.13-.84.17-1.17.47-.47.43-.93.88-1.21,1.45-.29.56-.38,1.26-.11,1.83.46.97,1.73,1.22,1.27,2.95-.14.54-.64.92-.75,1.47-.1.46.24.72.74.54.78-.28,1.14-1.16,1.78-1.64.49-.37,1.11-.58,1.7-.42Z"/>
      <path class="cls-2" d="m81.14,200.95c-1.98,1.17-3.17,2.68-3.77,5.03-.08.33-.57.32-.64-.01-.24-1.18.04-2.58.91-3.73.87-1.15,2.12-1.8,3.31-1.9.34-.03.49.44.2.61Z"/>
      <path class="cls-2" d="m81.14,215.48c.26.19.12.61-.2.6-.88-.02-1.84-.5-2.48-1.42-.53-.76-.78-1.72-.76-2.64,0-.33.43-.45.61-.18.42.64.79,1.36,1.26,2.05.41.58.82,1.05,1.57,1.6Z"/>
      <path class="cls-2" d="m87.08,214.93c-1.12-.13,1.38-.61,1.9-2.09.25-1.02.2-2.4.51-5.18.28-2.51.48-3.21.53-4.15.01-.64-.06-1.26-.41-1.78-.33-.52-2.24-.63-1.63-.95.85-.4,2.22.08,2.82,1.53.45,1.08.3,2.44.24,3.38-.14,1.85-.44,4.56-.87,6.37-.17.66-.28,1.03-.66,1.61-.64.99-1.67,1.42-2.43,1.27Z"/>
    </g>
    <g>
      <path class="cls-4" d="m104.34,258.47c-.63,1.56-1.54,3.01-2.83,4.09-2.04,1.7-5,3.45-7.59,4.13-1.17.31-2.46.32-3.55-.21-5.5-2.68-10.87-15.89-5.66-20.04,1.73-1.37,5.76-2.71,7.95-2.99,1.37-.18,3.87-.53,5.21-.16,4.41,1.23,8.24,10.73,6.46,15.17Z"/>
      <path class="cls-1" d="m102.49,259.23c-.63,1.56-1.54,3.01-2.83,4.09-2.04,1.7-5,3.45-7.59,4.13-1.17.31-2.46.32-3.55-.21-5.5-2.68-10.87-15.89-5.66-20.04,1.73-1.37,5.76-2.71,7.95-2.99,1.38-.18,3.87-.53,5.21-.16,4.41,1.23,8.24,10.73,6.46,15.17Z"/>
      <path class="cls-5" d="m100.75,256.9c.14-2.87-1.3-6.6-2.94-8.63-2.23-2.75-5.23-3.42-8.66-2.27-1.7.57-3.25,1.5-4.78,2.43-2.18,1.31-2.83,2.15-2.49,4.62.55,3.89,2.09,7.64,4.45,10.79.69.93,1.56,1.86,2.7,2.03.86.13,1.71-.2,2.5-.55,2.32-1.02,4.43-2.3,6.58-3.61.83-.51,1.34-.76,1.82-1.67.51-.96.77-2.04.83-3.13Z"/>
      <path class="cls-4" d="m92.62,258.4c.22.43.52.82.75,1.24.23.43.37.93.24,1.4-.14.47-.63.84-1.1.71-.48-.13-.69-.67-.83-1.14-.33-1.12-.63-2.27-1.27-3.24s-1.7-1.76-2.87-1.72c-.58.02-1.29.2-1.66-.26-.35-.43-.05-1.11.43-1.38.48-.27,1.06-.27,1.6-.33.55-.06,1.14-.24,1.42-.71.29-.49.14-1.11-.13-1.61-.27-.5-.64-.94-.82-1.48s-.08-1.23.41-1.51c.61-.35,1.39.18,1.66.82s.21,1.38.34,2.06c.13.69.56,1.42,1.26,1.49.85.08,1.51-.86,2.37-.87.43,0,.85.27,1.03.66s.11.88-.18,1.21c-.64.74-1.9.56-2.54,1.31-.72.84-.57,2.43-.11,3.34Z"/>
      <path class="cls-2" d="m85.57,249.03c.44-.08.75.45.46.79-.57.67-1.13,1.27-1.23,1.62-.25.84-.34,1.52-.36,2.18-.02.47-.62.65-.88.27,0,0,0,0,0,0-.33-.49-.55-1.16-.57-1.93,0-.84.23-1.54.88-2.11.46-.4,1.08-.7,1.72-.82Z"/>
      <path class="cls-2" d="m90.1,262.81c.29.27.12.75-.27.8-.21.03-.41.03-.55.02-1.63-.2-3.36-2.26-3.56-4.54-.04-.44.48-.69.79-.39,1.38,1.31,2.58,3.18,3.59,4.11Z"/>
      <path class="cls-2" d="m92.75,247.75c-.44-.22-.2-.88.29-.79,2.02.37,4.15,2.02,5.37,5.03.29.77.57,1.53.73,2.38.13.84.21,1.71.03,2.58-.18.95-.57,1.75-1.08,2.38-.32.39-.92.02-.72-.45.29-.68.43-1.39.44-2.09.05-1.5-.61-3.08-1.01-4.13-.87-2.14-2.17-3.98-4.05-4.91Z"/>
    </g>
  </g>
</svg>