<?xml version="1.0" encoding="UTF-8"?>
<svg id="Layer_1" data-name="Layer 1" xmlns="http://www.w3.org/2000/svg" viewBox="0 0 320 320">
  <defs>
    <style>
      .cls-1 {
        fill: #de422f;
      }

      .cls-2 {
        fill: #fff62a;
      }

      .cls-3 {
        fill: #d43320;
      }

      .cls-4 {
        fill: none;
      }

      .cls-5 {
        fill: #e66251;
      }

      .cls-6 {
        fill: #fc8a71;
      }
    </style>
  </defs>
  <rect class="cls-4" width="320" height="320"/>
  <g>
    <path class="cls-5" d="m241.37,150.85s-27.73,0-34.95-13.94c-7.08-13.66-22.94-18.31-44.61-18.31s-37.39,4.76-44.61,18.31c-7.39,13.89-39.06,13.94-39.52,13.94.36-.01,13.84-.64,15.04-9.79,1.21-9.28-2.47-107.89,66.8-107.89s65.59,98.61,66.8,107.89c1.21,9.27,15.04,9.79,15.04,9.79Z"/>
    <path class="cls-1" d="m224.39,110.12c0-70.52-53.43-73.58-64.55-73.45-11.12-.13-64.55,2.93-64.55,73.45,0,0,11.2-57.7,64.55-59.12,53.35,1.43,64.55,59.12,64.55,59.12Z"/>
    <path class="cls-1" d="m120.13,107.28c-1.11.97-2.69-.15-2.36-1.68,1.12-5.15,2.6-10.36,4.58-15.29,7.37-18.33,19.18-26.86,37.18-26.86s29.82,8.54,37.19,26.88c1.42,3.53,2.58,7.21,3.54,10.9.38,1.46-1.07,2.66-2.22,1.84-.2-.14-.4-.29-.6-.43-10.76-7.52-23.11-11.5-35.73-11.5-16.9,0-30.98,6.87-41.57,16.14Z"/>
    <path class="cls-3" d="m241.37,137.32c-3.44,8.68-17.37,8.94-20.26,2.75-.43-.91-1.42-3.22-1.67-4.13-.46-1.83-.27-.44-.87-6.84-1.86-24.95-7.15-54.96-23.22-72.01-8.19-8.68-18.4-13.53-29.38-14.46-1.52-.2,0-.08-6.24-.33-.38,0-5.28.16-6.25.28l-4.11.54c-33.29,6.06-44.87,42-48.4,80.48-.9,10.12-.83,11.04-1.67,13.33-.74,1.59-.56,1.24-1.62,2.69-5.73,6.58-16.47,7.2-19.82-.87l1.21-5.65c2.08,4.21,1.08,9.27,5.25,9.04,2.36-.08,5.57,0,8.24-1.36,3.75-1.94,4.91-4.37,5.13-7.2.32-6.76.54-13.6,1.24-20.36,4.8-48.3,25.15-80.37,67.5-76.3,11.9,1.12,23.39,6.58,32.15,16.32,8.66,9.6,13.99,22.16,17.35,35.36,5.24,20.53,4.99,39.95,5.46,45.43.41,3.51,2.59,5.55,5.46,6.93,3.38,1.61,2.27-1.71,6.87-2.46,2.8-.46,3.76.34,5.1-2.52l2.53,1.34Z"/>
    <path class="cls-5" d="m242.66,150.11c-2.54,6.38-11.73,5.44-11.73,5.44,0,0-9.09,2.04-10.15-7.26-1.06-9.31,3.66-113.89-61.25-113.89s-60.15,103.33-61.21,112.64c-1.04,9.18-9.88,8.49-10.19,8.51h0s-9.19.94-11.73-5.44c-2.54-6.38-3.04-59.57,18.7-96.95C120.18,10.02,159.53,11.92,159.53,11.92c0,0,39.35-1.9,64.43,41.24,21.74,37.38,21.24,90.57,18.7,96.95Z"/>
    <path class="cls-6" d="m81.09,89.71c5.05-32.58,20.99-58.59,50.09-70.23,9.92-3.96,20.37-5.79,28.38-5.72-.45,0,5.44-.26,14.41,1.55,33.58,6.87,57.48,32.16,64.04,74.41l-.33.06c-2.22-9.99-5.2-19.77-9.74-28.66-2.2-4.47-4.66-8.78-7.54-12.72-11.49-15.76-28.24-25.96-47.04-29.63-9.6-1.92-18.29-1.85-27.61,0-13.54,2.65-26.14,8.98-34.72,16.42-8.59,7.19-14.69,15.41-19.86,25.93-4.54,8.89-7.52,18.67-9.74,28.66l-.33-.06Z"/>
  </g>
  <g>
    <path class="cls-2" d="m83.6,81.74c.87,0,1.83.12,3.07.39h.05c.21.05.43.1.69.15.81.14,3.91.94,6.12,1.87,3.31,1.28,4.06,2.58,3.65,6.31-.05.44-.14,1.02-.24,1.69-.29,1.96-.7,4.64-.66,7.28.03,2.15-1.07,3.4-3.28,3.71-1.09.15-2.25.23-3.43.23-.88,0-1.75-.04-2.6-.13h-.04s-.04,0-.04,0c-3.06-.07-8.51-.82-10.61-4.98-1.94-3.86-1.49-10.93,1.99-14.25,1.64-1.56,3.28-2.26,5.32-2.26m0-1c-2.12,0-4.05.66-6.01,2.54-3.8,3.63-4.31,11.21-2.19,15.42,2.04,4.05,6.9,5.42,11.48,5.53.91.09,1.81.13,2.7.13,1.27,0,2.48-.09,3.57-.24,2.64-.37,4.18-1.98,4.14-4.71-.05-3.46.7-7.08.89-8.84.46-4.22-.6-5.92-4.28-7.35-2.34-.99-5.53-1.79-6.31-1.93-.23-.05-.45-.1-.68-.14-.02,0-.05,0-.07-.01-1.14-.25-2.21-.41-3.24-.41h0Z"/>
    <path class="cls-2" d="m82.32,106.16c.65,0,1.37.05,2.24.17h.05c.21.03.43.06.7.09.82.08,3.97.61,6.26,1.36,3.4,1.01,4.26,2.24,4.15,5.99-.01.44-.05,1.03-.1,1.7-.13,1.98-.31,4.68-.06,7.31.21,2.14-.79,3.48-2.96,3.97-1.73.39-3.69.6-5.54.6-.15,0-.31,0-.46,0h-.04s-.04,0-.04,0c-.45.03-.91.04-1.35.04-3.24,0-7.55-.72-9.63-4.13-2.25-3.69-2.39-10.77.81-14.37,1.69-1.91,3.48-2.72,5.96-2.72m0-1c-2.49,0-4.65.74-6.71,3.06-3.49,3.93-3.37,11.52-.91,15.55,2.12,3.48,6.34,4.61,10.49,4.61.47,0,.94-.01,1.41-.04.16,0,.32,0,.48,0,2.06,0,4.07-.25,5.76-.62,2.6-.58,4-2.32,3.74-5.04-.33-3.44.11-7.11.16-8.89.12-4.25-1.09-5.85-4.87-6.97-2.41-.79-5.65-1.32-6.45-1.4-.23-.03-.46-.06-.68-.08-.03,0-.05,0-.07,0-.81-.11-1.59-.17-2.34-.17h0Z"/>
    <path class="cls-2" d="m115.54,23.39c.95,0,1.8.3,2.57.92,1.42,1.14,2.81,3.01,4.02,5.42,2.01,4,2.79,7.87,2.65,8.82-.23,1.58-4.71,5.59-6.34,5.64-1.18,0-5.07-1.41-8.47-3.63-2.25-1.47-3.94-3.05-4.91-4.57-2.06-3.25,1.34-6.83,2.9-8.21.56-.49,1.12-.99,1.67-1.5,1.2-1.08,3.57-2.89,5.91-2.89m0-1c-2.7,0-5.31,2-6.58,3.15-.55.5-1.11,1-1.66,1.49-1.79,1.59-5.55,5.61-3.08,9.5,1.16,1.84,3.11,3.51,5.21,4.87,3.57,2.33,7.59,3.79,9.02,3.79.02,0,.05,0,.07,0,2.09-.07,6.96-4.43,7.26-6.5.2-1.35-.81-5.56-2.74-9.41-1.13-2.25-2.58-4.38-4.28-5.75-1.03-.82-2.12-1.14-3.19-1.14h0Z"/>
    <path class="cls-2" d="m131.57,13.77c1.55,0,2.74.61,3.63,1.87,1.06,1.5,1.95,3.67,2.58,6.28,1.02,4.27,1.01,8.19.71,9.01-.4,1.11-4.19,3.31-6.13,3.31-.17,0-.27-.02-.31-.03-.85-.25-4.04-2.56-6.89-5.9-1.73-2.04-2.96-4.03-3.53-5.75-1.17-3.49,2.01-5.71,4.01-6.72.59-.3,1.18-.6,1.77-.9.84-.43,2.5-1.15,4.17-1.15m0-1c-1.84,0-3.61.75-4.62,1.26-.59.3-1.17.6-1.76.89-1.89.95-5.97,3.58-4.51,7.93.69,2.05,2.11,4.18,3.72,6.08,2.78,3.27,6.14,5.86,7.37,6.22.17.05.37.07.6.07,2.19,0,6.48-2.31,7.07-3.98.43-1.2.32-5.41-.68-9.58-.58-2.43-1.47-4.84-2.74-6.62-1.23-1.73-2.86-2.29-4.44-2.29h0Z"/>
    <path class="cls-2" d="m150.16,8.48c3.81,0,6.33.31,7.49.93.67.35.68.67.72,1.36.01.18.02.37.04.54.18,1.42.33,10.02-3.18,14-1.17,1.32-2.6,1.97-4.37,1.97-.52,0-1.03-.03-1.52-.1-.11-.01-.22-.04-.32-.06-.09-.02-.18-.04-.27-.06l-.26-.05c-.18-.03-.37-.06-.54-.11-.13-.04-.25-.08-.38-.13-.08-.03-.17-.06-.25-.09-.09-.03-.17-.06-.26-.09-.13-.04-.27-.09-.39-.14-.16-.07-.3-.15-.45-.23l-.21-.11c-.08-.04-.16-.08-.24-.12-.09-.05-.19-.09-.27-.14-.17-.1-.33-.22-.49-.33l-.17-.12c-.07-.05-.14-.09-.21-.14-.07-.05-.14-.09-.21-.14-.18-.14-.35-.3-.52-.45l-.12-.11c-.06-.05-.12-.1-.18-.16-.05-.05-.11-.09-.16-.14-.18-.18-.34-.37-.51-.55l-.09-.1c-.05-.06-.1-.11-.15-.17-.04-.05-.09-.09-.13-.14-.19-.23-.37-.48-.58-.77-.04-.05-.08-.11-.12-.16-.03-.04-.06-.08-.09-.12-.2-.3-.39-.62-.56-.9-.03-.05-.06-.1-.09-.14-.02-.03-.03-.05-.05-.08-.16-.29-.33-.61-.52-1.02-.02-.04-.04-.08-.08-.15-1.01-2.15-1.64-4.65-1.74-6.87.33-.64,2.74-4.6,11.41-4.6m0-1c-9.98,0-12.42,5.13-12.42,5.45,0,0,0,.01,0,.04.08,2.17.66,4.87,1.84,7.4.02.05.05.1.08.16.17.36.36.73.56,1.08.05.08.1.16.15.24.19.32.38.65.59.96.07.1.15.2.22.3.2.28.4.56.62.82.1.12.2.22.3.33.21.24.42.48.65.71.12.11.24.21.36.32.23.21.45.42.7.61.14.11.3.21.45.31.24.17.47.34.72.5.18.11.37.19.56.29.24.13.47.26.73.37.23.1.48.17.72.25.23.08.45.18.69.24.28.08.58.12.88.18.22.04.43.1.65.13.53.07,1.08.11,1.65.11,9.19,0,8.75-15.47,8.55-17.09-.2-1.61.74-3.71-9.25-3.71h0Z"/>
    <path class="cls-2" d="m169.85,8.48c8.67,0,11.08,3.96,11.41,4.6-.11,2.22-.74,4.72-1.76,6.91-.02.04-.04.07-.06.11-.2.41-.36.74-.52,1.02-.02.03-.03.05-.05.08-.03.05-.06.09-.09.14-.16.28-.35.6-.56.9-.03.04-.06.08-.09.12-.04.05-.08.11-.14.19-.19.26-.37.51-.56.74-.04.05-.09.1-.13.14-.05.05-.1.11-.15.17l-.09.1c-.17.19-.33.38-.51.55-.05.05-.1.09-.16.14-.06.05-.12.1-.18.16l-.12.11c-.17.15-.34.31-.52.45-.07.05-.14.1-.21.14-.07.05-.14.09-.21.14l-.17.12c-.16.12-.32.23-.49.33-.09.05-.18.1-.27.14-.08.04-.16.08-.24.12l-.21.11c-.15.08-.29.16-.45.23-.13.05-.26.1-.39.14-.09.03-.17.06-.26.09-.08.03-.17.06-.25.09-.12.05-.25.09-.38.13-.17.05-.36.08-.54.11l-.26.05c-.09.02-.18.04-.27.06-.11.02-.21.05-.32.06-.49.07-1,.1-1.52.1-1.77,0-3.2-.64-4.37-1.97-3.52-3.98-3.36-12.58-3.18-14,.02-.18.03-.36.04-.54.04-.69.06-1.01.72-1.36,1.16-.62,3.68-.93,7.49-.93m0-1c-9.99,0-9.05,2.1-9.25,3.71-.2,1.62-.64,17.09,8.55,17.09.57,0,1.12-.04,1.65-.11.23-.03.43-.09.65-.13.29-.06.6-.1.88-.18.24-.07.46-.16.69-.24.24-.08.49-.15.72-.25.25-.11.49-.25.73-.37.19-.1.38-.18.56-.29.25-.15.48-.33.72-.5.15-.11.31-.2.45-.31.24-.19.47-.4.7-.61.12-.11.25-.21.36-.32.23-.22.44-.47.65-.71.1-.11.21-.22.3-.33.22-.27.42-.54.62-.82.07-.1.15-.2.22-.3.21-.31.4-.63.59-.96.05-.08.1-.16.15-.24.2-.35.38-.72.56-1.08.03-.05.06-.1.08-.16,1.18-2.53,1.76-5.23,1.84-7.4,0-.03,0-.04,0-.04,0-.32-2.44-5.45-12.42-5.45h0Z"/>
    <path class="cls-2" d="m236.4,81.74c2.04,0,3.68.7,5.32,2.26,3.48,3.33,3.93,10.39,1.99,14.25-2.09,4.16-7.54,4.91-10.61,4.98h-.04s-.04,0-.04,0c-.84.09-1.72.13-2.6.13-1.17,0-2.35-.08-3.43-.23-2.2-.31-3.31-1.55-3.28-3.71.04-2.63-.37-5.32-.66-7.28-.1-.67-.19-1.25-.24-1.69-.41-3.73.34-5.02,3.67-6.32,2.19-.93,5.29-1.72,6.13-1.87.22-.05.44-.09.67-.14h.07c1.2-.28,2.16-.4,3.03-.4m0-1c-1.03,0-2.1.16-3.24.41-.02,0-.04,0-.07.01-.22.04-.45.09-.68.14-.79.14-3.97.93-6.31,1.93-3.67,1.43-4.74,3.12-4.28,7.35.19,1.76.94,5.39.89,8.84-.04,2.73,1.5,4.34,4.14,4.71,1.09.15,2.3.24,3.57.24.88,0,1.79-.04,2.7-.13,4.58-.11,9.44-1.48,11.48-5.53,2.12-4.22,1.61-11.79-2.19-15.42-1.96-1.88-3.9-2.54-6.01-2.54h0Z"/>
    <path class="cls-2" d="m237.68,106.16c2.49,0,4.27.81,5.96,2.72,3.19,3.6,3.06,10.68.81,14.37-2.08,3.41-6.39,4.13-9.63,4.13-.44,0-.89-.01-1.35-.04h-.04s-.04,0-.04,0c-.15,0-.31,0-.46,0-1.85,0-3.81-.21-5.54-.6-2.17-.49-3.17-1.82-2.96-3.97.25-2.62.07-5.33-.06-7.31-.05-.68-.08-1.26-.1-1.7-.1-3.75.75-4.98,4.18-5.99,2.26-.74,5.41-1.28,6.27-1.36.22-.03.44-.06.66-.08h.09s0-.01,0-.01c.83-.11,1.56-.17,2.2-.17m0-1c-.75,0-1.52.07-2.34.17-.02,0-.04,0-.07,0-.22.02-.45.05-.68.08-.79.07-4.03.6-6.45,1.4-3.78,1.12-4.98,2.72-4.87,6.97.05,1.77.49,5.45.16,8.89-.26,2.72,1.13,4.45,3.74,5.04,1.69.38,3.7.62,5.76.62.16,0,.32,0,.48,0,.47.03.94.04,1.41.04,4.15,0,8.36-1.13,10.49-4.61,2.46-4.03,2.57-11.62-.91-15.55-2.06-2.32-4.22-3.06-6.71-3.06h0Z"/>
    <path class="cls-2" d="m204.46,23.39c2.34,0,4.71,1.81,5.91,2.89.56.51,1.11,1,1.67,1.5,1.56,1.39,4.96,4.97,2.9,8.22-.96,1.52-2.66,3.1-4.91,4.57-3.4,2.22-7.28,3.63-8.5,3.63h0c-1.6-.05-6.08-4.06-6.31-5.65-.14-.95.64-4.81,2.65-8.82,1.2-2.4,2.59-4.28,4.02-5.42.77-.62,1.61-.92,2.57-.92m0-1c-1.08,0-2.17.32-3.19,1.14-1.71,1.37-3.16,3.5-4.28,5.75-1.93,3.86-2.95,8.06-2.74,9.41.3,2.07,5.17,6.43,7.26,6.5.02,0,.04,0,.07,0,1.43,0,5.45-1.47,9.02-3.79,2.1-1.37,4.05-3.04,5.21-4.87,2.46-3.89-1.29-7.9-3.08-9.5-.56-.49-1.11-.99-1.66-1.49-1.27-1.14-3.88-3.15-6.58-3.15h0Z"/>
    <path class="cls-2" d="m100.84,39.26c.55,0,1.1.12,1.65.36,1.67.72,3.51,2.16,5.3,4.16,2.99,3.33,4.77,6.85,4.88,7.81.19,1.59-3.07,6.63-4.59,7.11-.09.03-.44.12-1.29.12-1.66,0-4.72-.36-7.87-1.37-2.56-.82-4.61-1.9-5.94-3.11-2.84-2.59-.51-6.94.63-8.69.41-.62.81-1.25,1.22-1.88.87-1.35,3.2-4.5,6.01-4.5m0-1c-3.25,0-5.77,3.28-6.85,4.96-.4.63-.81,1.26-1.21,1.88-1.3,2.01-3.87,6.87-.46,9.97,1.6,1.47,3.92,2.56,6.31,3.33,3.04.98,6.2,1.42,8.18,1.42.7,0,1.25-.06,1.59-.16,2-.62,5.54-6.11,5.29-8.18-.16-1.35-2.25-5.14-5.13-8.35-1.68-1.88-3.64-3.55-5.65-4.41-.71-.31-1.39-.44-2.05-.44h0Z"/>
    <path class="cls-2" d="m90.48,58.1c.43,0,.88.06,1.33.18.76.2,1.62.52,2.55.96l.05.02.05.02c2.06.7,4.5,2.11,6.39,3.68,1.06.88,1.92,2.13,2.54,3.69.82,2.04.25,5.78-1.38,9.08-1.27,2.56-2.92,4.34-4.42,4.76-.21.06-.6.13-1.3.13-1.09,0-2.36-.16-3.29-.28l-.23-.03c-1.53-.19-3.91-.93-5.66-1.75l-.04-.02-.04-.02c-1.56-.56-2.85-1.2-3.56-1.76-1.76-1.4-1.88-3.98-1.67-5.9.54-4.96,3.95-10.89,7.14-12.45.44-.21.95-.32,1.52-.32m0-1c-.68,0-1.35.13-1.96.42-5.5,2.68-10.87,15.89-5.66,20.04.87.69,2.33,1.37,3.84,1.92,1.93.9,4.4,1.63,5.96,1.83.93.12,2.39.32,3.64.32.59,0,1.14-.04,1.57-.16,4.41-1.23,8.24-10.73,6.46-15.17-.63-1.56-1.54-3.01-2.83-4.09-1.81-1.51-4.35-3.06-6.71-3.86-.92-.44-1.84-.8-2.72-1.03-.52-.13-1.05-.21-1.59-.21h0Z"/>
    <path class="cls-2" d="m83.92,130.82c.93,0,1.88.08,2.82.24,6.12,1.03,9.71,3.11,9.85,5.71,0,.16-.04.86-.15,1.84v.03s0,.03,0,.03c-.1,1.65-.85,10-5.47,11.99-1.83.79-4.22,1.24-6.57,1.24-4.23,0-7.6-1.43-9.25-3.93-1.8-2.73-1.83-5.89-1.53-8.07v-.05s0-.05,0-.05c.13-3.11,1.21-5.53,1.73-6.08,1.1-1.17,4.28-2.9,8.56-2.9m0-1c-4.78,0-8.13,2-9.29,3.22-.79.84-1.86,3.56-2,6.73-.37,2.73-.13,6.01,1.69,8.76,2.1,3.18,6.16,4.38,10.08,4.38,2.58,0,5.09-.51,6.96-1.32,5.09-2.19,5.94-10.69,6.07-12.85.14-1.19.16-1.97.16-1.97-.15-3.39-4.33-5.62-10.69-6.69-1.05-.18-2.05-.25-2.99-.25h0Z"/>
    <path class="cls-2" d="m219.16,39.26c2.81,0,5.14,3.15,6.01,4.5.4.63.81,1.26,1.22,1.88,1.14,1.75,3.47,6.1.63,8.69-1.33,1.22-3.39,2.29-5.94,3.11-3.15,1.01-6.21,1.37-7.87,1.37-.85,0-1.2-.09-1.29-.12-1.53-.47-4.79-5.52-4.59-7.11.11-.95,1.89-4.47,4.88-7.8,1.8-2,3.63-3.44,5.3-4.16.55-.24,1.1-.36,1.65-.36m0-1c-.66,0-1.34.13-2.05.44-2.01.87-3.97,2.54-5.65,4.41-2.88,3.21-4.97,7-5.13,8.35-.26,2.07,3.29,7.56,5.29,8.18.34.11.89.16,1.59.16,1.97,0,5.13-.44,8.18-1.42,2.39-.77,4.7-1.86,6.31-3.33,3.4-3.1.84-7.96-.46-9.97-.41-.62-.81-1.25-1.21-1.88-1.08-1.68-3.6-4.96-6.85-4.96h0Z"/>
    <path class="cls-2" d="m229.52,58.1c.57,0,1.08.11,1.52.32,3.19,1.56,6.6,7.49,7.14,12.45.21,1.92.09,4.5-1.67,5.9-.7.56-2,1.2-3.56,1.76l-.04.02-.04.02c-1.75.82-4.13,1.55-5.66,1.75l-.23.03c-.93.12-2.19.28-3.29.28-.7,0-1.09-.07-1.3-.13-1.5-.42-3.16-2.2-4.42-4.76-1.63-3.3-2.2-7.03-1.38-9.08.63-1.56,1.48-2.8,2.54-3.69,1.89-1.57,4.34-2.98,6.39-3.68l.05-.02.05-.02c.93-.44,1.78-.77,2.55-.96.46-.12.91-.18,1.33-.18m0-1c-.53,0-1.07.08-1.59.21-.88.23-1.81.59-2.72,1.03-2.36.8-4.9,2.35-6.71,3.86-1.29,1.08-2.21,2.52-2.83,4.09-1.78,4.44,2.06,13.95,6.46,15.17.43.12.98.16,1.57.16,1.25,0,2.71-.2,3.64-.32,1.55-.2,4.03-.93,5.96-1.83,1.51-.54,2.97-1.22,3.84-1.92,5.22-4.15-.16-17.36-5.66-20.04-.61-.3-1.28-.42-1.96-.42h0Z"/>
    <path class="cls-2" d="m236.08,130.82c4.27,0,7.46,1.74,8.56,2.9.52.55,1.59,2.97,1.73,6.08v.05s0,.05,0,.05c.3,2.18.27,5.34-1.53,8.07-1.65,2.5-5.02,3.93-9.25,3.93-2.35,0-4.74-.45-6.57-1.24-4.62-1.99-5.37-10.34-5.47-11.99v-.03s0-.03,0-.03c-.12-.99-.15-1.69-.15-1.84.14-2.6,3.73-4.68,9.85-5.71.95-.16,1.9-.24,2.82-.24m0-1c-.94,0-1.94.08-2.99.25-6.36,1.07-10.54,3.3-10.69,6.69,0,0,.02.78.16,1.97.13,2.15.98,10.66,6.07,12.85,1.87.8,4.39,1.32,6.96,1.32,3.92,0,7.98-1.19,10.08-4.38,1.81-2.74,2.06-6.03,1.69-8.76-.14-3.16-1.21-5.89-2-6.73-1.15-1.22-4.51-3.22-9.29-3.22h0Z"/>
    <path class="cls-2" d="m188.43,13.77c1.66,0,3.32.72,4.16,1.15.59.31,1.18.61,1.77.9,2,1.01,5.19,3.23,4.01,6.72-.58,1.72-1.8,3.71-3.53,5.75-2.84,3.35-6.04,5.66-6.89,5.91-.04.01-.14.03-.31.03-1.94,0-5.73-2.2-6.13-3.32-.29-.82-.31-4.73.71-9,.62-2.61,1.52-4.78,2.58-6.28.89-1.26,2.08-1.87,3.63-1.87m0-1c-1.58,0-3.21.55-4.44,2.29-1.26,1.78-2.15,4.19-2.74,6.62-1,4.16-1.11,8.38-.68,9.58.59,1.67,4.88,3.98,7.07,3.98.22,0,.42-.02.6-.07,1.22-.36,4.59-2.94,7.37-6.22,1.61-1.89,3.03-4.02,3.72-6.08,1.46-4.35-2.62-6.98-4.51-7.93-.59-.29-1.17-.59-1.76-.89-1.01-.52-2.78-1.26-4.62-1.26h0Z"/>
  </g>
  <g>
    <path class="cls-5" d="m78.63,207.8s27.73,0,34.95,9.93c7.08,9.72,22.94,13.04,44.61,13.04s37.39-3.39,44.61-13.04c7.39-9.89,39.06-9.93,39.52-9.93-.36.01-13.84.46-15.04,6.97-1.21,6.6,2.47,76.81-66.8,76.81s-65.59-70.21-66.8-76.81c-1.21-6.6-15.04-6.97-15.04-6.97Z"/>
    <path class="cls-1" d="m95.61,214.64c0,70.52,53.43,73.58,64.55,73.45,11.12.13,64.55-2.93,64.55-73.45,0,0-11.2,57.7-64.55,59.12-53.35-1.43-64.55-59.12-64.55-59.12Z"/>
    <path class="cls-1" d="m199.87,228.35c1.11-.97,2.69.15,2.36,1.68-1.12,5.15-2.6,10.36-4.58,15.29-7.37,18.33-19.18,26.86-37.18,26.86s-29.82-8.54-37.19-26.88c-1.42-3.53-2.58-7.21-3.54-10.9-.38-1.46,1.07-2.66,2.22-1.84.2.14.4.29.6.43,10.76,7.52,23.11,11.5,35.73,11.5,16.9,0,30.98-6.87,41.57-16.14Z"/>
    <path class="cls-3" d="m78.63,187.43c3.44-8.68,17.37-8.94,20.26-2.75.43.91,1.42,3.22,1.67,4.13.46,1.83.27.44.87,6.84,1.86,24.95,7.15,54.96,23.22,72.01,8.19,8.68,18.4,13.53,29.38,14.46,1.52.2,0,.08,6.24.33.38,0,5.28-.16,6.25-.28l4.11-.54c33.29-6.06,44.87-42,48.4-80.48.9-10.12.83-11.04,1.67-13.33.74-1.59.56-1.24,1.62-2.69,5.73-6.58,16.47-7.2,19.82.87l-1.21,5.65c-2.08-4.21-1.08-9.27-5.25-9.04-2.36.08-5.57,0-8.24,1.36-3.75,1.94-4.91,4.37-5.13,7.2-.32,6.76-.54,13.6-1.24,20.36-4.8,48.3-25.15,80.37-67.5,76.3-11.9-1.12-23.39-6.58-32.15-16.32-8.66-9.6-13.99-22.16-17.35-35.36-5.24-20.53-4.99-39.95-5.46-45.43-.41-3.51-2.59-5.55-5.46-6.93-3.38-1.61-2.27,1.71-6.87,2.46-2.8.46-3.76-.34-5.1,2.52l-2.53-1.34Z"/>
    <path class="cls-5" d="m77.34,174.64c2.54-6.38,11.73-5.44,11.73-5.44,0,0,9.09-2.04,10.15,7.26,1.06,9.31-3.66,113.89,61.25,113.89s60.15-103.33,61.21-112.64c1.04-9.18,9.88-8.49,10.19-8.51h0s9.19-.94,11.73,5.44c2.54,6.38,3.04,59.57-18.7,96.95-25.08,43.15-64.44,41.24-64.44,41.24,0,0-39.35,1.9-64.43-41.24-21.74-37.38-21.24-90.57-18.7-96.95Z"/>
    <path class="cls-6" d="m238.91,235.04c-5.05,32.58-20.99,58.59-50.09,70.23-9.92,3.96-20.37,5.79-28.38,5.72.45,0-5.44.26-14.41-1.55-33.58-6.87-57.48-32.16-64.04-74.41l.33-.06c2.22,9.99,5.2,19.77,9.74,28.66,2.2,4.47,4.66,8.78,7.54,12.72,11.49,15.76,28.24,25.96,47.04,29.63,9.6,1.92,18.29,1.85,27.61,0,13.54-2.65,26.14-8.98,34.72-16.42,8.59-7.19,14.69-15.41,19.86-25.93,4.54-8.89,7.52-18.67,9.74-28.66l.33.06Z"/>
  </g>
  <g>
    <path class="cls-2" d="m230.43,221.38c.88,0,1.75.04,2.6.13h.04s.04,0,.04,0c3.06.07,8.51.82,10.6,4.98,1.94,3.86,1.49,10.93-1.99,14.25-1.64,1.56-3.28,2.26-5.32,2.26-.87,0-1.83-.12-3.07-.39h-.05c-.21-.05-.43-.1-.69-.15-.81-.14-3.91-.94-6.12-1.87-3.31-1.28-4.06-2.58-3.65-6.31.05-.44.14-1.02.24-1.69.29-1.96.7-4.64.66-7.28-.03-2.15,1.07-3.4,3.28-3.71,1.09-.15,2.25-.23,3.43-.23m0-1c-1.27,0-2.48.09-3.57.24-2.64.37-4.18,1.98-4.14,4.71.05,3.46-.7,7.08-.89,8.84-.46,4.22.6,5.92,4.28,7.35,2.34.99,5.53,1.79,6.31,1.93.23.05.45.1.67.14.03,0,.05.01.07.01,1.14.25,2.21.41,3.24.41,2.12,0,4.05-.66,6.01-2.54,3.8-3.63,4.31-11.21,2.19-15.42-2.04-4.05-6.9-5.42-11.47-5.53-.91-.09-1.82-.13-2.7-.13h0Z"/>
    <path class="cls-2" d="m234.81,197.38c3.24,0,7.55.72,9.63,4.13,2.25,3.69,2.39,10.77-.81,14.37-1.69,1.91-3.48,2.72-5.96,2.72-.65,0-1.37-.05-2.24-.17h-.05c-.21-.03-.43-.06-.7-.09-.82-.08-3.97-.61-6.26-1.36-3.4-1.01-4.26-2.24-4.15-5.99.01-.44.05-1.03.1-1.7.13-1.98.31-4.68.06-7.31-.21-2.14.79-3.48,2.96-3.97,1.73-.39,3.69-.6,5.54-.6.15,0,.31,0,.46,0h.04s.04,0,.04,0c.45-.03.91-.04,1.35-.04m0-1c-.47,0-.94.01-1.41.04-.16,0-.32,0-.48,0-2.06,0-4.07.25-5.76.62-2.6.58-4,2.32-3.74,5.04.33,3.44-.11,7.11-.16,8.89-.12,4.25,1.09,5.85,4.87,6.97,2.41.79,5.65,1.32,6.45,1.4.23.03.46.06.68.08.03,0,.05,0,.07,0,.81.11,1.59.17,2.34.17,2.49,0,4.65-.74,6.71-3.06,3.49-3.93,3.37-11.52.91-15.55-2.12-3.48-6.34-4.61-10.49-4.61h0Z"/>
    <path class="cls-2" d="m201.57,280.56c1.18,0,5.07,1.41,8.47,3.63,2.25,1.47,3.94,3.05,4.91,4.57,2.06,3.25-1.34,6.83-2.9,8.21-.56.49-1.12.99-1.67,1.5-1.2,1.08-3.57,2.89-5.91,2.89-.95,0-1.8-.3-2.57-.92-1.42-1.14-2.81-3.01-4.02-5.42-2.01-4-2.79-7.87-2.65-8.82.23-1.58,4.71-5.59,6.31-5.64h.03m0-1s-.05,0-.07,0c-2.09.07-6.96,4.43-7.26,6.5-.2,1.35.81,5.56,2.74,9.41,1.13,2.25,2.58,4.38,4.28,5.75,1.03.82,2.12,1.14,3.19,1.14,2.7,0,5.31-2,6.58-3.15.55-.5,1.11-1,1.66-1.49,1.79-1.59,5.55-5.61,3.08-9.5-1.16-1.84-3.11-3.51-5.21-4.87-3.57-2.33-7.59-3.79-9.02-3.79h0Z"/>
    <path class="cls-2" d="m187.64,290.53c.17,0,.27.02.31.03.85.25,4.04,2.56,6.89,5.9,1.73,2.04,2.96,4.03,3.53,5.75,1.17,3.49-2.01,5.71-4.01,6.72-.59.3-1.18.6-1.77.9-.84.43-2.5,1.15-4.16,1.15-1.55,0-2.74-.61-3.63-1.87-1.06-1.5-1.95-3.67-2.58-6.28-1.02-4.27-1.01-8.19-.71-9.01.4-1.11,4.19-3.31,6.13-3.31m0-1c-2.19,0-6.48,2.31-7.07,3.98-.43,1.2-.32,5.41.68,9.58.58,2.43,1.47,4.84,2.74,6.62,1.23,1.73,2.86,2.29,4.44,2.29,1.84,0,3.61-.75,4.62-1.26.59-.3,1.17-.6,1.76-.89,1.89-.95,5.97-3.58,4.51-7.93-.69-2.05-2.11-4.18-3.72-6.08-2.78-3.27-6.14-5.86-7.37-6.22-.17-.05-.37-.07-.6-.07h0Z"/>
    <path class="cls-2" d="m169.14,297.48c.52,0,1.03.03,1.52.1.11.01.22.04.32.06.09.02.18.04.27.06l.26.05c.18.03.37.06.54.11.13.04.25.08.38.13.08.03.17.06.25.09.09.03.17.06.26.09.13.04.27.09.39.14.16.07.3.15.45.23l.21.11c.08.04.16.08.24.12.09.05.19.09.27.14.16.1.31.21.46.31l.18.13c.07.05.14.1.21.14.08.05.15.1.22.15.17.14.34.29.5.44l.13.12c.06.05.12.11.18.16.06.05.11.09.16.14.19.19.36.39.54.58l.07.08c.05.06.1.11.15.16.04.04.08.09.12.13.19.23.37.49.58.77.04.05.08.11.12.16.03.04.06.08.09.12.2.29.38.59.55.88.03.05.06.1.09.15.02.03.04.06.05.09.17.3.34.62.53,1.03.02.04.04.07.07.14,1.01,2.15,1.64,4.65,1.74,6.87-.33.64-2.74,4.6-11.41,4.6-3.81,0-6.33-.31-7.49-.93-.67-.35-.68-.67-.72-1.36-.01-.18-.02-.37-.04-.54-.18-1.42-.33-10.02,3.18-14,1.17-1.32,2.6-1.97,4.37-1.97m0-1c-9.19,0-8.75,15.47-8.55,17.09.2,1.61-.74,3.71,9.25,3.71s12.42-5.13,12.42-5.45c0,0,0-.01,0-.04-.08-2.17-.66-4.87-1.84-7.4-.02-.05-.05-.1-.07-.14-.18-.37-.36-.74-.56-1.09-.05-.09-.1-.17-.15-.25-.19-.32-.38-.64-.58-.94-.07-.1-.15-.19-.22-.29-.2-.28-.4-.56-.62-.83-.09-.11-.2-.21-.29-.32-.22-.24-.43-.49-.66-.72-.12-.12-.25-.22-.37-.33-.23-.2-.45-.41-.69-.6-.15-.12-.32-.21-.47-.32-.23-.16-.46-.33-.7-.48-.18-.11-.37-.19-.56-.29-.24-.13-.47-.26-.73-.37-.23-.1-.48-.17-.72-.25-.23-.08-.45-.18-.69-.24-.28-.08-.58-.12-.88-.18-.22-.04-.43-.1-.65-.13-.53-.07-1.08-.11-1.65-.11h0Z"/>
    <path class="cls-2" d="m89.57,221.38c1.17,0,2.35.08,3.43.23,2.2.31,3.31,1.55,3.28,3.71-.04,2.63.37,5.32.66,7.28.1.67.19,1.25.24,1.69.41,3.73-.34,5.02-3.67,6.32-2.19.93-5.29,1.72-6.13,1.87-.22.05-.44.09-.66.14l-.08.02c-1.2.26-2.16.38-3.03.38-2.04,0-3.68-.7-5.32-2.26-3.48-3.33-3.93-10.39-1.99-14.25,2.09-4.16,7.54-4.91,10.6-4.98h.04s.04,0,.04,0c.84-.09,1.72-.13,2.6-.13m0-1c-.88,0-1.79.04-2.7.13-4.58.11-9.44,1.48-11.47,5.53-2.12,4.22-1.61,11.79,2.19,15.42,1.96,1.88,3.9,2.54,6.01,2.54,1.03,0,2.1-.16,3.24-.41.02,0,.04,0,.07-.01.22-.04.44-.09.67-.14.79-.14,3.97-.93,6.31-1.93,3.67-1.43,4.74-3.12,4.28-7.35-.19-1.76-.94-5.39-.89-8.84.04-2.73-1.5-4.34-4.14-4.71-1.09-.15-2.3-.24-3.57-.24h0Z"/>
    <path class="cls-2" d="m85.19,197.38c.44,0,.89.01,1.35.04h.04s.04,0,.04,0c.15,0,.31,0,.46,0,1.84,0,3.81.21,5.54.6,2.17.49,3.17,1.82,2.96,3.97-.25,2.62-.07,5.33.06,7.31.05.68.08,1.26.1,1.7.1,3.75-.75,4.98-4.18,5.99-2.26.74-5.41,1.28-6.27,1.36-.22.03-.44.06-.66.08h-.09s0,.01,0,.01c-.83.11-1.56.17-2.2.17-2.49,0-4.27-.81-5.96-2.72-3.19-3.6-3.06-10.68-.81-14.37,2.08-3.41,6.39-4.13,9.63-4.13m0-1c-4.15,0-8.36,1.13-10.49,4.61-2.46,4.03-2.57,11.62.91,15.55,2.06,2.32,4.22,3.06,6.71,3.06.75,0,1.52-.07,2.34-.17.02,0,.04,0,.07,0,.22-.02.45-.05.68-.08.79-.07,4.03-.6,6.45-1.4,3.78-1.12,4.98-2.72,4.87-6.97-.05-1.77-.49-5.45-.16-8.89.26-2.72-1.13-4.45-3.74-5.04-1.69-.38-3.7-.62-5.76-.62-.16,0-.32,0-.48,0-.47-.03-.94-.04-1.41-.04h0Z"/>
    <path class="cls-2" d="m118.43,280.56h.03c1.6.05,6.08,4.06,6.31,5.65.14.95-.64,4.81-2.65,8.82-1.2,2.4-2.59,4.28-4.02,5.42-.77.62-1.61.92-2.57.92-2.34,0-4.71-1.81-5.91-2.89-.56-.51-1.11-1-1.67-1.5-1.56-1.39-4.96-4.97-2.9-8.22.96-1.52,2.66-3.1,4.91-4.57,3.4-2.22,7.29-3.63,8.47-3.63m0-1c-1.43,0-5.45,1.47-9.02,3.79-2.1,1.37-4.05,3.04-5.21,4.87-2.46,3.89,1.29,7.9,3.08,9.5.56.49,1.11.99,1.66,1.49,1.27,1.14,3.88,3.15,6.58,3.15,1.08,0,2.17-.32,3.19-1.14,1.71-1.37,3.16-3.5,4.28-5.75,1.93-3.86,2.95-8.06,2.74-9.41-.3-2.07-5.17-6.43-7.26-6.5-.02,0-.04,0-.07,0h0Z"/>
    <path class="cls-2" d="m213.2,265.94c1.66,0,4.72.36,7.87,1.37,2.56.82,4.61,1.9,5.94,3.11,2.84,2.59.51,6.94-.63,8.69-.41.62-.81,1.25-1.22,1.88-.87,1.35-3.2,4.5-6.01,4.5-.55,0-1.1-.12-1.65-.36-1.67-.72-3.51-2.16-5.3-4.16-2.99-3.33-4.77-6.85-4.88-7.81-.19-1.59,3.07-6.63,4.59-7.11.09-.03.44-.12,1.29-.12m0-1c-.7,0-1.25.06-1.59.16-2,.62-5.54,6.11-5.29,8.18.16,1.35,2.25,5.14,5.13,8.35,1.68,1.88,3.64,3.55,5.65,4.41.71.31,1.39.44,2.05.44,3.25,0,5.77-3.28,6.85-4.96.4-.63.81-1.26,1.21-1.88,1.3-2.01,3.87-6.87.46-9.97-1.6-1.47-3.92-2.56-6.31-3.33-3.04-.98-6.2-1.42-8.18-1.42h0Z"/>
    <path class="cls-2" d="m223.7,244.13c1.09,0,2.36.16,3.29.28l.23.03c1.53.19,3.91.93,5.66,1.75l.04.02.04.02c1.56.56,2.85,1.2,3.56,1.76,1.76,1.4,1.88,3.98,1.67,5.9-.54,4.96-3.95,10.89-7.14,12.45-.44.21-.95.32-1.52.32-.43,0-.88-.06-1.33-.18-.76-.2-1.62-.52-2.55-.96l-.05-.02-.05-.02c-2.06-.7-4.5-2.11-6.39-3.68-1.06-.88-1.92-2.13-2.54-3.69-.82-2.04-.25-5.78,1.38-9.08,1.27-2.56,2.92-4.34,4.42-4.76.21-.06.6-.13,1.3-.13m0-1c-.59,0-1.14.04-1.57.16-4.41,1.23-8.24,10.73-6.46,15.17.63,1.56,1.54,3.01,2.83,4.09,1.81,1.51,4.35,3.06,6.71,3.86.92.44,1.84.8,2.72,1.03.52.13,1.05.21,1.59.21.68,0,1.35-.13,1.96-.42,5.5-2.68,10.87-15.89,5.66-20.04-.87-.69-2.33-1.37-3.84-1.92-1.93-.9-4.4-1.63-5.96-1.83-.93-.12-2.39-.32-3.64-.32h0Z"/>
    <path class="cls-2" d="m235.59,172.86c4.23,0,7.6,1.43,9.25,3.93,1.8,2.73,1.83,5.89,1.53,8.07v.05s0,.05,0,.05c-.13,3.11-1.21,5.53-1.73,6.08-1.1,1.17-4.28,2.9-8.56,2.9-.93,0-1.88-.08-2.82-.24-6.12-1.03-9.71-3.11-9.85-5.71,0-.16.04-.86.15-1.84v-.03s0-.03,0-.03c.1-1.65.85-10,5.47-11.99,1.83-.79,4.22-1.24,6.57-1.24m0-1c-2.58,0-5.09.51-6.96,1.32-5.09,2.19-5.94,10.69-6.07,12.85-.14,1.19-.16,1.97-.16,1.97.15,3.39,4.33,5.62,10.69,6.69,1.05.18,2.05.25,2.99.25,4.78,0,8.13-2,9.29-3.22.79-.84,1.86-3.56,2-6.73.37-2.73.13-6.01-1.69-8.76-2.1-3.18-6.16-4.38-10.08-4.38h0Z"/>
    <path class="cls-2" d="m106.8,265.94c.85,0,1.2.09,1.29.12,1.53.47,4.79,5.52,4.59,7.11-.11.95-1.89,4.47-4.88,7.8-1.8,2-3.63,3.44-5.3,4.16-.55.24-1.11.36-1.65.36-2.81,0-5.14-3.15-6.01-4.5-.4-.63-.81-1.26-1.22-1.88-1.14-1.75-3.47-6.1-.63-8.69,1.33-1.22,3.39-2.29,5.94-3.11,3.15-1.01,6.21-1.37,7.87-1.37m0-1c-1.97,0-5.13.44-8.18,1.42-2.39.77-4.7,1.86-6.31,3.33-3.4,3.1-.84,7.96.46,9.97.41.62.81,1.25,1.21,1.88,1.08,1.68,3.6,4.96,6.85,4.96.66,0,1.34-.13,2.05-.44,2.01-.87,3.97-2.54,5.65-4.41,2.88-3.21,4.97-7,5.13-8.35.26-2.07-3.29-7.56-5.29-8.18-.34-.11-.89-.16-1.59-.16h0Z"/>
    <path class="cls-2" d="m96.3,244.13c.7,0,1.09.07,1.3.13,1.5.42,3.16,2.2,4.42,4.76,1.63,3.3,2.2,7.03,1.38,9.08-.63,1.56-1.48,2.8-2.54,3.69-1.89,1.57-4.34,2.98-6.39,3.68l-.05.02-.05.02c-.93.44-1.78.77-2.55.96-.46.12-.91.18-1.33.18-.57,0-1.08-.11-1.52-.32-3.19-1.56-6.6-7.49-7.14-12.45-.21-1.92-.09-4.5,1.67-5.9.7-.56,2-1.2,3.56-1.76l.04-.02.04-.02c1.75-.82,4.13-1.55,5.66-1.75l.23-.03c.93-.12,2.19-.28,3.29-.28m0-1c-1.25,0-2.71.2-3.64.32-1.55.2-4.03.93-5.96,1.83-1.51.54-2.97,1.22-3.84,1.92-5.22,4.15.16,17.36,5.66,20.04.61.3,1.28.42,1.96.42.53,0,1.07-.08,1.59-.21.88-.23,1.81-.59,2.72-1.03,2.36-.8,4.9-2.35,6.71-3.86,1.29-1.08,2.21-2.52,2.83-4.09,1.78-4.44-2.06-13.95-6.46-15.17-.43-.12-.98-.16-1.57-.16h0Z"/>
    <path class="cls-2" d="m84.41,172.86c2.35,0,4.74.45,6.57,1.24,4.62,1.99,5.37,10.34,5.47,11.99v.03s0,.03,0,.03c.12.99.15,1.69.15,1.84-.14,2.6-3.73,4.68-9.85,5.71-.95.16-1.9.24-2.82.24-4.27,0-7.46-1.74-8.56-2.9-.52-.55-1.59-2.97-1.73-6.08v-.05s0-.05,0-.05c-.3-2.18-.27-5.34,1.53-8.07,1.65-2.5,5.02-3.93,9.25-3.93m0-1c-3.92,0-7.98,1.19-10.08,4.38-1.81,2.74-2.06,6.03-1.69,8.76.14,3.16,1.21,5.89,2,6.73,1.15,1.22,4.51,3.22,9.29,3.22.94,0,1.94-.08,2.99-.25,6.36-1.07,10.54-3.3,10.69-6.69,0,0-.02-.78-.16-1.97-.13-2.15-.98-10.66-6.07-12.85-1.87-.8-4.39-1.32-6.96-1.32h0Z"/>
    <path class="cls-2" d="m132.36,290.53c1.94,0,5.73,2.2,6.13,3.32.29.82.31,4.73-.71,9-.62,2.61-1.52,4.78-2.58,6.28-.89,1.26-2.08,1.87-3.63,1.87-1.66,0-3.32-.72-4.16-1.15-.59-.31-1.18-.61-1.77-.9-2-1.01-5.19-3.23-4.01-6.72.58-1.72,1.8-3.71,3.53-5.75,2.84-3.35,6.04-5.66,6.89-5.9.04-.01.14-.03.31-.03m0-1c-.22,0-.42.02-.6.07-1.22.36-4.59,2.94-7.37,6.22-1.61,1.89-3.03,4.02-3.72,6.08-1.46,4.35,2.62,6.98,4.51,7.93.59.29,1.17.59,1.76.89,1.01.52,2.78,1.26,4.62,1.26,1.58,0,3.21-.55,4.44-2.29,1.26-1.78,2.15-4.19,2.74-6.62,1-4.16,1.11-8.38.68-9.58-.59-1.67-4.88-3.98-7.07-3.98h0Z"/>
    <path class="cls-2" d="m150.81,297.48h0s.04,0,.04,0h.05c1.75.01,3.17.65,4.33,1.97,3.52,3.98,3.36,12.58,3.18,14-.02.18-.03.36-.04.54-.04.69-.06,1.01-.72,1.36-1.16.62-3.68.93-7.5.93-8.67,0-11.08-3.96-11.41-4.6.11-2.22.74-4.72,1.76-6.9.02-.04.04-.07.06-.11.2-.41.36-.74.53-1.03.02-.03.04-.06.05-.09.03-.05.06-.1.09-.15.17-.29.35-.6.55-.88.03-.04.06-.08.09-.12.04-.05.08-.11.14-.18.19-.27.37-.52.56-.75.04-.05.08-.09.12-.13.05-.05.1-.11.15-.16l.07-.08c.17-.2.35-.4.54-.58.05-.05.11-.1.16-.14.06-.05.12-.1.18-.16l.13-.12c.16-.15.33-.3.5-.44.07-.06.15-.1.22-.15.07-.05.14-.09.21-.14l.18-.13c.15-.11.3-.22.46-.31.09-.05.18-.1.27-.14.08-.04.16-.08.24-.12l.21-.11c.15-.08.29-.16.45-.23.13-.05.26-.1.39-.14.09-.03.17-.06.26-.09.08-.03.17-.06.25-.09.12-.05.25-.09.38-.13.17-.05.36-.08.54-.11l.26-.05c.09-.02.18-.04.27-.06.11-.02.21-.05.32-.06.48-.06.98-.1,1.48-.1m.05-1s0,0,0,0c0,0,0,0,0,0-.57,0-1.12.04-1.65.11-.23.03-.43.09-.65.13-.29.06-.6.1-.88.18-.24.07-.46.16-.69.24-.24.08-.49.15-.72.25-.25.11-.49.25-.73.37-.19.1-.38.18-.56.29-.25.15-.47.32-.7.48-.16.11-.32.21-.47.32-.24.19-.46.4-.69.6-.12.11-.26.21-.37.33-.23.23-.45.48-.66.72-.09.11-.2.21-.29.32-.22.27-.42.55-.62.83-.07.1-.15.19-.22.29-.21.31-.4.62-.58.94-.05.08-.11.16-.15.25-.2.36-.39.73-.56,1.09-.02.05-.05.1-.07.14-1.18,2.53-1.76,5.23-1.84,7.4,0,.03,0,.04,0,.04,0,.32,2.44,5.45,12.42,5.45,0,0,0,0,0,0,0,0,0,0,0,0,9.99,0,9.05-2.1,9.25-3.71.2-1.62.64-17.09-8.55-17.09h0Z"/>
  </g>
</svg>