<?xml version="1.0" encoding="UTF-8"?>
<svg id="Layer_1" data-name="Layer 1" xmlns="http://www.w3.org/2000/svg" viewBox="0 0 320 320">
  <defs>
    <style>
      .cls-1 {
        fill: #de422f;
      }

      .cls-2 {
        fill: #b3e2f2;
      }

      .cls-3 {
        fill: #e3f7fc;
      }

      .cls-4 {
        fill: #d43320;
      }

      .cls-5 {
        opacity: .75;
      }

      .cls-5, .cls-6 {
        fill: none;
      }

      .cls-7 {
        fill: #e66251;
      }

      .cls-8 {
        fill: #fc8a71;
      }

      .cls-9 {
        fill: #9fdaed;
      }

      .cls-10 {
        fill: #cbedfa;
      }

      .cls-11 {
        fill: #ffde17;
      }
    </style>
  </defs>
  <rect class="cls-6" width="320" height="320"/>
  <g>
    <path class="cls-7" d="m241.37,150.85s-27.73,0-34.95-13.94c-7.08-13.66-22.94-18.31-44.61-18.31s-37.39,4.76-44.61,18.31c-7.39,13.89-39.06,13.94-39.52,13.94.36-.01,13.84-.64,15.04-9.79,1.21-9.28-2.47-107.89,66.8-107.89s65.59,98.61,66.8,107.89c1.21,9.27,15.04,9.79,15.04,9.79Z"/>
    <path class="cls-1" d="m224.39,110.12c0-70.52-53.43-73.58-64.55-73.45-11.12-.13-64.55,2.93-64.55,73.45,0,0,11.2-57.7,64.55-59.12,53.35,1.43,64.55,59.12,64.55,59.12Z"/>
    <path class="cls-1" d="m120.13,107.28c-1.11.97-2.69-.15-2.36-1.68,1.12-5.15,2.6-10.36,4.58-15.29,7.37-18.33,19.18-26.86,37.18-26.86s29.82,8.54,37.19,26.88c1.42,3.53,2.58,7.21,3.54,10.9.38,1.46-1.07,2.66-2.22,1.84-.2-.14-.4-.29-.6-.43-10.76-7.52-23.11-11.5-35.73-11.5-16.9,0-30.98,6.87-41.57,16.14Z"/>
    <path class="cls-4" d="m241.37,137.32c-3.44,8.68-17.37,8.94-20.26,2.75-.43-.91-1.42-3.22-1.67-4.13-.46-1.83-.27-.44-.87-6.84-1.86-24.95-7.15-54.96-23.22-72.01-8.19-8.68-18.4-13.53-29.38-14.46-1.52-.2,0-.08-6.24-.33-.38,0-5.28.16-6.25.28l-4.11.54c-33.29,6.06-44.87,42-48.4,80.48-.9,10.12-.83,11.04-1.67,13.33-.74,1.59-.56,1.24-1.62,2.69-5.73,6.58-16.47,7.2-19.82-.87l1.21-5.65c2.08,4.21,1.08,9.27,5.25,9.04,2.36-.08,5.57,0,8.24-1.36,3.75-1.94,4.91-4.37,5.13-7.2.32-6.76.54-13.6,1.24-20.36,4.8-48.3,25.15-80.37,67.5-76.3,11.9,1.12,23.39,6.58,32.15,16.32,8.66,9.6,13.99,22.16,17.35,35.36,5.24,20.53,4.99,39.95,5.46,45.43.41,3.51,2.59,5.55,5.46,6.93,3.38,1.61,2.27-1.71,6.87-2.46,2.8-.46,3.76.34,5.1-2.52l2.53,1.34Z"/>
    <path class="cls-7" d="m242.66,150.11c-2.54,6.38-11.73,5.44-11.73,5.44,0,0-9.09,2.04-10.15-7.26-1.06-9.31,3.66-113.89-61.25-113.89s-60.15,103.33-61.21,112.64c-1.04,9.18-9.88,8.49-10.19,8.51h0s-9.19.94-11.73-5.44c-2.54-6.38-3.04-59.57,18.7-96.95C120.18,10.02,159.53,11.92,159.53,11.92c0,0,39.35-1.9,64.43,41.24,21.74,37.38,21.24,90.57,18.7,96.95Z"/>
    <path class="cls-8" d="m81.09,89.71c5.05-32.58,20.99-58.59,50.09-70.23,9.92-3.96,20.37-5.79,28.38-5.72-.45,0,5.44-.26,14.41,1.55,33.58,6.87,57.48,32.16,64.04,74.41l-.33.06c-2.22-9.99-5.2-19.77-9.74-28.66-2.2-4.47-4.66-8.78-7.54-12.72-11.49-15.76-28.24-25.96-47.04-29.63-9.6-1.92-18.29-1.85-27.61,0-13.54,2.65-26.14,8.98-34.72,16.42-8.59,7.19-14.69,15.41-19.86,25.93-4.54,8.89-7.52,18.67-9.74,28.66l-.33-.06Z"/>
  </g>
  <g>
    <g class="cls-5">
      <path class="cls-9" d="m93.9,83.23c3.67,1.43,4.74,3.12,4.28,7.35-.19,1.76-.94,5.39-.89,8.84.04,2.73-1.5,4.34-4.14,4.71-5.38.75-13.8,0-16.5-5.39-2.12-4.22-1.61-11.79,2.19-15.42,2.92-2.79,5.27-2.78,8.75-2.02.79.14,3.97.93,6.31,1.93Z"/>
      <path class="cls-2" d="m96.2,90.43c-.22,1.76-.94,5.39-.89,8.84.04,2.73-1.5,4.34-4.14,4.71-5.38.75-13.06.09-15.76-5.28-2.12-4.22-1.61-11.79,2.19-15.42,2.92-2.79,5.77-2.89,9.25-2.13.79.14,10.21,2.34,9.35,9.28Z"/>
      <path class="cls-10" d="m94.01,90.87c-.07,2.68-.36,5.36-.86,7.99-.18.93-.4,1.88-.99,2.62-.7.88-1.84,1.31-2.96,1.41-1.12.09-2.24-.12-3.35-.33-2.02-.39-4.08-.79-5.91-1.74-1.83-.95-3.44-2.54-3.91-4.55-.27-1.14-.16-2.32-.03-3.48.25-2.3.57-4.67,1.79-6.64,1.52-2.46,4.32-4.03,7.45-3.83,1,.06,1.87.44,2.83.64,1.73.36,3.17.89,4.37,2.28,1.47,1.7,1.64,3.4,1.58,5.64Z"/>
      <path class="cls-9" d="m85.96,90.26c.46-.08.93-.33,1.36-.16.3.12.5.43.57.75.09.41.04.52-.35,3.82-.02.19-.05.38-.13.55-.59,1.18-1.45-.78-1.76-1.06-.36-.31-.93-.44-1.31-.15-.28.21-.39.57-.42.91-.03.34-.01.7-.09,1.03-.08.34-.3.67-.64.75-.43.1-.83-.24-1.13-.56-.43-.46-.85-.96-1.09-1.54-.24-.59-.27-1.29.04-1.83.54-.93,1.82-1.08,1.51-2.84-.1-.55-.56-.97-.63-1.53-.06-.47.3-.7.78-.48.75.34,1.05,1.25,1.64,1.78.46.41,1.06.67,1.66.56Z"/>
      <path class="cls-3" d="m81.82,99.27c-1.88-1.33-2.94-2.93-3.35-5.33-.06-.33-.54-.37-.63-.04-.34,1.15-.17,2.57.6,3.79.77,1.22,1.97,1.97,3.14,2.17.34.06.53-.39.25-.59Z"/>
      <path class="cls-3" d="m83.01,84.79c.27-.17.17-.59-.15-.61-.88-.05-1.88.35-2.59,1.21-.59.71-.92,1.65-.98,2.57-.02.32.39.48.59.22.48-.6.9-1.29,1.43-1.94.45-.55.9-.98,1.69-1.47Z"/>
      <path class="cls-3" d="m88.89,85.83c-1.12.04,1.32.72,1.72,2.24.17,1.04,0,2.4.08,5.21.07,2.52.21,3.24.18,4.18-.04.64-.16,1.26-.55,1.74-.37.49-2.28.45-1.71.81.81.47,2.22.1,2.93-1.29.53-1.03.5-2.41.52-3.35,0-1.86-.06-4.58-.34-6.42-.11-.68-.19-1.05-.52-1.66-.56-1.04-1.55-1.55-2.32-1.46Z"/>
    </g>
    <g class="cls-5">
      <path class="cls-9" d="m91.86,106.82c3.78,1.12,4.98,2.72,4.87,6.97-.05,1.77-.49,5.45-.16,8.89.26,2.72-1.13,4.45-3.74,5.04-5.3,1.19-13.75,1.13-16.88-4.01-2.46-4.03-2.57-11.62.91-15.55,2.68-3.02,5.02-3.21,8.55-2.73.79.07,4.03.6,6.45,1.4Z"/>
      <path class="cls-2" d="m94.74,113.81c-.07,1.77-.49,5.45-.16,8.89.26,2.72-1.13,4.45-3.74,5.04-5.3,1.19-13.01,1.17-16.14-3.97-2.46-4.03-2.57-11.62.91-15.55,2.68-3.02,5.51-3.36,9.05-2.89.79.07,10.37,1.49,10.08,8.48Z"/>
      <path class="cls-10" d="m92.6,114.43c.15,2.68.09,5.37-.2,8.03-.1.94-.24,1.91-.77,2.69-.63.93-1.73,1.46-2.84,1.65-1.11.18-2.24.06-3.36-.06-2.05-.22-4.13-.45-6.04-1.25-1.9-.79-3.63-2.25-4.27-4.21-.36-1.11-.35-2.3-.32-3.47.06-2.31.18-4.71,1.24-6.76,1.31-2.57,3.98-4.38,7.11-4.43,1-.02,1.9.29,2.87.41,1.75.22,3.23.63,4.54,1.91,1.61,1.58,1.91,3.26,2.04,5.49Z"/>
      <path class="cls-9" d="m84.53,114.48c.45-.12.9-.41,1.34-.27.31.1.53.39.63.71.12.4.09.52-.04,3.84,0,.19-.01.38-.08.55-.49,1.22-1.51-.66-1.85-.91-.38-.28-.96-.36-1.32-.04-.26.23-.34.6-.35.94,0,.35.05.69,0,1.03-.05.34-.25.69-.58.8-.42.13-.84-.17-1.17-.47-.47-.43-.93-.88-1.21-1.45-.29-.56-.38-1.26-.11-1.83.46-.97,1.73-1.22,1.27-2.95-.14-.54-.64-.92-.75-1.47-.1-.46.24-.72.74-.54.78.28,1.14,1.16,1.78,1.64.49.37,1.11.58,1.7.42Z"/>
      <path class="cls-3" d="m81.14,123.8c-1.98-1.17-3.17-2.68-3.77-5.03-.08-.33-.57-.32-.64.01-.24,1.18.04,2.58.91,3.73.87,1.15,2.12,1.8,3.31,1.9.34.03.49-.44.2-.61Z"/>
      <path class="cls-3" d="m81.14,109.28c.26-.19.12-.61-.2-.6-.88.02-1.84.5-2.48,1.42-.53.76-.78,1.72-.76,2.64,0,.33.43.45.61.18.42-.64.79-1.36,1.26-2.05.41-.58.82-1.05,1.57-1.6Z"/>
      <path class="cls-3" d="m87.08,109.83c-1.12.13,1.38.61,1.9,2.09.25,1.02.2,2.4.51,5.18.28,2.51.48,3.21.53,4.15.01.64-.06,1.26-.41,1.78-.33.52-2.24.63-1.63.95.85.4,2.22-.08,2.82-1.53.45-1.08.3-2.44.24-3.38-.14-1.85-.44-4.56-.87-6.37-.17-.66-.28-1.03-.66-1.61-.64-.99-1.67-1.42-2.43-1.27Z"/>
    </g>
    <g class="cls-5">
      <path class="cls-9" d="m109.42,41.4c3.62,2.36,7.72,3.84,9.08,3.79,2.09-.07,6.96-4.43,7.26-6.5.2-1.35-.81-5.56-2.74-9.41-1.13-2.25-2.58-4.38-4.28-5.75-3.59-2.88-7.99.41-9.78,2.01-.55.5-1.11,1-1.66,1.49-1.79,1.59-5.55,5.61-3.08,9.5,1.16,1.84,3.11,3.51,5.21,4.87Z"/>
      <path class="cls-2" d="m109.42,41.4c2.97,1.46,5.83,2.26,6.97,2.17,2.21-.18,7.58-4.98,8-7.16.22-1.11-.26-4.03-1.36-7.13-1.13-2.25-2.58-4.38-4.28-5.75-3.59-2.88-7.99.41-9.78,2.01-.55.5-1.11,1-1.66,1.49-1.79,1.59-5.55,5.61-3.08,9.5,1.16,1.84,3.11,3.51,5.21,4.87Z"/>
      <path class="cls-10" d="m119.63,39.14l.09-.08c1.89-1.69,2.75-4.19,2.22-6.42h0c-.56-2.35-1.54-4.55-2.97-6.43-.63-.82-1.27-1.5-1.92-2.02-1.3-1.04-3.64-1.56-7.47,1.87-.61.55-1.19,1.07-1.8,1.61-3.85,3.44-3.59,5.83-2.71,7.24.52.83,1.27,1.68,2.21,2.52,1.61,1.44,3.52,2.52,5.6,3.27h0c2.18.79,4.79.2,6.7-1.5l.05-.05Z"/>
      <path class="cls-3" d="m114.84,24.79c.25-.12.19-.48-.08-.46-.84.06-1.75.39-2.49.78-1.12.58-2.09,1.43-2.96,2.2-.87.78-1.81,1.64-2.52,2.69-.48.69-.92,1.55-1.08,2.39-.05.26.3.37.45.13,1.07-1.67,2.71-2.89,4.1-4.14,1.42-1.28,2.82-2.74,4.58-3.58Z"/>
      <path class="cls-9" d="m113.51,31.85c-.14-.16-.25-.34-.39-.5-.14-.16-.32-.3-.53-.32-.21-.02-.44.11-.47.31-.02.21.16.38.33.51.4.31.82.62,1.12,1.03s.45.96.25,1.4c-.1.22-.28.47-.16.69.12.21.45.2.63.06.19-.14.28-.37.39-.57.11-.2.28-.41.52-.44.24-.03.48.13.64.32.16.19.28.41.47.56s.49.24.68.09c.24-.18.15-.57-.07-.78s-.53-.31-.79-.47c-.26-.16-.49-.46-.41-.74.1-.35.59-.45.73-.78.07-.17.03-.38-.1-.51s-.34-.19-.52-.13c-.4.13-.53.65-.94.78-.46.14-1.08-.18-1.38-.51Z"/>
    </g>
    <g class="cls-5">
      <path class="cls-9" d="m124.4,28.93c2.78,3.27,6.14,5.86,7.37,6.22,1.87.55,7.01-2.06,7.67-3.9.43-1.2.32-5.41-.68-9.58-.58-2.43-1.47-4.84-2.74-6.62-2.66-3.74-7.18-1.99-9.06-1.02-.59.3-1.17.6-1.76.89-1.89.95-5.97,3.58-4.51,7.93.69,2.05,2.11,4.18,3.72,6.08Z"/>
      <path class="cls-2" d="m124.4,28.93c2.37,2.23,4.76,3.83,5.79,4.08,2,.49,7.66-2.4,8.44-4.3.4-.97.52-3.83.12-7.04-.58-2.43-1.47-4.84-2.74-6.62-2.66-3.74-7.18-1.99-9.06-1.02-.59.3-1.17.6-1.76.89-1.89.95-5.97,3.58-4.51,7.93.69,2.05,2.11,4.18,3.72,6.08Z"/>
      <path class="cls-10" d="m133.9,29.86l.09-.05c1.99-1.02,3.22-3.09,3.17-5.33h0c-.06-2.36-.52-4.7-1.44-6.86-.4-.95-.85-1.77-1.33-2.45-.96-1.35-2.95-2.53-6.99-.47-.65.33-1.26.64-1.9.97-4.06,2.07-4.28,4.37-3.75,5.94.31.93.81,1.94,1.49,3,1.16,1.82,2.66,3.39,4.37,4.7h0c1.79,1.38,4.22,1.6,6.24.58l.06-.03Z"/>
      <path class="cls-3" d="m132.32,15.07c.24-.04.26-.39.02-.45-.76-.19-1.63-.16-2.36,0-1.1.21-2.12.71-3.04,1.17-.92.47-1.91,1-2.74,1.75-.56.5-1.1,1.18-1.41,1.9-.09.23.2.43.37.26,1.26-1.23,2.95-1.89,4.42-2.65,1.5-.77,3.02-1.72,4.74-1.98Z"/>
    </g>
    <g class="cls-5">
      <g>
        <g>
          <path class="cls-2" d="m150.86,28.28c-9.17,0-12.9-9.54-13.12-15.31,0-.03,0-.04,0-.04,0-.32,2.44-5.45,12.42-5.45s9.05,2.1,9.25,3.71c.2,1.62.64,17.09-8.55,17.09Z"/>
          <path class="cls-9" d="m150.86,28.28c-9.14,0-12.89-9.5-13.12-15.27.13.74,2.33,12.58,12.44,12.58s9.22-14.41,9.22-14.41c.2,1.62.64,17.09-8.55,17.09Z"/>
        </g>
        <path class="cls-10" d="m156.14,9.85c-2.03-1.11-11.48-1.66-15.41,1.97-1.93,1.78,1.29,11.7,8.85,11.49,7.55-.22,8.6-12.35,6.57-13.45Z"/>
        <path class="cls-3" d="m155.8,11.11c.13.02.19-.16.07-.22-2.06-1.16-7.29-1.87-11.59-.14-1.1.45-2.19,1.08-2.98,1.97-.09.1.02.25.14.19,3.06-1.51,7.61-1.86,10.94-1.92.88-.01,2.35-.03,3.41.12Z"/>
      </g>
    </g>
    <g class="cls-5">
      <g>
        <g>
          <path class="cls-2" d="m169.15,28.28c9.17,0,12.9-9.54,13.12-15.31,0-.03,0-.04,0-.04,0-.32-2.44-5.45-12.42-5.45s-9.05,2.1-9.25,3.71c-.2,1.62-.64,17.09,8.55,17.09Z"/>
          <path class="cls-9" d="m169.15,28.28c9.14,0,12.89-9.5,13.12-15.27-.13.74-2.33,12.58-12.44,12.58s-9.22-14.41-9.22-14.41c-.2,1.62-.64,17.09,8.55,17.09Z"/>
        </g>
        <path class="cls-10" d="m163.87,9.85c2.03-1.11,11.48-1.66,15.41,1.97,1.93,1.78-1.29,11.7-8.85,11.49-7.55-.22-8.6-12.35-6.57-13.45Z"/>
        <path class="cls-3" d="m164.2,11.11c-.13.02-.19-.16-.07-.22,2.06-1.16,7.29-1.87,11.59-.14,1.1.45,2.19,1.08,2.98,1.97.09.1-.02.25-.14.19-3.06-1.51-7.61-1.86-10.94-1.92-.88-.01-2.35-.03-3.41.12Z"/>
      </g>
    </g>
    <g class="cls-5">
      <path class="cls-9" d="m226.1,83.23c-3.67,1.43-4.74,3.12-4.28,7.35.19,1.76.94,5.39.89,8.84-.04,2.73,1.5,4.34,4.14,4.71,5.38.75,13.8,0,16.5-5.39,2.12-4.22,1.61-11.79-2.19-15.42-2.92-2.79-5.27-2.78-8.75-2.02-.79.14-3.97.93-6.31,1.93Z"/>
      <path class="cls-2" d="m223.8,90.43c.22,1.76.94,5.39.89,8.84-.04,2.73,1.5,4.34,4.14,4.71,5.38.75,13.06.09,15.76-5.28,2.12-4.22,1.61-11.79-2.19-15.42-2.92-2.79-5.77-2.89-9.25-2.13-.79.14-10.21,2.34-9.35,9.28Z"/>
      <path class="cls-10" d="m225.99,90.87c.07,2.68.36,5.36.86,7.99.18.93.4,1.88.99,2.62.7.88,1.84,1.31,2.96,1.41,1.12.09,2.24-.12,3.35-.33,2.02-.39,4.08-.79,5.91-1.74,1.83-.95,3.44-2.54,3.91-4.55.27-1.14.16-2.32.03-3.48-.25-2.3-.57-4.67-1.79-6.64-1.52-2.46-4.32-4.03-7.45-3.83-1,.06-1.87.44-2.83.64-1.73.36-3.17.89-4.37,2.28-1.47,1.7-1.64,3.4-1.58,5.64Z"/>
      <path class="cls-9" d="m234.04,90.26c-.46-.08-.93-.33-1.36-.16-.3.12-.5.43-.57.75-.09.41-.04.52.35,3.82.02.19.05.38.13.55.59,1.18,1.45-.78,1.76-1.06.36-.31.93-.44,1.31-.15.28.21.39.57.42.91.03.34.01.7.09,1.03.08.34.3.67.64.75.43.1.83-.24,1.13-.56.43-.46.85-.96,1.09-1.54.24-.59.27-1.29-.04-1.83-.54-.93-1.82-1.08-1.51-2.84.1-.55.56-.97.63-1.53.06-.47-.3-.7-.78-.48-.75.34-1.05,1.25-1.64,1.78-.46.41-1.06.67-1.66.56Z"/>
      <path class="cls-3" d="m238.18,99.27c1.88-1.33,2.94-2.93,3.35-5.33.06-.33.54-.37.63-.04.34,1.15.17,2.57-.6,3.79-.77,1.22-1.97,1.97-3.14,2.17-.34.06-.53-.39-.25-.59Z"/>
      <path class="cls-3" d="m236.99,84.79c-.27-.17-.17-.59.15-.61.88-.05,1.88.35,2.59,1.21.59.71.92,1.65.98,2.57.02.32-.39.48-.59.22-.48-.6-.9-1.29-1.43-1.94-.45-.55-.9-.98-1.69-1.47Z"/>
      <path class="cls-3" d="m231.11,85.83c1.12.04-1.32.72-1.72,2.24-.17,1.04,0,2.4-.08,5.21-.07,2.52-.21,3.24-.18,4.18.04.64.16,1.26.55,1.74.37.49,2.28.45,1.71.81-.81.47-2.22.1-2.93-1.29-.53-1.03-.5-2.41-.52-3.35,0-1.86.06-4.58.34-6.42.11-.68.19-1.05.52-1.66.56-1.04,1.55-1.55,2.32-1.46Z"/>
    </g>
    <g class="cls-5">
      <path class="cls-9" d="m228.14,106.82c-3.78,1.12-4.98,2.72-4.87,6.97.05,1.77.49,5.45.16,8.89-.26,2.72,1.13,4.45,3.74,5.04,5.3,1.19,13.75,1.13,16.88-4.01,2.46-4.03,2.57-11.62-.91-15.55-2.68-3.02-5.02-3.21-8.55-2.73-.79.07-4.03.6-6.45,1.4Z"/>
      <path class="cls-2" d="m225.26,113.81c.07,1.77.49,5.45.16,8.89-.26,2.72,1.13,4.45,3.74,5.04,5.3,1.19,13.01,1.17,16.14-3.97,2.46-4.03,2.57-11.62-.91-15.55-2.68-3.02-5.51-3.36-9.05-2.89-.79.07-10.37,1.49-10.08,8.48Z"/>
      <path class="cls-10" d="m227.4,114.43c-.15,2.68-.09,5.37.2,8.03.1.94.24,1.91.77,2.69.63.93,1.73,1.46,2.84,1.65,1.11.18,2.24.06,3.36-.06,2.05-.22,4.13-.45,6.04-1.25,1.9-.79,3.63-2.25,4.27-4.21.36-1.11.35-2.3.32-3.47-.06-2.31-.18-4.71-1.24-6.76-1.31-2.57-3.98-4.38-7.11-4.43-1-.02-1.9.29-2.87.41-1.75.22-3.23.63-4.54,1.91-1.61,1.58-1.91,3.26-2.04,5.49Z"/>
      <path class="cls-9" d="m235.47,114.48c-.45-.12-.9-.41-1.34-.27-.31.1-.53.39-.63.71-.12.4-.09.52.04,3.84,0,.19.01.38.08.55.49,1.22,1.51-.66,1.85-.91.38-.28.96-.36,1.32-.04.26.23.34.6.35.94,0,.35-.05.69,0,1.03.05.34.25.69.58.8.42.13.84-.17,1.17-.47.47-.43.93-.88,1.21-1.45.29-.56.38-1.26.11-1.83-.46-.97-1.73-1.22-1.27-2.95.14-.54.64-.92.75-1.47.1-.46-.24-.72-.74-.54-.78.28-1.14,1.16-1.78,1.64-.49.37-1.11.58-1.7.42Z"/>
      <path class="cls-3" d="m238.86,123.8c1.98-1.17,3.17-2.68,3.77-5.03.08-.33.57-.32.64.01.24,1.18-.04,2.58-.91,3.73-.87,1.15-2.12,1.8-3.31,1.9-.34.03-.49-.44-.2-.61Z"/>
      <path class="cls-3" d="m238.86,109.28c-.26-.19-.12-.61.2-.6.88.02,1.84.5,2.48,1.42.53.76.78,1.72.76,2.64,0,.33-.43.45-.61.18-.42-.64-.79-1.36-1.26-2.05-.41-.58-.82-1.05-1.57-1.6Z"/>
      <path class="cls-3" d="m232.92,109.83c1.12.13-1.38.61-1.9,2.09-.25,1.02-.2,2.4-.51,5.18-.28,2.51-.48,3.21-.53,4.15-.01.64.06,1.26.41,1.78.33.52,2.24.63,1.63.95-.85.4-2.22-.08-2.82-1.53-.45-1.08-.3-2.44-.24-3.38.14-1.85.44-4.56.87-6.37.17-.66.28-1.03.66-1.61.64-.99,1.67-1.42,2.43-1.27Z"/>
    </g>
    <g class="cls-5">
      <path class="cls-9" d="m210.58,41.4c-3.62,2.36-7.72,3.84-9.08,3.79-2.09-.07-6.96-4.43-7.26-6.5-.2-1.35.81-5.56,2.74-9.41,1.13-2.25,2.58-4.38,4.28-5.75,3.59-2.88,7.99.41,9.78,2.01.55.5,1.11,1,1.66,1.49,1.79,1.59,5.55,5.61,3.08,9.5-1.16,1.84-3.11,3.51-5.21,4.87Z"/>
      <path class="cls-2" d="m210.58,41.4c-2.97,1.46-5.83,2.26-6.97,2.17-2.21-.18-7.58-4.98-8-7.16-.22-1.11.26-4.03,1.36-7.13,1.13-2.25,2.58-4.38,4.28-5.75,3.59-2.88,7.99.41,9.78,2.01.55.5,1.11,1,1.66,1.49,1.79,1.59,5.55,5.61,3.08,9.5-1.16,1.84-3.11,3.51-5.21,4.87Z"/>
      <path class="cls-10" d="m200.37,39.14l-.09-.08c-1.89-1.69-2.75-4.19-2.22-6.42h0c.56-2.35,1.54-4.55,2.97-6.43.63-.82,1.27-1.5,1.92-2.02,1.3-1.04,3.64-1.56,7.47,1.87.61.55,1.19,1.07,1.8,1.61,3.85,3.44,3.59,5.83,2.71,7.24-.52.83-1.27,1.68-2.21,2.52-1.61,1.44-3.52,2.52-5.6,3.27h0c-2.18.79-4.79.2-6.7-1.5l-.05-.05Z"/>
      <path class="cls-3" d="m205.16,24.79c-.25-.12-.19-.48.08-.46.84.06,1.75.39,2.49.78,1.12.58,2.09,1.43,2.96,2.2.87.78,1.81,1.64,2.52,2.69.48.69.92,1.55,1.08,2.39.05.26-.3.37-.45.13-1.07-1.67-2.71-2.89-4.1-4.14-1.42-1.28-2.82-2.74-4.58-3.58Z"/>
      <path class="cls-9" d="m206.49,31.85c.14-.16.25-.34.39-.5.14-.16.32-.3.53-.32.21-.02.44.11.47.31.02.21-.16.38-.33.51-.4.31-.82.62-1.12,1.03s-.45.96-.25,1.4c.1.22.28.47.16.69-.12.21-.45.2-.63.06-.19-.14-.28-.37-.39-.57-.11-.2-.28-.41-.52-.44-.24-.03-.48.13-.64.32-.16.19-.28.41-.47.56s-.49.24-.68.09c-.24-.18-.15-.57.07-.78s.53-.31.79-.47c.26-.16.49-.46.41-.74-.1-.35-.59-.45-.73-.78-.07-.17-.03-.38.1-.51s.34-.19.52-.13c.4.13.53.65.94.78.46.14,1.08-.18,1.38-.51Z"/>
    </g>
    <g>
      <path class="cls-11" d="m100.84,39.01c.58,0,1.17.13,1.75.38,1.71.74,3.57,2.2,5.39,4.23,2.82,3.13,4.81,6.79,4.95,7.94.21,1.7-3.13,6.87-4.77,7.38-.12.04-.5.13-1.36.13-1.68,0-4.77-.36-7.95-1.38-2.59-.83-4.67-1.93-6.03-3.17-2.98-2.72-.58-7.21.59-9.01.41-.62.81-1.25,1.22-1.88.89-1.39,3.28-4.61,6.22-4.61m0-.75c-3.25,0-5.77,3.28-6.85,4.96-.4.63-.81,1.26-1.21,1.88-1.3,2.01-3.87,6.87-.46,9.97,1.6,1.47,3.92,2.56,6.31,3.33,3.04.98,6.2,1.42,8.18,1.42.7,0,1.25-.06,1.59-.16,2-.62,5.54-6.11,5.29-8.18-.16-1.35-2.25-5.14-5.13-8.35-1.68-1.88-3.64-3.55-5.65-4.41-.71-.31-1.39-.44-2.05-.44h0Z"/>
      <path class="cls-11" d="m90.48,57.85c.45,0,.92.06,1.4.19.78.2,1.65.53,2.59.98l.04.02h.04c2.08.72,4.56,2.15,6.47,3.74,1.09.91,1.97,2.19,2.62,3.79.84,2.1.27,5.92-1.39,9.28-1.3,2.63-3.01,4.46-4.58,4.89-.33.09-.78.14-1.37.14-1.11,0-2.39-.16-3.32-.28l-.23-.03c-1.55-.2-3.96-.94-5.73-1.77h-.03s-.03-.03-.03-.03c-1.58-.57-2.9-1.22-3.63-1.8-1.85-1.47-1.98-4.14-1.76-6.13.56-5.12,3.96-11.03,7.28-12.65.47-.23,1.02-.35,1.63-.35m0-.75c-.68,0-1.35.13-1.96.42-5.5,2.68-10.87,15.89-5.66,20.04.87.69,2.33,1.37,3.84,1.92,1.93.9,4.4,1.63,5.96,1.83.93.12,2.39.32,3.64.32.59,0,1.14-.04,1.57-.16,4.41-1.23,8.24-10.73,6.46-15.17-.63-1.56-1.54-3.01-2.83-4.09-1.81-1.51-4.35-3.06-6.71-3.86-.92-.44-1.84-.8-2.72-1.03-.52-.13-1.05-.21-1.59-.21h0Z"/>
      <path class="cls-11" d="m83.92,130.57c.94,0,1.9.08,2.86.24,6.35,1.07,9.92,3.19,10.06,5.96,0,.14-.03.86-.16,1.92-.1,1.68-.87,10.16-5.62,12.2-1.86.8-4.29,1.26-6.67,1.26-4.31,0-7.76-1.47-9.46-4.04-1.84-2.79-1.87-6.02-1.57-8.24v-.03s0-.03,0-.03c.14-3.21,1.24-5.65,1.79-6.24,1.13-1.2,4.39-2.98,8.74-2.98m0-.75c-4.78,0-8.13,2-9.29,3.22-.79.84-1.86,3.56-2,6.73-.37,2.73-.13,6.01,1.69,8.76,2.1,3.18,6.16,4.38,10.08,4.38,2.58,0,5.09-.51,6.96-1.32,5.09-2.19,5.94-10.69,6.07-12.85.14-1.19.16-1.97.16-1.97-.15-3.39-4.33-5.62-10.69-6.69-1.05-.18-2.05-.25-2.99-.25h0Z"/>
      <path class="cls-11" d="m219.16,39.01c2.93,0,5.33,3.23,6.22,4.61.4.63.81,1.26,1.22,1.88,1.17,1.8,3.57,6.29.59,9.01-1.36,1.24-3.44,2.33-6.03,3.17-3.18,1.02-6.27,1.38-7.95,1.38-.86,0-1.24-.09-1.36-.13-1.63-.51-4.97-5.68-4.76-7.38.14-1.14,2.13-4.81,4.95-7.94,1.82-2.03,3.68-3.49,5.39-4.23.58-.25,1.17-.38,1.75-.38m0-.75c-.66,0-1.34.13-2.05.44-2.01.87-3.97,2.54-5.65,4.41-2.88,3.21-4.97,7-5.13,8.35-.26,2.07,3.29,7.56,5.29,8.18.34.11.89.16,1.59.16,1.97,0,5.13-.44,8.18-1.42,2.39-.77,4.7-1.86,6.31-3.33,3.4-3.1.84-7.96-.46-9.97-.41-.62-.81-1.25-1.21-1.88-1.08-1.68-3.6-4.96-6.85-4.96h0Z"/>
      <path class="cls-11" d="m229.52,57.85c.61,0,1.16.12,1.63.35,3.32,1.62,6.72,7.53,7.28,12.65.22,1.98.09,4.66-1.76,6.13-.72.57-2.04,1.23-3.63,1.8h-.03s-.03.03-.03.03c-1.77.83-4.18,1.57-5.73,1.77l-.23.03c-.93.12-2.21.28-3.32.28-.58,0-1.04-.05-1.37-.14-1.57-.44-3.28-2.27-4.58-4.89-1.66-3.36-2.23-7.17-1.39-9.28.64-1.6,1.52-2.88,2.62-3.79,1.91-1.59,4.39-3.02,6.47-3.73h.04s.04-.03.04-.03c.94-.45,1.81-.78,2.59-.98.48-.13.95-.19,1.4-.19m0-.75c-.53,0-1.07.08-1.59.21-.88.23-1.81.59-2.72,1.03-2.36.8-4.9,2.35-6.71,3.86-1.29,1.08-2.21,2.52-2.83,4.09-1.78,4.44,2.06,13.95,6.46,15.17.43.12.98.16,1.57.16,1.25,0,2.71-.2,3.64-.32,1.55-.2,4.03-.93,5.96-1.83,1.51-.54,2.97-1.22,3.84-1.92,5.22-4.15-.16-17.36-5.66-20.04-.61-.3-1.28-.42-1.96-.42h0Z"/>
      <path class="cls-11" d="m236.08,130.57c4.35,0,7.61,1.78,8.74,2.98.56.59,1.66,3.03,1.79,6.24v.03s0,.03,0,.03c.3,2.22.27,5.45-1.57,8.24-1.69,2.57-5.14,4.04-9.46,4.04-2.38,0-4.81-.46-6.67-1.26-4.76-2.04-5.52-10.52-5.62-12.24-.12-1.02-.15-1.74-.15-1.88.14-2.77,3.71-4.89,10.06-5.96.96-.16,1.92-.24,2.86-.24m0-.75c-.94,0-1.94.08-2.99.25-6.36,1.07-10.54,3.3-10.69,6.69,0,0,.02.78.16,1.97.13,2.15.98,10.66,6.07,12.85,1.87.8,4.39,1.32,6.96,1.32,3.92,0,7.98-1.19,10.08-4.38,1.81-2.74,2.06-6.03,1.69-8.76-.14-3.16-1.21-5.89-2-6.73-1.15-1.22-4.51-3.22-9.29-3.22h0Z"/>
    </g>
    <g class="cls-5">
      <path class="cls-9" d="m195.6,28.93c-2.78,3.27-6.14,5.86-7.37,6.22-1.87.55-7.01-2.06-7.67-3.9-.43-1.2-.32-5.41.68-9.58.58-2.43,1.47-4.84,2.74-6.62,2.66-3.74,7.18-1.99,9.06-1.02.59.3,1.17.6,1.76.89,1.89.95,5.97,3.58,4.51,7.93-.69,2.05-2.11,4.18-3.72,6.08Z"/>
      <path class="cls-2" d="m195.6,28.93c-2.37,2.23-4.76,3.83-5.79,4.08-2,.49-7.66-2.4-8.44-4.3-.4-.97-.52-3.83-.12-7.04.58-2.43,1.47-4.84,2.74-6.62,2.66-3.74,7.18-1.99,9.06-1.02.59.3,1.17.6,1.76.89,1.89.95,5.97,3.58,4.51,7.93-.69,2.05-2.11,4.18-3.72,6.08Z"/>
      <path class="cls-10" d="m186.1,29.86l-.09-.05c-1.99-1.02-3.22-3.09-3.17-5.33h0c.06-2.36.52-4.7,1.44-6.86.4-.95.85-1.77,1.33-2.45.96-1.35,2.95-2.53,6.99-.47.65.33,1.26.64,1.9.97,4.06,2.07,4.28,4.37,3.75,5.94-.31.93-.81,1.94-1.49,3-1.16,1.82-2.66,3.39-4.37,4.7h0c-1.79,1.38-4.22,1.6-6.24.58l-.06-.03Z"/>
      <path class="cls-3" d="m187.68,15.07c-.24-.04-.26-.39-.02-.45.76-.19,1.63-.16,2.36,0,1.1.21,2.12.71,3.04,1.17.92.47,1.91,1,2.74,1.75.56.5,1.1,1.18,1.41,1.9.09.23-.2.43-.37.26-1.26-1.23-2.95-1.89-4.42-2.65-1.5-.77-3.02-1.72-4.74-1.98Z"/>
    </g>
  </g>
  <g>
    <path class="cls-7" d="m78.63,207.8s27.73,0,34.95,9.93c7.08,9.72,22.94,13.04,44.61,13.04s37.39-3.39,44.61-13.04c7.39-9.89,39.06-9.93,39.52-9.93-.36.01-13.84.46-15.04,6.97-1.21,6.6,2.47,76.81-66.8,76.81s-65.59-70.21-66.8-76.81c-1.21-6.6-15.04-6.97-15.04-6.97Z"/>
    <path class="cls-1" d="m95.61,214.64c0,70.52,53.43,73.58,64.55,73.45,11.12.13,64.55-2.93,64.55-73.45,0,0-11.2,57.7-64.55,59.12-53.35-1.43-64.55-59.12-64.55-59.12Z"/>
    <path class="cls-1" d="m199.87,228.35c1.11-.97,2.69.15,2.36,1.68-1.12,5.15-2.6,10.36-4.58,15.29-7.37,18.33-19.18,26.86-37.18,26.86s-29.82-8.54-37.19-26.88c-1.42-3.53-2.58-7.21-3.54-10.9-.38-1.46,1.07-2.66,2.22-1.84.2.14.4.29.6.43,10.76,7.52,23.11,11.5,35.73,11.5,16.9,0,30.98-6.87,41.57-16.14Z"/>
    <path class="cls-4" d="m78.63,187.43c3.44-8.68,17.37-8.94,20.26-2.75.43.91,1.42,3.22,1.67,4.13.46,1.83.27.44.87,6.84,1.86,24.95,7.15,54.96,23.22,72.01,8.19,8.68,18.4,13.53,29.38,14.46,1.52.2,0,.08,6.24.33.38,0,5.28-.16,6.25-.28l4.11-.54c33.29-6.06,44.87-42,48.4-80.48.9-10.12.83-11.04,1.67-13.33.74-1.59.56-1.24,1.62-2.69,5.73-6.58,16.47-7.2,19.82.87l-1.21,5.65c-2.08-4.21-1.08-9.27-5.25-9.04-2.36.08-5.57,0-8.24,1.36-3.75,1.94-4.91,4.37-5.13,7.2-.32,6.76-.54,13.6-1.24,20.36-4.8,48.3-25.15,80.37-67.5,76.3-11.9-1.12-23.39-6.58-32.15-16.32-8.66-9.6-13.99-22.16-17.35-35.36-5.24-20.53-4.99-39.95-5.46-45.43-.41-3.51-2.59-5.55-5.46-6.93-3.38-1.61-2.27,1.71-6.87,2.46-2.8.46-3.76-.34-5.1,2.52l-2.53-1.34Z"/>
    <path class="cls-7" d="m77.34,174.64c2.54-6.38,11.73-5.44,11.73-5.44,0,0,9.09-2.04,10.15,7.26,1.06,9.31-3.66,113.89,61.25,113.89s60.15-103.33,61.21-112.64c1.04-9.18,9.88-8.49,10.19-8.51h0s9.19-.94,11.73,5.44c2.54,6.38,3.04,59.57-18.7,96.95-25.08,43.15-64.44,41.24-64.44,41.24,0,0-39.35,1.9-64.43-41.24-21.74-37.38-21.24-90.57-18.7-96.95Z"/>
    <path class="cls-8" d="m238.91,235.04c-5.05,32.58-20.99,58.59-50.09,70.23-9.92,3.96-20.37,5.79-28.38,5.72.45,0-5.44.26-14.41-1.55-33.58-6.87-57.48-32.16-64.04-74.41l.33-.06c2.22,9.99,5.2,19.77,9.74,28.66,2.2,4.47,4.66,8.78,7.54,12.72,11.49,15.76,28.24,25.96,47.04,29.63,9.6,1.92,18.29,1.85,27.61,0,13.54-2.65,26.14-8.98,34.72-16.42,8.59-7.19,14.69-15.41,19.86-25.93,4.54-8.89,7.52-18.67,9.74-28.66l.33.06Z"/>
  </g>
  <g>
    <g class="cls-5">
      <path class="cls-9" d="m226.1,241.53c-3.67-1.43-4.74-3.12-4.28-7.35.19-1.76.94-5.39.89-8.84-.04-2.73,1.5-4.34,4.14-4.71,5.38-.75,13.8,0,16.5,5.39,2.12,4.22,1.61,11.79-2.19,15.42-2.92,2.79-5.27,2.78-8.75,2.02-.79-.14-3.97-.93-6.31-1.93Z"/>
      <path class="cls-2" d="m223.8,234.32c.22-1.76.94-5.39.89-8.84-.04-2.73,1.5-4.34,4.14-4.71,5.38-.75,13.06-.09,15.76,5.28,2.12,4.22,1.61,11.79-2.19,15.42-2.92,2.79-5.77,2.89-9.25,2.13-.79-.14-10.21-2.34-9.35-9.28Z"/>
      <path class="cls-10" d="m225.99,233.88c.07-2.68.36-5.36.86-7.99.18-.93.4-1.88.99-2.62.7-.88,1.84-1.31,2.96-1.41,1.12-.09,2.24.12,3.35.33,2.02.39,4.08.79,5.91,1.74,1.83.95,3.44,2.54,3.91,4.55.27,1.14.16,2.32.03,3.48-.25,2.3-.57,4.67-1.79,6.64-1.52,2.46-4.32,4.03-7.45,3.83-1-.06-1.87-.44-2.83-.64-1.73-.36-3.17-.89-4.37-2.28-1.47-1.7-1.64-3.4-1.58-5.64Z"/>
      <path class="cls-9" d="m234.04,234.5c-.46.08-.93.33-1.36.16-.3-.12-.5-.43-.57-.75-.09-.41-.04-.52.35-3.82.02-.19.05-.38.13-.55.59-1.18,1.45.78,1.76,1.06.36.31.93.44,1.31.15.28-.21.39-.57.42-.91.03-.34.01-.7.09-1.03.08-.34.3-.67.64-.75.43-.1.83.24,1.13.56.43.46.85.96,1.09,1.54.24.59.27,1.29-.04,1.83-.54.93-1.82,1.08-1.51,2.84.1.55.56.97.63,1.53.06.47-.3.7-.78.48-.75-.34-1.05-1.25-1.64-1.78-.46-.41-1.06-.67-1.66-.56Z"/>
      <path class="cls-3" d="m238.18,225.49c1.88,1.33,2.94,2.93,3.35,5.33.06.33.54.37.63.04.34-1.15.17-2.57-.6-3.79-.77-1.22-1.97-1.97-3.14-2.17-.34-.06-.53.39-.25.59Z"/>
      <path class="cls-3" d="m236.99,239.96c-.27.17-.17.59.15.61.88.05,1.88-.35,2.59-1.21.59-.71.92-1.65.98-2.57.02-.32-.39-.48-.59-.22-.48.6-.9,1.29-1.43,1.94-.45.55-.9.98-1.69,1.47Z"/>
      <path class="cls-3" d="m231.11,238.93c1.12-.04-1.32-.72-1.72-2.24-.17-1.04,0-2.4-.08-5.21-.07-2.52-.21-3.24-.18-4.18.04-.64.16-1.26.55-1.74.37-.49,2.28-.45,1.71-.81-.81-.47-2.22-.1-2.93,1.29-.53,1.03-.5,2.41-.52,3.35,0,1.86.06,4.58.34,6.42.11.68.19,1.05.52,1.66.56,1.04,1.55,1.55,2.32,1.46Z"/>
    </g>
    <g class="cls-5">
      <path class="cls-9" d="m228.14,217.93c-3.78-1.12-4.98-2.72-4.87-6.97.05-1.77.49-5.45.16-8.89-.26-2.72,1.13-4.45,3.74-5.04,5.3-1.19,13.75-1.13,16.88,4.01,2.46,4.03,2.57,11.62-.91,15.55-2.68,3.02-5.02,3.21-8.55,2.73-.79-.07-4.03-.6-6.45-1.4Z"/>
      <path class="cls-2" d="m225.26,210.94c.07-1.77.49-5.45.16-8.89-.26-2.72,1.13-4.45,3.74-5.04,5.3-1.19,13.01-1.17,16.14,3.97,2.46,4.03,2.57,11.62-.91,15.55-2.68,3.02-5.51,3.36-9.05,2.89-.79-.07-10.37-1.49-10.08-8.48Z"/>
      <path class="cls-10" d="m227.4,210.32c-.15-2.68-.09-5.37.2-8.03.1-.94.24-1.91.77-2.69.63-.93,1.73-1.46,2.84-1.65,1.11-.18,2.24-.06,3.36.06,2.05.22,4.13.45,6.04,1.25,1.9.79,3.63,2.25,4.27,4.21.36,1.11.35,2.3.32,3.47-.06,2.31-.18,4.71-1.24,6.76-1.31,2.57-3.98,4.38-7.11,4.43-1,.02-1.9-.29-2.87-.41-1.75-.22-3.23-.63-4.54-1.91-1.61-1.58-1.91-3.26-2.04-5.49Z"/>
      <path class="cls-9" d="m235.47,210.27c-.45.12-.9.41-1.34.27-.31-.1-.53-.39-.63-.71-.12-.4-.09-.52.04-3.84,0-.19.01-.38.08-.55.49-1.22,1.51.66,1.85.91.38.28.96.36,1.32.04.26-.23.34-.6.35-.94,0-.35-.05-.69,0-1.03.05-.34.25-.69.58-.8.42-.13.84.17,1.17.47.47.43.93.88,1.21,1.45.29.56.38,1.26.11,1.83-.46.97-1.73,1.22-1.27,2.95.14.54.64.92.75,1.47.1.46-.24.72-.74.54-.78-.28-1.14-1.16-1.78-1.64-.49-.37-1.11-.58-1.7-.42Z"/>
      <path class="cls-3" d="m238.86,200.95c1.98,1.17,3.17,2.68,3.77,5.03.08.33.57.32.64-.01.24-1.18-.04-2.58-.91-3.73-.87-1.15-2.12-1.8-3.31-1.9-.34-.03-.49.44-.2.61Z"/>
      <path class="cls-3" d="m238.86,215.48c-.26.19-.12.61.2.6.88-.02,1.84-.5,2.48-1.42.53-.76.78-1.72.76-2.64,0-.33-.43-.45-.61-.18-.42.64-.79,1.36-1.26,2.05-.41.58-.82,1.05-1.57,1.6Z"/>
      <path class="cls-3" d="m232.92,214.93c1.12-.13-1.38-.61-1.9-2.09-.25-1.02-.2-2.4-.51-5.18-.28-2.51-.48-3.21-.53-4.15-.01-.64.06-1.26.41-1.78.33-.52,2.24-.63,1.63-.95-.85-.4-2.22.08-2.82,1.53-.45,1.08-.3,2.44-.24,3.38.14,1.85.44,4.56.87,6.37.17.66.28,1.03.66,1.61.64.99,1.67,1.42,2.43,1.27Z"/>
    </g>
    <g class="cls-5">
      <path class="cls-9" d="m210.58,283.36c-3.62-2.36-7.72-3.84-9.08-3.79-2.09.07-6.96,4.43-7.26,6.5-.2,1.35.81,5.56,2.74,9.41,1.13,2.25,2.58,4.38,4.28,5.75,3.59,2.88,7.99-.41,9.78-2.01.55-.5,1.11-1,1.66-1.49,1.79-1.59,5.55-5.61,3.08-9.5-1.16-1.84-3.11-3.51-5.21-4.87Z"/>
      <path class="cls-2" d="m210.58,283.36c-2.97-1.46-5.83-2.26-6.97-2.17-2.21.18-7.58,4.98-8,7.16-.22,1.11.26,4.03,1.36,7.13,1.13,2.25,2.58,4.38,4.28,5.75,3.59,2.88,7.99-.41,9.78-2.01.55-.5,1.11-1,1.66-1.49,1.79-1.59,5.55-5.61,3.08-9.5-1.16-1.84-3.11-3.51-5.21-4.87Z"/>
      <path class="cls-10" d="m200.37,285.61l-.09.08c-1.89,1.69-2.75,4.19-2.22,6.42h0c.56,2.35,1.54,4.55,2.97,6.43.63.82,1.27,1.5,1.92,2.02,1.3,1.04,3.64,1.56,7.47-1.87.61-.55,1.19-1.07,1.8-1.61,3.85-3.44,3.59-5.83,2.71-7.24-.52-.83-1.27-1.68-2.21-2.52-1.61-1.44-3.52-2.52-5.6-3.27h0c-2.18-.79-4.79-.2-6.7,1.5l-.05.05Z"/>
      <path class="cls-3" d="m205.16,299.97c-.25.12-.19.48.08.46.84-.06,1.75-.39,2.49-.78,1.12-.58,2.09-1.43,2.96-2.2.87-.78,1.81-1.64,2.52-2.69.48-.69.92-1.55,1.08-2.39.05-.26-.3-.37-.45-.13-1.07,1.67-2.71,2.89-4.1,4.14-1.42,1.28-2.82,2.74-4.58,3.58Z"/>
      <path class="cls-9" d="m206.49,292.91c.14.16.25.34.39.5.14.16.32.3.53.32.21.02.44-.11.47-.31.02-.21-.16-.38-.33-.51-.4-.31-.82-.62-1.12-1.03s-.45-.96-.25-1.4c.1-.22.28-.47.16-.69-.12-.21-.45-.2-.63-.06-.19.14-.28.37-.39.57-.11.2-.28.41-.52.44-.24.03-.48-.13-.64-.32-.16-.19-.28-.41-.47-.56s-.49-.24-.68-.09c-.24.18-.15.57.07.78s.53.31.79.47c.26.16.49.46.41.74-.1.35-.59.45-.73.78-.07.17-.03.38.1.51s.34.19.52.13c.4-.13.53-.65.94-.78.46-.14,1.08.18,1.38.51Z"/>
    </g>
    <g class="cls-5">
      <path class="cls-9" d="m195.6,295.82c-2.78-3.27-6.14-5.86-7.37-6.22-1.87-.55-7.01,2.06-7.67,3.9-.43,1.2-.32,5.41.68,9.58.58,2.43,1.47,4.84,2.74,6.62,2.66,3.74,7.18,1.99,9.06,1.02.59-.3,1.17-.6,1.76-.89,1.89-.95,5.97-3.58,4.51-7.93-.69-2.05-2.11-4.18-3.72-6.08Z"/>
      <path class="cls-2" d="m195.6,295.82c-2.37-2.23-4.76-3.83-5.79-4.08-2-.49-7.66,2.4-8.44,4.3-.4.97-.52,3.83-.12,7.04.58,2.43,1.47,4.84,2.74,6.62,2.66,3.74,7.18,1.99,9.06,1.02.59-.3,1.17-.6,1.76-.89,1.89-.95,5.97-3.58,4.51-7.93-.69-2.05-2.11-4.18-3.72-6.08Z"/>
      <path class="cls-10" d="m186.1,294.9l-.09.05c-1.99,1.02-3.22,3.09-3.17,5.33h0c.06,2.36.52,4.7,1.44,6.86.4.95.85,1.77,1.33,2.45.96,1.35,2.95,2.53,6.99.47.65-.33,1.26-.64,1.9-.97,4.06-2.07,4.28-4.37,3.75-5.94-.31-.93-.81-1.94-1.49-3-1.16-1.82-2.66-3.39-4.37-4.7h0c-1.79-1.38-4.22-1.6-6.24-.58l-.06.03Z"/>
      <path class="cls-3" d="m187.68,309.69c-.24.04-.26.39-.02.45.76.19,1.63.16,2.36,0,1.1-.21,2.12-.71,3.04-1.17.92-.47,1.91-1,2.74-1.75.56-.5,1.1-1.18,1.41-1.9.09-.23-.2-.43-.37-.26-1.26,1.23-2.95,1.89-4.42,2.65-1.5.77-3.02,1.72-4.74,1.98Z"/>
    </g>
    <g class="cls-5">
      <g>
        <g>
          <path class="cls-2" d="m169.14,296.48c9.17,0,12.9,9.54,13.12,15.31,0,.03,0,.04,0,.04,0,.32-2.44,5.45-12.42,5.45s-9.05-2.1-9.25-3.71c-.2-1.62-.64-17.09,8.55-17.09Z"/>
          <path class="cls-9" d="m169.14,296.48c9.14,0,12.89,9.5,13.12,15.27-.13-.74-2.33-12.58-12.44-12.58s-9.22,14.41-9.22,14.41c-.2-1.62-.64-17.09,8.55-17.09Z"/>
        </g>
        <path class="cls-10" d="m163.86,314.9c2.03,1.11,11.48,1.66,15.41-1.97,1.93-1.78-1.29-11.7-8.85-11.49-7.55.22-8.6,12.35-6.57,13.45Z"/>
        <path class="cls-3" d="m164.2,313.64c-.13-.02-.19.16-.07.22,2.06,1.16,7.29,1.87,11.59.14,1.1-.45,2.19-1.08,2.98-1.97.09-.1-.02-.25-.14-.19-3.06,1.51-7.61,1.86-10.94,1.92-.88.01-2.35.03-3.41-.12Z"/>
      </g>
    </g>
    <g class="cls-5">
      <g>
        <g>
          <path class="cls-2" d="m150.85,296.48c-9.17,0-12.9,9.54-13.12,15.31,0,.03,0,.04,0,.04,0,.32,2.44,5.45,12.42,5.45s9.05-2.1,9.25-3.71c.2-1.62.64-17.09-8.55-17.09Z"/>
          <path class="cls-9" d="m150.85,296.48c-9.14,0-12.89,9.5-13.12,15.27.13-.74,2.33-12.58,12.44-12.58s9.22,14.41,9.22,14.41c.2-1.62.64-17.09-8.55-17.09Z"/>
        </g>
        <path class="cls-10" d="m156.13,314.9c-2.03,1.11-11.48,1.66-15.41-1.97-1.93-1.78,1.29-11.7,8.85-11.49,7.55.22,8.6,12.35,6.57,13.45Z"/>
        <path class="cls-3" d="m155.8,313.64c.13-.02.19.16.07.22-2.06,1.16-7.29,1.87-11.59.14-1.1-.45-2.19-1.08-2.98-1.97-.09-.1.02-.25.14-.19,3.06,1.51,7.61,1.86,10.94,1.92.88.01,2.35.03,3.41-.12Z"/>
      </g>
    </g>
    <g class="cls-5">
      <path class="cls-9" d="m93.9,241.53c3.67-1.43,4.74-3.12,4.28-7.35-.19-1.76-.94-5.39-.89-8.84.04-2.73-1.5-4.34-4.14-4.71-5.38-.75-13.8,0-16.5,5.39-2.12,4.22-1.61,11.79,2.19,15.42,2.92,2.79,5.27,2.78,8.75,2.02.79-.14,3.97-.93,6.31-1.93Z"/>
      <path class="cls-2" d="m96.2,234.32c-.22-1.76-.94-5.39-.89-8.84.04-2.73-1.5-4.34-4.14-4.71-5.38-.75-13.06-.09-15.76,5.28-2.12,4.22-1.61,11.79,2.19,15.42,2.92,2.79,5.77,2.89,9.25,2.13.79-.14,10.21-2.34,9.35-9.28Z"/>
      <path class="cls-10" d="m94.01,233.88c-.07-2.68-.36-5.36-.86-7.99-.18-.93-.4-1.88-.99-2.62-.7-.88-1.84-1.31-2.96-1.41-1.12-.09-2.24.12-3.35.33-2.02.39-4.08.79-5.91,1.74-1.83.95-3.44,2.54-3.91,4.55-.27,1.14-.16,2.32-.03,3.48.25,2.3.57,4.67,1.79,6.64,1.52,2.46,4.32,4.03,7.45,3.83,1-.06,1.87-.44,2.83-.64,1.73-.36,3.17-.89,4.37-2.28,1.47-1.7,1.64-3.4,1.58-5.64Z"/>
      <path class="cls-9" d="m85.96,234.5c.46.08.93.33,1.36.16.3-.12.5-.43.57-.75.09-.41.04-.52-.35-3.82-.02-.19-.05-.38-.13-.55-.59-1.18-1.45.78-1.76,1.06-.36.31-.93.44-1.31.15-.28-.21-.39-.57-.42-.91-.03-.34-.01-.7-.09-1.03-.08-.34-.3-.67-.64-.75-.43-.1-.83.24-1.13.56-.43.46-.85.96-1.09,1.54-.24.59-.27,1.29.04,1.83.54.93,1.82,1.08,1.51,2.84-.1.55-.56.97-.63,1.53-.06.47.3.7.78.48.75-.34,1.05-1.25,1.64-1.78.46-.41,1.06-.67,1.66-.56Z"/>
      <path class="cls-3" d="m81.82,225.49c-1.88,1.33-2.94,2.93-3.35,5.33-.06.33-.54.37-.63.04-.34-1.15-.17-2.57.6-3.79.77-1.22,1.97-1.97,3.14-2.17.34-.06.53.39.25.59Z"/>
      <path class="cls-3" d="m83.01,239.96c.27.17.17.59-.15.61-.88.05-1.88-.35-2.59-1.21-.59-.71-.92-1.65-.98-2.57-.02-.32.39-.48.59-.22.48.6.9,1.29,1.43,1.94.45.55.9.98,1.69,1.47Z"/>
      <path class="cls-3" d="m88.89,238.93c-1.12-.04,1.32-.72,1.72-2.24.17-1.04,0-2.4.08-5.21.07-2.52.21-3.24.18-4.18-.04-.64-.16-1.26-.55-1.74-.37-.49-2.28-.45-1.71-.81.81-.47,2.22-.1,2.93,1.29.53,1.03.5,2.41.52,3.35,0,1.86-.06,4.58-.34,6.42-.11.68-.19,1.05-.52,1.66-.56,1.04-1.55,1.55-2.32,1.46Z"/>
    </g>
    <g class="cls-5">
      <path class="cls-9" d="m91.86,217.93c3.78-1.12,4.98-2.72,4.87-6.97-.05-1.77-.49-5.45-.16-8.89.26-2.72-1.13-4.45-3.74-5.04-5.3-1.19-13.75-1.13-16.88,4.01-2.46,4.03-2.57,11.62.91,15.55,2.68,3.02,5.02,3.21,8.55,2.73.79-.07,4.03-.6,6.45-1.4Z"/>
      <path class="cls-2" d="m94.74,210.94c-.07-1.77-.49-5.45-.16-8.89.26-2.72-1.13-4.45-3.74-5.04-5.3-1.19-13.01-1.17-16.14,3.97-2.46,4.03-2.57,11.62.91,15.55,2.68,3.02,5.51,3.36,9.05,2.89.79-.07,10.37-1.49,10.08-8.48Z"/>
      <path class="cls-10" d="m92.6,210.32c.15-2.68.09-5.37-.2-8.03-.1-.94-.24-1.91-.77-2.69-.63-.93-1.73-1.46-2.84-1.65-1.11-.18-2.24-.06-3.36.06-2.05.22-4.13.45-6.04,1.25-1.9.79-3.63,2.25-4.27,4.21-.36,1.11-.35,2.3-.32,3.47.06,2.31.18,4.71,1.24,6.76,1.31,2.57,3.98,4.38,7.11,4.43,1,.02,1.9-.29,2.87-.41,1.75-.22,3.23-.63,4.54-1.91,1.61-1.58,1.91-3.26,2.04-5.49Z"/>
      <path class="cls-9" d="m84.53,210.27c.45.12.9.41,1.34.27.31-.1.53-.39.63-.71.12-.4.09-.52-.04-3.84,0-.19-.01-.38-.08-.55-.49-1.22-1.51.66-1.85.91-.38.28-.96.36-1.32.04-.26-.23-.34-.6-.35-.94,0-.35.05-.69,0-1.03-.05-.34-.25-.69-.58-.8-.42-.13-.84.17-1.17.47-.47.43-.93.88-1.21,1.45-.29.56-.38,1.26-.11,1.83.46.97,1.73,1.22,1.27,2.95-.14.54-.64.92-.75,1.47-.1.46.24.72.74.54.78-.28,1.14-1.16,1.78-1.64.49-.37,1.11-.58,1.7-.42Z"/>
      <path class="cls-3" d="m81.14,200.95c-1.98,1.17-3.17,2.68-3.77,5.03-.08.33-.57.32-.64-.01-.24-1.18.04-2.58.91-3.73.87-1.15,2.12-1.8,3.31-1.9.34-.03.49.44.2.61Z"/>
      <path class="cls-3" d="m81.14,215.48c.26.19.12.61-.2.6-.88-.02-1.84-.5-2.48-1.42-.53-.76-.78-1.72-.76-2.64,0-.33.43-.45.61-.18.42.64.79,1.36,1.26,2.05.41.58.82,1.05,1.57,1.6Z"/>
      <path class="cls-3" d="m87.08,214.93c-1.12-.13,1.38-.61,1.9-2.09.25-1.02.2-2.4.51-5.18.28-2.51.48-3.21.53-4.15.01-.64-.06-1.26-.41-1.78-.33-.52-2.24-.63-1.63-.95.85-.4,2.22.08,2.82,1.53.45,1.08.3,2.44.24,3.38-.14,1.85-.44,4.56-.87,6.37-.17.66-.28,1.03-.66,1.61-.64.99-1.67,1.42-2.43,1.27Z"/>
    </g>
    <g class="cls-5">
      <path class="cls-9" d="m109.42,283.36c3.62-2.36,7.72-3.84,9.08-3.79,2.09.07,6.96,4.43,7.26,6.5.2,1.35-.81,5.56-2.74,9.41-1.13,2.25-2.58,4.38-4.28,5.75-3.59,2.88-7.99-.41-9.78-2.01-.55-.5-1.11-1-1.66-1.49-1.79-1.59-5.55-5.61-3.08-9.5,1.16-1.84,3.11-3.51,5.21-4.87Z"/>
      <path class="cls-2" d="m109.42,283.36c2.97-1.46,5.83-2.26,6.97-2.17,2.21.18,7.58,4.98,8,7.16.22,1.11-.26,4.03-1.36,7.13-1.13,2.25-2.58,4.38-4.28,5.75-3.59,2.88-7.99-.41-9.78-2.01-.55-.5-1.11-1-1.66-1.49-1.79-1.59-5.55-5.61-3.08-9.5,1.16-1.84,3.11-3.51,5.21-4.87Z"/>
      <path class="cls-10" d="m119.63,285.61l.09.08c1.89,1.69,2.75,4.19,2.22,6.42h0c-.56,2.35-1.54,4.55-2.97,6.43-.63.82-1.27,1.5-1.92,2.02-1.3,1.04-3.64,1.56-7.47-1.87-.61-.55-1.19-1.07-1.8-1.61-3.85-3.44-3.59-5.83-2.71-7.24.52-.83,1.27-1.68,2.21-2.52,1.61-1.44,3.52-2.52,5.6-3.27h0c2.18-.79,4.79-.2,6.7,1.5l.05.05Z"/>
      <path class="cls-3" d="m114.84,299.97c.25.12.19.48-.08.46-.84-.06-1.75-.39-2.49-.78-1.12-.58-2.09-1.43-2.96-2.2-.87-.78-1.81-1.64-2.52-2.69-.48-.69-.92-1.55-1.08-2.39-.05-.26.3-.37.45-.13,1.07,1.67,2.71,2.89,4.1,4.14,1.42,1.28,2.82,2.74,4.58,3.58Z"/>
      <path class="cls-9" d="m113.51,292.91c-.14.16-.25.34-.39.5-.14.16-.32.3-.53.32-.21.02-.44-.11-.47-.31-.02-.21.16-.38.33-.51.4-.31.82-.62,1.12-1.03s.45-.96.25-1.4c-.1-.22-.28-.47-.16-.69.12-.21.45-.2.63-.06.19.14.28.37.39.57.11.2.28.41.52.44.24.03.48-.13.64-.32.16-.19.28-.41.47-.56s.49-.24.68-.09c.24.18.15.57-.07.78s-.53.31-.79.47c-.26.16-.49.46-.41.74.1.35.59.45.73.78.07.17.03.38-.1.51s-.34.19-.52.13c-.4-.13-.53-.65-.94-.78-.46-.14-1.08.18-1.38.51Z"/>
    </g>
    <g>
      <path class="cls-11" d="m213.2,265.69c1.68,0,4.77.36,7.95,1.38,2.59.83,4.67,1.93,6.03,3.17,2.98,2.72.58,7.21-.59,9.01-.41.62-.81,1.25-1.22,1.88-.89,1.39-3.28,4.61-6.22,4.61-.58,0-1.17-.13-1.75-.38-1.71-.74-3.57-2.2-5.39-4.23-2.82-3.13-4.81-6.79-4.95-7.94-.21-1.7,3.13-6.87,4.77-7.38.12-.04.5-.13,1.36-.13m0-.75c-.7,0-1.25.06-1.59.16-2,.62-5.54,6.11-5.29,8.18.16,1.35,2.25,5.14,5.13,8.35,1.68,1.88,3.64,3.55,5.65,4.41.71.31,1.39.44,2.05.44,3.25,0,5.77-3.28,6.85-4.96.4-.63.81-1.26,1.21-1.88,1.3-2.01,3.87-6.87.46-9.97-1.6-1.47-3.92-2.56-6.31-3.33-3.04-.98-6.2-1.42-8.18-1.42h0Z"/>
      <path class="cls-11" d="m223.7,243.88c1.11,0,2.39.16,3.32.28l.23.03c1.55.2,3.96.94,5.73,1.77h.03s.03.03.03.03c1.58.57,2.9,1.22,3.63,1.8,1.85,1.47,1.98,4.14,1.76,6.13-.56,5.12-3.96,11.03-7.28,12.65-.47.23-1.02.35-1.63.35-.45,0-.92-.06-1.4-.19-.78-.2-1.65-.53-2.59-.98l-.04-.02h-.04c-2.08-.72-4.56-2.15-6.47-3.74-1.09-.91-1.97-2.19-2.62-3.79-.84-2.1-.27-5.92,1.39-9.28,1.3-2.63,3.01-4.46,4.58-4.89.33-.09.78-.14,1.37-.14m0-.75c-.59,0-1.14.04-1.57.16-4.41,1.23-8.24,10.73-6.46,15.17.63,1.56,1.54,3.01,2.83,4.09,1.81,1.51,4.35,3.06,6.71,3.86.92.44,1.84.8,2.72,1.03.52.13,1.05.21,1.59.21.68,0,1.35-.13,1.96-.42,5.5-2.68,10.87-15.89,5.66-20.04-.87-.69-2.33-1.37-3.84-1.92-1.93-.9-4.4-1.63-5.96-1.83-.93-.12-2.39-.32-3.64-.32h0Z"/>
      <path class="cls-11" d="m235.59,172.61c4.31,0,7.76,1.47,9.46,4.04,1.84,2.79,1.87,6.02,1.57,8.24v.03s0,.03,0,.03c-.14,3.21-1.24,5.65-1.79,6.24-1.13,1.2-4.39,2.98-8.74,2.98-.94,0-1.9-.08-2.86-.24-6.35-1.07-9.92-3.19-10.06-5.96,0-.14.03-.86.16-1.92.1-1.68.87-10.16,5.62-12.2,1.86-.8,4.29-1.26,6.67-1.26m0-.75c-2.58,0-5.09.51-6.96,1.32-5.09,2.19-5.94,10.69-6.07,12.85-.14,1.19-.16,1.97-.16,1.97.15,3.39,4.33,5.62,10.69,6.69,1.05.18,2.05.25,2.99.25,4.78,0,8.13-2,9.29-3.22.79-.84,1.86-3.56,2-6.73.37-2.73.13-6.01-1.69-8.76-2.1-3.18-6.16-4.38-10.08-4.38h0Z"/>
      <path class="cls-11" d="m106.8,265.69c.86,0,1.24.09,1.36.13,1.63.51,4.97,5.68,4.76,7.38-.14,1.14-2.13,4.81-4.95,7.94-1.82,2.03-3.68,3.49-5.39,4.23-.58.25-1.17.38-1.75.38-2.93,0-5.33-3.23-6.22-4.61-.4-.63-.81-1.26-1.22-1.88-1.17-1.8-3.57-6.29-.59-9.01,1.36-1.24,3.44-2.33,6.03-3.17,3.18-1.02,6.27-1.38,7.95-1.38m0-.75c-1.97,0-5.13.44-8.18,1.42-2.39.77-4.7,1.86-6.31,3.33-3.4,3.1-.84,7.96.46,9.97.41.62.81,1.25,1.21,1.88,1.08,1.68,3.6,4.96,6.85,4.96.66,0,1.34-.13,2.05-.44,2.01-.87,3.97-2.54,5.65-4.41,2.88-3.21,4.97-7,5.13-8.35.26-2.07-3.29-7.56-5.29-8.18-.34-.11-.89-.16-1.59-.16h0Z"/>
      <path class="cls-11" d="m96.3,243.88c.58,0,1.04.05,1.37.14,1.57.44,3.28,2.27,4.58,4.89,1.66,3.36,2.23,7.17,1.39,9.28-.64,1.6-1.52,2.88-2.62,3.79-1.91,1.59-4.39,3.02-6.47,3.73h-.04s-.04.03-.04.03c-.94.45-1.81.78-2.59.98-.48.13-.95.19-1.4.19-.61,0-1.16-.12-1.63-.35-3.32-1.62-6.72-7.53-7.28-12.65-.22-1.98-.09-4.66,1.76-6.13.72-.57,2.04-1.23,3.63-1.8h.03s.03-.03.03-.03c1.77-.83,4.18-1.57,5.73-1.77l.23-.03c.93-.12,2.21-.28,3.32-.28m0-.75c-1.25,0-2.71.2-3.64.32-1.55.2-4.03.93-5.96,1.83-1.51.54-2.97,1.22-3.84,1.92-5.22,4.15.16,17.36,5.66,20.04.61.3,1.28.42,1.96.42.53,0,1.07-.08,1.59-.21.88-.23,1.81-.59,2.72-1.03,2.36-.8,4.9-2.35,6.71-3.86,1.29-1.08,2.21-2.52,2.83-4.09,1.78-4.44-2.06-13.95-6.46-15.17-.43-.12-.98-.16-1.57-.16h0Z"/>
      <path class="cls-11" d="m84.41,172.61c2.38,0,4.81.46,6.67,1.26,4.76,2.04,5.52,10.52,5.62,12.24.12,1.02.15,1.74.15,1.88-.14,2.77-3.71,4.89-10.06,5.96-.96.16-1.92.24-2.86.24-4.35,0-7.61-1.78-8.74-2.98-.56-.59-1.66-3.03-1.79-6.24v-.03s0-.03,0-.03c-.3-2.22-.27-5.45,1.57-8.24,1.69-2.57,5.14-4.04,9.46-4.04m0-.75c-3.92,0-7.98,1.19-10.08,4.38-1.81,2.74-2.06,6.03-1.69,8.76.14,3.16,1.21,5.89,2,6.73,1.15,1.22,4.51,3.22,9.29,3.22.94,0,1.94-.08,2.99-.25,6.36-1.07,10.54-3.3,10.69-6.69,0,0-.02-.78-.16-1.97-.13-2.15-.98-10.66-6.07-12.85-1.87-.8-4.39-1.32-6.96-1.32h0Z"/>
    </g>
    <g class="cls-5">
      <path class="cls-9" d="m124.4,295.82c2.78-3.27,6.14-5.86,7.37-6.22,1.87-.55,7.01,2.06,7.67,3.9.43,1.2.32,5.41-.68,9.58-.58,2.43-1.47,4.84-2.74,6.62-2.66,3.74-7.18,1.99-9.06,1.02-.59-.3-1.17-.6-1.76-.89-1.89-.95-5.97-3.58-4.51-7.93.69-2.05,2.11-4.18,3.72-6.08Z"/>
      <path class="cls-2" d="m124.4,295.82c2.37-2.23,4.76-3.83,5.79-4.08,2-.49,7.66,2.4,8.44,4.3.4.97.52,3.83.12,7.04-.58,2.43-1.47,4.84-2.74,6.62-2.66,3.74-7.18,1.99-9.06,1.02-.59-.3-1.17-.6-1.76-.89-1.89-.95-5.97-3.58-4.51-7.93.69-2.05,2.11-4.18,3.72-6.08Z"/>
      <path class="cls-10" d="m133.9,294.9l.09.05c1.99,1.02,3.22,3.09,3.17,5.33h0c-.06,2.36-.52,4.7-1.44,6.86-.4.95-.85,1.77-1.33,2.45-.96,1.35-2.95,2.53-6.99.47-.65-.33-1.26-.64-1.9-.97-4.06-2.07-4.28-4.37-3.75-5.94.31-.93.81-1.94,1.49-3,1.16-1.82,2.66-3.39,4.37-4.7h0c1.79-1.38,4.22-1.6,6.24-.58l.06.03Z"/>
      <path class="cls-3" d="m132.32,309.69c.24.04.26.39.02.45-.76.19-1.63.16-2.36,0-1.1-.21-2.12-.71-3.04-1.17-.92-.47-1.91-1-2.74-1.75-.56-.5-1.1-1.18-1.41-1.9-.09-.23.2-.43.37-.26,1.26,1.23,2.95,1.89,4.42,2.65,1.5.77,3.02,1.72,4.74,1.98Z"/>
    </g>
    <g class="cls-5">
      <g>
        <g>
          <path class="cls-2" d="m150.86,296.48c-9.17,0-12.9,9.54-13.12,15.31,0,.03,0,.04,0,.04,0,.32,2.44,5.45,12.42,5.45s9.05-2.1,9.25-3.71c.2-1.62.64-17.09-8.55-17.09Z"/>
          <path class="cls-9" d="m150.86,296.48c-9.14,0-12.89,9.5-13.12,15.27.13-.74,2.33-12.58,12.44-12.58s9.22,14.41,9.22,14.41c.2-1.62.64-17.09-8.55-17.09Z"/>
        </g>
        <path class="cls-10" d="m156.14,314.9c-2.03,1.11-11.48,1.66-15.41-1.97-1.93-1.78,1.29-11.7,8.85-11.49,7.55.22,8.6,12.35,6.57,13.45Z"/>
        <path class="cls-3" d="m155.8,313.64c.13-.02.19.16.07.22-2.06,1.16-7.29,1.87-11.59.14-1.1-.45-2.19-1.08-2.98-1.97-.09-.1.02-.25.14-.19,3.06,1.51,7.61,1.86,10.94,1.92.88.01,2.35.03,3.41-.12Z"/>
      </g>
    </g>
  </g>
</svg>