<?xml version="1.0" encoding="UTF-8"?>
<svg id="Layer_1" data-name="Layer 1" xmlns="http://www.w3.org/2000/svg" viewBox="0 0 320 320">
  <defs>
    <style>
      .cls-1 {
        fill: #b3e2f2;
      }

      .cls-2 {
        fill: #e3f7fc;
      }

      .cls-3 {
        fill: none;
      }

      .cls-4 {
        fill: #9fdaed;
      }

      .cls-5 {
        fill: #cbedfa;
      }
    </style>
  </defs>
  <rect class="cls-3" width="320" height="320"/>
  <g id="_9" data-name="9">
    <g>
      <path class="cls-4" d="m210.58,283.36c-3.62-2.36-7.72-3.84-9.08-3.79-2.09.07-6.96,4.43-7.26,6.5-.2,1.35.81,5.56,2.74,9.41,1.13,2.25,2.58,4.38,4.28,5.75,3.59,2.88,7.99-.41,9.78-2.01.55-.5,1.11-1,1.66-1.49,1.79-1.59,5.55-5.61,3.08-9.5-1.16-1.84-3.11-3.51-5.21-4.87Z"/>
      <path class="cls-1" d="m210.58,283.36c-2.97-1.46-5.83-2.26-6.97-2.17-2.21.18-7.58,4.98-8,7.16-.22,1.11.26,4.03,1.36,7.13,1.13,2.25,2.58,4.38,4.28,5.75,3.59,2.88,7.99-.41,9.78-2.01.55-.5,1.11-1,1.66-1.49,1.79-1.59,5.55-5.61,3.08-9.5-1.16-1.84-3.11-3.51-5.21-4.87Z"/>
      <path class="cls-5" d="m200.37,285.61l-.09.08c-1.89,1.69-2.75,4.19-2.22,6.42h0c.56,2.35,1.54,4.55,2.97,6.43.63.82,1.27,1.5,1.92,2.02,1.3,1.04,3.64,1.56,7.47-1.87.61-.55,1.19-1.07,1.8-1.61,3.85-3.44,3.59-5.83,2.71-7.24-.52-.83-1.27-1.68-2.21-2.52-1.61-1.44-3.52-2.52-5.6-3.27h0c-2.18-.79-4.79-.2-6.7,1.5l-.05.05Z"/>
      <path class="cls-2" d="m205.16,299.97c-.25.12-.19.48.08.46.84-.06,1.75-.39,2.49-.78,1.12-.58,2.09-1.43,2.96-2.2.87-.78,1.81-1.64,2.52-2.69.48-.69.92-1.55,1.08-2.39.05-.26-.3-.37-.45-.13-1.07,1.67-2.71,2.89-4.1,4.14-1.42,1.28-2.82,2.74-4.58,3.58Z"/>
      <path class="cls-4" d="m206.49,292.91c.14.16.25.34.39.5.14.16.32.3.53.32.21.02.44-.11.47-.31.02-.21-.16-.38-.33-.51-.4-.31-.82-.62-1.12-1.03s-.45-.96-.25-1.4c.1-.22.28-.47.16-.69-.12-.21-.45-.2-.63-.06-.19.14-.28.37-.39.57-.11.2-.28.41-.52.44-.24.03-.48-.13-.64-.32-.16-.19-.28-.41-.47-.56s-.49-.24-.68-.09c-.24.18-.15.57.07.78s.53.31.79.47c.26.16.49.46.41.74-.1.35-.59.45-.73.78-.07.17-.03.38.1.51s.34.19.52.13c.4-.13.53-.65.94-.78.46-.14,1.08.18,1.38.51Z"/>
    </g>
    <g>
      <path class="cls-4" d="m109.42,283.36c3.62-2.36,7.72-3.84,9.08-3.79,2.09.07,6.96,4.43,7.26,6.5.2,1.35-.81,5.56-2.74,9.41-1.13,2.25-2.58,4.38-4.28,5.75-3.59,2.88-7.99-.41-9.78-2.01-.55-.5-1.11-1-1.66-1.49-1.79-1.59-5.55-5.61-3.08-9.5,1.16-1.84,3.11-3.51,5.21-4.87Z"/>
      <path class="cls-1" d="m109.42,283.36c2.97-1.46,5.83-2.26,6.97-2.17,2.21.18,7.58,4.98,8,7.16.22,1.11-.26,4.03-1.36,7.13-1.13,2.25-2.58,4.38-4.28,5.75-3.59,2.88-7.99-.41-9.78-2.01-.55-.5-1.11-1-1.66-1.49-1.79-1.59-5.55-5.61-3.08-9.5,1.16-1.84,3.11-3.51,5.21-4.87Z"/>
      <path class="cls-5" d="m119.63,285.61l.09.08c1.89,1.69,2.75,4.19,2.22,6.42h0c-.56,2.35-1.54,4.55-2.97,6.43-.63.82-1.27,1.5-1.92,2.02-1.3,1.04-3.64,1.56-7.47-1.87-.61-.55-1.19-1.07-1.8-1.61-3.85-3.44-3.59-5.83-2.71-7.24.52-.83,1.27-1.68,2.21-2.52,1.61-1.44,3.52-2.52,5.6-3.27h0c2.18-.79,4.79-.2,6.7,1.5l.05.05Z"/>
      <path class="cls-2" d="m114.84,299.97c.25.12.19.48-.08.46-.84-.06-1.75-.39-2.49-.78-1.12-.58-2.09-1.43-2.96-2.2-.87-.78-1.81-1.64-2.52-2.69-.48-.69-.92-1.55-1.08-2.39-.05-.26.3-.37.45-.13,1.07,1.67,2.71,2.89,4.1,4.14,1.42,1.28,2.82,2.74,4.58,3.58Z"/>
      <path class="cls-4" d="m113.51,292.91c-.14.16-.25.34-.39.5-.14.16-.32.3-.53.32-.21.02-.44-.11-.47-.31-.02-.21.16-.38.33-.51.4-.31.82-.62,1.12-1.03s.45-.96.25-1.4c-.1-.22-.28-.47-.16-.69.12-.21.45-.2.63-.06.19.14.28.37.39.57.11.2.28.41.52.44.24.03.48-.13.64-.32.16-.19.28-.41.47-.56s.49-.24.68-.09c.24.18.15.57-.07.78s-.53.31-.79.47c-.26.16-.49.46-.41.74.1.35.59.45.73.78.07.17.03.38-.1.51s-.34.19-.52.13c-.4-.13-.53-.65-.94-.78-.46-.14-1.08.18-1.38.51Z"/>
    </g>
  </g>
</svg>