<?xml version="1.0" encoding="UTF-8"?>
<svg id="Layer_1" data-name="Layer 1" xmlns="http://www.w3.org/2000/svg" viewBox="0 0 320 320">
  <defs>
    <style>
      .cls-1 {
        fill: #b3e2f2;
      }

      .cls-2 {
        fill: #e3f7fc;
      }

      .cls-3 {
        fill: none;
      }

      .cls-4 {
        fill: #9fdaed;
      }

      .cls-5 {
        fill: #cbedfa;
      }
    </style>
  </defs>
  <rect class="cls-3" width="320" height="320"/>
  <g id="_7" data-name="7">
    <g>
      <g>
        <path class="cls-1" d="m150.86,28.28c-9.17,0-12.9-9.54-13.12-15.31,0-.03,0-.04,0-.04,0-.32,2.44-5.45,12.42-5.45s9.05,2.1,9.25,3.71c.2,1.62.64,17.09-8.55,17.09Z"/>
        <path class="cls-4" d="m150.86,28.28c-9.14,0-12.89-9.5-13.12-15.27.13.74,2.33,12.58,12.44,12.58s9.22-14.41,9.22-14.41c.2,1.62.64,17.09-8.55,17.09Z"/>
      </g>
      <path class="cls-5" d="m156.14,9.85c-2.03-1.11-11.48-1.66-15.41,1.97-1.93,1.78,1.29,11.7,8.85,11.49,7.55-.22,8.6-12.35,6.57-13.45Z"/>
      <path class="cls-2" d="m155.8,11.11c.13.02.19-.16.07-.22-2.06-1.16-7.29-1.87-11.59-.14-1.1.45-2.19,1.08-2.98,1.97-.09.1.02.25.14.19,3.06-1.51,7.61-1.86,10.94-1.92.88-.01,2.35-.03,3.41.12Z"/>
    </g>
    <g>
      <g>
        <path class="cls-1" d="m169.14,28.28c9.17,0,12.9-9.54,13.12-15.31,0-.03,0-.04,0-.04,0-.32-2.44-5.45-12.42-5.45s-9.05,2.1-9.25,3.71c-.2,1.62-.64,17.09,8.55,17.09Z"/>
        <path class="cls-4" d="m169.14,28.28c9.14,0,12.89-9.5,13.12-15.27-.13.74-2.33,12.58-12.44,12.58s-9.22-14.41-9.22-14.41c-.2,1.62-.64,17.09,8.55,17.09Z"/>
      </g>
      <path class="cls-5" d="m163.86,9.85c2.03-1.11,11.48-1.66,15.41,1.97,1.93,1.78-1.29,11.7-8.85,11.49-7.55-.22-8.6-12.35-6.57-13.45Z"/>
      <path class="cls-2" d="m164.2,11.11c-.13.02-.19-.16-.07-.22,2.06-1.16,7.29-1.87,11.59-.14,1.1.45,2.19,1.08,2.98,1.97.09.1-.02.25-.14.19-3.06-1.51-7.61-1.86-10.94-1.92-.88-.01-2.35-.03-3.41.12Z"/>
    </g>
    <g>
      <path class="cls-4" d="m195.6,295.82c-2.78-3.27-6.14-5.86-7.37-6.22-1.87-.55-7.01,2.06-7.67,3.9-.43,1.2-.32,5.41.68,9.58.58,2.43,1.47,4.84,2.74,6.62,2.66,3.74,7.18,1.99,9.06,1.02.59-.3,1.17-.6,1.76-.89,1.89-.95,5.97-3.58,4.51-7.93-.69-2.05-2.11-4.18-3.72-6.08Z"/>
      <path class="cls-1" d="m195.6,295.82c-2.37-2.23-4.76-3.83-5.79-4.08-2-.49-7.66,2.4-8.44,4.3-.4.97-.52,3.83-.12,7.04.58,2.43,1.47,4.84,2.74,6.62,2.66,3.74,7.18,1.99,9.06,1.02.59-.3,1.17-.6,1.76-.89,1.89-.95,5.97-3.58,4.51-7.93-.69-2.05-2.11-4.18-3.72-6.08Z"/>
      <path class="cls-5" d="m186.1,294.9l-.09.05c-1.99,1.02-3.22,3.09-3.17,5.33h0c.06,2.36.52,4.7,1.44,6.86.4.95.85,1.77,1.33,2.45.96,1.35,2.95,2.53,6.99.47.65-.33,1.26-.64,1.9-.97,4.06-2.07,4.28-4.37,3.75-5.94-.31-.93-.81-1.94-1.49-3-1.16-1.82-2.66-3.39-4.37-4.7h0c-1.79-1.38-4.22-1.6-6.24-.58l-.06.03Z"/>
      <path class="cls-2" d="m187.68,309.69c-.24.04-.26.39-.02.45.76.19,1.63.16,2.36,0,1.1-.21,2.12-.71,3.04-1.17.92-.47,1.91-1,2.74-1.75.56-.5,1.1-1.18,1.41-1.9.09-.23-.2-.43-.37-.26-1.26,1.23-2.95,1.89-4.42,2.65-1.5.77-3.02,1.72-4.74,1.98Z"/>
    </g>
    <g>
      <path class="cls-4" d="m124.4,295.82c2.78-3.27,6.14-5.86,7.37-6.22,1.87-.55,7.01,2.06,7.67,3.9.43,1.2.32,5.41-.68,9.58-.58,2.43-1.47,4.84-2.74,6.62-2.66,3.74-7.18,1.99-9.06,1.02-.59-.3-1.17-.6-1.76-.89-1.89-.95-5.97-3.58-4.51-7.93.69-2.05,2.11-4.18,3.72-6.08Z"/>
      <path class="cls-1" d="m124.4,295.82c2.37-2.23,4.76-3.83,5.79-4.08,2-.49,7.66,2.4,8.44,4.3.4.97.52,3.83.12,7.04-.58,2.43-1.47,4.84-2.74,6.62-2.66,3.74-7.18,1.99-9.06,1.02-.59-.3-1.17-.6-1.76-.89-1.89-.95-5.97-3.58-4.51-7.93.69-2.05,2.11-4.18,3.72-6.08Z"/>
      <path class="cls-5" d="m133.9,294.9l.09.05c1.99,1.02,3.22,3.09,3.17,5.33h0c-.06,2.36-.52,4.7-1.44,6.86-.4.95-.85,1.77-1.33,2.45-.96,1.35-2.95,2.53-6.99.47-.65-.33-1.26-.64-1.9-.97-4.06-2.07-4.28-4.37-3.75-5.94.31-.93.81-1.94,1.49-3,1.16-1.82,2.66-3.39,4.37-4.7h0c1.79-1.38,4.22-1.6,6.24-.58l.06.03Z"/>
      <path class="cls-2" d="m132.32,309.69c.24.04.26.39.02.45-.76.19-1.63.16-2.36,0-1.1-.21-2.12-.71-3.04-1.17-.92-.47-1.91-1-2.74-1.75-.56-.5-1.1-1.18-1.41-1.9-.09-.23.2-.43.37-.26,1.26,1.23,2.95,1.89,4.42,2.65,1.5.77,3.02,1.72,4.74,1.98Z"/>
    </g>
  </g>
</svg>