<?xml version="1.0" encoding="UTF-8"?>
<svg id="Layer_1" data-name="Layer 1" xmlns="http://www.w3.org/2000/svg" viewBox="0 0 320 320">
  <defs>
    <style>
      .cls-1 {
        fill: #b3e2f2;
      }

      .cls-2 {
        fill: #e3f7fc;
      }

      .cls-3 {
        fill: none;
      }

      .cls-4 {
        fill: #9fdaed;
      }

      .cls-5 {
        fill: #cbedfa;
      }
    </style>
  </defs>
  <rect class="cls-3" width="320" height="320"/>
  <g id="_17" data-name="17">
    <g>
      <path class="cls-4" d="m97.47,138.23s-.25,10.83-6.1,13.35c-4.72,2.03-13.56,2.21-17.04-3.06-3.48-5.27-1.2-12.55.18-14.01,1.38-1.46,5.92-4.04,12.27-2.96s10.54,3.3,10.69,6.69Z"/>
      <path class="cls-1" d="m97.6,136.77s-.25,10.83-6.1,13.35c-4.72,2.03-13.56,2.21-17.04-3.06s-1.2-12.55.18-14.01,5.92-4.04,12.27-2.96,10.54,3.3,10.69,6.69Z"/>
      <path class="cls-5" d="m76.02,135.25c-1.04,2.25-1.85,7.1.4,10.52,1.48,2.25,4.28,3,6.36,3.23,2.65.29,5.64-.1,7.8-1.03,1.16-.5,2.15-1.62,2.95-3.34,1.48-3.19,1.7-7.18,1.73-7.82-.16-1.84-3.49-3.52-8.73-4.41-5.77-.97-9.49,1.53-10.18,2.26h0s-.13.17-.33.6Z"/>
      <path class="cls-4" d="m81.96,143.18c-.21.19-.42.4-.68.5-.26.1-.61.06-.76-.18-.25-.38.16-.86.21-1.31.06-.49-.32-.93-.69-1.26-.85-.76-1.16-1.16-.64-2.25.25-.52.68-1.09,1.26-1.03.38.04.67.34.96.59,2.24,2.04,4.31,2.15,6.66.23.25-.21.49-.43.79-.55.3-.12.69-.09.9.16.29.35.07.89-.26,1.2-.33.31-.75.52-.99.91-.6.98,1.22,2.2.14,3.2-.1.09-.86.08-1.22-.39-.5-.67-.54-1.16-2.8-1.25-1.53-.06-1.74.42-2.88,1.44Z"/>
      <path class="cls-2" d="m87.99,146.4c-.25.16-.16.54.14.57,1.33.15,3-.78,3.59-2.59.1-.29.17-.66.18-1.04,0-.29-.36-.43-.55-.21-.72.85-1.58,2.11-3.35,3.26Z"/>
      <path class="cls-2" d="m89.08,134.75c-.28.06-.34.43-.1.58.63.38,1.33.67,2.01.94.91.36,1.4.54,1.69.88.18.21.53.09.54-.18.02-.31-.09-.68-.36-1.04-.82-1.05-2.48-1.46-3.79-1.18Z"/>
      <path class="cls-2" d="m77.31,137.53c.05.26.39.35.56.14.48-.59.8-.98,1.2-1.38.76-.76,1.74-.97,1.84-1.49.06-.45-.97-.33-1.47-.23-1.41.22-2.34,1.71-2.12,2.96Z"/>
      <path class="cls-2" d="m81.6,146.93c.26-.07.31-.43.07-.57-.79-.47-1.87-1.12-2.71-1.83-.23-.19-1.12-1.17-1.16-.87-.19,1.6,1.13,3.15,2.83,3.34.32.03.65.02.96-.06Z"/>
    </g>
    <g>
      <path class="cls-4" d="m222.53,138.23s.25,10.83,6.1,13.35c4.72,2.03,13.56,2.21,17.04-3.06,3.48-5.27,1.2-12.55-.18-14.01-1.38-1.46-5.92-4.04-12.27-2.96s-10.54,3.3-10.69,6.69Z"/>
      <path class="cls-1" d="m222.4,136.77s.25,10.83,6.1,13.35c4.72,2.03,13.56,2.21,17.04-3.06s1.2-12.55-.18-14.01-5.92-4.04-12.27-2.96-10.54,3.3-10.69,6.69Z"/>
      <path class="cls-5" d="m243.98,135.25c1.04,2.25,1.85,7.1-.4,10.52-1.48,2.25-4.28,3-6.36,3.23-2.65.29-5.64-.1-7.8-1.03-1.16-.5-2.15-1.62-2.95-3.34-1.48-3.19-1.7-7.18-1.73-7.82.16-1.84,3.49-3.52,8.73-4.41,5.77-.97,9.49,1.53,10.18,2.26h0s.13.17.33.6Z"/>
      <path class="cls-4" d="m238.04,143.18c.21.19.42.4.68.5.26.1.61.06.76-.18.25-.38-.16-.86-.21-1.31-.06-.49.32-.93.69-1.26.85-.76,1.16-1.16.64-2.25-.25-.52-.68-1.09-1.26-1.03-.38.04-.67.34-.96.59-2.24,2.04-4.31,2.15-6.66.23-.25-.21-.49-.43-.79-.55-.3-.12-.69-.09-.9.16-.29.35-.07.89.26,1.2.33.31.75.52.99.91.6.98-1.22,2.2-.14,3.2.1.09.86.08,1.22-.39.5-.67.54-1.16,2.8-1.25,1.53-.06,1.74.42,2.88,1.44Z"/>
      <path class="cls-2" d="m232.01,146.4c.25.16.16.54-.14.57-1.33.15-3-.78-3.59-2.59-.1-.29-.17-.66-.18-1.04,0-.29.36-.43.55-.21.72.85,1.58,2.11,3.35,3.26Z"/>
      <path class="cls-2" d="m230.92,134.75c.28.06.34.43.1.58-.63.38-1.33.67-2.01.94-.91.36-1.4.54-1.69.88-.18.21-.53.09-.54-.18-.02-.31.09-.68.36-1.04.82-1.05,2.48-1.46,3.79-1.18Z"/>
      <path class="cls-2" d="m242.69,137.53c-.05.26-.39.35-.56.14-.48-.59-.8-.98-1.2-1.38-.76-.76-1.74-.97-1.84-1.49-.06-.45.97-.33,1.47-.23,1.41.22,2.34,1.71,2.12,2.96Z"/>
      <path class="cls-2" d="m238.4,146.93c-.26-.07-.31-.43-.07-.57.79-.47,1.87-1.12,2.71-1.83.23-.19,1.12-1.17,1.16-.87.19,1.6-1.13,3.15-2.83,3.34-.32.03-.65.02-.96-.06Z"/>
    </g>
    <g>
      <path class="cls-4" d="m222.53,186.52s.25-10.83,6.1-13.35c4.72-2.03,13.56-2.21,17.04,3.06,3.48,5.27,1.2,12.55-.18,14.01-1.38,1.46-5.92,4.04-12.27,2.96s-10.54-3.3-10.69-6.69Z"/>
      <path class="cls-1" d="m222.4,187.99s.25-10.83,6.1-13.35c4.72-2.03,13.56-2.21,17.04,3.06s1.2,12.55-.18,14.01-5.92,4.04-12.27,2.96-10.54-3.3-10.69-6.69Z"/>
      <path class="cls-5" d="m243.98,189.51c1.04-2.25,1.85-7.1-.4-10.52-1.48-2.25-4.28-3-6.36-3.23-2.65-.29-5.64.1-7.8,1.03-1.16.5-2.15,1.62-2.95,3.34-1.48,3.19-1.7,7.18-1.73,7.82.16,1.84,3.49,3.52,8.73,4.41,5.77.97,9.49-1.53,10.18-2.26h0s.13-.17.33-.6Z"/>
      <path class="cls-4" d="m238.04,181.58c.21-.19.42-.4.68-.5.26-.1.61-.06.76.18.25.38-.16.86-.21,1.31-.06.49.32.93.69,1.26.85.76,1.16,1.16.64,2.25-.25.52-.68,1.09-1.26,1.03-.38-.04-.67-.34-.96-.59-2.24-2.04-4.31-2.15-6.66-.23-.25.21-.49.43-.79.55-.3.12-.69.09-.9-.16-.29-.35-.07-.89.26-1.2.33-.31.75-.52.99-.91.6-.98-1.22-2.2-.14-3.2.1-.09.86-.08,1.22.39.5.67.54,1.16,2.8,1.25,1.53.06,1.74-.42,2.88-1.44Z"/>
      <path class="cls-2" d="m232.01,178.35c.25-.16.16-.54-.14-.57-1.33-.15-3,.78-3.59,2.59-.1.29-.17.66-.18,1.04,0,.29.36.43.55.21.72-.85,1.58-2.11,3.35-3.26Z"/>
      <path class="cls-2" d="m230.92,190c.28-.06.34-.43.1-.58-.63-.38-1.33-.67-2.01-.94-.91-.36-1.4-.54-1.69-.88-.18-.21-.53-.09-.54.18-.02.31.09.68.36,1.04.82,1.05,2.48,1.46,3.79,1.18Z"/>
      <path class="cls-2" d="m242.69,187.22c-.05-.26-.39-.35-.56-.14-.48.59-.8.98-1.2,1.38-.76.76-1.74.97-1.84,1.49-.06.45.97.33,1.47.23,1.41-.22,2.34-1.71,2.12-2.96Z"/>
      <path class="cls-2" d="m238.4,177.82c-.26.07-.31.43-.07.57.79.47,1.87,1.12,2.71,1.83.23.19,1.12,1.17,1.16.87.19-1.6-1.13-3.15-2.83-3.34-.32-.03-.65-.02-.96.06Z"/>
    </g>
    <g>
      <path class="cls-4" d="m97.47,186.52s-.25-10.83-6.1-13.35c-4.72-2.03-13.56-2.21-17.04,3.06-3.48,5.27-1.2,12.55.18,14.01s5.92,4.04,12.27,2.96,10.54-3.3,10.69-6.69Z"/>
      <path class="cls-1" d="m97.6,187.99s-.25-10.83-6.1-13.35c-4.72-2.03-13.56-2.21-17.04,3.06-3.48,5.27-1.2,12.55.18,14.01s5.92,4.04,12.27,2.96,10.54-3.3,10.69-6.69Z"/>
      <path class="cls-5" d="m76.02,189.51c-1.04-2.25-1.85-7.1.4-10.52,1.48-2.25,4.28-3,6.36-3.23,2.65-.29,5.64.1,7.8,1.03,1.16.5,2.15,1.62,2.95,3.34,1.48,3.19,1.7,7.18,1.73,7.82-.16,1.84-3.49,3.52-8.73,4.41-5.77.97-9.49-1.53-10.18-2.26h0s-.13-.17-.33-.6Z"/>
      <path class="cls-4" d="m81.96,181.58c-.21-.19-.42-.4-.68-.5-.26-.1-.61-.06-.76.18-.25.38.16.86.21,1.31.06.49-.32.93-.69,1.26-.85.76-1.16,1.16-.64,2.25.25.52.68,1.09,1.26,1.03.38-.04.67-.34.96-.59,2.24-2.04,4.31-2.15,6.66-.23.25.21.49.43.79.55.3.12.69.09.9-.16.29-.35.07-.89-.26-1.2-.33-.31-.75-.52-.99-.91-.6-.98,1.22-2.2.14-3.2-.1-.09-.86-.08-1.22.39-.5.67-.54,1.16-2.8,1.25-1.53.06-1.74-.42-2.88-1.44Z"/>
      <path class="cls-2" d="m87.99,178.35c-.25-.16-.16-.54.14-.57,1.33-.15,3,.78,3.59,2.59.1.29.17.66.18,1.04,0,.29-.36.43-.55.21-.72-.85-1.58-2.11-3.35-3.26Z"/>
      <path class="cls-2" d="m89.08,190c-.28-.06-.34-.43-.1-.58.63-.38,1.33-.67,2.01-.94.91-.36,1.4-.54,1.69-.88.18-.21.53-.09.54.18.02.31-.09.68-.36,1.04-.82,1.05-2.48,1.46-3.79,1.18Z"/>
      <path class="cls-2" d="m77.31,187.22c.05-.26.39-.35.56-.14.48.59.8.98,1.2,1.38.76.76,1.74.97,1.84,1.49.06.45-.97.33-1.47.23-1.41-.22-2.34-1.71-2.12-2.96Z"/>
      <path class="cls-2" d="m81.6,177.82c.26.07.31.43.07.57-.79.47-1.87,1.12-2.71,1.83-.23.19-1.12,1.17-1.16.87-.19-1.6,1.13-3.15,2.83-3.34.32-.03.65-.02.96.06Z"/>
    </g>
  </g>
</svg>