<?xml version="1.0" encoding="UTF-8"?>
<svg id="Layer_1" data-name="Layer 1" xmlns="http://www.w3.org/2000/svg" viewBox="0 0 320 320">
  <defs>
    <style>
      .cls-1 {
        fill: #b3e2f2;
      }

      .cls-2 {
        fill: #e3f7fc;
      }

      .cls-3 {
        fill: none;
      }

      .cls-4 {
        fill: #9fdaed;
      }

      .cls-5 {
        fill: #cbedfa;
      }
    </style>
  </defs>
  <rect class="cls-3" width="320" height="320"/>
  <g id="_6" data-name="6">
    <g>
      <path class="cls-4" d="m93.9,83.23c3.67,1.43,4.74,3.12,4.28,7.35-.19,1.76-.94,5.39-.89,8.84.04,2.73-1.5,4.34-4.14,4.71-5.38.75-13.8,0-16.5-5.39-2.12-4.22-1.61-11.79,2.19-15.42,2.92-2.79,5.27-2.78,8.75-2.02.79.14,3.97.93,6.31,1.93Z"/>
      <path class="cls-1" d="m96.2,90.43c-.22,1.76-.94,5.39-.89,8.84.04,2.73-1.5,4.34-4.14,4.71-5.38.75-13.06.09-15.76-5.28-2.12-4.22-1.61-11.79,2.19-15.42,2.92-2.79,5.77-2.89,9.25-2.13.79.14,10.21,2.34,9.35,9.28Z"/>
      <path class="cls-5" d="m94.01,90.87c-.07,2.68-.36,5.36-.86,7.99-.18.93-.4,1.88-.99,2.62-.7.88-1.84,1.31-2.96,1.41-1.12.09-2.24-.12-3.35-.33-2.02-.39-4.08-.79-5.91-1.74-1.83-.95-3.44-2.54-3.91-4.55-.27-1.14-.16-2.32-.03-3.48.25-2.3.57-4.67,1.79-6.64,1.52-2.46,4.32-4.03,7.45-3.83,1,.06,1.87.44,2.83.64,1.73.36,3.17.89,4.37,2.28,1.47,1.7,1.64,3.4,1.58,5.64Z"/>
      <path class="cls-4" d="m85.96,90.26c.46-.08.93-.33,1.36-.16.3.12.5.43.57.75.09.41.04.52-.35,3.82-.02.19-.05.38-.13.55-.59,1.18-1.45-.78-1.76-1.06-.36-.31-.93-.44-1.31-.15-.28.21-.39.57-.42.91-.03.34-.01.7-.09,1.03-.08.34-.3.67-.64.75-.43.1-.83-.24-1.13-.56-.43-.46-.85-.96-1.09-1.54-.24-.59-.27-1.29.04-1.83.54-.93,1.82-1.08,1.51-2.84-.1-.55-.56-.97-.63-1.53-.06-.47.3-.7.78-.48.75.34,1.05,1.25,1.64,1.78.46.41,1.06.67,1.66.56Z"/>
      <path class="cls-2" d="m81.82,99.27c-1.88-1.33-2.94-2.93-3.35-5.33-.06-.33-.54-.37-.63-.04-.34,1.15-.17,2.57.6,3.79.77,1.22,1.97,1.97,3.14,2.17.34.06.53-.39.25-.59Z"/>
      <path class="cls-2" d="m83.01,84.79c.27-.17.17-.59-.15-.61-.88-.05-1.88.35-2.59,1.21-.59.71-.92,1.65-.98,2.57-.02.32.39.48.59.22.48-.6.9-1.29,1.43-1.94.45-.55.9-.98,1.69-1.47Z"/>
      <path class="cls-2" d="m88.89,85.83c-1.12.04,1.32.72,1.72,2.24.17,1.04,0,2.4.08,5.21.07,2.52.21,3.24.18,4.18-.04.64-.16,1.26-.55,1.74-.37.49-2.28.45-1.71.81.81.47,2.22.1,2.93-1.29.53-1.03.5-2.41.52-3.35,0-1.86-.06-4.58-.34-6.42-.11-.68-.19-1.05-.52-1.66-.56-1.04-1.55-1.55-2.32-1.46Z"/>
    </g>
    <g>
      <path class="cls-4" d="m226.1,83.23c-3.67,1.43-4.74,3.12-4.28,7.35.19,1.76.94,5.39.89,8.84-.04,2.73,1.5,4.34,4.14,4.71,5.38.75,13.8,0,16.5-5.39,2.12-4.22,1.61-11.79-2.19-15.42-2.92-2.79-5.27-2.78-8.75-2.02-.79.14-3.97.93-6.31,1.93Z"/>
      <path class="cls-1" d="m223.8,90.43c.22,1.76.94,5.39.89,8.84-.04,2.73,1.5,4.34,4.14,4.71,5.38.75,13.06.09,15.76-5.28,2.12-4.22,1.61-11.79-2.19-15.42-2.92-2.79-5.77-2.89-9.25-2.13-.79.14-10.21,2.34-9.35,9.28Z"/>
      <path class="cls-5" d="m225.99,90.87c.07,2.68.36,5.36.86,7.99.18.93.4,1.88.99,2.62.7.88,1.84,1.31,2.96,1.41,1.12.09,2.24-.12,3.35-.33,2.02-.39,4.08-.79,5.91-1.74,1.83-.95,3.44-2.54,3.91-4.55.27-1.14.16-2.32.03-3.48-.25-2.3-.57-4.67-1.79-6.64-1.52-2.46-4.32-4.03-7.45-3.83-1,.06-1.87.44-2.83.64-1.73.36-3.17.89-4.37,2.28-1.47,1.7-1.64,3.4-1.58,5.64Z"/>
      <path class="cls-4" d="m234.04,90.26c-.46-.08-.93-.33-1.36-.16-.3.12-.5.43-.57.75-.09.41-.04.52.35,3.82.02.19.05.38.13.55.59,1.18,1.45-.78,1.76-1.06.36-.31.93-.44,1.31-.15.28.21.39.57.42.91.03.34.01.7.09,1.03.08.34.3.67.64.75.43.1.83-.24,1.13-.56.43-.46.85-.96,1.09-1.54.24-.59.27-1.29-.04-1.83-.54-.93-1.82-1.08-1.51-2.84.1-.55.56-.97.63-1.53.06-.47-.3-.7-.78-.48-.75.34-1.05,1.25-1.64,1.78-.46.41-1.06.67-1.66.56Z"/>
      <path class="cls-2" d="m238.18,99.27c1.88-1.33,2.94-2.93,3.35-5.33.06-.33.54-.37.63-.04.34,1.15.17,2.57-.6,3.79-.77,1.22-1.97,1.97-3.14,2.17-.34.06-.53-.39-.25-.59Z"/>
      <path class="cls-2" d="m236.99,84.79c-.27-.17-.17-.59.15-.61.88-.05,1.88.35,2.59,1.21.59.71.92,1.65.98,2.57.02.32-.39.48-.59.22-.48-.6-.9-1.29-1.43-1.94-.45-.55-.9-.98-1.69-1.47Z"/>
      <path class="cls-2" d="m231.11,85.83c1.12.04-1.32.72-1.72,2.24-.17,1.04,0,2.4-.08,5.21-.07,2.52-.21,3.24-.18,4.18.04.64.16,1.26.55,1.74.37.49,2.28.45,1.71.81-.81.47-2.22.1-2.93-1.29-.53-1.03-.5-2.41-.52-3.35,0-1.86.06-4.58.34-6.42.11-.68.19-1.05.52-1.66.56-1.04,1.55-1.55,2.32-1.46Z"/>
    </g>
    <g>
      <path class="cls-4" d="m226.1,241.53c-3.67-1.43-4.74-3.12-4.28-7.35.19-1.76.94-5.39.89-8.84-.04-2.73,1.5-4.34,4.14-4.71,5.38-.75,13.8,0,16.5,5.39,2.12,4.22,1.61,11.79-2.19,15.42-2.92,2.79-5.27,2.78-8.75,2.02-.79-.14-3.97-.93-6.31-1.93Z"/>
      <path class="cls-1" d="m223.8,234.32c.22-1.76.94-5.39.89-8.84-.04-2.73,1.5-4.34,4.14-4.71,5.38-.75,13.06-.09,15.76,5.28,2.12,4.22,1.61,11.79-2.19,15.42-2.92,2.79-5.77,2.89-9.25,2.13-.79-.14-10.21-2.34-9.35-9.28Z"/>
      <path class="cls-5" d="m225.99,233.88c.07-2.68.36-5.36.86-7.99.18-.93.4-1.88.99-2.62.7-.88,1.84-1.31,2.96-1.41,1.12-.09,2.24.12,3.35.33,2.02.39,4.08.79,5.91,1.74,1.83.95,3.44,2.54,3.91,4.55.27,1.14.16,2.32.03,3.48-.25,2.3-.57,4.67-1.79,6.64-1.52,2.46-4.32,4.03-7.45,3.83-1-.06-1.87-.44-2.83-.64-1.73-.36-3.17-.89-4.37-2.28-1.47-1.7-1.64-3.4-1.58-5.64Z"/>
      <path class="cls-4" d="m234.04,234.5c-.46.08-.93.33-1.36.16-.3-.12-.5-.43-.57-.75-.09-.41-.04-.52.35-3.82.02-.19.05-.38.13-.55.59-1.18,1.45.78,1.76,1.06.36.31.93.44,1.31.15.28-.21.39-.57.42-.91.03-.34.01-.7.09-1.03.08-.34.3-.67.64-.75.43-.1.83.24,1.13.56.43.46.85.96,1.09,1.54.24.59.27,1.29-.04,1.83-.54.93-1.82,1.08-1.51,2.84.1.55.56.97.63,1.53.06.47-.3.7-.78.48-.75-.34-1.05-1.25-1.64-1.78-.46-.41-1.06-.67-1.66-.56Z"/>
      <path class="cls-2" d="m238.18,225.49c1.88,1.33,2.94,2.93,3.35,5.33.06.33.54.37.63.04.34-1.15.17-2.57-.6-3.79-.77-1.22-1.97-1.97-3.14-2.17-.34-.06-.53.39-.25.59Z"/>
      <path class="cls-2" d="m236.99,239.96c-.27.17-.17.59.15.61.88.05,1.88-.35,2.59-1.21.59-.71.92-1.65.98-2.57.02-.32-.39-.48-.59-.22-.48.6-.9,1.29-1.43,1.94-.45.55-.9.98-1.69,1.47Z"/>
      <path class="cls-2" d="m231.11,238.93c1.12-.04-1.32-.72-1.72-2.24-.17-1.04,0-2.4-.08-5.21-.07-2.52-.21-3.24-.18-4.18.04-.64.16-1.26.55-1.74.37-.49,2.28-.45,1.71-.81-.81-.47-2.22-.1-2.93,1.29-.53,1.03-.5,2.41-.52,3.35,0,1.86.06,4.58.34,6.42.11.68.19,1.05.52,1.66.56,1.04,1.55,1.55,2.32,1.46Z"/>
    </g>
    <g>
      <g>
        <path class="cls-1" d="m169.14,296.48c9.17,0,12.9,9.54,13.12,15.31,0,.03,0,.04,0,.04,0,.32-2.44,5.45-12.42,5.45s-9.05-2.1-9.25-3.71c-.2-1.62-.64-17.09,8.55-17.09Z"/>
        <path class="cls-4" d="m169.14,296.48c9.14,0,12.89,9.5,13.12,15.27-.13-.74-2.33-12.58-12.44-12.58s-9.22,14.41-9.22,14.41c-.2-1.62-.64-17.09,8.55-17.09Z"/>
      </g>
      <path class="cls-5" d="m163.86,314.9c2.03,1.11,11.48,1.66,15.41-1.97,1.93-1.78-1.29-11.7-8.85-11.49-7.55.22-8.6,12.35-6.57,13.45Z"/>
      <path class="cls-2" d="m164.2,313.64c-.13-.02-.19.16-.07.22,2.06,1.16,7.29,1.87,11.59.14,1.1-.45,2.19-1.08,2.98-1.97.09-.1-.02-.25-.14-.19-3.06,1.51-7.61,1.86-10.94,1.92-.88.01-2.35.03-3.41-.12Z"/>
    </g>
    <g>
      <path class="cls-4" d="m93.9,241.53c3.67-1.43,4.74-3.12,4.28-7.35-.19-1.76-.94-5.39-.89-8.84.04-2.73-1.5-4.34-4.14-4.71-5.38-.75-13.8,0-16.5,5.39-2.12,4.22-1.61,11.79,2.19,15.42,2.92,2.79,5.27,2.78,8.75,2.02.79-.14,3.97-.93,6.31-1.93Z"/>
      <path class="cls-1" d="m96.2,234.32c-.22-1.76-.94-5.39-.89-8.84.04-2.73-1.5-4.34-4.14-4.71-5.38-.75-13.06-.09-15.76,5.28-2.12,4.22-1.61,11.79,2.19,15.42,2.92,2.79,5.77,2.89,9.25,2.13.79-.14,10.21-2.34,9.35-9.28Z"/>
      <path class="cls-5" d="m94.01,233.88c-.07-2.68-.36-5.36-.86-7.99-.18-.93-.4-1.88-.99-2.62-.7-.88-1.84-1.31-2.96-1.41-1.12-.09-2.24.12-3.35.33-2.02.39-4.08.79-5.91,1.74-1.83.95-3.44,2.54-3.91,4.55-.27,1.14-.16,2.32-.03,3.48.25,2.3.57,4.67,1.79,6.64,1.52,2.46,4.32,4.03,7.45,3.83,1-.06,1.87-.44,2.83-.64,1.73-.36,3.17-.89,4.37-2.28,1.47-1.7,1.64-3.4,1.58-5.64Z"/>
      <path class="cls-4" d="m85.96,234.5c.46.08.93.33,1.36.16.3-.12.5-.43.57-.75.09-.41.04-.52-.35-3.82-.02-.19-.05-.38-.13-.55-.59-1.18-1.45.78-1.76,1.06-.36.31-.93.44-1.31.15-.28-.21-.39-.57-.42-.91-.03-.34-.01-.7-.09-1.03-.08-.34-.3-.67-.64-.75-.43-.1-.83.24-1.13.56-.43.46-.85.96-1.09,1.54-.24.59-.27,1.29.04,1.83.54.93,1.82,1.08,1.51,2.84-.1.55-.56.97-.63,1.53-.06.47.3.7.78.48.75-.34,1.05-1.25,1.64-1.78.46-.41,1.06-.67,1.66-.56Z"/>
      <path class="cls-2" d="m81.82,225.49c-1.88,1.33-2.94,2.93-3.35,5.33-.06.33-.54.37-.63.04-.34-1.15-.17-2.57.6-3.79.77-1.22,1.97-1.97,3.14-2.17.34-.06.53.39.25.59Z"/>
      <path class="cls-2" d="m83.01,239.96c.27.17.17.59-.15.61-.88.05-1.88-.35-2.59-1.21-.59-.71-.92-1.65-.98-2.57-.02-.32.39-.48.59-.22.48.6.9,1.29,1.43,1.94.45.55.9.98,1.69,1.47Z"/>
      <path class="cls-2" d="m88.89,238.93c-1.12-.04,1.32-.72,1.72-2.24.17-1.04,0-2.4.08-5.21.07-2.52.21-3.24.18-4.18-.04-.64-.16-1.26-.55-1.74-.37-.49-2.28-.45-1.71-.81.81-.47,2.22-.1,2.93,1.29.53,1.03.5,2.41.52,3.35,0,1.86-.06,4.58-.34,6.42-.11.68-.19,1.05-.52,1.66-.56,1.04-1.55,1.55-2.32,1.46Z"/>
    </g>
    <g>
      <g>
        <path class="cls-1" d="m150.86,296.48c-9.17,0-12.9,9.54-13.12,15.31,0,.03,0,.04,0,.04,0,.32,2.44,5.45,12.42,5.45s9.05-2.1,9.25-3.71c.2-1.62.64-17.09-8.55-17.09Z"/>
        <path class="cls-4" d="m150.86,296.48c-9.14,0-12.89,9.5-13.12,15.27.13-.74,2.33-12.58,12.44-12.58s9.22,14.41,9.22,14.41c.2-1.62.64-17.09-8.55-17.09Z"/>
      </g>
      <path class="cls-5" d="m156.14,314.9c-2.03,1.11-11.48,1.66-15.41-1.97-1.93-1.78,1.29-11.7,8.85-11.49,7.55.22,8.6,12.35,6.57,13.45Z"/>
      <path class="cls-2" d="m155.8,313.64c.13-.02.19.16.07.22-2.06,1.16-7.29,1.87-11.59.14-1.1-.45-2.19-1.08-2.98-1.97-.09-.1.02-.25.14-.19,3.06,1.51,7.61,1.86,10.94,1.92.88.01,2.35.03,3.41-.12Z"/>
    </g>
  </g>
</svg>