<?xml version="1.0" encoding="UTF-8"?>
<svg id="Layer_1" data-name="Layer 1" xmlns="http://www.w3.org/2000/svg" viewBox="0 0 320 320">
  <defs>
    <style>
      .cls-1 {
        fill: #b3e2f2;
      }

      .cls-2 {
        fill: #e3f7fc;
      }

      .cls-3 {
        fill: none;
      }

      .cls-4 {
        fill: #9fdaed;
      }

      .cls-5 {
        fill: #cbedfa;
      }
    </style>
  </defs>
  <rect class="cls-3" width="320" height="320"/>
  <g id="_10" data-name="10">
    <g>
      <path class="cls-4" d="m98.63,58.39c4.12,1.32,8.46,1.66,9.76,1.26,2-.62,5.54-6.11,5.29-8.18-.16-1.35-2.25-5.14-5.13-8.35-1.68-1.88-3.64-3.55-5.65-4.41-4.23-1.83-7.6,2.5-8.9,4.52-.4.63-.81,1.26-1.21,1.88-1.3,2.01-3.87,6.87-.46,9.97,1.6,1.47,3.92,2.56,6.31,3.33Z"/>
      <path class="cls-1" d="m98.63,58.39c3.25.62,6.22.64,7.29.25,2.08-.76,5.99-6.81,5.82-9.02-.08-1.13-1.31-3.82-3.2-6.51-1.68-1.88-3.64-3.55-5.65-4.41-4.23-1.83-7.6,2.5-8.9,4.52-.4.63-.81,1.26-1.21,1.88-1.3,2.01-3.87,6.87-.46,9.97,1.6,1.47,3.92,2.56,6.31,3.33Z"/>
      <path class="cls-5" d="m107.88,53.52l.06-.1c1.37-2.13,1.54-4.77.44-6.78h0c-1.16-2.12-2.69-3.99-4.56-5.41-.82-.62-1.62-1.11-2.39-1.44-1.52-.66-3.93-.54-6.71,3.78-.45.69-.87,1.34-1.31,2.03-2.8,4.34-1.92,6.58-.7,7.69.72.66,1.67,1.28,2.79,1.84,1.93.96,4.07,1.5,6.27,1.67h0c2.31.18,4.67-1.07,6.07-3.22l.04-.06Z"/>
      <path class="cls-2" d="m99.47,40.94c.21-.18.06-.51-.2-.43-.8.28-1.58.83-2.2,1.42-.92.86-1.64,1.93-2.27,2.9-.63.98-1.31,2.06-1.72,3.26-.28.79-.47,1.74-.41,2.59.02.27.38.28.47.01.59-1.89,1.85-3.51,2.86-5.08,1.04-1.61,1.99-3.39,3.47-4.67Z"/>
      <path class="cls-4" d="m99.09,47.72c-.23-.15-.43-.34-.65-.49-.23-.15-.5-.26-.77-.21-.27.05-.5.31-.46.57.05.27.34.42.59.52.6.25,1.23.47,1.74.88s.89,1.04.81,1.69c-.04.32-.18.71.05.94.22.22.62.09.8-.17.18-.25.21-.57.27-.88.06-.3.19-.62.47-.76.29-.13.63-.02.89.16.26.18.49.41.78.54s.68.11.86-.14c.23-.32-.02-.79-.37-.97s-.76-.19-1.13-.3c-.38-.11-.76-.39-.76-.78,0-.48.56-.8.61-1.27.02-.24-.1-.49-.31-.61s-.49-.11-.68.03c-.44.32-.42,1.03-.87,1.35-.51.36-1.38.19-1.87-.12Z"/>
    </g>
    <g>
      <path class="cls-4" d="m104.34,66.29c-.63-1.56-1.54-3.01-2.83-4.09-2.04-1.7-5-3.45-7.59-4.13-1.17-.31-2.46-.32-3.55.21-5.5,2.68-10.87,15.89-5.66,20.04,1.73,1.37,5.76,2.71,7.95,2.99,1.37.18,3.87.53,5.21.16,4.41-1.23,8.24-10.73,6.46-15.17Z"/>
      <path class="cls-1" d="m102.49,65.53c-.63-1.56-1.54-3.01-2.83-4.09-2.04-1.7-5-3.45-7.59-4.13-1.17-.31-2.46-.32-3.55.21-5.5,2.68-10.87,15.89-5.66,20.04,1.73,1.37,5.76,2.71,7.95,2.99,1.38.18,3.87.53,5.21.16,4.41-1.23,8.24-10.73,6.46-15.17Z"/>
      <path class="cls-5" d="m100.75,67.85c.14,2.87-1.3,6.6-2.94,8.63-2.23,2.75-5.23,3.42-8.66,2.27-1.7-.57-3.25-1.5-4.78-2.43-2.18-1.31-2.83-2.15-2.49-4.62.55-3.89,2.09-7.64,4.45-10.79.69-.93,1.56-1.86,2.7-2.03.86-.13,1.71.2,2.5.55,2.32,1.02,4.43,2.3,6.58,3.61.83.51,1.34.76,1.82,1.67.51.96.77,2.04.83,3.13Z"/>
      <path class="cls-4" d="m92.62,66.35c.22-.43.52-.82.75-1.24.23-.43.37-.93.24-1.4-.14-.47-.63-.84-1.1-.71-.48.13-.69.67-.83,1.14-.33,1.12-.63,2.27-1.27,3.24s-1.7,1.76-2.87,1.72c-.58-.02-1.29-.2-1.66.26-.35.43-.05,1.11.43,1.38.48.27,1.06.27,1.6.33.55.06,1.14.24,1.42.71.29.49.14,1.11-.13,1.61-.27.5-.64.94-.82,1.48s-.08,1.23.41,1.51c.61.35,1.39-.18,1.66-.82s.21-1.38.34-2.06c.13-.69.56-1.42,1.26-1.49.85-.08,1.51.86,2.37.87.43,0,.85-.27,1.03-.66s.11-.88-.18-1.21c-.64-.74-1.9-.56-2.54-1.31-.72-.84-.57-2.43-.11-3.34Z"/>
      <path class="cls-2" d="m85.57,75.73c.44.08.75-.45.46-.79-.57-.67-1.13-1.27-1.23-1.62-.25-.84-.34-1.52-.36-2.18-.02-.47-.62-.65-.88-.27,0,0,0,0,0,0-.33.49-.55,1.16-.57,1.93,0,.84.23,1.54.88,2.11.46.4,1.08.7,1.72.82Z"/>
      <path class="cls-2" d="m90.1,61.94c.29-.27.12-.75-.27-.8-.21-.03-.41-.03-.55-.02-1.63.2-3.36,2.26-3.56,4.54-.04.44.48.69.79.39,1.38-1.31,2.58-3.18,3.59-4.11Z"/>
      <path class="cls-2" d="m92.75,77.01c-.44.22-.2.88.29.79,2.02-.37,4.15-2.02,5.37-5.03.29-.77.57-1.53.73-2.38.13-.84.21-1.71.03-2.58-.18-.95-.57-1.75-1.08-2.38-.32-.39-.92-.02-.72.45.29.68.43,1.39.44,2.09.05,1.5-.61,3.08-1.01,4.13-.87,2.14-2.17,3.98-4.05,4.91Z"/>
    </g>
    <g>
      <path class="cls-4" d="m221.37,58.39c-4.12,1.32-8.46,1.66-9.76,1.26-2-.62-5.54-6.11-5.29-8.18.16-1.35,2.25-5.14,5.13-8.35,1.68-1.88,3.64-3.55,5.65-4.41,4.23-1.83,7.6,2.5,8.9,4.52.4.63.81,1.26,1.21,1.88,1.3,2.01,3.87,6.87.46,9.97-1.6,1.47-3.92,2.56-6.31,3.33Z"/>
      <path class="cls-1" d="m221.37,58.39c-3.25.62-6.22.64-7.29.25-2.08-.76-5.99-6.81-5.82-9.02.08-1.13,1.31-3.82,3.2-6.51,1.68-1.88,3.64-3.55,5.65-4.41,4.23-1.83,7.6,2.5,8.9,4.52.4.63.81,1.26,1.21,1.88,1.3,2.01,3.87,6.87.46,9.97-1.6,1.47-3.92,2.56-6.31,3.33Z"/>
      <path class="cls-5" d="m212.12,53.52l-.06-.1c-1.37-2.13-1.54-4.77-.44-6.78h0c1.16-2.12,2.69-3.99,4.56-5.41.82-.62,1.62-1.11,2.39-1.44,1.52-.66,3.93-.54,6.71,3.78.45.69.87,1.34,1.31,2.03,2.8,4.34,1.92,6.58.7,7.69-.72.66-1.67,1.28-2.79,1.84-1.93.96-4.07,1.5-6.27,1.67h0c-2.31.18-4.67-1.07-6.07-3.22l-.04-.06Z"/>
      <path class="cls-2" d="m220.53,40.94c-.21-.18-.06-.51.2-.43.8.28,1.58.83,2.2,1.42.92.86,1.64,1.93,2.27,2.9.63.98,1.31,2.06,1.72,3.26.28.79.47,1.74.41,2.59-.02.27-.38.28-.47.01-.59-1.89-1.85-3.51-2.86-5.08-1.04-1.61-1.99-3.39-3.47-4.67Z"/>
      <path class="cls-4" d="m220.91,47.72c.23-.15.43-.34.65-.49.23-.15.5-.26.77-.21.27.05.5.31.46.57-.05.27-.34.42-.59.52-.6.25-1.23.47-1.74.88s-.89,1.04-.81,1.69c.04.32.18.71-.05.94-.22.22-.62.09-.8-.17-.18-.25-.21-.57-.27-.88-.06-.3-.19-.62-.47-.76-.29-.13-.63-.02-.89.16-.26.18-.49.41-.78.54s-.68.11-.86-.14c-.23-.32.02-.79.37-.97s.76-.19,1.13-.3c.38-.11.76-.39.76-.78,0-.48-.56-.8-.61-1.27-.02-.24.1-.49.31-.61s.49-.11.68.03c.44.32.42,1.03.87,1.35.51.36,1.38.19,1.87-.12Z"/>
    </g>
    <g>
      <path class="cls-4" d="m215.66,66.29c.63-1.56,1.54-3.01,2.83-4.09,2.04-1.7,5-3.45,7.59-4.13,1.17-.31,2.46-.32,3.55.21,5.5,2.68,10.87,15.89,5.66,20.04-1.73,1.37-5.76,2.71-7.95,2.99-1.37.18-3.87.53-5.21.16-4.41-1.23-8.24-10.73-6.46-15.17Z"/>
      <path class="cls-1" d="m217.51,65.53c.63-1.56,1.54-3.01,2.83-4.09,2.04-1.7,5-3.45,7.59-4.13,1.17-.31,2.46-.32,3.55.21,5.5,2.68,10.87,15.89,5.66,20.04-1.73,1.37-5.76,2.71-7.95,2.99-1.38.18-3.87.53-5.21.16-4.41-1.23-8.24-10.73-6.46-15.17Z"/>
      <path class="cls-5" d="m219.25,67.85c-.14,2.87,1.3,6.6,2.94,8.63,2.23,2.75,5.23,3.42,8.66,2.27,1.7-.57,3.25-1.5,4.78-2.43,2.18-1.31,2.83-2.15,2.49-4.62-.55-3.89-2.09-7.64-4.45-10.79-.69-.93-1.56-1.86-2.7-2.03-.86-.13-1.71.2-2.5.55-2.32,1.02-4.43,2.3-6.58,3.61-.83.51-1.34.76-1.82,1.67-.51.96-.77,2.04-.83,3.13Z"/>
      <path class="cls-4" d="m227.38,66.35c-.22-.43-.52-.82-.75-1.24-.23-.43-.37-.93-.24-1.4.14-.47.63-.84,1.1-.71.48.13.69.67.83,1.14.33,1.12.63,2.27,1.27,3.24s1.7,1.76,2.87,1.72c.58-.02,1.29-.2,1.66.26.35.43.05,1.11-.43,1.38-.48.27-1.06.27-1.6.33-.55.06-1.14.24-1.42.71-.29.49-.14,1.11.13,1.61.27.5.64.94.82,1.48s.08,1.23-.41,1.51c-.61.35-1.39-.18-1.66-.82s-.21-1.38-.34-2.06c-.13-.69-.56-1.42-1.26-1.49-.85-.08-1.51.86-2.37.87-.43,0-.85-.27-1.03-.66s-.11-.88.18-1.21c.64-.74,1.9-.56,2.54-1.31.72-.84.57-2.43.11-3.34Z"/>
      <path class="cls-2" d="m234.43,75.73c-.44.08-.75-.45-.46-.79.57-.67,1.13-1.27,1.23-1.62.25-.84.34-1.52.36-2.18.02-.47.62-.65.88-.27,0,0,0,0,0,0,.33.49.55,1.16.57,1.93,0,.84-.23,1.54-.88,2.11-.46.4-1.08.7-1.72.82Z"/>
      <path class="cls-2" d="m229.9,61.94c-.29-.27-.12-.75.27-.8.21-.03.41-.03.55-.02,1.63.2,3.36,2.26,3.56,4.54.04.44-.48.69-.79.39-1.38-1.31-2.58-3.18-3.59-4.11Z"/>
      <path class="cls-2" d="m227.25,77.01c.44.22.2.88-.29.79-2.02-.37-4.15-2.02-5.37-5.03-.29-.77-.57-1.53-.73-2.38-.13-.84-.21-1.71-.03-2.58.18-.95.57-1.75,1.08-2.38.32-.39.92-.02.72.45-.29.68-.43,1.39-.44,2.09-.05,1.5.61,3.08,1.01,4.13.87,2.14,2.17,3.98,4.05,4.91Z"/>
    </g>
    <g>
      <path class="cls-4" d="m221.37,266.36c-4.12-1.32-8.46-1.66-9.76-1.26-2,.62-5.54,6.11-5.29,8.18.16,1.35,2.25,5.14,5.13,8.35,1.68,1.88,3.64,3.55,5.65,4.41,4.23,1.83,7.6-2.5,8.9-4.52.4-.63.81-1.26,1.21-1.88,1.3-2.01,3.87-6.87.46-9.97-1.6-1.47-3.92-2.56-6.31-3.33Z"/>
      <path class="cls-1" d="m221.37,266.36c-3.25-.62-6.22-.64-7.29-.25-2.08.76-5.99,6.81-5.82,9.02.08,1.13,1.31,3.82,3.2,6.51,1.68,1.88,3.64,3.55,5.65,4.41,4.23,1.83,7.6-2.5,8.9-4.52.4-.63.81-1.26,1.21-1.88,1.3-2.01,3.87-6.87.46-9.97-1.6-1.47-3.92-2.56-6.31-3.33Z"/>
      <path class="cls-5" d="m212.12,271.23l-.06.1c-1.37,2.13-1.54,4.77-.44,6.78h0c1.16,2.12,2.69,3.99,4.56,5.41.82.62,1.62,1.11,2.39,1.44,1.52.66,3.93.54,6.71-3.78.45-.69.87-1.34,1.31-2.03,2.8-4.34,1.92-6.58.7-7.69-.72-.66-1.67-1.28-2.79-1.84-1.93-.96-4.07-1.5-6.27-1.67h0c-2.31-.18-4.67,1.07-6.07,3.22l-.04.06Z"/>
      <path class="cls-2" d="m220.53,283.82c-.21.18-.06.51.2.43.8-.28,1.58-.83,2.2-1.42.92-.86,1.64-1.93,2.27-2.9.63-.98,1.31-2.06,1.72-3.26.28-.79.47-1.74.41-2.59-.02-.27-.38-.28-.47-.01-.59,1.89-1.85,3.51-2.86,5.08-1.04,1.61-1.99,3.39-3.47,4.67Z"/>
      <path class="cls-4" d="m220.91,277.03c.23.15.43.34.65.49.23.15.5.26.77.21.27-.05.5-.31.46-.57-.05-.27-.34-.42-.59-.52-.6-.25-1.23-.47-1.74-.88s-.89-1.04-.81-1.69c.04-.32.18-.71-.05-.94-.22-.22-.62-.09-.8.17-.18.25-.21.57-.27.88-.06.3-.19.62-.47.76-.29.13-.63.02-.89-.16-.26-.18-.49-.41-.78-.54s-.68-.11-.86.14c-.23.32.02.79.37.97s.76.19,1.13.3c.38.11.76.39.76.78,0,.48-.56.8-.61,1.27-.02.24.1.49.31.61s.49.11.68-.03c.44-.32.42-1.03.87-1.35.51-.36,1.38-.19,1.87.12Z"/>
    </g>
    <g>
      <path class="cls-4" d="m98.63,266.36c4.12-1.32,8.46-1.66,9.76-1.26,2,.62,5.54,6.11,5.29,8.18-.16,1.35-2.25,5.14-5.13,8.35-1.68,1.88-3.64,3.55-5.65,4.41-4.23,1.83-7.6-2.5-8.9-4.52-.4-.63-.81-1.26-1.21-1.88-1.3-2.01-3.87-6.87-.46-9.97,1.6-1.47,3.92-2.56,6.31-3.33Z"/>
      <path class="cls-1" d="m98.63,266.36c3.25-.62,6.22-.64,7.29-.25,2.08.76,5.99,6.81,5.82,9.02-.08,1.13-1.31,3.82-3.2,6.51-1.68,1.88-3.64,3.55-5.65,4.41-4.23,1.83-7.6-2.5-8.9-4.52-.4-.63-.81-1.26-1.21-1.88-1.3-2.01-3.87-6.87-.46-9.97,1.6-1.47,3.92-2.56,6.31-3.33Z"/>
      <path class="cls-5" d="m107.88,271.23l.06.1c1.37,2.13,1.54,4.77.44,6.78h0c-1.16,2.12-2.69,3.99-4.56,5.41-.82.62-1.62,1.11-2.39,1.44-1.52.66-3.93.54-6.71-3.78-.45-.69-.87-1.34-1.31-2.03-2.8-4.34-1.92-6.58-.7-7.69.72-.66,1.67-1.28,2.79-1.84,1.93-.96,4.07-1.5,6.27-1.67h0c2.31-.18,4.67,1.07,6.07,3.22l.04.06Z"/>
      <path class="cls-2" d="m99.47,283.82c.21.18.06.51-.2.43-.8-.28-1.58-.83-2.2-1.42-.92-.86-1.64-1.93-2.27-2.9-.63-.98-1.31-2.06-1.72-3.26-.28-.79-.47-1.74-.41-2.59.02-.27.38-.28.47-.01.59,1.89,1.85,3.51,2.86,5.08,1.04,1.61,1.99,3.39,3.47,4.67Z"/>
      <path class="cls-4" d="m99.09,277.03c-.23.15-.43.34-.65.49-.23.15-.5.26-.77.21-.27-.05-.5-.31-.46-.57.05-.27.34-.42.59-.52.6-.25,1.23-.47,1.74-.88s.89-1.04.81-1.69c-.04-.32-.18-.71.05-.94.22-.22.62-.09.8.17.18.25.21.57.27.88.06.3.19.62.47.76.29.13.63.02.89-.16.26-.18.49-.41.78-.54s.68-.11.86.14c.23.32-.02.79-.37.97s-.76.19-1.13.3c-.38.11-.76.39-.76.78,0,.48.56.8.61,1.27.02.24-.1.49-.31.61s-.49.11-.68-.03c-.44-.32-.42-1.03-.87-1.35-.51-.36-1.38-.19-1.87.12Z"/>
    </g>
  </g>
</svg>