<?xml version="1.0" encoding="UTF-8"?>
<svg id="Layer_1" data-name="Layer 1" xmlns="http://www.w3.org/2000/svg" viewBox="0 0 320 320">
  <defs>
    <style>
      .cls-1 {
        fill: #b3e2f2;
      }

      .cls-2 {
        fill: #e3f7fc;
      }

      .cls-3 {
        fill: none;
      }

      .cls-4 {
        fill: #9fdaed;
      }

      .cls-5 {
        fill: #cbedfa;
      }
    </style>
  </defs>
  <rect class="cls-3" width="320" height="320"/>
  <g id="_12" data-name="12">
    <g>
      <path class="cls-4" d="m91.86,106.82c3.78,1.12,4.98,2.72,4.87,6.97-.05,1.77-.49,5.45-.16,8.89.26,2.72-1.13,4.45-3.74,5.04-5.3,1.19-13.75,1.13-16.88-4.01-2.46-4.03-2.57-11.62.91-15.55,2.68-3.02,5.02-3.21,8.55-2.73.79.07,4.03.6,6.45,1.4Z"/>
      <path class="cls-1" d="m94.74,113.81c-.07,1.77-.49,5.45-.16,8.89.26,2.72-1.13,4.45-3.74,5.04-5.3,1.19-13.01,1.17-16.14-3.97-2.46-4.03-2.57-11.62.91-15.55,2.68-3.02,5.51-3.36,9.05-2.89.79.07,10.37,1.49,10.08,8.48Z"/>
      <path class="cls-5" d="m92.6,114.43c.15,2.68.09,5.37-.2,8.03-.1.94-.24,1.91-.77,2.69-.63.93-1.73,1.46-2.84,1.65-1.11.18-2.24.06-3.36-.06-2.05-.22-4.13-.45-6.04-1.25-1.9-.79-3.63-2.25-4.27-4.21-.36-1.11-.35-2.3-.32-3.47.06-2.31.18-4.71,1.24-6.76,1.31-2.57,3.98-4.38,7.11-4.43,1-.02,1.9.29,2.87.41,1.75.22,3.23.63,4.54,1.91,1.61,1.58,1.91,3.26,2.04,5.49Z"/>
      <path class="cls-4" d="m84.53,114.48c.45-.12.9-.41,1.34-.27.31.1.53.39.63.71.12.4.09.52-.04,3.84,0,.19-.01.38-.08.55-.49,1.22-1.51-.66-1.85-.91-.38-.28-.96-.36-1.32-.04-.26.23-.34.6-.35.94,0,.35.05.69,0,1.03-.05.34-.25.69-.58.8-.42.13-.84-.17-1.17-.47-.47-.43-.93-.88-1.21-1.45-.29-.56-.38-1.26-.11-1.83.46-.97,1.73-1.22,1.27-2.95-.14-.54-.64-.92-.75-1.47-.1-.46.24-.72.74-.54.78.28,1.14,1.16,1.78,1.64.49.37,1.11.58,1.7.42Z"/>
      <path class="cls-2" d="m81.14,123.8c-1.98-1.17-3.17-2.68-3.77-5.03-.08-.33-.57-.32-.64.01-.24,1.18.04,2.58.91,3.73.87,1.15,2.12,1.8,3.31,1.9.34.03.49-.44.2-.61Z"/>
      <path class="cls-2" d="m81.14,109.28c.26-.19.12-.61-.2-.6-.88.02-1.84.5-2.48,1.42-.53.76-.78,1.72-.76,2.64,0,.33.43.45.61.18.42-.64.79-1.36,1.26-2.05.41-.58.82-1.05,1.57-1.6Z"/>
      <path class="cls-2" d="m87.08,109.83c-1.12.13,1.38.61,1.9,2.09.25,1.02.2,2.4.51,5.18.28,2.51.48,3.21.53,4.15.01.64-.06,1.26-.41,1.78-.33.52-2.24.63-1.63.95.85.4,2.22-.08,2.82-1.53.45-1.08.3-2.44.24-3.38-.14-1.85-.44-4.56-.87-6.37-.17-.66-.28-1.03-.66-1.61-.64-.99-1.67-1.42-2.43-1.27Z"/>
    </g>
    <g>
      <path class="cls-4" d="m228.14,106.82c-3.78,1.12-4.98,2.72-4.87,6.97.05,1.77.49,5.45.16,8.89-.26,2.72,1.13,4.45,3.74,5.04,5.3,1.19,13.75,1.13,16.88-4.01,2.46-4.03,2.57-11.62-.91-15.55-2.68-3.02-5.02-3.21-8.55-2.73-.79.07-4.03.6-6.45,1.4Z"/>
      <path class="cls-1" d="m225.26,113.81c.07,1.77.49,5.45.16,8.89-.26,2.72,1.13,4.45,3.74,5.04,5.3,1.19,13.01,1.17,16.14-3.97,2.46-4.03,2.57-11.62-.91-15.55-2.68-3.02-5.51-3.36-9.05-2.89-.79.07-10.37,1.49-10.08,8.48Z"/>
      <path class="cls-5" d="m227.4,114.43c-.15,2.68-.09,5.37.2,8.03.1.94.24,1.91.77,2.69.63.93,1.73,1.46,2.84,1.65,1.11.18,2.24.06,3.36-.06,2.05-.22,4.13-.45,6.04-1.25,1.9-.79,3.63-2.25,4.27-4.21.36-1.11.35-2.3.32-3.47-.06-2.31-.18-4.71-1.24-6.76-1.31-2.57-3.98-4.38-7.11-4.43-1-.02-1.9.29-2.87.41-1.75.22-3.23.63-4.54,1.91-1.61,1.58-1.91,3.26-2.04,5.49Z"/>
      <path class="cls-4" d="m235.47,114.48c-.45-.12-.9-.41-1.34-.27-.31.1-.53.39-.63.71-.12.4-.09.52.04,3.84,0,.19.01.38.08.55.49,1.22,1.51-.66,1.85-.91.38-.28.96-.36,1.32-.04.26.23.34.6.35.94,0,.35-.05.69,0,1.03.05.34.25.69.58.8.42.13.84-.17,1.17-.47.47-.43.93-.88,1.21-1.45.29-.56.38-1.26.11-1.83-.46-.97-1.73-1.22-1.27-2.95.14-.54.64-.92.75-1.47.1-.46-.24-.72-.74-.54-.78.28-1.14,1.16-1.78,1.64-.49.37-1.11.58-1.7.42Z"/>
      <path class="cls-2" d="m238.86,123.8c1.98-1.17,3.17-2.68,3.77-5.03.08-.33.57-.32.64.01.24,1.18-.04,2.58-.91,3.73-.87,1.15-2.12,1.8-3.31,1.9-.34.03-.49-.44-.2-.61Z"/>
      <path class="cls-2" d="m238.86,109.28c-.26-.19-.12-.61.2-.6.88.02,1.84.5,2.48,1.42.53.76.78,1.72.76,2.64,0,.33-.43.45-.61.18-.42-.64-.79-1.36-1.26-2.05-.41-.58-.82-1.05-1.57-1.6Z"/>
      <path class="cls-2" d="m232.92,109.83c1.12.13-1.38.61-1.9,2.09-.25,1.02-.2,2.4-.51,5.18-.28,2.51-.48,3.21-.53,4.15-.01.64.06,1.26.41,1.78.33.52,2.24.63,1.63.95-.85.4-2.22-.08-2.82-1.53-.45-1.08-.3-2.44-.24-3.38.14-1.85.44-4.56.87-6.37.17-.66.28-1.03.66-1.61.64-.99,1.67-1.42,2.43-1.27Z"/>
    </g>
  </g>
</svg>