<?xml version="1.0" encoding="UTF-8"?>
<svg id="Layer_1" data-name="Layer 1" xmlns="http://www.w3.org/2000/svg" viewBox="0 0 320 320">
  <defs>
    <style>
      .cls-1 {
        fill: #b3e2f2;
      }

      .cls-2 {
        fill: #e3f7fc;
      }

      .cls-3 {
        fill: none;
      }

      .cls-4 {
        fill: #9fdaed;
      }

      .cls-5 {
        fill: #cbedfa;
      }
    </style>
  </defs>
  <rect class="cls-3" width="320" height="320"/>
  <g id="_8" data-name="8">
    <g>
      <g>
        <path class="cls-1" d="m146.87,41.18c-12.32,0-17.35-12.83-17.64-20.57,0-.04,0-.06,0-.06,0-.43,3.28-7.33,16.7-7.33s12.16,2.82,12.44,4.99c.27,2.17.86,22.97-11.49,22.97Z"/>
        <path class="cls-4" d="m146.87,41.18c-12.29,0-17.32-12.77-17.63-20.52.17.99,3.13,16.91,16.72,16.91s12.4-19.36,12.4-19.36c.27,2.17.86,22.97-11.49,22.97Z"/>
      </g>
      <path class="cls-5" d="m153.97,16.41c-2.73-1.49-15.44-2.23-20.72,2.64-2.59,2.39,1.74,15.73,11.89,15.44,10.15-.29,11.55-16.6,8.83-18.08Z"/>
      <path class="cls-2" d="m153.52,18.1c.18.02.25-.21.1-.3-2.77-1.56-9.8-2.51-15.58-.19-1.48.61-2.95,1.45-4.01,2.65-.12.13.03.33.19.26,4.11-2.03,10.23-2.5,14.71-2.58,1.18-.02,3.16-.04,4.59.16Z"/>
    </g>
    <g>
      <g>
        <path class="cls-1" d="m173.13,41.18c12.32,0,17.35-12.83,17.64-20.57,0-.04,0-.06,0-.06,0-.43-3.28-7.33-16.7-7.33s-12.16,2.82-12.44,4.99c-.27,2.17-.86,22.97,11.49,22.97Z"/>
        <path class="cls-4" d="m173.13,41.18c12.29,0,17.32-12.77,17.63-20.52-.17.99-3.13,16.91-16.72,16.91s-12.4-19.36-12.4-19.36c-.27,2.17-.86,22.97,11.49,22.97Z"/>
      </g>
      <path class="cls-5" d="m166.03,16.41c2.73-1.49,15.44-2.23,20.72,2.64,2.59,2.39-1.74,15.73-11.89,15.44-10.15-.29-11.55-16.6-8.83-18.08Z"/>
      <path class="cls-2" d="m166.49,18.1c-.18.02-.25-.21-.1-.3,2.77-1.56,9.8-2.51,15.58-.19,1.48.61,2.95,1.45,4.01,2.65.12.13-.03.33-.19.26-4.11-2.03-10.23-2.5-14.71-2.58-1.18-.02-3.16-.04-4.59.16Z"/>
    </g>
  </g>
</svg>