<?xml version="1.0" encoding="UTF-8"?>
<svg id="Layer_1" data-name="Layer 1" xmlns="http://www.w3.org/2000/svg" viewBox="0 0 320 320">
  <defs>
    <style>
      .cls-1 {
        fill: #b3e2f2;
      }

      .cls-2 {
        fill: #e3f7fc;
      }

      .cls-3 {
        fill: none;
      }

      .cls-4 {
        fill: #9fdaed;
      }

      .cls-5 {
        fill: #cbedfa;
      }
    </style>
  </defs>
  <rect class="cls-3" width="320" height="320"/>
  <g id="_14" data-name="14">
    <g>
      <path class="cls-4" d="m71.63,228.52s13.36-5.81,19.72-.1c5.14,4.61,10.36,15.3,5.89,22.52-4.47,7.22-14.63,8.55-17.2,7.7-2.57-.86-8.27-4.94-10.55-13.3-2.28-8.36-1.92-14.73,2.13-16.82Z"/>
      <path class="cls-1" d="m69.77,229.19s13.36-5.81,19.72-.1c5.14,4.61,10.36,15.3,5.89,22.52-4.47,7.22-14.63,8.55-17.2,7.7s-8.27-4.94-10.55-13.3c-2.28-8.36-1.92-14.73,2.13-16.82Z"/>
      <path class="cls-5" d="m80.1,256.38c3.33,0,9.7-1.75,12.6-6.43,1.9-3.08,1.24-6.91.35-9.58-1.14-3.4-3.31-6.82-5.66-8.93-1.26-1.13-3.19-1.71-5.74-1.71-4.72,0-9.72,1.98-10.52,2.3-2.15,1.24-2.33,6.25-.45,13.14,2.07,7.58,7.23,10.71,8.5,11.14h0s.28.07.92.07Z"/>
      <path class="cls-4" d="m86.41,244.65c.35.15.72.29.99.55.27.26.42.71.22,1.03-.33.52-1.14.29-1.72.48-.64.21-.95.91-1.15,1.55-.45,1.46-.76,2.06-2.38,2.04-.78,0-1.71-.22-1.97-.95-.17-.49.03-1.01.18-1.5,1.22-3.89.19-6.47-3.48-8.25-.39-.19-.81-.36-1.12-.66-.31-.3-.5-.79-.32-1.18.26-.55,1.04-.58,1.6-.36.56.22,1.06.62,1.67.69,1.54.18,1.99-2.73,3.83-1.98.17.07.59,1,.21,1.71-.53.99-1.11,1.31.05,4.12.79,1.9,1.5,1.88,3.39,2.7Z"/>
      <path class="cls-2" d="m86.94,235.47c.34.21.75-.11.62-.49-.57-1.7-2.64-3.22-5.19-2.92-.41.04-.9.17-1.37.37-.36.16-.32.69.06.79,1.44.4,3.47.73,5.87,2.25Z"/>
      <path class="cls-2" d="m72.12,240.72c.23.3.72.18.76-.2.11-.98.07-1.99,0-2.98-.08-1.32-.13-2.01.12-2.56.15-.34-.19-.7-.53-.56-.39.16-.78.49-1.06,1.02-.82,1.59-.38,3.85.7,5.28Z"/>
      <path class="cls-2" d="m82.15,253.51c.3-.21.21-.67-.14-.76-.99-.25-1.65-.42-2.36-.68-1.36-.5-2.16-1.58-2.86-1.4-.58.18.15,1.36.55,1.92,1.07,1.59,3.41,1.88,4.81.91Z"/>
      <path class="cls-2" d="m91.2,242.97c-.23-.28-.7-.13-.74.23-.12,1.23-.31,2.91-.71,4.34-.11.39-.8,2.03-.41,1.9,2.06-.67,3.2-3.16,2.47-5.34-.14-.41-.34-.8-.62-1.13Z"/>
    </g>
    <g>
      <path class="cls-4" d="m247.22,228.95s-13.36-5.81-19.72-.1c-5.14,4.61-10.36,15.3-5.89,22.52,4.47,7.22,14.63,8.55,17.2,7.7s8.27-4.94,10.55-13.3c2.28-8.36,1.92-14.73-2.13-16.82Z"/>
      <path class="cls-1" d="m249.09,229.61s-13.36-5.81-19.72-.1c-5.14,4.61-10.36,15.3-5.89,22.52,4.47,7.22,14.63,8.55,17.2,7.7,2.57-.86,8.27-4.94,10.55-13.3,2.28-8.36,1.92-14.73-2.13-16.82Z"/>
      <path class="cls-5" d="m238.76,256.8c-3.33,0-9.7-1.75-12.6-6.43-1.9-3.08-1.24-6.91-.35-9.58,1.14-3.4,3.31-6.82,5.66-8.93,1.26-1.13,3.19-1.71,5.74-1.71,4.72,0,9.72,1.98,10.52,2.3,2.15,1.24,2.33,6.25.45,13.14-2.07,7.58-7.23,10.71-8.5,11.14h0s-.28.07-.92.07Z"/>
      <path class="cls-4" d="m232.44,245.07c-.35.15-.72.29-.99.55s-.42.71-.22,1.03c.33.52,1.14.29,1.72.48.64.21.95.91,1.15,1.55.45,1.46.76,2.06,2.38,2.04.78,0,1.71-.22,1.97-.95.17-.49-.03-1.01-.18-1.5-1.22-3.89-.19-6.47,3.48-8.25.39-.19.81-.36,1.12-.66.31-.3.5-.79.32-1.18-.26-.55-1.04-.58-1.6-.36-.56.22-1.06.62-1.67.69-1.54.18-1.99-2.73-3.83-1.98-.17.07-.59,1-.21,1.71.53.99,1.11,1.31-.05,4.12-.79,1.9-1.5,1.88-3.39,2.7Z"/>
      <path class="cls-2" d="m231.91,235.89c-.34.21-.75-.11-.62-.49.57-1.7,2.64-3.22,5.19-2.92.41.04.9.17,1.37.37.36.16.32.69-.06.79-1.44.4-3.47.73-5.87,2.25Z"/>
      <path class="cls-2" d="m246.73,241.15c-.23.3-.72.18-.76-.2-.11-.98-.07-1.99,0-2.98.08-1.32.13-2.01-.12-2.56-.15-.34.19-.7.53-.56.39.16.78.49,1.06,1.02.82,1.59.38,3.85-.7,5.28Z"/>
      <path class="cls-2" d="m236.7,253.93c-.3-.21-.21-.67.14-.76.99-.25,1.65-.42,2.36-.68,1.36-.5,2.16-1.58,2.86-1.4.58.18-.15,1.36-.55,1.92-1.07,1.59-3.41,1.88-4.81.91Z"/>
      <path class="cls-2" d="m227.65,243.4c.23-.28.7-.13.74.23.12,1.23.31,2.91.71,4.34.11.39.8,2.03.41,1.9-2.06-.67-3.2-3.16-2.47-5.34.14-.41.34-.8.62-1.13Z"/>
    </g>
  </g>
</svg>