<?xml version="1.0" encoding="UTF-8"?>
<svg id="Layer_1" data-name="Layer 1" xmlns="http://www.w3.org/2000/svg" viewBox="0 0 320 320">
  <defs>
    <style>
      .cls-1 {
        fill: #00b8e9;
      }

      .cls-2 {
        fill: #de422f;
      }

      .cls-3 {
        fill: #d43320;
      }

      .cls-4 {
        fill: none;
      }

      .cls-5 {
        fill: #e66251;
      }

      .cls-6 {
        fill: #fc8a71;
      }
    </style>
  </defs>
  <rect class="cls-4" width="320" height="320"/>
  <g>
    <g>
      <path class="cls-5" d="m243.09,143.88s-28.42,0-35.82-12.18c-7.26-11.93-23.52-25.42-45.72-25.42s-38.33,13.57-45.72,25.42c-7.58,12.14-40.04,12.18-40.51,12.18.36-.01,14.19-.56,15.41-8.55,1.25-8.11-2.53-94.27,68.47-94.27s67.23,86.16,68.47,94.27c1.25,8.1,15.42,8.55,15.42,8.55Z"/>
      <path class="cls-2" d="m223.81,115.79c0-68.49-53.21-71.47-64.28-71.34-11.07-.12-64.28,2.85-64.28,71.34,0,0,11.16-56.04,64.28-57.43,53.12,1.39,64.28,57.43,64.28,57.43Z"/>
      <path class="cls-2" d="m116.57,113.04c-1.2.94-2.91-.15-2.55-1.63,1.21-5,2.81-10.07,4.95-14.85,7.97-17.8,20.75-26.09,40.23-26.09s32.26,8.29,40.23,26.1c1.53,3.43,2.79,7,3.83,10.59.41,1.42-1.16,2.58-2.41,1.79-.22-.14-.43-.28-.65-.41-11.64-7.3-25-11.17-38.65-11.17-18.28,0-33.52,6.67-44.97,15.67Z"/>
      <path class="cls-5" d="m256.87,139.14c-2.98,5.56-13.78,4.74-13.78,4.74,0,0-14.17-.45-15.42-8.55-1.24-8.11,2.53-94.27-68.47-94.27s-67.23,86.16-68.47,94.27c-1.23,7.99-15.05,8.54-15.41,8.55h0s-10.8.82-13.78-4.74c-2.98-5.56-3.57-51.86,21.97-84.4,29.47-37.56,75.71-35.9,75.71-35.9,0,0,46.23-1.65,75.71,35.9,25.54,32.54,24.95,78.84,21.97,84.4Z"/>
      <path class="cls-6" d="m61.6,107.02c6.28-38.01,26.1-68.35,62.31-81.93,12.34-4.63,25.34-6.75,35.31-6.68-.56,0,6.76-.31,17.92,1.8,41.77,8.02,71.5,37.52,79.65,86.8l-.42.07c-2.76-11.65-6.46-23.06-12.11-33.44-2.74-5.21-5.79-10.24-9.38-14.84-14.29-18.39-35.12-30.29-58.51-34.56-11.94-2.24-22.76-2.16-34.34,0-16.85,3.09-32.51,10.48-43.19,19.16-10.68,8.39-18.28,17.98-24.7,30.25-5.65,10.37-9.36,21.78-12.12,33.43l-.42-.07Z"/>
      <path class="cls-3" d="m257.12,139.27c-3.82,8.41-26.49,7.52-30.7-1-.48-.88-.36-.6-.64-1.48-.51-1.77-.31-.43-.96-6.62-2.07-24.16-7.95-53.22-25.81-69.73-9.1-8.4-20.45-13.1-32.65-14-1.69-.19,0-.08-6.93-.32-.42,0-5.86.15-6.94.27l-4.57.52c-37,5.87-49.87,40.66-53.8,77.92-.99,9.8-.92,10.69-1.85,12.91-.83,1.54-.62,1.2-1.8,2.61-6.37,6.37-25.46,6.74-29.18-1.07l.5-.27c2.31,4.07,8.88,4.79,13.51,4.57,2.62-.08,6.52-.79,9.49-2.11,4.17-1.88,5.45-4.23,5.7-6.97.36-6.54.61-13.17,1.38-19.71,5.33-46.77,27.95-77.81,75.02-73.87,13.22,1.08,26,6.37,35.73,15.8,9.63,9.3,15.54,21.45,19.29,34.24,5.82,19.87,5.55,38.68,6.07,43.99.46,3.4,2.88,5.37,6.07,6.71,3.76,1.56,9.28,2.44,14.39,1.71,3.11-.44,6.7-1.58,8.2-4.34l.5.27Z"/>
    </g>
    <g>
      <path class="cls-1" d="m145.92,14.34c5.16,0,8.58.43,10.18,1.28,1.01.53,1.04,1.06,1.09,2.01.01.24.03.48.06.71.24,1.92.45,13.58-4.33,18.99-1.62,1.83-3.59,2.72-6.04,2.72-.35,0-.71-.01-1.06-.03-.04,0-.07,0-.11-.01l-.18-.02c-.24-.02-.49-.04-.72-.07-.11-.01-.22-.03-.32-.05l-.18-.03-.19-.03c-.09-.01-.19-.03-.28-.05-.12-.03-.24-.06-.36-.09l-.17-.04-.18-.04c-.08-.02-.15-.03-.22-.05-.15-.04-.3-.09-.44-.14l-.13-.04-.17-.05c-.05-.02-.11-.03-.16-.05-.17-.06-.33-.13-.49-.19l-.09-.03-.15-.06s-.08-.03-.12-.05c-.19-.08-.37-.17-.59-.28l-.14-.06-.09-.04c-.2-.1-.39-.21-.59-.33l-.12-.07-.07-.04c-.19-.11-.38-.24-.56-.36l-.11-.07-.07-.05c-.2-.13-.38-.28-.57-.42l-.1-.07-.04-.03c-.19-.15-.38-.31-.56-.47l-.12-.1c-.19-.17-.38-.34-.56-.52l-.09-.08c-.2-.2-.4-.4-.61-.64-.19-.21-.38-.43-.58-.67-3.57-4.32-5.03-10.16-5.2-13.92.39-.77,3.7-6.36,15.56-6.36m0-1.12c-13.41,0-16.7,6.9-16.7,7.33,0,0,0,.02,0,.06.16,4.36,1.83,10.34,5.46,14.73,0,0,.01.01.02.02.2.24.4.47.6.69,0,0,.02.02.03.03.2.22.41.44.63.65.03.03.06.06.09.09.2.19.4.38.6.56.04.04.09.07.13.11.2.17.4.34.6.5.05.04.1.07.15.11.2.15.41.31.62.45.06.04.13.08.2.13.2.13.4.27.61.39.07.04.14.08.21.12.21.12.42.24.63.35.08.04.17.08.25.12.21.1.42.21.64.3.1.04.2.08.3.12.21.08.42.17.63.25.11.04.23.07.35.11.2.07.41.14.62.19.14.04.29.07.44.1.19.05.38.1.57.14.16.03.34.06.5.09.18.03.36.07.55.09.26.04.53.06.8.08.1,0,.19.02.29.03.37.02.75.04,1.13.04,12.35,0,11.76-20.8,11.49-22.97-.27-2.17.99-4.99-12.44-4.99h0Z"/>
      <path class="cls-1" d="m117.05,21.75c1.81,0,3.29.69,4.54,2.11,1.64,1.88,3.15,4.68,4.35,8.11,2,5.69,2.49,10.88,2.19,12.07-.46,1.88-5.81,5.45-8.18,5.45-.09,0-.17,0-.24-.02-1.22-.23-5.77-2.84-10.13-7.01-2.62-2.51-4.54-5.03-5.56-7.28-2.11-4.65,1.93-8.15,4.53-9.81.75-.48,1.49-.96,2.24-1.44,1.26-.82,3.75-2.19,6.26-2.19m0-1.12c-2.78,0-5.44,1.44-6.87,2.37-.74.49-1.48.96-2.23,1.44-2.39,1.53-7.5,5.6-4.95,11.22,1.2,2.65,3.39,5.31,5.8,7.62,4.16,4,9.02,6.99,10.7,7.31.14.03.29.04.45.04,2.81,0,8.68-3.89,9.27-6.3.41-1.66-.32-7.28-2.22-12.71-1.11-3.17-2.63-6.28-4.56-8.48-1.63-1.86-3.53-2.5-5.38-2.5h0Z"/>
      <path class="cls-1" d="m94.89,39.43c1.03,0,2.04.29,2.98.87,2.12,1.3,4.31,3.58,6.34,6.61,3.14,4.68,5.1,9.9,5.07,11.44-.04,2.27-5.39,8.45-7.64,8.81-.08.01-.22.03-.44.03-1.89,0-6.75-1.07-11.65-3.44-3.27-1.59-5.83-3.43-7.39-5.32-3.4-4.11.6-9.58,2.48-11.73.66-.75,1.32-1.51,1.97-2.28,1.29-1.5,4.69-4.98,8.28-4.98m0-1.12c-3.96,0-7.5,3.49-9.13,5.37-.65.76-1.31,1.52-1.97,2.27-2.11,2.43-6.44,8.42-2.5,13.19,1.86,2.25,4.74,4.15,7.77,5.62,4.73,2.29,9.86,3.55,12.14,3.55.24,0,.45-.01.62-.04,2.77-.45,8.53-7.09,8.58-9.9.04-1.83-2.02-7.27-5.26-12.08-1.89-2.81-4.18-5.41-6.69-6.94-1.2-.73-2.4-1.04-3.57-1.04h0Z"/>
      <path class="cls-1" d="m76.49,68.03c.65,0,1.32.09,2.01.27,1.14.29,2.41.77,3.78,1.42l.06.03.06.02c3.04,1.02,6.65,3.09,9.44,5.4,1.6,1.32,2.88,3.17,3.82,5.5,1.24,3.06.42,8.62-1.98,13.51-1.88,3.83-4.36,6.5-6.64,7.14-.48.14-1.16.2-2.03.2-1.6,0-3.44-.23-4.79-.4l-.33-.04c-2.3-.29-5.84-1.37-8.43-2.57l-.05-.02-.05-.02c-2.27-.81-4.17-1.75-5.22-2.58-2.69-2.13-2.89-6.01-2.59-8.9.79-7.46,5.72-16.08,10.54-18.45.69-.34,1.49-.51,2.39-.51m0-1.12c-1,0-1.99.19-2.88.63-8.01,3.93-15.79,23.21-8.16,29.24,1.26.99,3.35,1.97,5.54,2.75,2.82,1.31,6.48,2.38,8.76,2.67,1.35.17,3.44.45,5.26.45.88,0,1.7-.07,2.34-.25,6.42-1.81,11.97-15.69,9.36-22.15-.92-2.28-2.26-4.38-4.15-5.95-2.65-2.2-6.36-4.44-9.8-5.6-1.34-.63-2.69-1.16-3.98-1.49-.74-.19-1.52-.3-2.29-.3h0Z"/>
      <path class="cls-1" d="m69.25,105.82c1.01,0,2.15.1,3.51.31h.08c.31.05.62.09.98.15,1.16.13,5.65.98,8.88,2.11,4.9,1.55,6.17,3.46,5.92,8.88-.03.63-.1,1.46-.18,2.42-.24,2.78-.57,6.6-.28,10.29.25,3.21-1.28,5.18-4.53,5.84-2.28.47-4.78.71-7.23.71-.45,0-.9,0-1.35-.03h-.04s-.04,0-.04,0c-.44.02-.88.03-1.32.03-4.89,0-11.35-1.09-14.38-6.26-3.13-5.37-3.13-15.56,1.57-20.66,2.45-2.66,4.97-3.79,8.42-3.79m0-1.12c-3.39,0-6.36,1.02-9.25,4.15-5.04,5.47-5.08,16.22-1.71,21.98,3.01,5.16,9.27,6.81,15.34,6.81.46,0,.91,0,1.36-.03.46.02.93.03,1.39.03,2.66,0,5.25-.28,7.46-.73,3.7-.75,5.72-3.17,5.43-7.03-.38-4.88.35-10.07.47-12.57.28-6.01-1.38-8.31-6.7-10-3.4-1.19-7.97-2.03-9.09-2.15-.33-.05-.65-.1-.96-.14-.03,0-.07,0-.1-.01-1.27-.19-2.48-.31-3.64-.31h0Z"/>
      <path class="cls-1" d="m174.08,14.34c11.86,0,15.17,5.59,15.56,6.36-.16,3.64-1.47,8.97-4.65,13.22-.18.24-.36.47-.54.69l-.03.03h-.01c-.18.23-.36.44-.54.63l-.03.03h-.01c-.19.22-.39.42-.61.64l-.07.07c-.18.18-.37.35-.56.52l-.05.04-.09.08c-.18.15-.36.31-.54.45l-.05.03-.1.07c-.19.14-.38.29-.57.42l-.07.04-.11.07c-.19.12-.37.25-.57.37l-.06.03-.11.06c-.2.12-.4.23-.61.34-.03.02-.07.03-.1.05l-.14.06-.05.03c-.17.08-.35.17-.53.25-.05.02-.1.04-.14.06l-.16.06-.12.05c-.14.06-.29.12-.44.17-.06.02-.12.04-.17.06l-.17.05-.14.04c-.14.05-.27.09-.42.13-.07.02-.15.04-.22.05l-.18.04-.17.04c-.12.03-.24.06-.36.09-.09.02-.19.03-.28.05l-.19.03-.18.03c-.11.02-.21.04-.32.05-.24.03-.48.05-.75.07l-.16.02s-.07,0-.11.01c-.35.02-.7.03-1.06.03-2.45,0-4.42-.89-6.04-2.72-4.78-5.41-4.57-17.07-4.34-18.99.03-.23.04-.47.06-.72.05-.95.08-1.48,1.09-2.01,1.59-.85,5.02-1.28,10.18-1.28m0-1.12c-13.43,0-12.16,2.82-12.44,4.99-.27,2.17-.86,22.97,11.49,22.97.38,0,.76-.01,1.13-.04.1,0,.19-.02.29-.03.27-.02.54-.04.8-.08.19-.02.36-.06.55-.09.17-.03.34-.05.5-.09.19-.04.38-.09.57-.14.14-.04.29-.07.44-.1.2-.06.4-.12.6-.19.12-.04.25-.07.37-.12.2-.07.4-.15.6-.23.11-.04.22-.08.33-.13.21-.09.42-.19.63-.3.08-.04.17-.08.26-.12.22-.11.44-.24.66-.36.06-.04.13-.07.19-.11.21-.13.41-.26.61-.39.06-.04.13-.08.19-.12.21-.14.41-.3.62-.45.05-.04.1-.07.15-.11.2-.16.39-.32.58-.48.05-.04.1-.08.15-.12.2-.18.4-.37.6-.56.03-.03.06-.06.09-.09.21-.21.42-.43.63-.65,0,0,.02-.02.03-.03.2-.22.39-.44.58-.67.01-.02.03-.03.04-.04.2-.24.39-.49.58-.74,0,0,0,0,0,0,3.22-4.3,4.72-9.86,4.88-13.99,0-.04,0-.06,0-.06,0-.43-3.28-7.33-16.7-7.33h0Z"/>
      <path class="cls-1" d="m202.95,21.75c2.51,0,5,1.37,6.26,2.18.75.49,1.49.97,2.24,1.44,2.6,1.67,6.64,5.16,4.53,9.81-1.02,2.25-2.94,4.76-5.56,7.27-4.35,4.18-8.91,6.79-10.13,7.01-.07.01-.15.02-.24.02-2.37,0-7.72-3.56-8.18-5.45-.3-1.19.2-6.38,2.19-12.07,1.2-3.43,2.71-6.24,4.35-8.11,1.25-1.42,2.73-2.11,4.54-2.11m0-1.12c-1.85,0-3.76.64-5.38,2.5-1.93,2.21-3.45,5.31-4.56,8.48-1.9,5.43-2.63,11.05-2.22,12.71.59,2.41,6.46,6.3,9.27,6.3.16,0,.31-.01.45-.04,1.68-.31,6.53-3.31,10.7-7.31,2.41-2.31,4.6-4.97,5.8-7.62,2.55-5.62-2.56-9.69-4.95-11.22-.74-.47-1.49-.95-2.23-1.44-1.43-.93-4.1-2.37-6.87-2.37h0Z"/>
      <path class="cls-1" d="m225.11,39.43c3.59,0,6.98,3.49,8.27,4.98.66.77,1.31,1.53,1.97,2.28,1.88,2.16,5.88,7.62,2.48,11.74-1.56,1.89-4.12,3.73-7.39,5.32-4.9,2.37-9.76,3.44-11.65,3.44-.22,0-.36-.01-.44-.03-2.24-.36-7.6-6.54-7.64-8.81-.03-1.53,1.92-6.75,5.07-11.43,2.03-3.03,4.22-5.31,6.34-6.61.96-.59,1.94-.87,2.98-.87m0-1.12c-1.17,0-2.37.3-3.57,1.04-2.51,1.53-4.8,4.12-6.69,6.94-3.23,4.81-5.3,10.25-5.26,12.08.05,2.81,5.81,9.45,8.58,9.9.17.03.38.04.62.04,2.28,0,7.4-1.26,12.14-3.55,3.03-1.47,5.91-3.36,7.77-5.62,3.95-4.77-.38-10.76-2.5-13.19-.66-.75-1.31-1.5-1.97-2.27-1.63-1.88-5.16-5.37-9.13-5.37h0Z"/>
      <path class="cls-1" d="m243.52,68.03c.89,0,1.7.17,2.39.51,4.82,2.37,9.75,10.99,10.54,18.45.31,2.89.11,6.77-2.59,8.9-1.04.82-2.95,1.76-5.22,2.58l-.05.02-.05.02c-2.59,1.2-6.13,2.29-8.43,2.57l-.33.04c-1.34.17-3.18.4-4.79.4-.87,0-1.55-.07-2.03-.2-2.28-.64-4.76-3.31-6.64-7.14-2.4-4.9-3.22-10.46-1.98-13.51.94-2.33,2.23-4.18,3.82-5.5,2.79-2.31,6.41-4.38,9.44-5.4l.06-.02.06-.03c1.37-.65,2.64-1.12,3.78-1.42.69-.18,1.36-.27,2.01-.27m0-1.12c-.77,0-1.55.11-2.29.3-1.29.33-2.64.86-3.98,1.49-3.44,1.16-7.15,3.4-9.8,5.6-1.89,1.57-3.23,3.67-4.15,5.95-2.61,6.47,2.94,20.35,9.36,22.15.64.18,1.45.25,2.34.25,1.82,0,3.91-.28,5.26-.45,2.28-.28,5.94-1.35,8.76-2.67,2.18-.78,4.28-1.76,5.54-2.75,7.63-6.03-.15-25.31-8.16-29.24-.89-.44-1.88-.63-2.88-.63h0Z"/>
      <path class="cls-1" d="m250.74,105.7c3.18,0,5.67,1.09,8.06,3.53,4.86,4.95,5.18,15.14,2.22,20.6-3.17,5.85-10.89,6.72-15.21,6.72h-.28s-.04,0-.04,0h-.04c-.82.06-1.66.09-2.5.09-2.07,0-4.18-.17-6.09-.5-3.27-.56-4.86-2.48-4.71-5.7.17-3.7-.28-7.5-.61-10.28-.11-.95-.21-1.78-.26-2.41-.42-5.4.79-7.35,5.67-9.07,3.16-1.22,7.61-2.21,8.82-2.38.31-.06.62-.11.93-.16l.12-.02c1.53-.28,2.78-.42,3.93-.42m0-1.12c-1.31,0-2.68.17-4.13.44-.03,0-.07.01-.11.02-.31.05-.62.11-.95.17-1.12.16-5.66,1.14-9.02,2.44-5.26,1.85-6.85,4.21-6.39,10.2.19,2.5,1.09,7.66.86,12.55-.18,3.86,1.92,6.21,5.64,6.85,1.89.32,4.04.52,6.28.52.85,0,1.72-.03,2.58-.09.1,0,.19,0,.29,0,6.4,0,13.18-1.75,16.2-7.31,3.19-5.87,2.81-16.61-2.4-21.92-2.83-2.89-5.68-3.87-8.86-3.87h0Z"/>
    </g>
    <g>
      <path class="cls-5" d="m242.05,182.85c-.37,0-.57.03-.57.03,0,0-13.95.45-15.18,8.45-1.23,8,2.49,93.09-67.4,93.09s-66.18-85.09-67.4-93.09c-1.19-7.77-14.38-8.42-15.14-8.45v-.04s32.48-.04,40.02,12.03c7.3,11.69,23.22,25.1,45.15,25.1s37.98-13.32,45.15-25.1c7.3-12.03,35.37-12.03,35.37-12.03h0Z"/>
      <path class="cls-2" d="m158.9,265.49c-19.13,0-31.7-8.18-39.54-25.75-2.13-4.78-3.72-16.78-4.92-21.77-.35-1.47,1.34-2.54,2.52-1.61,11.33,8.94,26.43,15.59,44.56,15.59,13.48,0,26.68-3.81,38.17-11.03.01,0,.02-.01.04-.02,1.24-.78,2.78.37,2.38,1.77-1,3.44-2.21,13.79-3.68,17.08-7.84,17.56-20.4,25.74-39.53,25.74Z"/>
      <path class="cls-5" d="m233.42,270.9c-29.01,37.08-74.52,35.45-74.52,35.45,0,0-45.52,1.63-74.53-35.45-25.14-32.13-24.56-77.85-21.62-83.34,2.93-5.49,13.57-4.69,13.57-4.69h.03c.76.03,13.95.68,15.14,8.45,1.22,8-2.49,93.09,67.4,93.09s66.17-85.09,67.4-93.09c1.22-8,15.18-8.45,15.18-8.45,0,0,.21-.02.57-.03,2.25-.08,10.47-.01,12.99,4.71,2.93,5.49,3.51,51.21-21.62,83.34Z"/>
      <path class="cls-6" d="m62.63,187.49c3.94-7.05,21.86-5.81,27.25.11,1.15,1.22,1.73,2.89,1.87,4.51.37,6.5.63,12.98,1.41,19.42,5.35,46.12,27.33,75.87,73.23,72.21,6.45-.52,12.81-2.11,18.75-4.65,30.49-13.1,39.22-49.34,40.67-82.56.09-1.62.13-3.24.3-4.87.67-5.17,5.84-7.4,10.96-8.41,5.79-1.13,15.28-.95,18.12,4.22l-.24.13c-1.64-2.74-5.06-3.69-8.22-4.05-5.06-.56-10.35.41-13.95,2.03-2.88,1.31-5.04,3.08-5.39,6.24-.34,4.73.24,23.5-5.33,43.7-3.66,13.08-9.25,25.01-19.13,34.66-9.85,9.67-22.82,15.11-36.26,16.27-30.08,2.72-53.18-9.58-65.73-36.48-6.74-15.05-9.3-31.46-10.14-48.05-.5-8.65.38-11.11-1.75-13.57-4.4-5.14-18.03-6.4-23.5-3.23-1.06.6-2,1.41-2.64,2.47l-.24-.13Z"/>
      <path class="cls-3" d="m254.97,219.27c-5.07,30.77-19.01,57.06-45.3,73.13-9.74,5.86-20.77,10.21-33.08,12.58-11.11,2.11-18.22,1.78-17.67,1.78-9.9.07-22.69-2.06-34.8-6.61-35.32-13.32-55.05-43.02-61.29-80.88l.41-.07c2.72,11.49,6.36,22.74,11.91,32.98,8.11,15.52,18.48,27.33,34.87,37.11,12.73,7.38,28.51,12.36,44.66,13.25,18.08.84,37.55-4.24,53.11-13.25,16.24-9.75,26.61-21.28,34.86-37.11,5.55-10.23,9.19-21.49,11.91-32.97l.41.07Z"/>
    </g>
    <g>
      <path class="cls-1" d="m73.38,188.74c2.1,0,5.29.24,8.57,1.4,3.79,1.34,6.65,3.93,7.63,6.94.57,1.74.56,3.67.54,5.53l-.06,8.44-.04,5.46c-.01,1.57-.1,3.06-1.04,3.9-.75.68-1.97.9-3.37,1.1l-1.26.18-1.09.15h-.08s-.08.04-.08.04c-.03,0-.06.02-.09.03-1.85.5-3.76.69-5.78.89-1.01.1-2.06.21-3.09.35-1.08.15-2.08.23-2.99.23-2.22,0-3.99-.46-5.25-1.37-2.07-1.5-2.5-4.35-2.75-7.15l-1.13-12.47c-.25-2.79-.52-5.68.42-8.29,1.34-3.73,4.98-4.85,7.8-5.13l.58-.09h0c.52-.07,1.41-.14,2.55-.14m0-1.12c-1.97,0-3.22.2-3.22.2,0,0,0,.01-.02.03-3.9.39-7.38,2.05-8.75,5.87-1,2.8-.75,5.83-.48,8.77.38,4.16.75,8.31,1.13,12.47.26,2.91.72,6.17,3.21,7.96,1.65,1.19,3.76,1.58,5.91,1.58,1.06,0,2.13-.1,3.15-.24,3.02-.43,6.12-.49,9.07-1.29.02,0,.03-.02.05-.02.78-.11,1.57-.22,2.35-.33,1.42-.2,2.94-.45,3.96-1.38,1.3-1.18,1.39-3.05,1.41-4.73.03-4.63.07-9.27.1-13.9.01-1.98.02-4-.6-5.89-1.17-3.59-4.54-6.32-8.32-7.65-3.37-1.19-6.64-1.46-8.94-1.46h0Z"/>
      <path class="cls-1" d="m83.51,227.03c3.06,0,5.45.75,7.1,2.23,4.92,4.42,9.78,14.47,5.69,21.09-2.35,3.79-6.25,5.64-9.11,6.52l-.05.02-.05.02c-2.29.94-4.91,1.5-7,1.5-.94,0-1.4-.12-1.55-.17-1.83-.61-7.55-4.22-9.82-12.53-2.26-8.29-1.72-13.79,1.53-15.51.18-.08,1.07-.44,2.36-.87h.03s.03-.02.03-.02c1.76-.69,6.34-2.28,10.84-2.28m0-1.12c-4.74,0-9.57,1.7-11.25,2.36-1.53.5-2.49.92-2.49.92-4.05,2.09-4.41,8.46-2.13,16.82,2.28,8.36,7.98,12.45,10.55,13.3.44.15,1.09.23,1.9.23,1.91,0,4.67-.45,7.43-1.59,3.54-1.09,7.41-3.24,9.73-7,4.47-7.22-.76-17.91-5.89-22.52-2.1-1.88-4.96-2.51-7.85-2.51h0Z"/>
      <path class="cls-1" d="m100.3,258.05c.58,0,1.1.07,1.56.21,3.68,1.1,7.09,5.67,8.93,8.12,1.52,2.03,2.89,4.93-.04,9.35-1.36,2.06-2.69,3.32-3.1,3.68l-.08.03-.19.21c-2.86,3.22-6.25,4.36-8.47,4.36-.29,0-.57-.02-.84-.06-2.78-.39-12.74-7.75-13.99-12.07-.9-3.09.53-5.2,1.89-6.41.69-.62,1.51-1.28,2.37-1.91l.05-.04.05-.04.05-.04c2.53-2.25,7.83-5.39,11.81-5.39m0-1.12c-4.21,0-9.77,3.18-12.6,5.71,0,0,0,0-.01.01-.93.68-1.77,1.36-2.46,1.98-1.28,1.15-3.36,3.65-2.22,7.56,1.38,4.76,11.67,12.42,14.92,12.87.31.04.64.07.99.07,2.73,0,6.34-1.4,9.31-4.74,0,0,.01,0,.01,0,0,0,1.7-1.39,3.45-4.04,3.37-5.1,1.55-8.57,0-10.64-2.36-3.15-5.7-7.38-9.51-8.52-.58-.17-1.22-.25-1.88-.25h0Z"/>
      <path class="cls-1" d="m122.92,277.14c.05,0,.1,0,.15,0,1.79.18,6.29,3.26,7.22,4.18.75.74,1.41,3.54.26,12.61-.05.37-.09.68-.11.91-.02.2-.06.38-.13.59-.48,1.52-2.21,3.32-5.02,3.9-.73.15-1.46.23-2.16.23-2.73,0-4.82-1.14-6.34-1.98-.21-.11-.42-.23-.65-.35-2.13-1.14-5.04-2.7-6.29-5.62-.81-1.89.61-6.45,2.11-7.77,2.48-2.19,8.41-6.7,10.96-6.7m0-1.12c-3.29,0-10.05,5.52-11.7,6.98-1.78,1.57-3.45,6.63-2.4,9.06,1.55,3.62,5.27,5.33,7.44,6.52,1.73.95,3.94,2.12,6.88,2.12.75,0,1.54-.08,2.39-.25,2.99-.62,5.22-2.58,5.87-4.66.08-.23.14-.49.18-.8.25-2.25,1.79-12.21-.48-14.45-.9-.89-5.64-4.27-7.9-4.5-.08,0-.17-.01-.26-.01h0Z"/>
      <path class="cls-1" d="m146.86,285.45c2.08,0,6.17,1.49,6.96,1.89.84.43,1.83,2.85,2.08,8.37.08.93.1,1.84.06,2.44-.1,1.44-.64,4.06-3.18,5.47-1.44.8-2.91,1.19-4.52,1.19-1.15,0-2.19-.19-3.25-.4l-.56-.11c-1.87-.36-3.11-.6-4.99-2.78-1.2-1.39-1.2-5.66-.28-7.19l.22-.37c3.96-6.62,5.98-8.26,6.98-8.47.08-.02.23-.04.47-.04m0-1.12c-.26,0-.49.02-.7.06-2.84.59-6.87,7.6-7.93,9.36-1.11,1.84-1.18,6.68.39,8.5,2.33,2.72,3.98,2.82,6.18,3.26,1.01.2,2.18.42,3.47.42,1.53,0,3.24-.31,5.07-1.33,2.73-1.52,3.61-4.25,3.75-6.38.04-.59.03-1.54-.06-2.61-.16-3.41-.72-8.27-2.69-9.28-.92-.47-5.16-2.02-7.48-2.02h0Z"/>
      <path class="cls-1" d="m244.35,188.68c1.13,0,2.02.07,2.54.12l.03.05.56.06c2.82.28,6.47,1.4,7.8,5.13.94,2.61.67,5.5.42,8.29l-.96,10.57-.17,1.89c-.25,2.8-.68,5.66-2.75,7.15-1.26.91-3.03,1.37-5.25,1.37-.91,0-1.91-.08-2.99-.23-1.03-.15-2.08-.25-3.09-.35-2.01-.2-3.92-.39-5.77-.89h-.03s-.08-.04-.08-.04l-.08-.02h-.08s-1.52-.23-1.52-.23l-.83-.12c-1.4-.2-2.62-.42-3.37-1.1-.94-.85-1.03-2.33-1.04-3.9l-.05-6.97-.05-6.93c-.01-1.87-.03-3.8.54-5.53.99-3.01,3.84-5.6,7.63-6.94,3.27-1.16,6.47-1.4,8.57-1.4m0-1.12c-2.3,0-5.57.27-8.94,1.46-3.79,1.34-7.15,4.06-8.33,7.65-.62,1.9-.61,3.91-.6,5.89.03,4.63.07,9.27.1,13.9.01,1.68.11,3.55,1.41,4.73,1.03.93,2.54,1.18,3.96,1.38.78.11,1.57.22,2.35.33.02,0,.03.02.05.02,2.95.8,6.05.86,9.07,1.29,1.02.14,2.09.24,3.15.24,2.14,0,4.26-.39,5.91-1.58,2.49-1.8,2.95-5.05,3.21-7.96.38-4.16.75-8.31,1.13-12.47.27-2.94.52-5.97-.48-8.77-1.37-3.82-4.85-5.48-8.75-5.87-.01-.02-.02-.03-.02-.03,0,0-1.26-.2-3.22-.2h0Z"/>
      <path class="cls-1" d="m235.35,227.46c4.5,0,9.08,1.59,10.84,2.28h.03s.03.02.03.02c1.3.42,2.18.79,2.36.87,3.24,1.71,3.79,7.22,1.53,15.51-2.27,8.31-7.99,11.92-9.82,12.53-.15.05-.61.17-1.55.17-2.1,0-4.71-.56-7-1.5l-.05-.02-.05-.02c-2.86-.88-6.76-2.72-9.11-6.52-4.09-6.62.76-16.67,5.69-21.09,1.65-1.48,4.04-2.23,7.1-2.23m0-1.12c-2.89,0-5.75.63-7.85,2.51-5.14,4.61-10.36,15.3-5.89,22.52,2.32,3.76,6.19,5.91,9.73,7,2.76,1.14,5.52,1.59,7.43,1.59.81,0,1.47-.08,1.9-.23,2.57-.86,8.27-4.94,10.55-13.3,2.28-8.36,1.92-14.73-2.13-16.82,0,0-.97-.42-2.49-.92-1.68-.65-6.51-2.36-11.25-2.36h0Z"/>
      <path class="cls-1" d="m217.76,257.4c3.97,0,9.26,3.13,11.81,5.39h0s.04.04.04.04l.05.04.05.04c.87.63,1.69,1.29,2.37,1.91,1.36,1.22,2.79,3.32,1.89,6.41-1.26,4.33-11.22,11.69-13.99,12.07-.26.04-.55.06-.84.06-2.22,0-5.62-1.15-8.47-4.36l-.19-.2-.07-.03c-.4-.36-1.74-1.62-3.11-3.69-2.92-4.42-1.56-7.32-.04-9.35,1.84-2.45,5.25-7.02,8.93-8.12.46-.14.99-.21,1.56-.21m0-1.12c-.67,0-1.3.08-1.88.25-3.81,1.14-7.15,5.37-9.51,8.52-1.55,2.07-3.37,5.54,0,10.64,1.76,2.66,3.45,4.04,3.45,4.04,0,0,.01,0,.01,0,2.97,3.34,6.58,4.74,9.31,4.74.35,0,.68-.02.99-.07,3.24-.45,13.54-8.12,14.92-12.87,1.14-3.91-.94-6.41-2.22-7.56-.69-.62-1.53-1.3-2.46-1.98,0,0,0,0-.01-.01-2.83-2.53-8.39-5.71-12.6-5.71h0Z"/>
      <path class="cls-1" d="m197.08,276.56c2.55,0,8.48,4.51,10.96,6.7,1.5,1.33,2.93,5.88,2.11,7.77-1.25,2.92-4.16,4.48-6.29,5.62-.23.12-.45.24-.65.35-1.52.84-3.6,1.98-6.34,1.98-.7,0-1.43-.08-2.16-.23-2.81-.58-4.55-2.38-5.04-3.94-.06-.17-.1-.35-.12-.55-.03-.23-.07-.54-.11-.91-1.15-9.08-.49-11.87.27-12.61.93-.92,5.43-4,7.22-4.18.05,0,.1,0,.15,0m0-1.12c-.09,0-.18,0-.26.01-2.26.22-7,3.61-7.9,4.5-2.27,2.25-.73,12.2-.48,14.45.03.31.1.56.18.8.65,2.08,2.87,4.05,5.87,4.66.85.17,1.64.25,2.39.25,2.94,0,5.15-1.17,6.88-2.12,2.17-1.19,5.88-2.89,7.44-6.52,1.04-2.43-.63-7.49-2.4-9.06-1.66-1.46-8.41-6.98-11.7-6.98h0Z"/>
      <path class="cls-1" d="m173.14,285.45c.24,0,.38.02.47.04,1,.21,3.02,1.85,6.98,8.47l.22.37c.93,1.53.92,5.8-.28,7.19-1.88,2.19-3.12,2.43-4.99,2.79l-.56.11c-1.05.21-2.1.4-3.25.4-1.61,0-3.09-.39-4.52-1.19-2.54-1.41-3.08-4.04-3.18-5.47-.04-.6-.02-1.51.06-2.48.25-5.48,1.24-7.9,2.08-8.33.79-.41,4.88-1.89,6.96-1.89m0-1.12c-2.31,0-6.56,1.55-7.48,2.02-1.97,1.01-2.53,5.87-2.69,9.28-.09,1.07-.1,2.01-.06,2.61.14,2.13,1.02,4.86,3.75,6.38,1.83,1.02,3.54,1.33,5.07,1.33,1.29,0,2.46-.22,3.47-.42,2.21-.44,3.85-.55,6.18-3.26,1.56-1.82,1.5-6.66.39-8.5-1.06-1.76-5.09-8.77-7.93-9.36-.2-.04-.44-.06-.7-.06h0Z"/>
    </g>
  </g>
</svg>