<?xml version="1.0" encoding="UTF-8"?>
<svg id="Layer_1" data-name="Layer 1" xmlns="http://www.w3.org/2000/svg" viewBox="0 0 320 320">
  <defs>
    <style>
      .cls-1 {
        fill: #b3e2f2;
      }

      .cls-2 {
        fill: #e3f7fc;
      }

      .cls-3 {
        fill: none;
      }

      .cls-4 {
        fill: #9fdaed;
      }

      .cls-5 {
        fill: #cbedfa;
      }
    </style>
  </defs>
  <rect class="cls-3" width="320" height="320"/>
  <g id="_9" data-name="9">
    <g>
      <path class="cls-4" d="m108.81,43.28c4.16,4,9.02,6.99,10.7,7.31,2.58.48,9.09-3.72,9.72-6.26.41-1.66-.32-7.28-2.22-12.71-1.11-3.17-2.63-6.28-4.56-8.48-4.07-4.64-9.87-1.68-12.26-.13-.74.49-1.48.96-2.23,1.44-2.39,1.53-7.5,5.6-4.95,11.22,1.2,2.65,3.39,5.31,5.8,7.62Z"/>
      <path class="cls-1" d="m108.81,43.28c3.47,2.66,6.89,4.47,8.29,4.66,2.74.38,9.92-4.25,10.71-6.9.4-1.35.17-5.19-.8-9.43-1.11-3.17-2.63-6.28-4.56-8.48-4.07-4.64-9.87-1.68-12.26-.13-.74.49-1.48.96-2.23,1.44-2.39,1.53-7.5,5.6-4.95,11.22,1.2,2.65,3.39,5.31,5.8,7.62Z"/>
      <path class="cls-5" d="m121.63,43.22l.12-.08c2.52-1.63,3.89-4.57,3.51-7.56h0c-.4-3.14-1.33-6.21-2.87-8.98-.67-1.21-1.38-2.25-2.12-3.09-1.47-1.67-4.29-2.97-9.41.33-.82.53-1.6,1.03-2.41,1.55-5.15,3.32-5.13,6.43-4.21,8.45.54,1.2,1.35,2.48,2.4,3.8,1.8,2.27,4.02,4.17,6.49,5.69h0c2.59,1.6,5.86,1.57,8.42-.07l.07-.05Z"/>
      <path class="cls-2" d="m117.5,23.66c.32-.08.29-.56-.04-.61-1.04-.15-2.2.01-3.16.31-1.44.44-2.74,1.24-3.9,1.99-1.16.75-2.42,1.59-3.43,2.72-.68.74-1.31,1.72-1.62,2.74-.1.32.32.55.53.29,1.52-1.82,3.68-2.93,5.55-4.14,1.91-1.23,3.8-2.71,6.06-3.3Z"/>
    </g>
    <g>
      <path class="cls-4" d="m211.19,43.28c-4.16,4-9.02,6.99-10.7,7.31-2.58.48-9.09-3.72-9.72-6.26-.41-1.66.32-7.28,2.22-12.71,1.11-3.17,2.63-6.28,4.56-8.48,4.07-4.64,9.87-1.68,12.26-.13.74.49,1.48.96,2.23,1.44,2.39,1.53,7.5,5.6,4.95,11.22-1.2,2.65-3.39,5.31-5.8,7.62Z"/>
      <path class="cls-1" d="m211.19,43.28c-3.47,2.66-6.89,4.47-8.29,4.66-2.74.38-9.92-4.25-10.71-6.9-.4-1.35-.17-5.19.8-9.43,1.11-3.17,2.63-6.28,4.56-8.48,4.07-4.64,9.87-1.68,12.26-.13.74.49,1.48.96,2.23,1.44,2.39,1.53,7.5,5.6,4.95,11.22-1.2,2.65-3.39,5.31-5.8,7.62Z"/>
      <path class="cls-5" d="m198.37,43.22l-.12-.08c-2.52-1.63-3.89-4.57-3.51-7.56h0c.4-3.14,1.33-6.21,2.87-8.98.67-1.21,1.38-2.25,2.12-3.09,1.47-1.67,4.29-2.97,9.41.33.82.53,1.6,1.03,2.41,1.55,5.15,3.32,5.13,6.43,4.21,8.45-.54,1.2-1.35,2.48-2.4,3.8-1.8,2.27-4.02,4.17-6.49,5.69h0c-2.59,1.6-5.86,1.57-8.42-.07l-.07-.05Z"/>
      <path class="cls-2" d="m202.5,23.66c-.32-.08-.29-.56.04-.61,1.04-.15,2.2.01,3.16.31,1.44.44,2.74,1.24,3.9,1.99,1.16.75,2.42,1.59,3.43,2.72.68.74,1.31,1.72,1.62,2.74.1.32-.32.55-.53.29-1.52-1.82-3.68-2.93-5.55-4.14-1.91-1.23-3.8-2.71-6.06-3.3Z"/>
    </g>
  </g>
</svg>