<?xml version="1.0" encoding="UTF-8"?>
<svg id="Layer_1" data-name="Layer 1" xmlns="http://www.w3.org/2000/svg" viewBox="0 0 320 320">
  <defs>
    <style>
      .cls-1 {
        fill: #b3e2f2;
      }

      .cls-2 {
        fill: #e3f7fc;
      }

      .cls-3 {
        fill: none;
      }

      .cls-4 {
        fill: #9fdaed;
      }

      .cls-5 {
        fill: #cbedfa;
      }
    </style>
  </defs>
  <rect class="cls-3" width="320" height="320"/>
  <g id="_17" data-name="17">
    <g>
      <path class="cls-4" d="m111.69,265.71c1.55,2.07,3.37,5.54,0,10.64-1.76,2.66-3.45,4.04-3.45,4.04,0,0-6.43,2.57-7.92,2.36-3.11-.43-13.01-7.8-14.33-12.37-1.09-3.76.49-6.64,1.72-7.74,3.27-2.93,10.21-6.73,14.48-5.46,3.81,1.14,7.15,5.37,9.51,8.52Z"/>
      <path class="cls-1" d="m109.76,267.33c1.61,2.16,3.51,5.76,0,11.07-3.51,5.31-8.6,7.12-11.84,6.67-3.24-.45-13.54-8.12-14.92-12.87-1.14-3.91.94-6.42,2.22-7.56,3.41-3.05,10.2-7.5,14.64-6.17,3.96,1.18,7.44,5.59,9.89,8.87Z"/>
      <path class="cls-5" d="m98.92,282.61c2.32,0,6.01-1.47,8.74-5.6,2.55-3.87,1.55-6.21.08-8.17-1.69-2.25-5.2-6.94-8.59-7.96-.3-.09-.65-.14-1.04-.14-3.13,0-8,2.9-11.2,5.77-2.32,2.08-1.69,4.26-1.48,4.98,1.07,3.68,10.56,10.76,12.84,11.08.2.03.42.04.64.04h0Z"/>
      <path class="cls-4" d="m101.48,273.23c-.55-.68-.92-1.5-1.07-2.37-.13-.8-.11-1.71-.67-2.29-.45-.46-1.14-.57-1.79-.65-1.54-.19-3.09-.38-4.63-.57-.3-.04-.64-.06-.86.14-.24.22-.22.59-.18.91.29,2.01,1.29,3.92,2.78,5.3,1.52,1.41,5.05,3.52,6.87,1.45.6-.68,0-1.37-.45-1.92Z"/>
      <path class="cls-2" d="m97.03,278.88c-1.58-.81-2.87-1.85-4.23-2.98-1.82-1.55-4.08-3.71-4.46-6.07-.14-.82-.58-.9-.58.04,0,2.73,2.19,5.17,4.23,6.97,1.96,1.69,4.84,3.66,7.43,3.43.97-.08-.72-.56-2.38-1.4Z"/>
      <path class="cls-2" d="m97.41,264.3c1.58.81,2.87,1.85,4.23,2.98,1.82,1.55,4.08,3.71,4.46,6.07.14.82.58.9.58-.04,0-2.73-2.19-5.17-4.23-6.97-1.96-1.69-4.84-3.66-7.43-3.43-.97.08.72.56,2.38,1.4Z"/>
    </g>
    <g>
      <path class="cls-4" d="m206.37,265.05c-1.55,2.07-3.37,5.54,0,10.64,1.76,2.66,3.45,4.04,3.45,4.04,0,0,6.43,2.57,7.92,2.36,3.11-.43,13.01-7.8,14.33-12.37,1.09-3.76-.49-6.64-1.72-7.74-3.27-2.93-10.21-6.73-14.48-5.46-3.81,1.14-7.15,5.37-9.51,8.52Z"/>
      <path class="cls-1" d="m208.3,266.68c-1.61,2.16-3.51,5.76,0,11.07s8.6,7.12,11.84,6.67c3.24-.45,13.54-8.12,14.92-12.87,1.14-3.91-.94-6.41-2.22-7.56-3.41-3.05-10.2-7.5-14.64-6.17-3.96,1.18-7.44,5.59-9.89,8.87Z"/>
      <path class="cls-5" d="m219.14,281.96c-2.32,0-6.01-1.47-8.74-5.6-2.56-3.87-1.55-6.21-.08-8.17,1.69-2.25,5.2-6.94,8.59-7.96.3-.09.65-.14,1.04-.14,3.13,0,8,2.9,11.2,5.77,2.32,2.08,1.69,4.26,1.48,4.98-1.07,3.68-10.56,10.76-12.84,11.08-.2.03-.42.04-.64.04h0Z"/>
      <path class="cls-4" d="m216.58,272.58c.55-.68.92-1.5,1.07-2.37.13-.8.11-1.71.67-2.29.45-.46,1.15-.57,1.79-.65,1.54-.19,3.09-.38,4.63-.57.3-.04.64-.06.86.14.24.22.22.59.18.91-.29,2.01-1.29,3.92-2.78,5.3-1.52,1.41-5.05,3.52-6.87,1.45-.6-.68,0-1.37.45-1.92Z"/>
      <path class="cls-2" d="m221.03,278.23c1.58-.81,2.87-1.85,4.23-2.98,1.82-1.55,4.08-3.71,4.46-6.07.14-.82.58-.9.58.04,0,2.73-2.19,5.17-4.23,6.97-1.96,1.69-4.84,3.66-7.43,3.43-.97-.08.72-.56,2.38-1.4Z"/>
      <path class="cls-2" d="m220.65,263.65c-1.58.81-2.87,1.85-4.23,2.98-1.82,1.55-4.08,3.71-4.46,6.07-.14.82-.58.9-.58-.04,0-2.73,2.19-5.17,4.23-6.97,1.96-1.69,4.84-3.66,7.43-3.43.97.08-.72.56-2.38,1.4Z"/>
    </g>
  </g>
</svg>