<?xml version="1.0" encoding="UTF-8"?>
<svg id="Layer_1" data-name="Layer 1" xmlns="http://www.w3.org/2000/svg" viewBox="0 0 320 320">
  <defs>
    <style>
      .cls-1 {
        fill: #b3e2f2;
      }

      .cls-2 {
        fill: #e3f7fc;
      }

      .cls-3 {
        fill: none;
      }

      .cls-4 {
        fill: #9fdaed;
      }

      .cls-5 {
        fill: #cbedfa;
      }
    </style>
  </defs>
  <rect class="cls-3" width="320" height="320"/>
  <g id="_6" data-name="6">
    <g>
      <path class="cls-4" d="m154.34,286.34c2.58,1.33,2.75,9.26,2.75,11.88-1.93,1.51-.89,2.44-3.51,3.89-3.23,1.8-6.06,1.29-8.17.87-2.11-.42-3.6-.51-5.83-3.11-1.5-1.74-2.4-4.37-1.34-6.13,1.06-1.76,5.09-8.77,7.93-9.36,2.02-.42,7.15,1.43,8.17,1.95Z"/>
      <path class="cls-1" d="m154.06,288.1c2.7,1.39,3.17,7.98,3.02,10.12-.14,2.13-1.02,4.86-3.75,6.38-3.37,1.88-6.33,1.35-8.54.91-2.21-.44-3.85-.55-6.18-3.26-1.56-1.82-1.5-6.66-.39-8.5,1.11-1.84,4.33-7.06,7.3-7.68,2.11-.44,7.47,1.49,8.53,2.03Z"/>
      <path class="cls-5" d="m154.84,298.66c.07-6.04-.96-8.21-1.68-8.57-1.04-.53-5.58-2.05-6.75-1.68-1.81.57-4.83,4.22-6.22,6.52-.78,1.3-1.45,4.49-.02,6.74,1.31,2.07,3.41,2.34,4.83,2.71,2.11.54,3.28.51,5.46-.18,0,0,4.33-1.54,4.38-5.54Z"/>
      <path class="cls-2" d="m140.89,300.39c-.26-.15-.54.17-.36.41.56.76,1.15,1.64,1.95,2.07,1.83.97,3.26,1.19,5.84,1.08.9-.04,1.93-.25,2.77-.7.26-.14.15-.55-.15-.53-2.12.18-8.23-1.26-10.04-2.33Z"/>
    </g>
    <g>
      <path class="cls-4" d="m165.66,286.34c-2.58,1.33-2.75,9.26-2.75,11.88,1.93,1.51.89,2.44,3.51,3.89,3.23,1.8,6.06,1.29,8.17.87,2.11-.42,3.6-.51,5.83-3.11,1.5-1.74,2.4-4.37,1.34-6.13-1.06-1.76-5.09-8.77-7.93-9.36-2.02-.42-7.15,1.43-8.17,1.95Z"/>
      <path class="cls-1" d="m165.94,288.1c-2.7,1.39-3.17,7.98-3.02,10.12.14,2.13,1.02,4.86,3.75,6.38,3.37,1.88,6.33,1.35,8.54.91,2.21-.44,3.85-.55,6.18-3.26,1.56-1.82,1.5-6.66.39-8.5-1.11-1.84-4.33-7.06-7.3-7.68-2.11-.44-7.47,1.49-8.53,2.03Z"/>
      <path class="cls-5" d="m165.16,298.66c-.07-6.04.96-8.21,1.68-8.57,1.04-.53,5.58-2.05,6.75-1.68,1.81.57,4.83,4.22,6.22,6.52.78,1.3,1.45,4.49.02,6.74-1.31,2.07-3.41,2.34-4.83,2.71-2.11.54-3.28.51-5.46-.18,0,0-4.33-1.54-4.38-5.54Z"/>
      <path class="cls-2" d="m179.11,300.39c.26-.15.54.17.36.41-.56.76-1.15,1.64-1.95,2.07-1.83.97-3.26,1.19-5.84,1.08-.9-.04-1.93-.25-2.77-.7-.26-.14-.15-.55.15-.53,2.12.18,8.23-1.26,10.04-2.33Z"/>
    </g>
  </g>
</svg>