<?xml version="1.0" encoding="UTF-8"?>
<svg id="Layer_1" data-name="Layer 1" xmlns="http://www.w3.org/2000/svg" viewBox="0 0 320 320">
  <defs>
    <style>
      .cls-1 {
        fill: #b3e2f2;
      }

      .cls-2 {
        fill: #e3f7fc;
      }

      .cls-3 {
        fill: none;
      }

      .cls-4 {
        fill: #9fdaed;
      }

      .cls-5 {
        fill: #cbedfa;
      }
    </style>
  </defs>
  <rect class="cls-3" width="320" height="320"/>
  <g id="_6bulan" data-name="6bulan">
    <g>
      <path class="cls-4" d="m155.42,286.02c2.61,1.34,2.78,9.36,2.78,12-1.95,1.52-.9,2.46-3.55,3.93-3.26,1.82-6.12,1.3-8.25.88-2.13-.43-3.64-.51-5.89-3.14-1.51-1.76-2.43-4.41-1.35-6.2,1.08-1.78,5.14-8.86,8.01-9.45,2.04-.43,7.22,1.45,8.25,1.97Z"/>
      <path class="cls-1" d="m155.14,287.8c2.72,1.4,3.2,8.06,3.05,10.22-.14,2.15-1.03,4.9-3.79,6.44-3.41,1.9-6.39,1.36-8.62.92-2.23-.45-3.89-.55-6.24-3.3-1.58-1.84-1.51-6.73-.39-8.59,1.12-1.86,4.38-7.13,7.37-7.75,2.13-.44,7.54,1.5,8.61,2.05Z"/>
      <path class="cls-5" d="m155.93,298.47c.07-6.1-.97-8.29-1.7-8.66-1.05-.54-5.64-2.07-6.81-1.7-1.83.58-4.88,4.26-6.28,6.59-.79,1.31-1.46,4.54-.02,6.81,1.32,2.09,3.45,2.37,4.88,2.74,2.13.55,3.31.51,5.51-.18,0,0,4.37-1.55,4.42-5.59Z"/>
      <path class="cls-2" d="m141.84,300.21c-.26-.15-.55.17-.37.41.57.77,1.16,1.66,1.97,2.09,1.85.98,3.29,1.2,5.89,1.09.91-.04,1.95-.25,2.79-.71.27-.14.15-.56-.15-.53-2.14.19-8.32-1.28-10.14-2.36Z"/>
    </g>
    <g>
      <path class="cls-4" d="m166.86,286.02c-2.61,1.34-2.78,9.36-2.78,12,1.95,1.52.9,2.46,3.55,3.93,3.26,1.82,6.12,1.3,8.25.88,2.13-.43,3.64-.51,5.89-3.14,1.51-1.76,2.43-4.41,1.35-6.2-1.08-1.78-5.14-8.86-8.01-9.45-2.04-.43-7.22,1.45-8.25,1.97Z"/>
      <path class="cls-1" d="m167.14,287.8c-2.72,1.4-3.2,8.06-3.05,10.22.14,2.15,1.03,4.9,3.79,6.44,3.41,1.9,6.39,1.36,8.62.92,2.23-.45,3.89-.55,6.24-3.3,1.58-1.84,1.51-6.73.39-8.59-1.12-1.86-4.38-7.13-7.37-7.75-2.13-.44-7.54,1.5-8.61,2.05Z"/>
      <path class="cls-5" d="m166.36,298.47c-.07-6.1.97-8.29,1.7-8.66,1.05-.54,5.64-2.07,6.81-1.7,1.83.58,4.88,4.26,6.28,6.59.79,1.31,1.46,4.54.02,6.81-1.32,2.09-3.45,2.37-4.88,2.74-2.13.55-3.31.51-5.51-.18,0,0-4.37-1.55-4.42-5.59Z"/>
      <path class="cls-2" d="m180.44,300.21c.26-.15.55.17.37.41-.57.77-1.16,1.66-1.97,2.09-1.85.98-3.29,1.2-5.89,1.09-.91-.04-1.95-.25-2.79-.71-.27-.14-.15-.56.15-.53,2.14.19,8.32-1.28,10.14-2.36Z"/>
    </g>
  </g>
</svg>