<?xml version="1.0" encoding="UTF-8"?>
<svg id="Layer_1" data-name="Layer 1" xmlns="http://www.w3.org/2000/svg" viewBox="0 0 320 320">
  <defs>
    <style>
      .cls-1 {
        fill: #b3e2f2;
      }

      .cls-2 {
        fill: #e3f7fc;
      }

      .cls-3 {
        fill: none;
      }

      .cls-4 {
        fill: #9fdaed;
      }

      .cls-5 {
        fill: #cbedfa;
      }
    </style>
  </defs>
  <rect class="cls-3" width="320" height="320"/>
  <g id="_16" data-name="16">
    <g>
      <path class="cls-4" d="m89.07,64.75c5.23,2.54,10.94,3.81,12.76,3.51,2.77-.45,8.53-7.09,8.58-9.9.04-1.83-2.02-7.27-5.26-12.08-1.89-2.81-4.18-5.41-6.69-6.94-5.28-3.23-10.59,1.9-12.7,4.34-.65.76-1.31,1.52-1.97,2.27-2.11,2.43-6.44,8.42-2.5,13.19,1.86,2.25,4.74,4.15,7.77,5.62Z"/>
      <path class="cls-1" d="m89.07,64.75c4.21,1.44,8.15,2.02,9.66,1.71,2.92-.61,9.26-7.93,9.45-10.9.1-1.52-1.03-5.33-3.03-9.27-1.89-2.81-4.18-5.41-6.69-6.94-5.28-3.23-10.59,1.9-12.7,4.34-.65.76-1.31,1.52-1.97,2.27-2.11,2.43-6.44,8.42-2.5,13.19,1.86,2.25,4.74,4.15,7.77,5.62Z"/>
      <path class="cls-5" d="m102.31,60.01l.1-.12c2.23-2.58,2.95-6.05,1.87-8.94h0c-1.15-3.04-2.82-5.81-5.05-8.07-.97-.98-1.95-1.78-2.91-2.36-1.9-1.16-5.12-1.45-9.65,3.77-.72.84-1.41,1.62-2.12,2.45-4.55,5.24-3.8,8.39-2.38,10.11.84,1.02,1.98,2.02,3.37,2.98,2.39,1.65,5.13,2.76,8.03,3.41h0c3.04.68,6.42-.55,8.68-3.14l.06-.07Z"/>
      <path class="cls-2" d="m93.48,41.68c.31-.2.17-.67-.18-.6-1.12.22-2.27.81-3.19,1.47-1.39.97-2.55,2.26-3.57,3.44-1.03,1.18-2.13,2.5-2.91,4.01-.53,1-.96,2.23-1.03,3.37-.02.36.46.44.62.1,1.14-2.4,3.12-4.32,4.77-6.22,1.68-1.94,3.29-4.14,5.5-5.56Z"/>
    </g>
    <g>
      <path class="cls-4" d="m230.93,64.75c-5.23,2.54-10.94,3.81-12.76,3.51-2.77-.45-8.53-7.09-8.58-9.9-.04-1.83,2.02-7.27,5.26-12.08,1.89-2.81,4.18-5.41,6.69-6.94,5.28-3.23,10.59,1.9,12.7,4.34.65.76,1.31,1.52,1.97,2.27,2.11,2.43,6.44,8.42,2.5,13.19-1.86,2.25-4.74,4.15-7.77,5.62Z"/>
      <path class="cls-1" d="m230.93,64.75c-4.21,1.44-8.15,2.02-9.66,1.71-2.92-.61-9.26-7.93-9.45-10.9-.1-1.52,1.03-5.33,3.03-9.27,1.89-2.81,4.18-5.41,6.69-6.94,5.28-3.23,10.59,1.9,12.7,4.34.65.76,1.31,1.52,1.97,2.27,2.11,2.43,6.44,8.42,2.5,13.19-1.86,2.25-4.74,4.15-7.77,5.62Z"/>
      <path class="cls-5" d="m217.69,60.01l-.1-.12c-2.23-2.58-2.95-6.05-1.87-8.94h0c1.15-3.04,2.82-5.81,5.05-8.07.97-.98,1.95-1.78,2.91-2.36,1.9-1.16,5.12-1.45,9.65,3.77.72.84,1.41,1.62,2.12,2.45,4.55,5.24,3.8,8.39,2.38,10.11-.84,1.02-1.98,2.02-3.37,2.98-2.39,1.65-5.13,2.76-8.03,3.41h0c-3.05.68-6.42-.55-8.68-3.14l-.06-.07Z"/>
      <path class="cls-2" d="m226.52,41.68c-.31-.2-.17-.67.18-.6,1.12.22,2.27.81,3.19,1.47,1.39.97,2.55,2.26,3.57,3.44,1.03,1.18,2.13,2.5,2.91,4.01.53,1,.96,2.23,1.03,3.37.02.36-.46.44-.62.1-1.14-2.4-3.12-4.32-4.77-6.22-1.68-1.94-3.29-4.14-5.5-5.56Z"/>
    </g>
  </g>
</svg>