<?xml version="1.0" encoding="UTF-8"?>
<svg id="Layer_1" data-name="Layer 1" xmlns="http://www.w3.org/2000/svg" viewBox="0 0 320 320">
  <defs>
    <style>
      .cls-1 {
        fill: #b3e2f2;
      }

      .cls-2 {
        fill: #e3f7fc;
      }

      .cls-3 {
        fill: none;
      }

      .cls-4 {
        fill: #9fdaed;
      }

      .cls-5 {
        fill: #cbedfa;
      }
    </style>
  </defs>
  <rect class="cls-3" width="320" height="320"/>
  <g id="_10" data-name="10">
    <g>
      <path class="cls-4" d="m131.08,280.53c2.27,2.25.73,12.2.48,14.45-.25,2.25-1.74,2.26-4.98,2.93-3.99.82-6.79-.65-8.87-1.79-2.08-1.14-5.63-2.77-7.12-6.24-1-2.33-1.08-5.38.62-6.88,1.7-1.5,8.78-7.28,11.96-6.97,2.26.22,7,3.61,7.9,4.5Z"/>
      <path class="cls-1" d="m130.21,282.29c2.37,2.35,1.62,10.34,1.35,12.69-.26,2.35-2.67,4.76-6.05,5.46-4.16.86-7.09-.68-9.26-1.87-2.17-1.19-5.88-2.89-7.44-6.52-1.04-2.43.63-7.49,2.4-9.06,1.78-1.57,7.42-5.74,10.74-5.41,2.36.23,7.31,3.77,8.25,4.7Z"/>
      <path class="cls-5" d="m129.05,294.7c.84-6.55.01-10-.62-10.62-.92-.91-5.52-3.99-6.86-3.99-2.09,0-6.46,2.83-8.69,4.79-1.25,1.1-3,4.24-2.25,7.07.69,2.6,3.64,4.54,5.59,5.59,2.11,1.13,3.89,1.52,6.41,1.52,0,0,5.86,0,6.42-4.37Z"/>
      <path class="cls-2" d="m111.82,290.86c-.22-.24-.62,0-.52.31.34.99,1,1.92,1.71,2.63,1.04,1.07,2.33,1.85,3.51,2.53,1.18.68,2.5,1.4,3.94,1.77.96.26,2.11.37,3.14.18.32-.06.34-.53.02-.6-2.29-.51-4.24-1.9-6.15-2.99-1.94-1.11-4.1-2.1-5.64-3.82Z"/>
    </g>
    <g>
      <path class="cls-4" d="m188.92,279.94c-2.27,2.25-.73,12.2-.48,14.45.25,2.25,1.74,2.26,4.98,2.93,3.99.82,6.79-.65,8.87-1.79,2.08-1.14,5.63-2.77,7.12-6.24,1-2.33,1.08-5.38-.62-6.88-1.7-1.5-8.78-7.28-11.96-6.97-2.26.22-7,3.61-7.9,4.5Z"/>
      <path class="cls-1" d="m189.79,281.7c-2.37,2.35-1.62,10.34-1.35,12.69.26,2.35,2.67,4.76,6.05,5.46,4.16.86,7.09-.68,9.26-1.87s5.88-2.89,7.44-6.52c1.04-2.43-.63-7.49-2.4-9.06-1.78-1.57-7.42-5.74-10.74-5.41-2.36.23-7.31,3.77-8.25,4.7Z"/>
      <path class="cls-5" d="m190.95,294.12c-.84-6.55-.01-10,.62-10.62.92-.91,5.52-3.99,6.86-3.99,2.09,0,6.46,2.83,8.69,4.79,1.25,1.1,3,4.24,2.25,7.07-.69,2.6-3.64,4.54-5.59,5.59-2.11,1.13-3.89,1.52-6.41,1.52,0,0-5.86,0-6.42-4.37Z"/>
      <path class="cls-2" d="m208.19,290.27c.22-.24.62,0,.52.31-.34.99-1,1.92-1.71,2.63-1.04,1.07-2.33,1.85-3.51,2.53-1.18.68-2.5,1.4-3.94,1.77-.96.26-2.11.37-3.14.18-.32-.06-.34-.53-.02-.6,2.29-.51,4.24-1.9,6.15-2.99,1.94-1.11,4.1-2.1,5.64-3.82Z"/>
    </g>
  </g>
</svg>