<?xml version="1.0" encoding="UTF-8"?>
<svg id="Layer_1" data-name="Layer 1" xmlns="http://www.w3.org/2000/svg" viewBox="0 0 320 320">
  <defs>
    <style>
      .cls-1 {
        fill: #b3e2f2;
      }

      .cls-2 {
        fill: #e3f7fc;
      }

      .cls-3 {
        fill: none;
      }

      .cls-4 {
        fill: #9fdaed;
      }

      .cls-5 {
        fill: #cbedfa;
      }
    </style>
  </defs>
  <rect class="cls-3" width="320" height="320"/>
  <g id="_10bulan" data-name="10bulan">
    <g>
      <path class="cls-4" d="m108.29,42.18c4.21,4.04,9.11,7.06,10.81,7.38,2.6.49,9.18-3.76,9.81-6.33.42-1.67-.32-7.35-2.24-12.84-1.12-3.21-2.66-6.34-4.61-8.57-4.11-4.69-9.97-1.69-12.38-.13-.75.49-1.5.97-2.25,1.45-2.42,1.55-7.57,5.66-5,11.34,1.21,2.68,3.43,5.36,5.86,7.7Z"/>
      <path class="cls-1" d="m108.29,42.18c3.51,2.69,6.95,4.51,8.38,4.71,2.76.38,10.02-4.29,10.81-6.97.41-1.37.18-5.24-.81-9.52-1.12-3.21-2.66-6.34-4.61-8.57-4.11-4.69-9.97-1.69-12.38-.13-.75.49-1.5.97-2.25,1.45-2.42,1.55-7.57,5.66-5,11.34,1.21,2.68,3.43,5.36,5.86,7.7Z"/>
      <path class="cls-5" d="m121.25,42.11l.12-.08c2.55-1.65,3.93-4.62,3.55-7.63h0c-.4-3.17-1.35-6.27-2.9-9.07-.68-1.22-1.39-2.27-2.14-3.12-1.48-1.69-4.33-3-9.51.33-.83.53-1.61,1.04-2.43,1.57-5.2,3.35-5.18,6.49-4.25,8.54.55,1.21,1.37,2.5,2.43,3.84,1.82,2.29,4.06,4.21,6.55,5.75h0c2.61,1.61,5.92,1.58,8.5-.08l.07-.05Z"/>
      <path class="cls-2" d="m117.07,22.36c.33-.08.3-.57-.04-.61-1.06-.16-2.22.01-3.19.32-1.46.44-2.77,1.25-3.94,2.01-1.17.75-2.45,1.61-3.46,2.75-.68.75-1.33,1.74-1.64,2.77-.1.32.32.55.54.3,1.53-1.84,3.72-2.96,5.6-4.18,1.93-1.24,3.84-2.74,6.12-3.33Z"/>
    </g>
    <g>
      <path class="cls-4" d="m211.71,42.18c-4.21,4.04-9.11,7.06-10.81,7.38-2.6.49-9.18-3.76-9.81-6.33-.42-1.67.32-7.35,2.24-12.84,1.12-3.21,2.66-6.34,4.61-8.57,4.11-4.69,9.97-1.69,12.38-.13.75.49,1.5.97,2.25,1.45,2.42,1.55,7.57,5.66,5,11.34-1.21,2.68-3.43,5.36-5.86,7.7Z"/>
      <path class="cls-1" d="m211.71,42.18c-3.51,2.69-6.95,4.51-8.38,4.71-2.76.38-10.02-4.29-10.81-6.97-.41-1.37-.18-5.24.81-9.52,1.12-3.21,2.66-6.34,4.61-8.57,4.11-4.69,9.97-1.69,12.38-.13.75.49,1.5.97,2.25,1.45,2.42,1.55,7.57,5.66,5,11.34-1.21,2.68-3.43,5.36-5.86,7.7Z"/>
      <path class="cls-5" d="m198.76,42.11l-.12-.08c-2.55-1.65-3.93-4.62-3.55-7.63h0c.4-3.17,1.35-6.27,2.9-9.07.68-1.22,1.39-2.27,2.14-3.12,1.48-1.69,4.33-3,9.51.33.83.53,1.61,1.04,2.43,1.57,5.2,3.35,5.18,6.49,4.25,8.54-.55,1.21-1.37,2.5-2.43,3.84-1.82,2.29-4.06,4.21-6.55,5.75h0c-2.61,1.61-5.92,1.58-8.5-.08l-.07-.05Z"/>
      <path class="cls-2" d="m202.93,22.36c-.33-.08-.3-.57.04-.61,1.06-.16,2.22.01,3.19.32,1.46.44,2.77,1.25,3.94,2.01,1.17.75,2.45,1.61,3.46,2.75.68.75,1.33,1.74,1.64,2.77.1.32-.33.55-.54.3-1.53-1.84-3.72-2.96-5.6-4.18-1.93-1.24-3.84-2.74-6.12-3.33Z"/>
    </g>
  </g>
</svg>