<?xml version="1.0" encoding="UTF-8"?>
<svg id="Layer_1" data-name="Layer 1" xmlns="http://www.w3.org/2000/svg" viewBox="0 0 320 320">
  <defs>
    <style>
      .cls-1 {
        fill: #b3e2f2;
      }

      .cls-2 {
        fill: #e3f7fc;
      }

      .cls-3 {
        fill: none;
      }

      .cls-4 {
        fill: #9fdaed;
      }

      .cls-5 {
        fill: #cbedfa;
      }
    </style>
  </defs>
  <rect class="cls-3" width="320" height="320"/>
  <g id="_13" data-name="13">
    <g>
      <path class="cls-4" d="m96.7,80.25c-.92-2.28-2.26-4.38-4.15-5.95-2.98-2.47-7.31-5.02-11.08-5.99-1.71-.44-3.59-.46-5.17.32-8.01,3.93-15.79,23.21-8.16,29.24,2.52,1.99,8.41,3.92,11.6,4.32,2.01.25,5.65.75,7.6.21,6.42-1.81,11.97-15.69,9.36-22.15Z"/>
      <path class="cls-1" d="m94.01,79.15c-.92-2.28-2.26-4.38-4.15-5.95-2.98-2.47-7.31-5.02-11.08-5.99-1.71-.44-3.59-.46-5.17.32-8.01,3.93-15.79,23.21-8.16,29.24,2.52,1.99,8.41,3.92,11.6,4.32,2.01.25,5.65.75,7.6.21,6.42-1.81,11.97-15.69,9.36-22.15Z"/>
      <path class="cls-5" d="m91.48,82.55c.21,4.18-1.86,9.63-4.26,12.6-3.24,4.02-7.61,5.01-12.62,3.34-2.48-.83-4.74-2.18-6.99-3.52-3.19-1.91-4.14-3.12-3.64-6.73.78-5.68,3.02-11.15,6.44-15.75,1.01-1.35,2.26-2.72,3.93-2.97,1.25-.19,2.49.29,3.65.79,3.38,1.47,6.47,3.33,9.61,5.24,1.21.74,1.95,1.11,2.66,2.43.75,1.4,1.13,2.98,1.22,4.56Z"/>
      <path class="cls-4" d="m79.62,80.4c.32-.63.76-1.19,1.09-1.82.33-.63.54-1.36.34-2.04-.2-.68-.92-1.23-1.61-1.04-.69.2-1,.98-1.21,1.67-.48,1.63-.91,3.31-1.84,4.73s-2.47,2.58-4.17,2.52c-.85-.03-1.88-.28-2.42.38-.5.63-.06,1.62.64,2.02.7.4,1.54.39,2.34.48.8.09,1.67.34,2.08,1.03.42.71.2,1.62-.18,2.35-.39.73-.93,1.37-1.19,2.15s-.12,1.79.6,2.19c.89.5,2.03-.27,2.41-1.21s.3-2.01.49-3.01c.18-1,.82-2.08,1.83-2.18,1.24-.13,2.21,1.25,3.45,1.25.63,0,1.24-.39,1.5-.96s.15-1.29-.26-1.76c-.94-1.07-2.77-.81-3.71-1.9-1.06-1.22-.85-3.54-.18-4.87Z"/>
      <path class="cls-2" d="m69.38,94.1c.65.12,1.09-.66.66-1.16-.83-.98-1.65-1.85-1.8-2.36-.36-1.22-.5-2.22-.53-3.17-.02-.69-.9-.95-1.29-.38,0,0,0,0,0,.01-.48.71-.8,1.7-.82,2.81,0,1.23.34,2.25,1.29,3.07.68.59,1.57,1.01,2.51,1.18Z"/>
      <path class="cls-2" d="m75.93,73.98c.42-.39.17-1.1-.4-1.17-.31-.04-.6-.05-.8-.02-2.37.3-4.88,3.31-5.17,6.64-.05.64.7,1.01,1.16.57,2-1.92,3.75-4.64,5.21-6.01Z"/>
      <path class="cls-2" d="m79.85,95.93c-.65.32-.29,1.29.42,1.16,2.94-.55,6.04-2.96,7.81-7.36.42-1.13.82-2.24,1.06-3.47.19-1.23.3-2.5.03-3.76-.26-1.38-.84-2.56-1.59-3.47-.46-.57-1.34-.02-1.05.65.42.99.63,2.02.64,3.04.09,2.19-.87,4.5-1.45,6.03-1.26,3.12-3.14,5.82-5.88,7.17Z"/>
    </g>
    <g>
      <path class="cls-4" d="m223.3,80.25c.92-2.28,2.26-4.38,4.15-5.95,2.98-2.47,7.31-5.02,11.08-5.99,1.71-.44,3.59-.46,5.17.32,8.01,3.93,15.79,23.21,8.16,29.24-2.52,1.99-8.41,3.92-11.6,4.32-2.01.25-5.65.75-7.6.21-6.42-1.81-11.97-15.69-9.36-22.15Z"/>
      <path class="cls-1" d="m225.99,79.15c.92-2.28,2.26-4.38,4.15-5.95,2.98-2.47,7.31-5.02,11.08-5.99,1.71-.44,3.59-.46,5.17.32,8.01,3.93,15.79,23.21,8.16,29.24-2.52,1.99-8.41,3.92-11.6,4.32-2.01.25-5.65.75-7.6.21-6.42-1.81-11.97-15.69-9.36-22.15Z"/>
      <path class="cls-5" d="m228.52,82.55c-.21,4.18,1.86,9.63,4.26,12.6,3.24,4.02,7.61,5.01,12.62,3.34,2.48-.83,4.74-2.18,6.99-3.52,3.19-1.91,4.14-3.12,3.64-6.73-.78-5.68-3.02-11.15-6.44-15.75-1.01-1.35-2.26-2.72-3.93-2.97-1.25-.19-2.49.29-3.65.79-3.38,1.47-6.47,3.33-9.61,5.24-1.21.74-1.95,1.11-2.66,2.43-.75,1.4-1.13,2.98-1.22,4.56Z"/>
      <path class="cls-4" d="m240.38,80.4c-.32-.63-.76-1.19-1.09-1.82-.33-.63-.54-1.36-.34-2.04.2-.68.92-1.23,1.61-1.04.69.2,1,.98,1.21,1.67.48,1.63.91,3.31,1.84,4.73s2.47,2.58,4.17,2.52c.85-.03,1.88-.28,2.42.38.5.63.06,1.62-.64,2.02-.7.4-1.54.39-2.34.48-.8.09-1.67.34-2.08,1.03-.42.71-.2,1.62.18,2.35.39.73.93,1.37,1.19,2.15.26.78.12,1.79-.6,2.19-.89.5-2.03-.27-2.41-1.21s-.3-2.01-.49-3.01c-.18-1-.82-2.08-1.83-2.18-1.24-.13-2.21,1.25-3.45,1.25-.63,0-1.24-.39-1.5-.96s-.15-1.29.26-1.76c.94-1.07,2.77-.81,3.71-1.9,1.06-1.22.85-3.54.18-4.87Z"/>
      <path class="cls-2" d="m250.62,94.1c-.65.12-1.09-.66-.66-1.16.83-.98,1.65-1.85,1.8-2.36.36-1.22.5-2.22.53-3.17.02-.69.9-.95,1.29-.38,0,0,0,0,0,.01.48.71.8,1.7.82,2.81,0,1.23-.34,2.25-1.29,3.07-.68.59-1.57,1.01-2.51,1.18Z"/>
      <path class="cls-2" d="m244.07,73.98c-.42-.39-.17-1.1.4-1.17.31-.04.6-.05.8-.02,2.37.3,4.88,3.31,5.17,6.64.05.64-.7,1.01-1.16.57-2-1.92-3.75-4.64-5.21-6.01Z"/>
      <path class="cls-2" d="m240.15,95.93c.65.32.29,1.29-.42,1.16-2.94-.55-6.04-2.96-7.81-7.36-.42-1.13-.82-2.24-1.06-3.47-.19-1.23-.3-2.5-.03-3.76.26-1.38.84-2.56,1.59-3.47.46-.57,1.34-.02,1.05.65-.42.99-.63,2.02-.64,3.04-.09,2.19.87,4.5,1.45,6.03,1.26,3.12,3.14,5.82,5.88,7.17Z"/>
    </g>
  </g>
</svg>