<?xml version="1.0" encoding="UTF-8"?>
<svg id="Layer_1" data-name="Layer 1" xmlns="http://www.w3.org/2000/svg" viewBox="0 0 320 320">
  <defs>
    <style>
      .cls-1 {
        fill: #b3e2f2;
      }

      .cls-2 {
        fill: #e3f7fc;
      }

      .cls-3 {
        fill: none;
      }

      .cls-4 {
        fill: #9fdaed;
      }

      .cls-5 {
        fill: #cbedfa;
      }
    </style>
  </defs>
  <rect class="cls-3" width="320" height="320"/>
  <g id="_23" data-name="23">
    <g>
      <path class="cls-4" d="m82.32,189.08c3.79,1.34,7.15,4.06,8.32,7.65.62,1.9.61,3.91.6,5.89-.03,4.63-.07,9.27-.1,13.9-.01,1.68-.11,3.55-1.41,4.73-1.03.93-2.54,1.18-3.96,1.38-3.02.43-6.05.86-9.07,1.29-3.08.44-6.57.79-9.03-.99-2.49-1.8-2.95-5.05-3.21-7.96-.38-4.16-.75-8.31-1.13-12.47-.27-2.94,6.82-14.68,6.82-14.68,0,0,5.92-.94,12.16,1.26Z"/>
      <path class="cls-1" d="m79.9,189.08c12.09,4.14,9.84,32.17,3.48,33.9-2.95.8-6.05.86-9.07,1.29-3.08.44-6.59.43-9.05-1.34-2.49-1.8-2.95-5.05-3.21-7.96-.38-4.16-.75-8.31-1.13-12.47-.27-2.94-.52-5.97.48-8.77,2.53-7.05,12.24-6.79,18.51-4.65Z"/>
      <path class="cls-5" d="m83.55,217.75c-1.26,1.67-3.51,2.18-5.57,2.58-1.92.37-3.86.75-5.81.62-1.95-.13-3.94-.82-5.25-2.27-1.37-1.52-1.81-3.64-2.12-5.66-.72-4.75-.96-9.58-.72-14.38.26-5.14,3.35-6.9,8.16-7.22,4.63-.32,10.98,2.67,11.88,7.21.22,1.11,1.73,16.07-.58,19.13Z"/>
      <path class="cls-4" d="m78.49,211.13c-.67.79-2.33-1.55-2.52,1.64-.04.6-.11,1.42-.7,1.54-.53.11-.91-.54-.92-1.08-.01-.54.15-1.12-.1-1.6-.52-.99-2.07-.58-3.03-1.15-.84-.5-1.49-1.91-.82-2.62,1.63-1.72,2.35-2.9.52-4.33-1.79-1.4-2.5-2.75-1.92-4.37.15-.35.67-.38,1-.18.32.21.52.56.77.86s.62.56.99.46c.58-.15.63-.93.95-1.43.41-.64,1.43-.77,1.99-.25.56.52-.97,1.53-.1,2,.87.48,1.66-1.15,2.45-.88s-.8,2.88-.84,4.05c-.14,3.92,2.95,6.56,2.28,7.35Z"/>
      <path class="cls-2" d="m72.11,218.9c.52-.02.66-.71.19-.94-1.1-.53-2.07-1.26-2.79-2.26-1.05-1.43-1.45-2.21-1.95-3.33-.21-.47-.91-.35-.95.17-.09,1.36.32,2.88,1.37,4.29,1.02,1.41,2.65,2.13,4.12,2.08Z"/>
      <path class="cls-2" d="m68.73,195.19c.3-.38-.06-.94-.52-.78-1.08.36-2.14,1.43-2.58,2.96-.35,1.03-.4,2.47-.05,3.76.13.46.79.46.94,0,.28-.86.55-1.86.62-2.17.41-1.36.76-2.7,1.59-3.76Z"/>
      <path class="cls-2" d="m78.74,195.24c-.48-.12-.84.46-.49.81,2.56,2.59,3.14,8.33,3.82,7.1.19-.41.37-.88.42-1.33.06-.43.1-.87.09-1.31-.05-.9-.25-1.83-.7-2.67-.77-1.43-1.97-2.31-3.14-2.61Z"/>
      <path class="cls-2" d="m82.53,213.44c-.1-.47-.8-.57-.94-.11-.58,1.92-1.32,2.95-2.57,3.89-.45.34-1.93.85-1.73,1.31.16.38,1.63.29,2.44,0,.82-.3,1.56-.81,2.05-1.55.75-1.07.98-2.41.75-3.54Z"/>
    </g>
    <g>
      <path class="cls-4" d="m235.41,189.02c-3.79,1.34-7.15,4.06-8.33,7.65-.62,1.9-.61,3.91-.6,5.89.03,4.63.07,9.27.1,13.9.01,1.68.11,3.55,1.41,4.73,1.03.93,2.54,1.18,3.96,1.38,3.02.43,6.05.86,9.07,1.29,3.08.44,6.57.79,9.03-.99,2.49-1.8,2.95-5.05,3.21-7.96.38-4.16.75-8.31,1.13-12.47.27-2.94-6.82-14.68-6.82-14.68,0,0-5.92-.94-12.16,1.26Z"/>
      <path class="cls-1" d="m237.84,189.02c-12.09,4.14-9.84,32.17-3.48,33.9,2.95.8,6.05.86,9.07,1.29,3.08.44,6.59.43,9.05-1.34,2.49-1.8,2.95-5.05,3.21-7.96.38-4.16.75-8.31,1.13-12.47.27-2.94.52-5.97-.48-8.77-2.53-7.05-12.24-6.79-18.51-4.65Z"/>
      <path class="cls-5" d="m234.19,217.68c1.26,1.67,3.51,2.18,5.57,2.58,1.92.37,3.86.75,5.81.62,1.95-.13,3.94-.82,5.25-2.27,1.37-1.52,1.81-3.64,2.12-5.66.72-4.75.96-9.58.72-14.38-.26-5.14-3.35-6.9-8.16-7.22-4.63-.32-10.98,2.67-11.88,7.21-.22,1.11-1.73,16.07.58,19.13Z"/>
      <path class="cls-4" d="m239.25,211.07c.67.79,2.33-1.55,2.52,1.64.04.6.11,1.42.7,1.54.53.11.91-.54.92-1.08.01-.54-.15-1.12.1-1.6.52-.99,2.07-.58,3.03-1.15.84-.5,1.49-1.91.82-2.62-1.63-1.72-2.35-2.9-.52-4.33,1.79-1.4,2.5-2.75,1.92-4.37-.15-.35-.67-.38-1-.18-.32.21-.52.56-.77.86-.25.3-.62.56-.99.46-.58-.15-.63-.93-.95-1.43-.41-.64-1.43-.77-1.99-.25-.56.52.97,1.53.1,2s-1.66-1.15-2.45-.88c-.79.27.8,2.88.84,4.05.14,3.92-2.95,6.56-2.28,7.35Z"/>
      <path class="cls-2" d="m245.62,218.84c-.52-.02-.66-.71-.19-.94,1.1-.53,2.07-1.26,2.79-2.26,1.05-1.43,1.45-2.21,1.95-3.33.21-.47.91-.35.95.17.09,1.36-.32,2.88-1.37,4.29-1.02,1.41-2.65,2.13-4.12,2.08Z"/>
      <path class="cls-2" d="m249.01,195.12c-.3-.38.06-.94.52-.78,1.08.36,2.14,1.43,2.58,2.96.35,1.03.4,2.47.05,3.76-.13.46-.79.46-.94,0-.28-.86-.55-1.86-.62-2.17-.41-1.36-.76-2.7-1.59-3.76Z"/>
      <path class="cls-2" d="m238.99,195.18c.48-.12.84.46.49.81-2.56,2.59-3.14,8.33-3.82,7.1-.19-.41-.37-.88-.42-1.33-.06-.43-.1-.87-.09-1.31.05-.9.25-1.83.7-2.67.77-1.43,1.97-2.31,3.14-2.61Z"/>
      <path class="cls-2" d="m235.21,213.38c.1-.47.8-.57.94-.11.58,1.92,1.32,2.95,2.57,3.89.45.34,1.93.85,1.73,1.31-.16.38-1.63.29-2.44,0-.82-.3-1.56-.81-2.05-1.55-.75-1.07-.98-2.41-.75-3.54Z"/>
    </g>
  </g>
</svg>