<?xml version="1.0" encoding="UTF-8"?>
<svg id="Layer_1" data-name="Layer 1" xmlns="http://www.w3.org/2000/svg" viewBox="0 0 320 320">
  <defs>
    <style>
      .cls-1 {
        fill: #b3e2f2;
      }

      .cls-2 {
        fill: #e3f7fc;
      }

      .cls-3 {
        fill: none;
      }

      .cls-4 {
        fill: #9fdaed;
      }

      .cls-5 {
        fill: #cbedfa;
      }
    </style>
  </defs>
  <rect class="cls-3" width="320" height="320"/>
  <g id="_25" data-name="25">
    <g>
      <path class="cls-4" d="m83.04,107.32c5.32,1.69,6.98,3.99,6.7,10-.12,2.51-.84,7.69-.47,12.57.3,3.85-1.73,6.27-5.43,7.03-7.53,1.54-19.49,1.22-23.79-6.13-3.37-5.77-3.33-16.52,1.71-21.98,3.87-4.2,7.19-4.4,12.18-3.64,1.12.13,5.69.96,9.09,2.15Z"/>
      <path class="cls-1" d="m86.93,117.29c-.15,2.5-.84,7.69-.47,12.57.3,3.85-1.73,6.27-5.43,7.03-7.53,1.54-18.44,1.3-22.74-6.06-3.37-5.77-3.33-16.52,1.71-21.98,3.87-4.2,7.89-4.6,12.88-3.84,1.12.13,14.64,2.38,14.04,12.28Z"/>
      <path class="cls-5" d="m83.88,118.11c.14,3.79-.02,7.6-.5,11.37-.17,1.32-.4,2.7-1.16,3.79-.91,1.3-2.49,2.02-4.06,2.25-1.58.23-3.18.03-4.76-.17-2.9-.37-5.84-.75-8.51-1.93-2.67-1.18-5.08-3.28-5.93-6.07-.48-1.58-.43-3.27-.36-4.92.14-3.27.39-6.65,1.93-9.54,1.93-3.6,5.75-6.09,10.18-6.08,1.42,0,2.68.46,4.05.66,2.47.36,4.56.98,6.37,2.82,2.23,2.27,2.62,4.66,2.74,7.83Z"/>
      <path class="cls-4" d="m72.46,117.96c.65-.16,1.28-.55,1.91-.35.44.14.74.57.87,1.02.16.58.11.73-.16,5.43-.01.27-.03.54-.14.78-.73,1.72-2.12-.98-2.59-1.33-.54-.41-1.35-.53-1.87-.1-.37.32-.5.84-.52,1.33-.02.49.05.98-.04,1.46-.09.48-.37.97-.84,1.11-.6.18-1.19-.27-1.64-.7-.65-.62-1.29-1.27-1.68-2.08-.39-.81-.5-1.79-.1-2.59.68-1.36,2.48-1.69,1.87-4.15-.19-.77-.88-1.31-1.03-2.11-.12-.66.37-1.01,1.06-.74,1.1.42,1.59,1.67,2.48,2.37.68.54,1.55.85,2.4.65Z"/>
      <path class="cls-2" d="m67.4,131.05c-2.77-1.71-4.41-3.88-5.2-7.23-.11-.47-.8-.47-.9,0-.37,1.66-.02,3.65,1.18,5.3,1.2,1.65,2.95,2.6,4.63,2.78.49.05.71-.6.29-.86Z"/>
      <path class="cls-2" d="m67.8,110.5c.37-.26.19-.85-.26-.85-1.24,0-2.62.66-3.55,1.95-.77,1.06-1.15,2.41-1.15,3.72,0,.46.59.64.86.26.62-.89,1.15-1.9,1.84-2.86.59-.81,1.19-1.46,2.26-2.22Z"/>
      <path class="cls-2" d="m76.2,111.44c-1.58.16,1.93.9,2.63,3.01.33,1.45.21,3.4.58,7.35.33,3.56.59,4.56.63,5.88,0,.91-.11,1.79-.62,2.51-.48.73-3.18.84-2.34,1.3,1.19.59,3.15-.05,4.03-2.09.66-1.51.5-3.45.43-4.77-.15-2.63-.5-6.47-1.05-9.04-.22-.94-.37-1.47-.89-2.29-.88-1.42-2.33-2.06-3.41-1.86Z"/>
    </g>
    <g>
      <path class="cls-4" d="m236.53,107.64c-5.26,1.85-6.85,4.21-6.39,10.2.19,2.5,1.09,7.66.86,12.55-.18,3.86,1.92,6.21,5.64,6.85,7.58,1.3,19.52.61,23.58-6.88,3.19-5.87,2.81-16.61-2.4-21.92-4-4.08-7.32-4.17-12.29-3.25-1.12.16-5.66,1.14-9.02,2.44Z"/>
      <path class="cls-1" d="m232.96,117.73c.23,2.5,1.09,7.66.86,12.55-.18,3.86,1.92,6.21,5.64,6.85,7.58,1.3,18.47.72,22.54-6.77,3.19-5.87,2.81-16.61-2.4-21.92-4-4.08-8.03-4.35-13-3.43-1.12.16-14.56,2.84-13.64,12.71Z"/>
      <path class="cls-5" d="m236.03,118.45c-.02,3.8.26,7.59.86,11.34.21,1.32.48,2.68,1.28,3.75.95,1.27,2.55,1.94,4.13,2.12,1.58.18,3.18-.07,4.75-.32,2.88-.46,5.81-.93,8.44-2.19,2.63-1.26,4.98-3.44,5.73-6.25.43-1.6.33-3.28.2-4.93-.24-3.26-.6-6.64-2.23-9.48-2.04-3.54-5.93-5.9-10.37-5.76-1.42.05-2.66.54-4.03.78-2.46.44-4.52,1.12-6.28,3.02-2.16,2.34-2.47,4.74-2.5,7.91Z"/>
      <path class="cls-4" d="m247.44,117.94c-.65-.14-1.3-.51-1.92-.29-.44.16-.72.59-.83,1.04-.14.58-.09.74.33,5.43.02.26.05.54.16.78.78,1.69,2.09-1.04,2.54-1.42.52-.43,1.34-.58,1.86-.16.38.3.52.82.56,1.31.03.49-.02.98.09,1.46s.4.96.87,1.08c.6.16,1.18-.3,1.62-.75.63-.64,1.25-1.31,1.61-2.13.36-.82.45-1.81.02-2.6-.73-1.34-2.53-1.61-2-4.09.17-.78.84-1.34.96-2.14.1-.66-.4-1-1.09-.71-1.08.45-1.54,1.72-2.4,2.44-.66.56-1.52.9-2.38.72Z"/>
      <path class="cls-2" d="m252.91,130.88c2.72-1.79,4.29-4.02,4.98-7.39.1-.47.78-.49.9-.03.42,1.65.13,3.65-1.02,5.34-1.14,1.69-2.87,2.69-4.54,2.93-.49.07-.73-.58-.32-.85Z"/>
      <path class="cls-2" d="m251.87,110.34c-.38-.25-.22-.85.24-.86,1.24-.03,2.64.57,3.61,1.84.8,1.03,1.23,2.37,1.27,3.68.01.46-.57.66-.85.29-.65-.87-1.21-1.87-1.93-2.8-.62-.79-1.23-1.42-2.33-2.15Z"/>
      <path class="cls-2" d="m243.5,111.54c1.59.11-1.9.96-2.53,3.09-.28,1.46-.11,3.4-.35,7.36-.22,3.57-.45,4.57-.45,5.9.03.91.17,1.78.7,2.49.51.72,3.21.74,2.38,1.23-1.17.62-3.15.05-4.09-1.96-.71-1.49-.6-3.43-.58-4.76.07-2.63.3-6.48.77-9.07.19-.95.32-1.48.82-2.32.84-1.44,2.26-2.13,3.35-1.96Z"/>
    </g>
  </g>
</svg>